<svg id="Calque_1" data-name="Calque 1" xmlns="http://www.w3.org/2000/svg" viewBox="0 0 3.31 68.03"><defs><style>.cls-1{fill:#423030;stroke:#000;stroke-miterlimit:10;stroke-width:0.25px;}</style></defs><path class="cls-1" d="M3.86,65.66V61a3.32,3.32,0,0,0,0-4.3v-10a2.63,2.63,0,0,0,.6-1.79A2.62,2.62,0,0,0,3.86,43V32.24a2.41,2.41,0,0,0,.4-1.39,2.35,2.35,0,0,0-.4-1.38V22.55a2.24,2.24,0,0,0,.31-1.18,2.22,2.22,0,0,0-.31-1.18V10.74a2.22,2.22,0,0,0,.31-1.18,2.24,2.24,0,0,0-.31-1.18V1.71A.67.67,0,0,0,3.19,1h0a.67.67,0,0,0-.66.67V8.38a2.24,2.24,0,0,0-.31,1.18,2.22,2.22,0,0,0,.31,1.18v9.45a2.22,2.22,0,0,0-.31,1.18,2.24,2.24,0,0,0,.31,1.18v6.92a2.28,2.28,0,0,0-.4,1.38,2.34,2.34,0,0,0,.4,1.39V43a3,3,0,0,0,0,3.58v10a3.32,3.32,0,0,0,0,4.3v4.68l-.84,3.19h3Z" transform="translate(-1.53 -0.92)"/></svg>