<svg xmlns="http://www.w3.org/2000/svg" viewBox="0 0 493.11 92.79"><defs><style>.cls-1{isolation:isolate;}.cls-2{fill:#c3974e;}.cls-3{fill:#7d411c;}.cls-12,.cls-15,.cls-4{opacity:0.57;}.cls-11,.cls-12,.cls-15,.cls-4,.cls-7{mix-blend-mode:multiply;}.cls-12,.cls-5,.cls-8,.cls-9{fill:#b88e49;}.cls-6{opacity:0.79;}.cls-8{opacity:0.46;}.cls-8,.cls-9{mix-blend-mode:screen;}.cls-9{opacity:0.17;}.cls-10{fill:#a98343;}.cls-11{opacity:0.41;}.cls-13{opacity:0.35;}.cls-14,.cls-15{fill:#7e4e33;}</style></defs><g class="cls-1"><g id="Calque_1" data-name="Calque 1"><path class="cls-2" d="M173.85,384.32a772.6,772.6,0,0,0,44.49,82.11s5.11.63,14.68,1.56c-18.81-29.42-37.29-67.05-44.86-82.93C183.32,384.82,178.52,384.58,173.85,384.32Z" transform="translate(-173.22 -383.25)"/><path class="cls-3" d="M173.24,384.32c5.54,12.27,11.72,24.27,18,36.16Q201.12,439,212,457q2.85,4.74,5.79,9.44c.2.33.89.3,1.22.33,4.67.54,9.34,1,14,1.46.07,0,.8,0,.64-.22-16.89-26.5-31.34-54.59-44.86-82.93-.09-.23-.51-.27-.74-.27q-7.16-.36-14.33-.74c-.84,0-.26.5.27.52,2.76.16,5.54.31,8.31.45,2,.09,5-.56,6,1.48q2,4.08,3.95,8.15,5.3,10.83,10.83,21.52c9.12,17.63,18.72,35,29.38,51.79l.64-.25q-6.86-.64-13.74-1.42c-1.6-.19-2.1-2.67-3-4.06q-2.85-4.65-5.64-9.36-10-16.78-19.1-34.07c-6-11.33-11.86-22.79-17.16-34.46C174.29,384,173.08,384,173.24,384.32Z" transform="translate(-173.22 -383.25)"/><path class="cls-2" d="M665.71,383.57l-15.56.49c-8,17.67-26.26,57.57-39.28,82.72,4-.35,7.89-.73,11.87-1.12C622.74,465.66,651.12,420.4,665.71,383.57Z" transform="translate(-173.22 -383.25)"/><path class="cls-3" d="M665.46,383.26c-5.18.19-10.37.35-15.56.51-.11,0-.29,0-.33.14-12.61,27.77-25.3,55.6-39.3,82.72-.15.29.85.46,1,.44l9.48-.88c.68-.08,2.22.22,2.67-.49.74-1.18,1.46-2.37,2.2-3.55,3.8-6.24,7.49-12.57,11.1-18.9,11-19.23,21.39-38.94,29.61-59.53.11-.29-1.07-.68-1.21-.33-8,20.1-18.16,39.33-28.79,58.13q-5.39,9.56-11.09,18.89c-.88,1.48-1.79,3-2.7,4.45-.48.79-.2.52-1.39.65l-10.63,1c.33.14.64.28,1,.44,9.24-17.89,17.8-36.13,26.3-54.37,3.6-7.79,7.16-15.58,10.75-23.39q1-2.24,2-4.45c.5-1.12,6.82-.6,8.05-.64l7.35-.25C666.76,383.81,665.84,383.26,665.46,383.26Z" transform="translate(-173.22 -383.25)"/><g class="cls-4"><path class="cls-5" d="M650.15,384.06c-.81,1.8-1.74,3.82-2.73,6,1.68-.83,3.77-1.61,5.14-.61s1.34,3.08,1,4.71C652.32,400.27,649,406,646,411.43c-5.95,10.81-11,22.1-16.78,33a145.81,145.81,0,0,1-11.39,18.76c-.8,1.06-1.61,2.11-2.39,3.16,2.42-.23,4.84-.44,7.28-.68,0,0,28.38-45.26,43-82.09Z" transform="translate(-173.22 -383.25)"/></g><g class="cls-6"><g class="cls-7"><path class="cls-5" d="M188.16,385.06c-4.84-.24-9.64-.48-14.31-.74,0,0,.83,1.86,2.4,5.19a4.69,4.69,0,0,1,4.81-1.35c5.26,1.27,29.06,59.29,49.13,79.54L233,468C214.21,438.57,195.73,400.94,188.16,385.06Z" transform="translate(-173.22 -383.25)"/></g></g><path class="cls-8" d="M182.51,392.33s-2.7-2.28-1.45,2.1,32.44,61.34,39.11,69.86a1.88,1.88,0,0,0,1.86.84C223.26,464.91,188.55,405.24,182.51,392.33Z" transform="translate(-173.22 -383.25)"/><path class="cls-9" d="M236.79,395.46c-6-.95-14-2-19.62.73-7.64,3.72-3.78,11.41-.8,17.19C223.06,426.3,231.56,439,242,449.21c19.05,18.54,50.62,14.74,74.94,16.14,5.38.3,16.38,2.4,20.28-2.48,4.89-6.13-5.72-12.9-9.34-16.43-14.35-14.07-29.41-26.52-47.61-35.43C267.12,404.58,251.34,397.8,236.79,395.46Z" transform="translate(-173.22 -383.25)"/><path class="cls-2" d="M640,406.28c2.06-4.45,4-8.6,5.7-12.37-327.16,5.94-424.14,3.08-452.87.77,1.86,3.8,4,8.09,6.33,12.73C234.53,409.58,338,411.73,640,406.28Z" transform="translate(-173.22 -383.25)"/><path class="cls-3" d="M640.59,406.28q2.85-6.18,5.7-12.37c.09-.22-.36-.26-.48-.26q-103.71,1.89-207.46,3c-44.76.43-89.51.68-134.25.49-25.65-.09-51.3-.33-76.94-1.07-11.36-.35-22.73-.69-34.06-1.61-.18,0-1,0-.89.38,1.92,3.91,3.85,7.76,5.79,11.66.7,1.37.88,1.19,2.19,1.27s2.73.16,4.05.22c3.25.17,6.5.3,9.73.45,8.93.34,17.86.56,26.78.77,30,.65,59.95.77,89.94.79,50.69,0,101.38-.42,152.07-1q78.56-.92,157.1-2.39c.53,0,1.12-.53.27-.5Q536.69,407.89,433.24,409c-44.34.4-88.67.63-133,.42-25.17-.13-50.33-.36-75.47-1.14q-7.8-.23-15.64-.58c-2-.09-4.07-.18-6.11-.3-.89-.05-1.8-.09-2.69-.16-1.49-.09-2-2.84-2.68-4.1-1.42-2.84-2.83-5.7-4.23-8.55a8.59,8.59,0,0,0-.87.4c12.51,1,25.09,1.34,37.65,1.69,26.63.73,53.27.92,79.92,1,46.07.14,92.12-.15,138.18-.61q47.43-.48,94.88-1.2,27.71-.39,55.43-.86l29.73-.52c4.9-.1,9.82-.17,14.74-.27,3-.05.51,3-.22,4.61q-1.73,3.74-3.46,7.47C639.25,406.61,640.43,406.63,640.59,406.28Z" transform="translate(-173.22 -383.25)"/><path class="cls-5" d="M632,423.37c2.76-5.92,5.47-11.7,7.94-17.09-302,5.45-405.45,3.3-440.84,1.13,2.7,5.36,5.71,11.16,8.91,17.2C247.93,426.63,353.38,428.29,632,423.37Z" transform="translate(-173.22 -383.25)"/><path class="cls-3" d="M632.64,423.49q4-8.53,8-17.09c.16-.28-.74-.39-.86-.39q-103.44,1.85-206.88,2.92c-44.35.42-88.7.65-133,.43-25.21-.12-50.39-.36-75.59-1.14-8.41-.26-16.82-.58-25.22-1.07-.09,0-.6,0-.48.19q3,6,6.13,12c.83,1.6,1.69,5.48,3.86,5.61l4.77.21c3.78.16,7.56.31,11.33.43,10.19.35,20.38.57,30.55.73,33.62.57,67.26.64,100.87.56q84-.19,168-1.5,54.13-.72,108.25-1.71c.81,0-.15-.55-.53-.55q-102.94,1.83-205.86,2.83c-43.55.36-87.09.57-130.65.29-24.18-.16-48.42-.43-72.59-1.24l-11-.43-2.29-.11c-.37,0-.72,0-1.09-.06-.21,0-2.57-5.26-2.95-6-1.05-2-2.1-4.07-3.14-6.08-.49-1-1.92-4.55-2.66-4.6.68.05,1.32.08,2,.11,6.73.37,13.42.65,20.14.87,24.06.78,48.15,1.05,72.19,1.19,42.95.28,85.86.08,128.8-.28q100.79-.84,201.59-2.73l16-.31-.88-.38q-3.95,8.55-7.94,17.06C631.31,423.51,632.49,423.85,632.64,423.49Z" transform="translate(-173.22 -383.25)"/><path class="cls-5" d="M645.68,393.91c1.71-3.72,3.23-7.07,4.47-9.85-63,1.94-304.3,8.51-462,1,1.25,2.63,2.83,5.92,4.65,9.62C221.54,397,318.52,399.85,645.68,393.91Z" transform="translate(-173.22 -383.25)"/><path class="cls-3" d="M646.29,394c1.51-3.29,3-6.55,4.48-9.85.12-.25-.46-.33-.62-.32q-58.83,1.79-117.77,2.87c-60.14,1.14-120.28,1.79-180.42,1.61-54.61-.17-109.25-.9-163.8-3.49-.14,0-.73,0-.61.3.88,1.81,1.73,3.62,2.59,5.42.43.85,1.38,4,2.23,4.33a4.77,4.77,0,0,0,1.51.17l3.16.22c2.56.17,5.12.31,7.67.44,7.26.38,14.51.63,21.77.85,25.47.75,51,1,76.46,1.1,44.53.19,89-.07,133.56-.47q103.35-1,206.68-3l2.5,0c.73,0,.75-.54,0-.51q-103.71,1.89-207.47,3c-44.75.42-89.49.67-134.24.49-25.66-.11-51.3-.33-77-1.09-7.14-.2-14.29-.45-21.41-.82-2.58-.12-5.15-.24-7.73-.42-1-.06-2.06-.14-3.12-.23l-1.34-.08c-.59-.06-1.27-2.44-1.58-3.06L188.76,385c-.21.11-.41.2-.6.32,60.57,2.85,121.25,3.49,181.88,3.51,59.07,0,118.16-.74,177.21-1.92q51.48-1,102.9-2.58c-.19-.14-.39-.23-.58-.36-1.5,3.31-3,6.58-4.49,9.87C644.91,394.19,646.14,394.3,646.29,394Z" transform="translate(-173.22 -383.25)"/><path class="cls-10" d="M224.26,453.68c2.63,4.44,5.28,8.82,7.94,13,58.12,4.4,173.58,8.18,379.72-1.91,2-4,4.19-8.28,6.4-12.8C381.51,456.07,273.49,455.3,224.26,453.68Z" transform="translate(-173.22 -383.25)"/><path class="cls-3" d="M223.67,453.61q3.59,6.06,7.32,12c1,1.54,1.47,1.33,3.24,1.46,3.13.23,6.25.46,9.39.66,7.17.47,14.32.89,21.49,1.22,18.21.92,36.43,1.49,54.64,1.89,53.82,1.15,107.68.57,161.46-.84,43.68-1.1,87.33-2.85,131-5,.13,0,.29,0,.35-.14q3.25-6.36,6.43-12.79c.12-.25-.76-.43-.88-.41-68.23,1.17-136.47,2.18-204.74,2.68-42.56.32-85.15.47-127.72.12-20.52-.15-41.06-.43-61.58-1.09-.83,0,.12.56.51.56,25.49.83,51,1.07,76.54,1.21,46,.26,92.1,0,138.12-.44q89.71-.84,179.38-2.48c-.27-.15-.56-.29-.85-.43-2,4-3.94,7.91-5.94,11.85-.85,1.67-6,1.09-7.54,1.15-2.85.15-5.72.27-8.58.39q-14.85.72-29.71,1.33-27.71,1.15-55.45,2.05-47.79,1.54-95.64,2.08c-45.36.49-90.72.22-136-1.62-15.64-.65-31.27-1.48-46.86-2.65.28.13.59.23.87.35-2.73-4.29-5.36-8.63-8-13C224.66,453.45,223.52,453.38,223.67,453.61Z" transform="translate(-173.22 -383.25)"/><path class="cls-2" d="M625.8,436.52c2.1-4.39,4.19-8.8,6.24-13.15-278.66,4.92-384.11,3.26-424,1.24q3.47,6.57,7.23,13.32C259.23,439.81,366.11,441.07,625.8,436.52Z" transform="translate(-173.22 -383.25)"/><path class="cls-3" d="M626.42,436.51q3.14-6.58,6.22-13.18c.13-.24-.38-.24-.47-.24q-102.93,1.83-205.87,2.82c-43.53.37-87.08.57-130.63.31-24.2-.17-48.41-.43-72.6-1.26-4.93-.18-9.83-.36-14.74-.6-.19,0-1.05.06-.85.41,2.16,4.12,4.38,8.21,6.64,12.31.78,1.42,1.29,1.16,2.81,1.21,1.94.07,3.87.15,5.82.21,4.52.18,9.06.31,13.6.43,12,.3,24.08.48,36.12.64,38.35.44,76.7.4,115.07.19q93.9-.52,187.84-2.12,25.15-.4,50.29-.84c.55,0,1.1-.54.27-.54q-102.66,1.8-205.31,2.75c-43,.35-86.08.53-129.1.2-23.55-.17-47.1-.46-70.64-1.32-1.34,0-2.7-.08-4-.15-1.93-.07-2.39-2.53-3.27-4.09q-2.5-4.59-4.95-9.2c-.27.15-.57.29-.86.42,18.65.93,37.34,1.27,56,1.54,35.82.52,71.65.52,107.49.38q88.41-.35,176.81-1.81,23.16-.32,46.32-.7,12.61-.24,25.18-.43l6.14-.12c.69,0,5.82-.55,5.21.75-1.88,4-3.8,8.06-5.72,12.07C625.06,436.85,626.24,436.82,626.42,436.51Z" transform="translate(-173.22 -383.25)"/><path class="cls-10" d="M232.2,466.68c.28.43.55.88.82,1.31,45.79,4.39,194.11,15.67,377.85-1.21.34-.64.69-1.35,1-2C405.78,474.86,290.32,471.08,232.2,466.68Z" transform="translate(-173.22 -383.25)"/><path class="cls-3" d="M231.61,466.64c1,1.53,1,1.57,2.78,1.72l4.46.43,10,.85q12.7,1.07,25.39,1.91c23.22,1.58,46.48,2.66,69.75,3.41,67.67,2.14,135.46,1.1,203-3q17.37-1.05,34.71-2.38c6.11-.5,12.23-1,18.34-1.53,2.89-.24,5.76-.48,8.66-.75s2.57.13,3.87-2.4c.12-.27-.77-.41-.89-.41-68.95,3.4-137.95,5.79-207,6.31-44.09.34-88.21,0-132.26-2q-20.19-.89-40.33-2.37c-.85-.08-.31.49.23.52,33.16,2.48,66.43,3.59,99.67,4.13,56.19.93,112.41.09,168.57-1.59q55.83-1.68,111.61-4.45l-.88-.41c-1.34,2.66-4.27,2.19-6.87,2.44l-7.39.64c-5.3.46-10.62.88-15.89,1.3q-15,1.14-30,2.1-28.68,1.8-57.43,2.87-51.36,1.92-102.8,1.41c-47.19-.46-94.41-2.32-141.46-6.22-3-.23-6-.5-9-.77-1.31-.11-2.63-.23-3.94-.37-.68,0-1.35-.12-2-.15-1.21-.13-1-.11-1.65-1.12C232.6,466.43,231.45,466.41,231.61,466.64Z" transform="translate(-173.22 -383.25)"/><path class="cls-5" d="M618.32,452c2.46-5,5-10.17,7.48-15.45-259.69,4.55-366.57,3.29-410.52,1.41,2.89,5.28,5.91,10.57,9,15.75C273.49,455.3,381.51,456.07,618.32,452Z" transform="translate(-173.22 -383.25)"/><path class="cls-3" d="M618.94,452c2.52-5.13,5-10.29,7.48-15.46.1-.21-.38-.23-.48-.23q-102.66,1.8-205.31,2.75c-43,.35-86.08.53-129.1.2-23.55-.17-47.1-.46-70.64-1.32-1.77,0-3.55-.12-5.35-.21-.18,0-1,.09-.85.43,2.34,4.23,4.73,8.45,7.15,12.62,1.47,2.53,1.37,3.2,4,3.28,2.34.08,4.69.13,7,.22q8.15.19,16.25.34c14,.28,28,.42,42,.52,43.85.33,87.68.13,131.52-.24q97.8-.8,195.61-2.61c.56,0,1.13-.54.26-.53q-102.33,1.76-204.71,2.68c-42.7.34-85.39.51-128.07.13q-18.74-.13-37.43-.51c-4.94-.08-9.9-.19-14.84-.33-2.15,0-4.3-.12-6.47-.18l-1.34,0c-1.44-.06-1.89-1.9-2.56-3.06-2.44-4.19-4.83-8.38-7.18-12.62-.28.14-.56.3-.85.43,21.48.9,43,1.19,64.48,1.43,40.06.41,80.12.3,120.18.05q97.22-.65,194.41-2.38,12.09-.18,24.19-.41c2,0,4.13-.06,6.18-.11.79,0-1.56,4.62-1.75,5-1.64,3.4-3.29,6.82-5,10.23C617.57,452.31,618.76,452.29,618.94,452Z" transform="translate(-173.22 -383.25)"/><g class="cls-11"><path class="cls-5" d="M221.87,449.56c.79,1.37,1.58,2.77,2.39,4.12.19.33.37.64.58.94a20.49,20.49,0,0,0,6.79-3C228.39,450.79,225.14,450.18,221.87,449.56Z" transform="translate(-173.22 -383.25)"/><path class="cls-5" d="M266.38,457.47c-9-5-19.54-7.27-29.34-10.1-6.34-1.81-12.73-3.5-19.2-4.82,1,1.71,1.93,3.38,2.9,5.09,4.34.78,8.67,1.59,12.95,2.73a.87.87,0,0,1,.38,1.42,19.94,19.94,0,0,1-8.37,4.28c1.62,2.71,3.24,5.38,4.89,8a56.52,56.52,0,0,1,12.35-2.24C250.82,461.45,259.47,461.76,266.38,457.47Z" transform="translate(-173.22 -383.25)"/><path class="cls-5" d="M280.47,465.46A84,84,0,0,0,294.41,462c1.59-.59,3.73-1.31,4.85-2.7,1.48-1.84-1.67-3.46-3-4.11-8.55-4.18-17.6-7.63-26.36-11.38-9.06-3.89-18.17-7.79-27.51-11-10.79-3.69-22.46-4.11-33.49-6.65q3.08,5.83,6.39,11.77c.48.9,1,1.8,1.49,2.7,7,1.35,13.89,3.12,20.71,5.12,10.39,3,21.56,5.32,30.93,10.94a.86.86,0,0,1,0,1.46c-6.31,4.56-14.29,4.89-21.78,5.22-4.61.22-9.3.33-13.77,1.53-.51.13-1,.29-1.5.42.28.47.56.94.84,1.36s.55.88.82,1.31c4,.37,8.94.83,14.55,1.28C258.55,468.12,269.58,467.49,280.47,465.46Z" transform="translate(-173.22 -383.25)"/><path class="cls-5" d="M522.46,394.23c-25.73-.82-51.58,1.73-77.22-1.08a247.78,247.78,0,0,1-26.65-4.75c-27.13.18-54.95.22-82.54.07a125.55,125.55,0,0,0,16.41,4.37c24.19,4.61,49,3.51,73.21,7.71,13.87,2.39,27.6,4.52,41.67,5.32,13.54.78,27.12.9,40.68,1.11,26.8.36,53.17,1.9,79.62,6.58,15,2.66,30,5.8,45.13,8.27l5-10.73C600.29,400.69,561.14,395.46,522.46,394.23Z" transform="translate(-173.22 -383.25)"/><path class="cls-5" d="M595.12,388.37c14.67-.35,29.37-.94,44,.55,2.79.28,5.6.64,8.4,1,1-2.17,1.87-4.16,2.65-5.9-21.18.65-62.51,1.81-114,2.82C555.6,389.31,575.54,388.86,595.12,388.37Z" transform="translate(-173.22 -383.25)"/><path class="cls-5" d="M634.36,390.19c-14.54-1-29.14-.35-43.71,0-21.49.48-43.36.7-64.58-3.13-30.77.57-64.78,1.07-100.1,1.31a190.29,190.29,0,0,0,20.87,3.28c25.63,2.38,51.33,0,77,1,38.48,1.45,77.35,6.62,114.62,17l1.5-3.29c2.06-4.45,4-8.6,5.7-12.37.38-.84.75-1.64,1.1-2.43C642.64,390.93,638.48,390.48,634.36,390.19Z" transform="translate(-173.22 -383.25)"/><path class="cls-5" d="M552.14,410.39c-27.15-2.25-54.37-1.21-81.55-2.65-26.22-1.39-51.77-7.21-78-9-21-1.4-41.78-3-61.45-10.35-25.63-.16-51-.5-75.47-1.07,4.14,1.37,8.33,2.62,12.59,3.71,18.53,4.62,37.48,8.1,56.29,11.44,13.23,2.32,26.55,4.35,40,5.48s26.65,1.17,40,1.17c26.3,0,52.67.33,78.53,5.7,26.69,5.54,53.88,11.5,81.08,13.87,21.55,1.91,43.19,1.42,64.81,1.16,1-2.17,2-4.32,3.06-6.47C605.41,419,579.06,412.63,552.14,410.39Z" transform="translate(-173.22 -383.25)"/><path class="cls-5" d="M240.84,401.39c6.65,1.65,14.43,3,20.26-1.27-9.69-5.93-22.24-5.59-33.06-8-8.35-1.85-16.55-4.43-24.88-6.4q-7.6-.32-15-.66c.9,1.89,2,4.12,3.16,6.57a229.7,229.7,0,0,1,29.2,4C227.43,397.11,234,399.66,240.84,401.39Z" transform="translate(-173.22 -383.25)"/><path class="cls-5" d="M585,431.62c-19.59-.59-38.71-3.3-58-6.65-26.83-4.67-53.39-11.56-80.66-13.2-26.74-1.63-53.6.25-80.27-2-25.85-2.17-51.29-7.25-76.67-12.33-12.71-2.55-25.7-5.1-37.87-9.62-.55-.2-1.12-.4-1.67-.62-13.26-.33-26.22-.72-38.78-1.21,6.1,1.64,12.2,3.37,18.39,4.72,11.1,2.38,23.77,2,33.5,8.55a.87.87,0,0,1,.17,1.34c-10.28,8.84-25.45,1.29-36.52-1.82-11.24-3.15-22.85-4.47-34.5-5.46.22.42.44.87.66,1.33,1,2,2.06,4.19,3.17,6.46,29.82,5.14,59.54,10.82,89.27,16.48,32.27,6.18,64.64,13.14,97.26,17.29,53.75,6.78,108.15,4.35,162.2,4.21,26.57-.08,53.18-.84,79.75.24l1.34-2.84c.8-1.63,1.56-3.28,2.35-4.91C613.78,431.8,599.39,432.07,585,431.62Z" transform="translate(-173.22 -383.25)"/><path class="cls-5" d="M610.18,440.63c-32.61-.54-65.27,0-97.87.35-27.12.27-54.24.67-81.32-.48a599.13,599.13,0,0,1-79.36-8.85c-51.65-9.11-103-19.72-154.72-28.64.73,1.43,1.47,2.88,2.23,4.4.33.68.69,1.37,1.05,2,1.82.43,3.66.79,5.54,1.15,5.64,1.09,11.21,2.62,16.82,3.84,11.32,2.44,22.74,4.66,33.85,7.91,21.75,6.35,42.39,15.94,64.75,20.24,13.55,2.57,26.9,3.55,40.58,4.58,12.3.89,24,4.38,35.95,7.44,26.14,6.7,53.25,6.71,80.08,6.21,26.2-.51,52.27,0,78.45.58,19.51.43,39.11.43,58.43-2,1.2-2.39,2.42-4.86,3.68-7.41,1.74-3.52,3.53-7.21,5.32-10.91Q616.92,440.75,610.18,440.63Z" transform="translate(-173.22 -383.25)"/><path class="cls-5" d="M372.63,467.47c-9.87-2-20.58-4.34-30.69-3.48-10.62.87-20.48,4.87-30.74,7.32a71.73,71.73,0,0,1-10.32,1.58c29.36,1.54,65.59,2.77,107,2.86-1.86-.42-3.68-.84-5.54-1.3C392.49,472.1,382.62,469.5,372.63,467.47Z" transform="translate(-173.22 -383.25)"/><path class="cls-5" d="M562.52,463.21c-24.56-.46-49-1.44-73.56-.94-26.09.52-52.51,1.45-78.33-3.06-12.51-2.17-24.52-6.5-37-8.8-12.85-2.37-26-1.92-38.93-3.83a220.19,220.19,0,0,1-38-8.65c-12.17-4-24.07-8.84-36.34-12.63-12.55-3.87-25.45-6.45-38.26-9.25-6.53-1.41-13-3.05-19.54-4.33l-1.4-.29c2.09,4.08,4.32,8.37,6.64,12.77,5.75,1.41,11.71,2.18,17.58,3.08a131.36,131.36,0,0,1,29.07,8.3c9.87,3.93,19.58,8.23,29.33,12.44,4.4,1.88,9.08,3.46,13.31,5.72,1.31.69,3.27,1.7,3.92,3.19,2.79,6.53-13.75,8.9-17.22,9.59-5.29,1.05-10.65,2.07-16,2.73-3.07.38-6.15.65-9.23.91,6.35.49,13.4,1,21.1,1.48a.73.73,0,0,1,.39-.09c11.37,0,22.47.46,33.57-2.61,9.26-2.59,18.6-6.15,28.31-6.64,19.4-1,39.32,5.31,58,9.83,5.42,1.33,10.84,2.58,16.29,3.62,56.87-.1,123.08-2.39,194.67-9,.34-.64.69-1.35,1-2,.59-1.18,1.2-2.37,1.8-3.58C596.77,463.26,579.6,463.51,562.52,463.21Z" transform="translate(-173.22 -383.25)"/></g><path class="cls-12" d="M188.16,385.06c1.25,2.63,2.83,5.92,4.65,9.62s4,8.09,6.33,12.73c2.7,5.36,5.71,11.16,8.91,17.2q3.47,6.57,7.23,13.32c2.89,5.28,5.91,10.57,9,15.75,2.63,4.44,5.28,8.82,7.94,13,.28.43.55.88.82,1.31,45.79,4.39,194.11,15.67,377.85-1.21.34-.64.69-1.35,1-2,2-4,4.19-8.28,6.4-12.8,2.46-5,5-10.17,7.48-15.45,2.1-4.39,4.19-8.8,6.24-13.15,2.76-5.92,5.47-11.7,7.94-17.09,2.06-4.45,4-8.6,5.7-12.37s3.23-7.07,4.47-9.85C587.13,386,345.85,392.57,188.16,385.06Zm357,56.15c-62.39,32.44-290.51,25.78-300.9,22.47s-39.52-54.5-42.84-65.32,7.48-7.48,7.48-7.48c74.25,2.08,243.3-.21,298.19,1S607.56,408.78,545.18,441.21Z" transform="translate(-173.22 -383.25)"/><g class="cls-13"><path class="cls-14" d="M507.11,391.92c-54.89-1.25-223.94,1-298.19-1,0,0-10.8-3.32-7.48,7.48s32.44,62,42.84,65.32,238.51,10,300.9-22.47S562.05,393.17,507.11,391.92Z" transform="translate(-173.22 -383.25)"/><path class="cls-15" d="M549.56,386.61c19,1,65.69,5.52,64,25.07-2.08,24.52-56.13,48.66-136.82,55.31-68.5,5.64-181.34,4.71-244.79-.67.07.12.14.24.22.36.28.43.55.88.82,1.31,45.79,4.39,194.11,15.67,377.85-1.21.34-.64.69-1.35,1-2,2-4,4.19-8.28,6.4-12.8,2.46-5,5-10.17,7.48-15.45,2.1-4.39,4.19-8.8,6.24-13.15,2.76-5.92,5.47-11.7,7.94-17.09,2.06-4.45,4-8.6,5.7-12.37s3.23-7.07,4.47-9.85C630.86,384.64,594.8,385.68,549.56,386.61Z" transform="translate(-173.22 -383.25)"/></g></g></g></svg>