<svg xmlns="http://www.w3.org/2000/svg" viewBox="0 0 635.11 299.47"><defs><style>.cls-1{fill:#29265b;}.cls-2{fill:#eacf06;}.cls-3{fill:#c0ac08;}</style></defs><g id="Calque_10" data-name="Calque 10"><path class="cls-1" d="M231.62,557.47c10.57-2.74,21.18-5.32,31.95-7.17a4.63,4.63,0,0,1,1.53,0c8.47,1.57,16-1.33,23-5.36,5.69-3.24,11.87-5.33,17.65-8.31a8.87,8.87,0,0,1,5.13-.9c3.54.42,6.36-.83,9.06-3a30.49,30.49,0,0,1,6.8-4.27c5.23-2.32,7.9-6.8,10.33-11.49a7.54,7.54,0,0,1,6.83-4.5c.84,0,1.76-.22,2.34.45,2.2,2.53,3.72.62,4.47-1.05,1.69-3.8,4.6-4.27,8.14-3.88,2.36.27,4.73.37,7.09.63,1.53.16,3.1.21,4.4,1.25,3.35,2.7,5.95,2.15,8.86-1.33,5.11-6.12,7.6-13.41,9.79-20.85a58.49,58.49,0,0,0,1.74-26.32c-.51-3-1.69-5.94-2.4-8.94-1.34-5.6.68-11.05,1.05-16.57.17-2.56-.15-4.38-2.45-5.75a44,44,0,0,1-4.22-3.15c-2.08-1.6-2-3.69-1.24-5.87.28-.81,1.07-1.77,1.82-1.1,2.15,1.91,2.74.08,3.27-1.25,1.79,0,.34,2.64,2.21,2.14,1.56-.41,1.86-1.83,2-3.19.94-10.47,2.18-20.91,2.59-31.43a16,16,0,0,1,2.33-7.54c1.45.4.54,2,1.72,2.58,1-.38.88-1.4.92-2.24.2-5.05.79-10.13.44-15.14-.41-5.84,2.29-10.5,4.78-15.53-.64,4.8,3.93,8.22,3.06,13.08-.19,1.06.3,2.23.45,3.35.17,1.29.88,1.73,2.15,1.56,4.91-.68,9.82-1.38,14.74-1.92,2.21-.24,2.82-1.28,3-3.41.67-8.94,3.48-17.53,4.61-26.41a1.3,1.3,0,0,1,.89-1.17c1.06.77.69,1.9.67,2.84-.21,8.29,1.52,16.42,2,24.64.09,1.49.81,1.93,2.23,1.78q5.39-.56,10.79-1c1.53-.12,2.25-.84,2.23-2.35a1.61,1.61,0,0,0,0-.31c-1.69-10,2.51-18.78,5.44-27.83,1.24-3.85,2.38-7.64,2.13-11.78a25.92,25.92,0,0,0-1.86-8.23c-2.52-6.4-1.77-13.07.51-19.13,1.57-1.15.86,2.93,2.6.51.22.17.59.33.62.54.44,3.26,3.6,5.71,2.62,9.48-.44,1.73-.07,3.67-.07,5.69,4.25-5.54,5.3-12.14,7.7-18.19,2.65-6.68,5-13.46,3.73-21.31,1.82.8,1.68,1.74,1.62,2.42-.66,8,1.84,15.53,4,23,5.52,18.9,10.16,38,14.5,57.21,1.08,4.72.92,11.1-1.25,15.31-4,7.8-1.21,15.61-2.82,23.49,4.65-2.43,4.65-2.43,5.78-7.88.15-.7.31-1.41.49-2.11,0-.18.21-.33.63-.94.74,5.5,2.21,10.47,2.17,15.69,0,1.6-.06,3.17,2,3.63s2.6-1.17,3.08-2.64c1.4-4.35,3.42-8.58,2.85-13.5a50.15,50.15,0,0,0,5,19c2.84-10.37,5.43-19.87,8-29.37,0-.1,0-.22,0-.31.38-1.22-1.44-3.39.73-3.53,1.25-.08.66,2.29.57,3.53-.31,4.38,1.24,8.34,2.64,12.32,1.34,3.8,2.22,7.9,4.29,11.25,2.87,4.63,1.37,9.74,2.66,14.31,2.49,8.78-.47,17.37.36,26,.11,1.19-.3,2.56,1.16,3.26a2.41,2.41,0,0,0,3.66-2.2c0-8.35,1-16.67.7-25a6.72,6.72,0,0,0-1.51-3.64c-1.31-1.88-1.68-3.79.42-5.44.52-.42,1-.93.74-1.57-1.09-3.2.69-5.69,2.2-8.07,2.29-3.61,3.17-8.05,6.73-11a4.89,4.89,0,0,0,1.79-4.47c-1-4.31,1.82-7.94,1.8-12,0-.24.28-.49.62-1a42.45,42.45,0,0,1,1.62,12.39c0,1.46-.51,3.33,1.6,3.86,1.65.41,3,.32,4.06-1.67s2.24-.49,2.41.81c.5,3.69,2.93,6.3,4.68,9.29.25-.12.52-.15.56-.27.34-.93,0-2.58,1.11-2.64,1.47-.08,1.2,1.68,1.42,2.65.48,2.07.5,4.28,2.24,6,1-1.47.53-3.52,2.47-4.88a48.49,48.49,0,0,1,1.15,8.73c0,1.65,0,3.3.06,4.95,0,.83.18,1.87,1.2,1.88,1.19,0,.85-1.17,1-1.91.08-.41,0-.83.08-1.24.08-.58-.07-1.43.71-1.52,1-.11,1.07.86,1.09,1.52a23.11,23.11,0,0,0,1.22,7.53c1.33-.34,1.15-1.43,1.35-2.26,1-4,1.07-8.56,3.39-11.83,3.63-5.11,2.92-10.56,2.62-15.92s.39-11.12,3.09-14.85c2.84-3.93,1.51-8.15,3.67-11.92,2.24-3.92,1.89-9,2.66-13.55,1.11-6.57,3-13,4-19.71.57,3.87,1.07,7.76,1.74,11.61q2.46,14.17,5.09,28.32c.2,1.09-.1,2.95,2.29,2,1-.4,1.08,1,1.2,1.73,1,6.72,2.33,13.37,2.07,20.26A31.65,31.65,0,0,0,612.69,394c.66-4.18,1.2-7.63,1.89-12,1.81,3.26,1.46,6,2.14,8.55.38,1.39.52,2.84.76,4.26.76,4.54.75,4.54,5.48,4.07,2.1-.2,2.1-.2,4.53,4.59a153.21,153.21,0,0,0,3.81-17.67c1.4.73,1.34,1.94,1.53,2.94.89,4.77,2,9.49,3,14.22.62,2.84.25,5.93.14,8.91-.09,2.4.66,3.53,3.28,3.68,5.83.31,5.56.41,6-5.58.42-5.66-.85-11.32.33-17a20.93,20.93,0,0,1,2.73-7.1c1.82-2.93,1.88-6.5,2.33-9.86.84-6.25,2.41-12.35,3.61-18.53.09-.49.16-1,1.24-1.42,2.08,10.27,4.14,20.46,6.3,31.11,1.47-1.46,1.13-3,1.4-4.28.14-.66,0-1.63.92-1.73s.54,1.22,1.35,1.48c1-11.23,3.65-22.12,5.66-33.13l1-.1q3.41,16.23,6.81,32.44c1.18-.11.65-1.91,1.75-1.52s.81,1.56,1.08,2.41c3.92,12.62,3.05,25.62,3.1,38.55,0,1.45,0,2.89.07,4.34a1.14,1.14,0,0,0,.8,1.19,1,1,0,0,0,1.25-.65c.81-2.73,3.18-2.92,5.38-3.43a13.41,13.41,0,0,0,5.16-2.3c.61,2.82,1.13,5.33,1.72,7.83.32,1.38,1.2,2.53,2.62,1.52,4.13-2.94,9-2,13.49-2.55,3.47-.43,7-.45,10.49,1.46,2.72,1.49,6.26.38,8.91-1.24,4-2.46,7.78-1.35,11.57,0,2.82,1,5.16,3,7.72,4.48,8.42,5,14.68,12.18,21,19.33a9.94,9.94,0,0,0,1.74,1.75c11.25,7.24,17.49,19.09,26.35,28.51A79.11,79.11,0,0,1,815,497.76a9.48,9.48,0,0,0,7.14,4.93c1.54.25,3.27.52,4.08,1.94,1.5,2.67,3.36,2.42,5.66,1.26,6.67-3.34,10.24-.23,13.31,5.15,1.9,3.33,4.07,6.2,7.72,7.68,2.44,1,3.6,2.87,4.12,5.39.64,3.13,1.57,6.19,2.29,9.31a20.81,20.81,0,0,0,5.34,10.29,7.3,7.3,0,0,1,2.06,5.93c-.25,4.28.47,8.58-1.33,12.81-1.11,2.6-2.61,3.34-5.25,3.79-22.63,3.86-45.36.93-68,1.16-8.77.09-17.54.23-26.33-.38-5.7-.4-11.52,1.17-17.26,1a364.44,364.44,0,0,1-40.41-3c-6.64-.94-13-3.31-19.75-3.78-8.16-.58-16.28.12-24.42.37-13.52.41-27,.69-40.57,0-18.22-1-36.45-2.7-54.69-.11a37.62,37.62,0,0,1-6.79-.1c-13.21-.55-26.4,0-39.6.45-16.12.56-32.17-1.15-48.25-1.83-7.83-.33-15.69,0-23.54.07-9.82,0-19.64-.12-29.45.12-24.17.58-48.34.8-72.51.43-18-.27-35.92.53-53.87.31-20.12-.25-40.27-.29-60.34-2.17a21.44,21.44,0,0,1-2.7-.61Z" transform="translate(-231.62 -268.78)"/><rect class="cls-2" x="316.38" y="121.21" width="2" height="7"/><rect class="cls-2" x="315.16" y="142.15" width="2" height="7"/><rect class="cls-2" x="240.38" y="52.21" width="1" height="4"/><rect class="cls-2" x="234.38" y="65.21" width="1" height="4"/><rect class="cls-2" x="247.38" y="65.21" width="1" height="4"/><path class="cls-3" d="M483.09,415a3.64,3.64,0,0,1,3.6,3.88l-.12,8-7.32.2.12-8A4,4,0,0,1,483.09,415Z" transform="translate(-231.62 -268.78)"/><rect class="cls-2" x="359.38" y="100.21" width="2" height="7"/><rect class="cls-2" x="370.38" y="100.21" width="2" height="7"/><rect class="cls-2" x="419.38" y="127.21" width="2" height="7"/><rect class="cls-2" x="314.38" y="160.21" width="2" height="7"/></g><g id="Calque_11" data-name="Calque 11"><rect class="cls-2" x="198.38" y="124.21" width="2" height="7"/><rect class="cls-2" x="188.38" y="124.21" width="2" height="7"/><rect class="cls-2" x="179.38" y="124.21" width="2" height="7"/><rect class="cls-2" x="178.38" y="139.21" width="2" height="7"/><rect class="cls-2" x="188.38" y="139.21" width="2" height="7"/><rect class="cls-2" x="198.38" y="138.21" width="2" height="7"/></g></svg>