<svg id="cloud" xmlns="http://www.w3.org/2000/svg" viewBox="0 0 205.04 103.78"><defs><style>.cls-1{fill:#29235c;}.cls-2{opacity:0.5;}.cls-3{fill:#dadada;}.cls-4{opacity:0.47;}.cls-5{fill:#c6c6c6;}.cls-6{opacity:0.44;}.cls-7{fill:#9d9d9c;}</style></defs><path class="cls-1" d="M299.23,117.47a31.07,31.07,0,0,0-37.33-24.9,50.13,50.13,0,0,0-93.11-8.4c-.5,0-1,0-1.5,0a33.29,33.29,0,0,0-27.56,14.58,24.2,24.2,0,0,0-18.79,16.38,18.07,18.07,0,1,0,17.88,31,23.81,23.81,0,0,0,5.11.55,24.47,24.47,0,0,0,6-.74,33.29,33.29,0,0,0,33.73.61,49.9,49.9,0,0,0,30.09,10,50.44,50.44,0,0,0,10.13-1,18.52,18.52,0,0,0,28.79-5.88,31.09,31.09,0,0,0,37.07-3.83,15.69,15.69,0,1,0,9.52-28.34Z" transform="translate(-109.66 -56.28)"/><g class="cls-2"><path class="cls-3" d="M174.17,87.47a22,22,0,0,1,3.33-11.79,26.46,26.46,0,0,1,3.89-4.94,29.53,29.53,0,0,1,4.93-3.91,30,30,0,0,1,23.89-3.52,51.5,51.5,0,0,0-11.74,1.53,38,38,0,0,0-10.56,4.53,29.33,29.33,0,0,0-4.57,3.43l-.55.46-.5.51-1,1a10.69,10.69,0,0,0-.94,1.08L179.43,77A31.79,31.79,0,0,0,174.17,87.47Z" transform="translate(-109.66 -56.28)"/></g><g class="cls-4"><path class="cls-5" d="M253.55,101.76a29.58,29.58,0,0,0-5.31,6,25.84,25.84,0,0,0-3.15,6.84,29.52,29.52,0,0,0-1.18,7.49,47.73,47.73,0,0,0,.56,8.1,16.31,16.31,0,0,1-3.69-7.83,19,19,0,0,1,.48-8.9,18,18,0,0,1,4.57-7.71A14.15,14.15,0,0,1,253.55,101.76Z" transform="translate(-109.66 -56.28)"/></g><g class="cls-6"><path class="cls-7" d="M186.55,89.78a25,25,0,0,1,12.16,16.93,23,23,0,0,1-.39,10.82,18.71,18.71,0,0,1-5.53,9A29.58,29.58,0,0,0,196,117a28.88,28.88,0,0,0-.26-9.73,33.65,33.65,0,0,0-3.33-9.22A45.31,45.31,0,0,0,186.55,89.78Z" transform="translate(-109.66 -56.28)"/></g><g class="cls-6"><path class="cls-7" d="M136.92,118.5a11.77,11.77,0,0,1,5.44,5.34,15.82,15.82,0,0,1,1.72,7.64,18.17,18.17,0,0,1-1.81,7.53,16.61,16.61,0,0,1-4.71,5.93,47.32,47.32,0,0,0,2.5-6.77,27.61,27.61,0,0,0,1-6.75,21.23,21.23,0,0,0-.9-6.67A20,20,0,0,0,136.92,118.5Z" transform="translate(-109.66 -56.28)"/></g></svg>