<svg id="corpagrid" xmlns="http://www.w3.org/2000/svg" xmlns:xlink="http://www.w3.org/1999/xlink" viewBox="0 0 87.79 96.4"><defs><style>.cls-1{fill:none;}.cls-11,.cls-2{fill:#9c5616;}.cls-2,.cls-3,.cls-6{stroke:#000;}.cls-2,.cls-3,.cls-4,.cls-6{stroke-miterlimit:10;}.cls-3,.cls-9{fill:#1d1d1b;}.cls-4{fill:#9d9d9c;stroke:#9d9d9c;}.cls-5{fill:#f1c089;}.cls-6{fill:#2d190f;}.cls-7{opacity:0.27;}.cls-8{opacity:0.22;}.cls-10{clip-path:url(#clip-path);}.cls-12{isolation:isolate;}.cls-13{clip-path:url(#clip-path-2);}.cls-14{fill:#885135;}.cls-15{fill:#8c5336;}.cls-16{fill:#8f5538;}.cls-17{fill:#925739;}.cls-18{fill:#96593b;}.cls-19{fill:#995b3c;}.cls-20{fill:#9c5d3d;}.cls-21{fill:#9f5f3f;}.cls-22{fill:#a26140;}.cls-23{fill:#a56241;}.cls-24{fill:#a86442;}.cls-25{fill:#ac6643;}.cls-26{fill:#af6845;}.cls-27{fill:#b26946;}.cls-28{fill:#b56b47;}.cls-29{fill:#b86d48;}.cls-30{fill:#bb6e4a;}.cls-31{fill:#be704b;}.cls-32{fill:#c1724c;}.cls-33{fill:#c4734d;}.cls-34{fill:#c7754e;}.cls-35{fill:#ca764f;}.cls-36{fill:#cd7850;}.cls-37{fill:#d07a52;}.cls-38{fill:#d37b53;}.cls-39{fill:#d88b65;}.cls-40{fill:#da926e;}.cls-41{fill:#dc9774;}.cls-42{fill:#dd9b79;}.cls-43{fill:#de9f7e;}.cls-44{fill:#dfa282;}.cls-45{fill:#e0a686;}.cls-46{fill:#e1a889;}.cls-47{fill:#e2ab8d;}.cls-48{clip-path:url(#clip-path-3);}.cls-49{fill:#801211;}.cls-50{clip-path:url(#clip-path-4);}.cls-51{fill:#891313;}.cls-52{fill:#8b1314;}.cls-53{fill:#8e1315;}.cls-54{fill:#901416;}.cls-55{fill:#931417;}.cls-56{fill:#951417;}.cls-57{fill:#981418;}.cls-58{fill:#9b1419;}.cls-59{fill:#9d151a;}.cls-60{fill:#a0151a;}.cls-61{fill:#a2151b;}.cls-62{fill:#a5151c;}.cls-63{fill:#a7151c;}.cls-64{fill:#aa151d;}.cls-65{fill:#ad151e;}.cls-66{fill:#af151e;}.cls-67{fill:#b2161f;}.cls-68{fill:#b4161f;}.cls-69{fill:#b61620;}.cls-70{fill:#b91621;}.cls-71{fill:#bb1621;}.cls-72{fill:#be1622;}.cls-73{fill:#c43732;}.cls-74{fill:#c7433a;}.cls-75{fill:#c94c40;}.cls-76{fill:#cb5446;}.cls-77{fill:#cd5b4c;}.cls-78{fill:#cf6151;}.cls-79{fill:#d06656;}.cls-80{fill:#d16b5a;}.cls-81{fill:#d2705e;}.cls-82{clip-path:url(#clip-path-5);}.cls-83{fill:#861313;}.cls-84{fill:#831212;}.cls-85{fill:#811211;}.cls-86{clip-path:url(#clip-path-6);}.cls-87{fill:#895235;}.cls-88{clip-path:url(#clip-path-7);}.cls-89{clip-path:url(#clip-path-8);}.cls-90{clip-path:url(#clip-path-9);}.cls-91{fill:#854f33;}.cls-92{clip-path:url(#clip-path-11);}.cls-93{clip-path:url(#clip-path-12);}.cls-94{clip-path:url(#clip-path-13);}.cls-95{clip-path:url(#clip-path-14);}.cls-96{clip-path:url(#clip-path-15);}.cls-97{clip-path:url(#clip-path-16);}.cls-98{clip-path:url(#clip-path-17);}.cls-99{clip-path:url(#clip-path-18);}.cls-100{clip-path:url(#clip-path-19);}.cls-101{clip-path:url(#clip-path-20);}.cls-102{clip-path:url(#clip-path-21);}</style><clipPath id="clip-path" transform="translate(-528.06 -316.95)"><rect class="cls-1" x="548" y="308.98" width="79" height="87"/></clipPath><clipPath id="clip-path-2" transform="translate(-528.06 -316.95)"><path id="SVGID" class="cls-1" d="M550.14,352.91l.89.16h0c-.13,0-.25.27-.28.54s0,.42.13.44l-.89-.16c-.1,0-.15-.2-.13-.44s.15-.52.28-.54A0,0,0,0,1,550.14,352.91Z"/></clipPath><clipPath id="clip-path-3" transform="translate(-528.06 -316.95)"><path id="SVGID-2" data-name="SVGID" class="cls-1" d="M550.89,354.05h0l-.89-.16h0Z"/></clipPath><clipPath id="clip-path-4" transform="translate(-528.06 -316.95)"><path id="SVGID-3" data-name="SVGID" class="cls-1" d="M551,353.07c.1,0,.16.2.14.45l-.89-.17c0-.24,0-.43-.14-.44Z"/></clipPath><clipPath id="clip-path-5" transform="translate(-528.06 -316.95)"><path id="SVGID-4" data-name="SVGID" class="cls-1" d="M551.17,353.52c0,.27-.16.5-.28.53l-.89-.16h0c.12,0,.25-.26.28-.54h0l.89.17Z"/></clipPath><clipPath id="clip-path-6" transform="translate(-528.06 -316.95)"><path id="SVGID-5" data-name="SVGID" class="cls-1" d="M550.32,351.92l.89.16c.3.06.48.62.4,1.34s-.45,1.54-.82,1.62h-.11l-.89-.16h.11c.37-.08.73-.81.82-1.62S550.62,352,550.32,351.92Z"/></clipPath><clipPath id="clip-path-7" transform="translate(-528.06 -316.95)"><path id="SVGID-6" data-name="SVGID" class="cls-1" d="M547.11,357.91l.89.16c-.1,0-.19.16-.25.37a1.25,1.25,0,0,0,0,.38l-.89-.16a1.25,1.25,0,0,1,0-.38C546.92,358.07,547,357.93,547.11,357.91Z"/></clipPath><clipPath id="clip-path-8" transform="translate(-528.06 -316.95)"><path id="SVGID-7" data-name="SVGID" class="cls-1" d="M546.83,358.66l.89.16a.29.29,0,0,0,.1.22l-.89-.16A.29.29,0,0,1,546.83,358.66Z"/></clipPath><clipPath id="clip-path-9" transform="translate(-528.06 -316.95)"><path id="SVGID-8" data-name="SVGID" class="cls-1" d="M547.86,359.05l-.89-.16h0l.89.16Z"/></clipPath><clipPath id="clip-path-11" transform="translate(-528.06 -316.95)"><path id="SVGID-10" data-name="SVGID" class="cls-1" d="M547.33,356.93l.89.16.09,0-.89-.16Z"/></clipPath><clipPath id="clip-path-12" transform="translate(-528.06 -316.95)"><path id="SVGID-11" data-name="SVGID" class="cls-1" d="M547.67,360l-.89-.17h.12l.89.16Z"/></clipPath><clipPath id="clip-path-13" transform="translate(-528.06 -316.95)"><path id="SVGID-12" data-name="SVGID" class="cls-1" d="M548.07,358.08a.29.29,0,0,1,.1.22l-.79-.14-.1,0a.29.29,0,0,0-.1-.22A5.55,5.55,0,0,1,548.07,358.08Z"/></clipPath><clipPath id="clip-path-14" transform="translate(-528.06 -316.95)"><path id="SVGID-13" data-name="SVGID" class="cls-1" d="M547.28,358.14l.89.16a1.25,1.25,0,0,1,0,.38c-.06.21-.16.35-.25.37l-.89-.16c.09,0,.19-.16.25-.37A1.25,1.25,0,0,0,547.28,358.14Z"/></clipPath><clipPath id="clip-path-15" transform="translate(-528.06 -316.95)"><path id="SVGID-14" data-name="SVGID" class="cls-1" d="M547.21,359.67l.89.16a.58.58,0,0,1-.31.2l-.89-.16A.65.65,0,0,0,547.21,359.67Z"/></clipPath><clipPath id="clip-path-16" transform="translate(-528.06 -316.95)"><path id="SVGID-15" data-name="SVGID" class="cls-1" d="M547.42,357l.89.16a.9.9,0,0,1,.3.67l-.89-.16A.88.88,0,0,0,547.42,357Z"/></clipPath><clipPath id="clip-path-17" transform="translate(-528.06 -316.95)"><path id="SVGID-16" data-name="SVGID" class="cls-1" d="M547.63,358.75l.89.16a2.39,2.39,0,0,1-.42.92l-.89-.16A2.25,2.25,0,0,0,547.63,358.75Z"/></clipPath><clipPath id="clip-path-18" transform="translate(-528.06 -316.95)"><path id="SVGID-17" data-name="SVGID" class="cls-1" d="M547.72,357.63l.89.16a3.11,3.11,0,0,1-.09,1.12l-.89-.16A3.13,3.13,0,0,0,547.72,357.63Z"/></clipPath><clipPath id="clip-path-19" transform="translate(-528.06 -316.95)"><path id="SVGID-18" data-name="SVGID" class="cls-1" d="M552.15,347.91l.89.16h0c-.12,0-.25.27-.28.54s0,.42.14.44l-.89-.16c-.1,0-.16-.2-.13-.44s.15-.52.27-.54Z"/></clipPath><clipPath id="clip-path-20" transform="translate(-528.06 -316.95)"><path id="SVGID-19" data-name="SVGID" class="cls-1" d="M552.89,349.05h0l-.89-.16h0c.13,0,.25-.27.28-.53s0-.43-.13-.45l.89.16c.1,0,.15.2.13.45S553,349,552.89,349.05Z"/></clipPath><clipPath id="clip-path-21" transform="translate(-528.06 -316.95)"><path id="SVGID-20" data-name="SVGID" class="cls-1" d="M552.32,346.92l.89.17c.3.05.48.61.4,1.33s-.45,1.53-.82,1.61h-.11l-.89-.17h.11c.37-.08.74-.8.82-1.61S552.63,347,552.32,346.92Z"/></clipPath></defs><path class="cls-2" d="M550.23,346.57c0,11.27-16.39,17.56-20.21,27.91-.81,17.83-6.06,28.31,29.87,36.95,26.84,3.05,47.26,1.32,49.91-6.31s14.55-53.23-7.66-77.43C570.25,301.44,557.75,335.28,550.23,346.57Z" transform="translate(-528.06 -316.95)"/><rect class="cls-3" x="1.44" y="53.53" width="85" height="4" rx="2"/><rect class="cls-4" x="529.5" y="367.48" width="1" height="9" rx="0.5" transform="translate(-426.2 -430.74) rotate(13.55)"/><path class="cls-3" d="M549.5,363.48s-2.76-2.25-3.38,3.08-.62,8.79.38,10.92.82,3.8,2,4,7.57-1.57,8.29-2.5-1.29-10.7-2.29-12.42S549.5,363.48,549.5,363.48Z" transform="translate(-528.06 -316.95)"/><ellipse class="cls-5" cx="19.94" cy="54.53" rx="2" ry="7.5"/><path class="cls-6" d="M564.5,328.48l-8.08,15.06s-1.92,3.91-1.42,6.92-.5,4.8-.5,6.41-1,1.72-.5,5.16-.5,10.45,0,12.45.42,6-1,8-1.46,2.64-1,3.82-1.58,6.18,1,9.68,23.76,6.56,28.15,7,18.39-1.53,20.39-1.53S614.07,386,614.07,386s5-34.3-6.8-51.42-32-17.15-32-17.15Z" transform="translate(-528.06 -316.95)"/><g class="cls-7"><path d="M545.69,364c-.19.54-.38,1.08-.55,1.62a7.44,7.44,0,0,0-.34,1.62v.43a3.4,3.4,0,0,1-.06.46,7.9,7.9,0,0,1-.22.87,13.68,13.68,0,0,1-.63,1.65l0-.31a11.12,11.12,0,0,1,.53,3.88,7.82,7.82,0,0,1-.27.94,5.66,5.66,0,0,0-.14.84c-.06.59-.06,1.21-.08,1.83a3.87,3.87,0,0,1-.16,1c-.11.35-.28.64-.33.84a1,1,0,0,0,.1.66c.11.24.28.51.43.82a9.56,9.56,0,0,1,.59,1.81,6,6,0,0,0,.28.88.83.83,0,0,0,.63.57.88.88,0,0,1-.8-.48,5.71,5.71,0,0,1-.44-.85,13.13,13.13,0,0,0-.8-1.64,2.8,2.8,0,0,1-.77-1.93c.08-.41.23-.67.28-.92a2.6,2.6,0,0,0,.07-.8,17.69,17.69,0,0,1,0-1.92,7,7,0,0,1,.15-1c.07-.33.24-.7.25-.86a6.28,6.28,0,0,0-.07-1.71c-.09-.59-.19-1.2-.32-1.79l0-.17.07-.13c.25-.49.5-1,.7-1.51a5,5,0,0,0,.42-1.58,6.31,6.31,0,0,1,.61-1.66A15.85,15.85,0,0,1,545.69,364Z" transform="translate(-528.06 -316.95)"/></g><g class="cls-8"><path class="cls-9" d="M569.5,333.54c-1,2,.33,7.89-.83,6.94" transform="translate(-528.06 -316.95)"/><path d="M569.5,333.54a12.39,12.39,0,0,0,0,1.83c0,.61.08,1.21.1,1.83a16.83,16.83,0,0,1,0,1.87,5.71,5.71,0,0,1-.17,1,1.77,1.77,0,0,1-.22.49c-.07.08-.19.18-.31.14a.4.4,0,0,1-.2-.18.27.27,0,0,0,.21,0s0-.06,0-.11a1.94,1.94,0,0,0,0-.41c0-.29-.08-.6-.12-.9a16.32,16.32,0,0,1-.18-1.85,10.12,10.12,0,0,1,.13-1.9A3.38,3.38,0,0,1,569.5,333.54Z" transform="translate(-528.06 -316.95)"/></g><g class="cls-8"><path class="cls-9" d="M566.06,336.65c-1,2,.33,7.89-.84,6.94" transform="translate(-528.06 -316.95)"/><path d="M566.06,336.65a10.15,10.15,0,0,0,0,1.83c0,.61.07,1.21.1,1.83a14.75,14.75,0,0,1,0,1.87,5.71,5.71,0,0,1-.17,1,1.33,1.33,0,0,1-.22.49.3.3,0,0,1-.31.14.44.44,0,0,1-.2-.18.33.33,0,0,0,.21,0c.05,0,0-.07.06-.12a2,2,0,0,0,0-.41c0-.29-.09-.59-.13-.9-.09-.61-.14-1.23-.17-1.85a9.34,9.34,0,0,1,.12-1.9A3.43,3.43,0,0,1,566.06,336.65Z" transform="translate(-528.06 -316.95)"/></g><g class="cls-8"><path class="cls-9" d="M562.06,340.65c-1,2,.33,7.89-.84,6.94" transform="translate(-528.06 -316.95)"/><path d="M562.06,340.65a10.15,10.15,0,0,0,0,1.83c0,.61.07,1.21.1,1.83a14.75,14.75,0,0,1,0,1.87,5.71,5.71,0,0,1-.17,1,1.33,1.33,0,0,1-.22.49.3.3,0,0,1-.31.14.44.44,0,0,1-.2-.18.33.33,0,0,0,.21,0c.05,0,0-.07.06-.12a2,2,0,0,0,0-.41c0-.29-.09-.59-.13-.9-.09-.61-.14-1.23-.17-1.85a9.34,9.34,0,0,1,.12-1.9A3.43,3.43,0,0,1,562.06,340.65Z" transform="translate(-528.06 -316.95)"/></g><g class="cls-8"><path class="cls-9" d="M571.06,338.65c-1,2,.33,7.89-.84,6.94" transform="translate(-528.06 -316.95)"/><path d="M571.06,338.65a10.15,10.15,0,0,0,0,1.83c0,.61.07,1.21.1,1.83a14.75,14.75,0,0,1,0,1.87,5.71,5.71,0,0,1-.17,1,1.33,1.33,0,0,1-.22.49.3.3,0,0,1-.31.14.44.44,0,0,1-.2-.18.33.33,0,0,0,.21,0c.05,0,0-.07.06-.12a2,2,0,0,0,0-.41c0-.29-.09-.59-.13-.9-.09-.61-.14-1.23-.17-1.85a9.34,9.34,0,0,1,.12-1.9A3.43,3.43,0,0,1,571.06,338.65Z" transform="translate(-528.06 -316.95)"/></g><g class="cls-8"><path class="cls-9" d="M569.06,345.65c-1,2,.33,7.89-.84,6.94" transform="translate(-528.06 -316.95)"/><path d="M569.06,345.65a10.15,10.15,0,0,0,0,1.83c0,.61.07,1.21.1,1.83a14.75,14.75,0,0,1,0,1.87,5.71,5.71,0,0,1-.17,1,1.33,1.33,0,0,1-.22.49.3.3,0,0,1-.31.14.44.44,0,0,1-.2-.18.33.33,0,0,0,.21,0c.05,0,0-.07.06-.12a2,2,0,0,0,0-.41c0-.29-.09-.59-.13-.9-.09-.61-.14-1.23-.17-1.85a9.34,9.34,0,0,1,.12-1.9A3.43,3.43,0,0,1,569.06,345.65Z" transform="translate(-528.06 -316.95)"/></g><g class="cls-8"><path class="cls-9" d="M566.06,347.65c-1,2,.33,7.89-.84,6.94" transform="translate(-528.06 -316.95)"/><path d="M566.06,347.65a10.15,10.15,0,0,0,0,1.83c0,.61.07,1.21.1,1.83a14.75,14.75,0,0,1,0,1.87,5.71,5.71,0,0,1-.17,1,1.33,1.33,0,0,1-.22.49.3.3,0,0,1-.31.14.44.44,0,0,1-.2-.18.33.33,0,0,0,.21,0c.05,0,0-.07.06-.12a2,2,0,0,0,0-.41c0-.29-.09-.59-.13-.9-.09-.61-.14-1.23-.17-1.85a9.34,9.34,0,0,1,.12-1.9A3.43,3.43,0,0,1,566.06,347.65Z" transform="translate(-528.06 -316.95)"/></g><g class="cls-8"><path class="cls-9" d="M562.06,349.65c-1,2,.33,7.89-.84,6.94" transform="translate(-528.06 -316.95)"/><path d="M562.06,349.65a10.15,10.15,0,0,0,0,1.83c0,.61.07,1.21.1,1.83a14.75,14.75,0,0,1,0,1.87,5.71,5.71,0,0,1-.17,1,1.33,1.33,0,0,1-.22.49.3.3,0,0,1-.31.14.44.44,0,0,1-.2-.18.33.33,0,0,0,.21,0c.05,0,0-.07.06-.12a2,2,0,0,0,0-.41c0-.29-.09-.59-.13-.9-.09-.61-.14-1.23-.17-1.85a9.34,9.34,0,0,1,.12-1.9A3.43,3.43,0,0,1,562.06,349.65Z" transform="translate(-528.06 -316.95)"/></g><g class="cls-8"><path class="cls-9" d="M559.06,350.65c-1,2,.33,7.89-.84,6.94" transform="translate(-528.06 -316.95)"/><path d="M559.06,350.65a10.15,10.15,0,0,0,0,1.83c0,.61.07,1.21.1,1.83a14.75,14.75,0,0,1,0,1.87,5.71,5.71,0,0,1-.17,1,1.33,1.33,0,0,1-.22.49.3.3,0,0,1-.31.14.44.44,0,0,1-.2-.18.33.33,0,0,0,.21,0c.05,0,0-.07.06-.12a2,2,0,0,0,0-.41c0-.29-.09-.59-.13-.9-.09-.61-.14-1.23-.17-1.85a9.34,9.34,0,0,1,.12-1.9A3.43,3.43,0,0,1,559.06,350.65Z" transform="translate(-528.06 -316.95)"/></g><g class="cls-8"><path class="cls-9" d="M559.06,342.65c-1,2,.33,7.89-.84,6.94" transform="translate(-528.06 -316.95)"/><path d="M559.06,342.65a10.15,10.15,0,0,0,0,1.83c0,.61.07,1.21.1,1.83a14.75,14.75,0,0,1,0,1.87,5.71,5.71,0,0,1-.17,1,1.33,1.33,0,0,1-.22.49.3.3,0,0,1-.31.14.44.44,0,0,1-.2-.18.33.33,0,0,0,.21,0c.05,0,0-.07.06-.12a2,2,0,0,0,0-.41c0-.29-.09-.59-.13-.9-.09-.61-.14-1.23-.17-1.85a9.34,9.34,0,0,1,.12-1.9A3.43,3.43,0,0,1,559.06,342.65Z" transform="translate(-528.06 -316.95)"/></g><g class="cls-8"><path class="cls-9" d="M564.06,343.65c-1,2,.33,7.89-.84,6.94" transform="translate(-528.06 -316.95)"/><path d="M564.06,343.65a10.15,10.15,0,0,0,0,1.83c0,.61.07,1.21.1,1.83a14.75,14.75,0,0,1,0,1.87,5.71,5.71,0,0,1-.17,1,1.33,1.33,0,0,1-.22.49.3.3,0,0,1-.31.14.44.44,0,0,1-.2-.18.33.33,0,0,0,.21,0c.05,0,0-.07.06-.12a2,2,0,0,0,0-.41c0-.29-.09-.59-.13-.9-.09-.61-.14-1.23-.17-1.85a9.34,9.34,0,0,1,.12-1.9A3.43,3.43,0,0,1,564.06,343.65Z" transform="translate(-528.06 -316.95)"/></g><g class="cls-8"><path class="cls-9" d="M571.06,351.65c-1,2,.33,7.89-.84,6.94" transform="translate(-528.06 -316.95)"/><path d="M571.06,351.65a10.15,10.15,0,0,0,0,1.83c0,.61.07,1.21.1,1.83a14.75,14.75,0,0,1,0,1.87,5.71,5.71,0,0,1-.17,1,1.33,1.33,0,0,1-.22.49.3.3,0,0,1-.31.14.44.44,0,0,1-.2-.18.33.33,0,0,0,.21,0c.05,0,0-.07.06-.12a2,2,0,0,0,0-.41c0-.29-.09-.59-.13-.9-.09-.61-.14-1.23-.17-1.85a9.34,9.34,0,0,1,.12-1.9A3.43,3.43,0,0,1,571.06,351.65Z" transform="translate(-528.06 -316.95)"/></g><g class="cls-8"><path class="cls-9" d="M603.06,345.65c-1,2,.33,7.89-.84,6.94" transform="translate(-528.06 -316.95)"/><path d="M603.06,345.65a10.15,10.15,0,0,0,0,1.83c0,.61.07,1.21.1,1.83a14.75,14.75,0,0,1,0,1.87,5.71,5.71,0,0,1-.17,1,1.33,1.33,0,0,1-.22.49.3.3,0,0,1-.31.14.44.44,0,0,1-.2-.18.33.33,0,0,0,.21,0c.05,0,0-.07.06-.12a2,2,0,0,0,0-.41c0-.29-.09-.59-.13-.9-.09-.61-.14-1.23-.17-1.85a9.34,9.34,0,0,1,.12-1.9A3.43,3.43,0,0,1,603.06,345.65Z" transform="translate(-528.06 -316.95)"/></g><g class="cls-8"><path class="cls-9" d="M606.06,343.59c-1,2,.33,7.89-.84,7" transform="translate(-528.06 -316.95)"/><path d="M606.06,343.59a10.26,10.26,0,0,0,0,1.84c0,.6.07,1.21.1,1.82a14.65,14.65,0,0,1,0,1.87,5.37,5.37,0,0,1-.17,1,1.37,1.37,0,0,1-.22.5.32.32,0,0,1-.31.13.42.42,0,0,1-.2-.17.4.4,0,0,0,.21,0c.05,0,0-.06.06-.11a1.94,1.94,0,0,0,0-.41c0-.3-.09-.6-.13-.9-.09-.61-.14-1.23-.17-1.86a9.38,9.38,0,0,1,.12-1.9A3.46,3.46,0,0,1,606.06,343.59Z" transform="translate(-528.06 -316.95)"/></g><g class="cls-8"><path class="cls-9" d="M610.06,344.59c-1,2,.33,7.89-.84,7" transform="translate(-528.06 -316.95)"/><path d="M610.06,344.59a10.26,10.26,0,0,0,0,1.84c0,.6.07,1.21.1,1.82a14.65,14.65,0,0,1,0,1.87,5.37,5.37,0,0,1-.17,1,1.37,1.37,0,0,1-.22.5.32.32,0,0,1-.31.13.42.42,0,0,1-.2-.17.4.4,0,0,0,.21,0c.05,0,0-.06.06-.11a1.94,1.94,0,0,0,0-.41c0-.3-.09-.6-.13-.9-.09-.61-.14-1.23-.17-1.86a9.38,9.38,0,0,1,.12-1.9A3.46,3.46,0,0,1,610.06,344.59Z" transform="translate(-528.06 -316.95)"/></g><g class="cls-8"><path class="cls-9" d="M604.06,355.59c-1,2,.33,7.89-.84,7" transform="translate(-528.06 -316.95)"/><path d="M604.06,355.59a10.26,10.26,0,0,0,0,1.84c0,.6.07,1.21.1,1.82a14.65,14.65,0,0,1,0,1.87,5.37,5.37,0,0,1-.17,1,1.37,1.37,0,0,1-.22.5.32.32,0,0,1-.31.13.42.42,0,0,1-.2-.17.4.4,0,0,0,.21,0c.05,0,0-.06.06-.11a1.94,1.94,0,0,0,0-.41c0-.3-.09-.6-.13-.9-.09-.61-.14-1.23-.17-1.86a9.38,9.38,0,0,1,.12-1.9A3.46,3.46,0,0,1,604.06,355.59Z" transform="translate(-528.06 -316.95)"/></g><g class="cls-8"><path class="cls-9" d="M611.06,353.59c-1,2,.33,7.89-.84,7" transform="translate(-528.06 -316.95)"/><path d="M611.06,353.59a10.26,10.26,0,0,0,0,1.84c0,.6.07,1.21.1,1.82a14.65,14.65,0,0,1,0,1.87,5.37,5.37,0,0,1-.17,1,1.37,1.37,0,0,1-.22.5.32.32,0,0,1-.31.13.42.42,0,0,1-.2-.17.4.4,0,0,0,.21,0c.05,0,0-.06.06-.11a1.94,1.94,0,0,0,0-.41c0-.3-.09-.6-.13-.9-.09-.61-.14-1.23-.17-1.86a9.38,9.38,0,0,1,.12-1.9A3.46,3.46,0,0,1,611.06,353.59Z" transform="translate(-528.06 -316.95)"/></g><g class="cls-8"><path class="cls-9" d="M608.06,354.59c-1,2,.33,7.89-.84,7" transform="translate(-528.06 -316.95)"/><path d="M608.06,354.59a10.26,10.26,0,0,0,0,1.84c0,.6.07,1.21.1,1.82a14.65,14.65,0,0,1,0,1.87,5.37,5.37,0,0,1-.17,1,1.37,1.37,0,0,1-.22.5.32.32,0,0,1-.31.13.42.42,0,0,1-.2-.17.4.4,0,0,0,.21,0c.05,0,0-.06.06-.11a1.94,1.94,0,0,0,0-.41c0-.3-.09-.6-.13-.9-.09-.61-.14-1.23-.17-1.86a9.38,9.38,0,0,1,.12-1.9A3.46,3.46,0,0,1,608.06,354.59Z" transform="translate(-528.06 -316.95)"/></g><g class="cls-8"><path class="cls-9" d="M600.06,361.59c-1,2,.33,7.89-.84,7" transform="translate(-528.06 -316.95)"/><path d="M600.06,361.59a10.26,10.26,0,0,0,0,1.84c0,.6.07,1.21.1,1.82a14.65,14.65,0,0,1,0,1.87,5.37,5.37,0,0,1-.17,1,1.37,1.37,0,0,1-.22.5.32.32,0,0,1-.31.13.42.42,0,0,1-.2-.17.4.4,0,0,0,.21,0c.05,0,0-.06.06-.11a1.94,1.94,0,0,0,0-.41c0-.3-.09-.6-.13-.9-.09-.61-.14-1.23-.17-1.86a9.38,9.38,0,0,1,.12-1.9A3.46,3.46,0,0,1,600.06,361.59Z" transform="translate(-528.06 -316.95)"/></g><g class="cls-8"><path class="cls-9" d="M566.06,355.59c-1,2,.33,7.89-.84,7" transform="translate(-528.06 -316.95)"/><path d="M566.06,355.59a10.26,10.26,0,0,0,0,1.84c0,.6.07,1.21.1,1.82a14.65,14.65,0,0,1,0,1.87,5.37,5.37,0,0,1-.17,1,1.37,1.37,0,0,1-.22.5.32.32,0,0,1-.31.13.42.42,0,0,1-.2-.17.4.4,0,0,0,.21,0c.05,0,0-.06.06-.11a1.94,1.94,0,0,0,0-.41c0-.3-.09-.6-.13-.9-.09-.61-.14-1.23-.17-1.86a9.38,9.38,0,0,1,.12-1.9A3.46,3.46,0,0,1,566.06,355.59Z" transform="translate(-528.06 -316.95)"/></g><g class="cls-8"><path class="cls-9" d="M603.06,362.59c-1,2,.33,7.89-.84,7" transform="translate(-528.06 -316.95)"/><path d="M603.06,362.59a10.26,10.26,0,0,0,0,1.84c0,.6.07,1.21.1,1.82a14.65,14.65,0,0,1,0,1.87,5.37,5.37,0,0,1-.17,1,1.37,1.37,0,0,1-.22.5.32.32,0,0,1-.31.13.42.42,0,0,1-.2-.17.4.4,0,0,0,.21,0c.05,0,0-.06.06-.11a1.94,1.94,0,0,0,0-.41c0-.3-.09-.6-.13-.9-.09-.61-.14-1.23-.17-1.86a9.38,9.38,0,0,1,.12-1.9A3.46,3.46,0,0,1,603.06,362.59Z" transform="translate(-528.06 -316.95)"/></g><g class="cls-8"><path class="cls-9" d="M611.06,365.59c-1,2,.33,7.89-.84,7" transform="translate(-528.06 -316.95)"/><path d="M611.06,365.59a10.26,10.26,0,0,0,0,1.84c0,.6.07,1.21.1,1.82a14.65,14.65,0,0,1,0,1.87,5.37,5.37,0,0,1-.17,1,1.37,1.37,0,0,1-.22.5.32.32,0,0,1-.31.13.42.42,0,0,1-.2-.17.4.4,0,0,0,.21,0c.05,0,0-.06.06-.11a1.94,1.94,0,0,0,0-.41c0-.3-.09-.6-.13-.9-.09-.61-.14-1.23-.17-1.86a9.38,9.38,0,0,1,.12-1.9A3.46,3.46,0,0,1,611.06,365.59Z" transform="translate(-528.06 -316.95)"/></g><g class="cls-8"><path class="cls-9" d="M608.06,365.59c-1,2,.33,7.89-.84,7" transform="translate(-528.06 -316.95)"/><path d="M608.06,365.59a10.26,10.26,0,0,0,0,1.84c0,.6.07,1.21.1,1.82a14.65,14.65,0,0,1,0,1.87,5.37,5.37,0,0,1-.17,1,1.37,1.37,0,0,1-.22.5.32.32,0,0,1-.31.13.42.42,0,0,1-.2-.17.4.4,0,0,0,.21,0c.05,0,0-.06.06-.11a1.94,1.94,0,0,0,0-.41c0-.3-.09-.6-.13-.9-.09-.61-.14-1.23-.17-1.86a9.38,9.38,0,0,1,.12-1.9A3.46,3.46,0,0,1,608.06,365.59Z" transform="translate(-528.06 -316.95)"/></g><g class="cls-8"><path class="cls-9" d="M597.06,370.59c-1,2,.33,7.89-.84,7" transform="translate(-528.06 -316.95)"/><path d="M597.06,370.59a10.26,10.26,0,0,0,0,1.84c0,.6.07,1.21.1,1.82a14.65,14.65,0,0,1,0,1.87,5.37,5.37,0,0,1-.17,1,1.37,1.37,0,0,1-.22.5.32.32,0,0,1-.31.13.42.42,0,0,1-.2-.17.4.4,0,0,0,.21,0c.05,0,0-.06.06-.11a1.94,1.94,0,0,0,0-.41c0-.3-.09-.6-.13-.9-.09-.61-.14-1.23-.17-1.86a9.38,9.38,0,0,1,.12-1.9A3.46,3.46,0,0,1,597.06,370.59Z" transform="translate(-528.06 -316.95)"/></g><g class="cls-8"><path class="cls-9" d="M603.06,368.59c-1,2,.33,7.89-.84,7" transform="translate(-528.06 -316.95)"/><path d="M603.06,368.59a10.26,10.26,0,0,0,0,1.84c0,.6.07,1.21.1,1.82a14.65,14.65,0,0,1,0,1.87,5.37,5.37,0,0,1-.17,1,1.37,1.37,0,0,1-.22.5.32.32,0,0,1-.31.13.42.42,0,0,1-.2-.17.4.4,0,0,0,.21,0c.05,0,0-.06.06-.11a1.94,1.94,0,0,0,0-.41c0-.3-.09-.6-.13-.9-.09-.61-.14-1.23-.17-1.86a9.38,9.38,0,0,1,.12-1.9A3.46,3.46,0,0,1,603.06,368.59Z" transform="translate(-528.06 -316.95)"/></g><g class="cls-8"><path class="cls-9" d="M610.06,373.93c-1,2,.33,7.88-.84,6.94" transform="translate(-528.06 -316.95)"/><path d="M610.06,373.93a10.15,10.15,0,0,0,0,1.83c0,.61.07,1.21.1,1.83a14.75,14.75,0,0,1,0,1.87,5.71,5.71,0,0,1-.17,1,1.4,1.4,0,0,1-.22.49c-.06.07-.18.18-.31.13a.42.42,0,0,1-.2-.17.27.27,0,0,0,.21,0c.05,0,0-.06.06-.11a1.94,1.94,0,0,0,0-.41c0-.29-.09-.6-.13-.9-.09-.61-.14-1.23-.17-1.85a9.48,9.48,0,0,1,.12-1.91A3.4,3.4,0,0,1,610.06,373.93Z" transform="translate(-528.06 -316.95)"/></g><g class="cls-8"><path class="cls-9" d="M557.06,379.93c-1,2,.33,7.88-.84,6.94" transform="translate(-528.06 -316.95)"/><path d="M557.06,379.93a10.15,10.15,0,0,0,0,1.83c0,.61.07,1.21.1,1.83a14.75,14.75,0,0,1,0,1.87,5.71,5.71,0,0,1-.17,1,1.4,1.4,0,0,1-.22.49c-.06.07-.18.18-.31.13a.42.42,0,0,1-.2-.17.27.27,0,0,0,.21,0c.05,0,0-.06.06-.11a1.94,1.94,0,0,0,0-.41c0-.29-.09-.6-.13-.9-.09-.61-.14-1.23-.17-1.85a9.48,9.48,0,0,1,.12-1.91A3.4,3.4,0,0,1,557.06,379.93Z" transform="translate(-528.06 -316.95)"/></g><g class="cls-8"><path class="cls-9" d="M594.06,375.93c-1,2,.33,7.88-.84,6.94" transform="translate(-528.06 -316.95)"/><path d="M594.06,375.93a10.15,10.15,0,0,0,0,1.83c0,.61.07,1.21.1,1.83a14.75,14.75,0,0,1,0,1.87,5.71,5.71,0,0,1-.17,1,1.4,1.4,0,0,1-.22.49c-.06.07-.18.18-.31.13a.42.42,0,0,1-.2-.17.27.27,0,0,0,.21,0c.05,0,0-.06.06-.11a1.94,1.94,0,0,0,0-.41c0-.29-.09-.6-.13-.9-.09-.61-.14-1.23-.17-1.85a9.48,9.48,0,0,1,.12-1.91A3.4,3.4,0,0,1,594.06,375.93Z" transform="translate(-528.06 -316.95)"/></g><g class="cls-8"><path class="cls-9" d="M606.06,375.93c-1,2,.33,7.88-.84,6.94" transform="translate(-528.06 -316.95)"/><path d="M606.06,375.93a10.15,10.15,0,0,0,0,1.83c0,.61.07,1.21.1,1.83a14.75,14.75,0,0,1,0,1.87,5.71,5.71,0,0,1-.17,1,1.4,1.4,0,0,1-.22.49c-.06.07-.18.18-.31.13a.42.42,0,0,1-.2-.17.27.27,0,0,0,.21,0c.05,0,0-.06.06-.11a1.94,1.94,0,0,0,0-.41c0-.29-.09-.6-.13-.9-.09-.61-.14-1.23-.17-1.85a9.48,9.48,0,0,1,.12-1.91A3.4,3.4,0,0,1,606.06,375.93Z" transform="translate(-528.06 -316.95)"/></g><g class="cls-8"><path class="cls-9" d="M600.06,375.93c-1,2,.33,7.88-.84,6.94" transform="translate(-528.06 -316.95)"/><path d="M600.06,375.93a10.15,10.15,0,0,0,0,1.83c0,.61.07,1.21.1,1.83a14.75,14.75,0,0,1,0,1.87,5.71,5.71,0,0,1-.17,1,1.4,1.4,0,0,1-.22.49c-.06.07-.18.18-.31.13a.42.42,0,0,1-.2-.17.27.27,0,0,0,.21,0c.05,0,0-.06.06-.11a1.94,1.94,0,0,0,0-.41c0-.29-.09-.6-.13-.9-.09-.61-.14-1.23-.17-1.85a9.48,9.48,0,0,1,.12-1.91A3.4,3.4,0,0,1,600.06,375.93Z" transform="translate(-528.06 -316.95)"/></g><g class="cls-8"><path class="cls-9" d="M588.06,379.93c-1,2,.33,7.88-.84,6.94" transform="translate(-528.06 -316.95)"/><path d="M588.06,379.93a10.15,10.15,0,0,0,0,1.83c0,.61.07,1.21.1,1.83a14.75,14.75,0,0,1,0,1.87,5.71,5.71,0,0,1-.17,1,1.4,1.4,0,0,1-.22.49c-.06.07-.18.18-.31.13a.42.42,0,0,1-.2-.17.27.27,0,0,0,.21,0c.05,0,0-.06.06-.11a1.94,1.94,0,0,0,0-.41c0-.29-.09-.6-.13-.9-.09-.61-.14-1.23-.17-1.85a9.48,9.48,0,0,1,.12-1.91A3.4,3.4,0,0,1,588.06,379.93Z" transform="translate(-528.06 -316.95)"/></g><g class="cls-8"><path class="cls-9" d="M582.06,379.93c-1,2,.33,7.88-.84,6.94" transform="translate(-528.06 -316.95)"/><path d="M582.06,379.93a10.15,10.15,0,0,0,0,1.83c0,.61.07,1.21.1,1.83a14.75,14.75,0,0,1,0,1.87,5.71,5.71,0,0,1-.17,1,1.4,1.4,0,0,1-.22.49c-.06.07-.18.18-.31.13a.42.42,0,0,1-.2-.17.27.27,0,0,0,.21,0c.05,0,0-.06.06-.11a1.94,1.94,0,0,0,0-.41c0-.29-.09-.6-.13-.9-.09-.61-.14-1.23-.17-1.85a9.48,9.48,0,0,1,.12-1.91A3.4,3.4,0,0,1,582.06,379.93Z" transform="translate(-528.06 -316.95)"/></g><g class="cls-10"><path class="cls-2" d="M600.5,352c0-14.62-6.17-26.48-13.77-26.48S573,337.34,573,352a49.43,49.43,0,0,0,.65,8.05,63,63,0,0,0-8.3-.54c-15.64,0-28.31,5.49-28.31,12.26S549.67,384,565.31,384c10.67,0,20-2.56,24.78-6.33C596.07,374.76,600.5,364.36,600.5,352Z" transform="translate(-528.06 -316.95)"/></g><line class="cls-11" x1="19.94" y1="45.08" x2="19.94" y2="64.47"/><path d="M548,362c.15,1.62.23,3.24.29,4.85s.08,3.23.08,4.85,0,3.23-.08,4.85-.13,3.23-.29,4.84c-.16-1.61-.23-3.23-.29-4.84s-.08-3.24-.08-4.85,0-3.23.08-4.85S547.85,363.65,548,362Z" transform="translate(-528.06 -316.95)"/><path class="cls-9" d="M554.49,341.43a47.41,47.41,0,0,1-2,7c-.86,2.27-1.89,4.46-2.92,6.66a29.22,29.22,0,0,1-4,6.15l-.56.71-.49.7a15.24,15.24,0,0,0-.83,1.55,34,34,0,0,0-1.31,3.31,77.09,77.09,0,0,0-3.33,14,20.47,20.47,0,0,0,.41,7.09c.41,2.38,1,4.72,1.58,7.06a66.25,66.25,0,0,1-2.06-7,20.92,20.92,0,0,1-.69-7.28,59.77,59.77,0,0,1,1.21-7.18,69.22,69.22,0,0,1,1.94-7,34.18,34.18,0,0,1,1.39-3.4,15.26,15.26,0,0,1,.9-1.63l.56-.78.57-.7c.77-.93,1.5-1.87,2.17-2.85a35.08,35.08,0,0,0,1.82-3.08A70.85,70.85,0,0,0,554.49,341.43Z" transform="translate(-528.06 -316.95)"/><g class="cls-12"><g class="cls-12"><g class="cls-13"><g class="cls-12"><path class="cls-14" d="M550.14,352.91l.89.16h0a.21.21,0,0,0-.1.06L550,353a.15.15,0,0,1,.1-.06,0,0,0,0,1,0,0" transform="translate(-528.06 -316.95)"/><path class="cls-15" d="M550,353l.89.16,0,0L550,353l0,0" transform="translate(-528.06 -316.95)"/><path class="cls-16" d="M550,353l.89.16,0,0L550,353l0,0" transform="translate(-528.06 -316.95)"/><path class="cls-17" d="M550,353l.89.16v0L550,353h0" transform="translate(-528.06 -316.95)"/><path class="cls-18" d="M550,353l.89.17v0l-.89-.17v0" transform="translate(-528.06 -316.95)"/><path class="cls-19" d="M550,353.05l.89.17h0l-.89-.16v0" transform="translate(-528.06 -316.95)"/><path class="cls-20" d="M549.94,353.07l.89.16v0l-.89-.16v0" transform="translate(-528.06 -316.95)"/><path class="cls-21" d="M549.93,353.09l.89.16v0l-.89-.16v0" transform="translate(-528.06 -316.95)"/><path class="cls-22" d="M549.92,353.11l.89.16h0l-.89-.16h0" transform="translate(-528.06 -316.95)"/><path class="cls-23" d="M549.92,353.12l.89.16v0l-.89-.16v0" transform="translate(-528.06 -316.95)"/><path class="cls-24" d="M549.91,353.14l.89.16v0l-.89-.16v0" transform="translate(-528.06 -316.95)"/><path class="cls-25" d="M549.9,353.16l.89.16v0l-.89-.17h0" transform="translate(-528.06 -316.95)"/><path class="cls-26" d="M549.89,353.17l.89.17h0l-.89-.16v0" transform="translate(-528.06 -316.95)"/><path class="cls-27" d="M549.89,353.19l.89.16v0l-.89-.16v0" transform="translate(-528.06 -316.95)"/><path class="cls-28" d="M549.88,353.21l.89.16v0l-.89-.16v0" transform="translate(-528.06 -316.95)"/><path class="cls-29" d="M549.88,353.23l.89.16h0l-.89-.16h0" transform="translate(-528.06 -316.95)"/><path class="cls-30" d="M549.87,353.24l.89.16v0l-.89-.16v0" transform="translate(-528.06 -316.95)"/><path class="cls-31" d="M549.87,353.26l.89.16h0l-.89-.16h0" transform="translate(-528.06 -316.95)"/><path class="cls-32" d="M549.86,353.27l.89.16v0l-.89-.16v0" transform="translate(-528.06 -316.95)"/><path class="cls-33" d="M549.86,353.29l.89.16h0l-.89-.16h0" transform="translate(-528.06 -316.95)"/><polyline class="cls-34" points="21.79 36.34 22.68 36.51 22.68 36.52 21.79 36.36 21.79 36.34"/><path class="cls-35" d="M549.85,353.31l.89.16h0l-.89-.16h0" transform="translate(-528.06 -316.95)"/><polyline class="cls-36" points="21.79 36.37 22.68 36.53 22.68 36.54 21.79 36.38 21.79 36.37"/><polyline class="cls-37" points="21.79 36.38 22.68 36.54 22.67 36.55 21.79 36.39 21.79 36.38"/><polyline class="cls-38" points="21.79 36.39 22.67 36.55 22.67 36.56 21.78 36.4 21.79 36.39"/><polyline class="cls-39" points="21.78 36.4 22.67 36.56 22.67 36.57 21.78 36.41 21.78 36.4"/><polyline class="cls-40" points="21.78 36.41 22.67 36.57 22.67 36.58 21.78 36.42 21.78 36.41"/><polyline class="cls-41" points="21.78 36.42 22.67 36.58 22.67 36.59 21.78 36.43 21.78 36.42"/><polyline class="cls-42" points="21.78 36.43 22.67 36.59 22.66 36.6 21.77 36.44 21.78 36.43"/><polyline class="cls-43" points="21.77 36.44 22.66 36.6 22.66 36.61 21.77 36.45 21.77 36.44"/><path class="cls-44" d="M549.84,353.41l.89.16h0l-.88-.16h0" transform="translate(-528.06 -316.95)"/><path class="cls-45" d="M549.84,353.42l.88.16v0l-.89-.17h0" transform="translate(-528.06 -316.95)"/><path class="cls-46" d="M549.83,353.43l.89.17h0l-.89-.16v0" transform="translate(-528.06 -316.95)"/><path class="cls-47" d="M549.83,353.45l.89.16h0v.07l-.89-.16v-.07h0" transform="translate(-528.06 -316.95)"/><path class="cls-46" d="M549.83,353.52l.89.16v0l-.89-.16v0" transform="translate(-528.06 -316.95)"/><path class="cls-45" d="M549.83,353.54l.89.16v0l-.89-.16v0" transform="translate(-528.06 -316.95)"/><path class="cls-44" d="M549.83,353.56l.89.16v0l-.89-.17h0" transform="translate(-528.06 -316.95)"/><path class="cls-43" d="M549.83,353.57l.89.17h0l-.89-.16v0" transform="translate(-528.06 -316.95)"/><path class="cls-42" d="M549.83,353.59l.89.16h0l-.89-.16h0" transform="translate(-528.06 -316.95)"/><path class="cls-41" d="M549.83,353.6l.89.16v0l-.89-.16v0" transform="translate(-528.06 -316.95)"/><path class="cls-40" d="M549.83,353.62l.89.16h0l-.89-.16h0" transform="translate(-528.06 -316.95)"/><path class="cls-39" d="M549.83,353.63l.89.16v0l-.89-.16v0" transform="translate(-528.06 -316.95)"/><path class="cls-38" d="M549.83,353.65l.89.16v0l-.89-.16v0" transform="translate(-528.06 -316.95)"/><path class="cls-37" d="M549.83,353.67l.89.16v0l-.89-.16v0" transform="translate(-528.06 -316.95)"/><path class="cls-36" d="M549.84,353.69l.89.16v0l-.89-.16v0" transform="translate(-528.06 -316.95)"/><path class="cls-35" d="M549.84,353.71l.89.16v0l-.89-.16v0" transform="translate(-528.06 -316.95)"/><path class="cls-34" d="M549.84,353.73l.89.16v0l-.89-.16v0" transform="translate(-528.06 -316.95)"/><path class="cls-33" d="M549.85,353.75l.89.16v0l-.89-.17h0" transform="translate(-528.06 -316.95)"/><path class="cls-32" d="M549.85,353.76l.89.17h0l-.89-.16v0" transform="translate(-528.06 -316.95)"/><path class="cls-31" d="M549.86,353.78l.89.16h0l-.89-.16h0" transform="translate(-528.06 -316.95)"/><path class="cls-30" d="M549.86,353.79l.89.16v0l-.89-.17h0" transform="translate(-528.06 -316.95)"/><polyline class="cls-29" points="21.81 36.85 22.7 37.01 22.7 37.02 21.81 36.86 21.81 36.85"/><polyline class="cls-28" points="21.81 36.86 22.7 37.02 22.71 37.03 21.82 36.87 21.81 36.86"/><polyline class="cls-27" points="21.82 36.87 22.71 37.03 22.71 37.04 21.83 36.88 21.82 36.87"/><polyline class="cls-26" points="21.83 36.88 22.71 37.04 22.72 37.05 21.83 36.89 21.83 36.88"/><polyline class="cls-25" points="21.83 36.89 22.72 37.05 22.73 37.06 21.84 36.9 21.83 36.89"/><polyline class="cls-24" points="21.84 36.9 22.73 37.06 22.74 37.07 21.85 36.91 21.84 36.9"/><polyline class="cls-23" points="21.85 36.91 22.74 37.07 22.74 37.07 21.85 36.91 21.85 36.91"/><polyline class="cls-22" points="21.85 36.91 22.74 37.07 22.75 37.08 21.86 36.92 21.85 36.91"/><polyline class="cls-21" points="21.86 36.92 22.75 37.08 22.76 37.09 21.87 36.92 21.86 36.92"/><polyline class="cls-20" points="21.87 36.92 22.76 37.09 22.77 37.09 21.88 36.93 21.87 36.92"/><polyline class="cls-19" points="21.88 36.93 22.77 37.09 22.78 37.09 21.89 36.93 21.88 36.93"/><polyline class="cls-18" points="21.89 36.93 22.78 37.09 22.79 37.1 21.9 36.94 21.89 36.93"/><polyline class="cls-17" points="21.9 36.94 22.79 37.1 22.79 37.1 21.9 36.94 21.9 36.94"/></g></g></g><g class="cls-12"><g class="cls-48"><g class="cls-12"><path class="cls-49" d="M550.1,353.82l.89.16a.17.17,0,0,1-.1.07h0l-.89-.16h0a.17.17,0,0,0,.1-.07" transform="translate(-528.06 -316.95)"/></g></g></g><g class="cls-12"><g class="cls-50"><g class="cls-12"><polyline class="cls-51" points="22.08 35.95 22.97 36.11 22.97 36.11 22.08 35.95 22.08 35.95"/><polyline class="cls-52" points="22.08 35.95 22.97 36.11 22.98 36.12 22.09 35.95 22.08 35.95"/><polyline class="cls-53" points="22.09 35.95 22.98 36.12 22.99 36.12 22.1 35.96 22.09 35.95"/><polyline class="cls-54" points="22.1 35.96 22.99 36.12 23 36.13 22.11 35.96 22.1 35.96"/><polyline class="cls-55" points="22.11 35.96 23 36.13 23.01 36.13 22.12 35.97 22.11 35.96"/><polyline class="cls-56" points="22.12 35.97 23.01 36.13 23.02 36.14 22.13 35.97 22.12 35.97"/><polyline class="cls-57" points="22.13 35.97 23.02 36.14 23.02 36.14 22.13 35.98 22.13 35.97"/><polyline class="cls-58" points="22.13 35.98 23.02 36.14 23.03 36.15 22.14 35.99 22.13 35.98"/><polyline class="cls-59" points="22.14 35.99 23.03 36.15 23.04 36.16 22.15 35.99 22.14 35.99"/><polyline class="cls-60" points="22.15 35.99 23.04 36.16 23.04 36.17 22.15 36 22.15 35.99"/><polyline class="cls-61" points="22.15 36 23.04 36.17 23.05 36.18 22.16 36.01 22.15 36"/><polyline class="cls-62" points="22.16 36.01 23.05 36.18 23.06 36.19 22.17 36.02 22.16 36.01"/><polyline class="cls-63" points="22.17 36.02 23.06 36.19 23.06 36.2 22.17 36.03 22.17 36.02"/><path class="cls-64" d="M550.24,353l.88.16h0l-.89-.16h0" transform="translate(-528.06 -316.95)"/><path class="cls-65" d="M550.24,353l.89.16v0l-.89-.17h0" transform="translate(-528.06 -316.95)"/><path class="cls-66" d="M550.25,353l.89.17h0l-.89-.16v0" transform="translate(-528.06 -316.95)"/><path class="cls-67" d="M550.25,353l.89.16v0l-.89-.16v0" transform="translate(-528.06 -316.95)"/><path class="cls-68" d="M550.26,353.05l.89.16v0l-.89-.17h0" transform="translate(-528.06 -316.95)"/><path class="cls-69" d="M550.26,353.06l.89.17v0l-.89-.17v0" transform="translate(-528.06 -316.95)"/><path class="cls-70" d="M550.27,353.08l.89.17v0l-.89-.16v0" transform="translate(-528.06 -316.95)"/><path class="cls-71" d="M550.27,353.11l.89.16v0l-.89-.16v0" transform="translate(-528.06 -316.95)"/><path class="cls-72" d="M550.27,353.13l.89.16v0l-.89-.16v0" transform="translate(-528.06 -316.95)"/><path class="cls-73" d="M550.28,353.15l.89.16v0l-.89-.16v0" transform="translate(-528.06 -316.95)"/><path class="cls-74" d="M550.28,353.17l.89.16h0l-.89-.16h0" transform="translate(-528.06 -316.95)"/><path class="cls-75" d="M550.28,353.18l.89.16v0l-.89-.16v0" transform="translate(-528.06 -316.95)"/><path class="cls-76" d="M550.28,353.2l.89.16v0l-.89-.17h0" transform="translate(-528.06 -316.95)"/><path class="cls-77" d="M550.28,353.21l.89.17h0l-.89-.16v0" transform="translate(-528.06 -316.95)"/><path class="cls-78" d="M550.28,353.23l.89.16h0l-.89-.16h0" transform="translate(-528.06 -316.95)"/><path class="cls-79" d="M550.28,353.24l.89.16v0l-.89-.16v0" transform="translate(-528.06 -316.95)"/><path class="cls-80" d="M550.28,353.26l.89.16v0l-.89-.16v0" transform="translate(-528.06 -316.95)"/><path class="cls-81" d="M550.28,353.28l.89.16v.08h0l-.89-.17h0v-.07" transform="translate(-528.06 -316.95)"/></g></g></g><g class="cls-12"><g class="cls-82"><g class="cls-12"><path class="cls-81" d="M550.28,353.28l.89.16v.08h0l-.89-.17h0v-.07" transform="translate(-528.06 -316.95)"/><path class="cls-80" d="M550.28,353.35l.89.17h0l-.89-.16v0" transform="translate(-528.06 -316.95)"/><path class="cls-79" d="M550.27,353.37l.89.16v0l-.89-.17h0" transform="translate(-528.06 -316.95)"/><path class="cls-78" d="M550.27,353.38l.89.17h0l-.89-.16v0" transform="translate(-528.06 -316.95)"/><polyline class="cls-77" points="22.21 36.44 23.1 36.61 23.09 36.62 22.21 36.45 22.21 36.44"/><polyline class="cls-76" points="22.21 36.45 23.09 36.62 23.09 36.63 22.2 36.47 22.21 36.45"/><polyline class="cls-75" points="22.2 36.47 23.09 36.63 23.09 36.64 22.2 36.48 22.2 36.47"/><polyline class="cls-74" points="22.2 36.48 23.09 36.64 23.09 36.65 22.2 36.49 22.2 36.48"/><polyline class="cls-73" points="22.2 36.49 23.09 36.65 23.09 36.66 22.2 36.5 22.2 36.49"/><polyline class="cls-72" points="22.2 36.5 23.09 36.66 23.09 36.67 22.2 36.51 22.2 36.5"/><polyline class="cls-71" points="22.2 36.51 23.09 36.67 23.08 36.68 22.2 36.52 22.2 36.51"/><polyline class="cls-70" points="22.2 36.52 23.08 36.68 23.08 36.69 22.19 36.53 22.2 36.52"/><polyline class="cls-69" points="22.19 36.53 23.08 36.69 23.08 36.7 22.19 36.54 22.19 36.53"/><polyline class="cls-68" points="22.19 36.54 23.08 36.7 23.08 36.71 22.19 36.55 22.19 36.54"/><path class="cls-67" d="M550.25,353.5l.89.17h0l-.89-.16v0" transform="translate(-528.06 -316.95)"/><path class="cls-66" d="M550.25,353.52l.89.16h0l-.89-.16h0" transform="translate(-528.06 -316.95)"/><path class="cls-65" d="M550.24,353.53l.89.16h0l-.89-.16h0" transform="translate(-528.06 -316.95)"/><path class="cls-64" d="M550.24,353.54l.89.16v0l-.89-.16v0" transform="translate(-528.06 -316.95)"/><path class="cls-63" d="M550.24,353.56l.89.16v0l-.89-.17h0" transform="translate(-528.06 -316.95)"/><path class="cls-62" d="M550.23,353.57l.89.17h0l-.89-.16v0" transform="translate(-528.06 -316.95)"/><path class="cls-61" d="M550.23,353.59l.89.16v0l-.89-.16v0" transform="translate(-528.06 -316.95)"/><path class="cls-60" d="M550.22,353.61l.89.16v0l-.89-.17h0" transform="translate(-528.06 -316.95)"/><path class="cls-59" d="M550.21,353.62l.89.17h0l-.89-.16v0" transform="translate(-528.06 -316.95)"/><path class="cls-58" d="M550.21,353.64l.89.16v0l-.89-.16v0" transform="translate(-528.06 -316.95)"/><path class="cls-57" d="M550.2,353.66l.89.16v0l-.89-.17h0" transform="translate(-528.06 -316.95)"/><path class="cls-56" d="M550.19,353.67l.89.17h0l-.89-.16v0" transform="translate(-528.06 -316.95)"/><path class="cls-55" d="M550.19,353.69l.89.16v0l-.89-.16v0" transform="translate(-528.06 -316.95)"/><path class="cls-54" d="M550.18,353.71l.89.16v0l-.89-.17h0" transform="translate(-528.06 -316.95)"/><path class="cls-53" d="M550.17,353.72l.89.17h0l-.89-.16v0" transform="translate(-528.06 -316.95)"/><path class="cls-52" d="M550.16,353.74l.89.16v0l-.89-.16v0" transform="translate(-528.06 -316.95)"/><path class="cls-51" d="M550.15,353.76l.89.16v0l-.89-.16v0" transform="translate(-528.06 -316.95)"/><path class="cls-83" d="M550.14,353.78l.89.16,0,0-.89-.16,0,0" transform="translate(-528.06 -316.95)"/><path class="cls-84" d="M550.12,353.8l.89.16,0,0-.89-.16,0,0" transform="translate(-528.06 -316.95)"/><path class="cls-49" d="M550.1,353.82l.89.16a.17.17,0,0,1-.1.07h0l-.89-.16h0a.17.17,0,0,0,.1-.07" transform="translate(-528.06 -316.95)"/></g></g></g><path class="cls-85" d="M550.11,352.91c.12,0,.19.17.17.44s-.16.51-.28.54-.2-.17-.17-.44S550,352.93,550.11,352.91Z" transform="translate(-528.06 -316.95)"/><g class="cls-12"><g class="cls-86"><g class="cls-12"><polyline class="cls-17" points="22.26 34.97 23.15 35.13 23.15 35.13 22.26 34.97 22.26 34.97"/><path class="cls-18" d="M550.33,351.92l.89.16h0l-.89-.16h0" transform="translate(-528.06 -316.95)"/><path class="cls-19" d="M550.36,351.93l.89.16h0l-.89-.16h0" transform="translate(-528.06 -316.95)"/><path class="cls-20" d="M550.39,351.94l.89.16,0,0-.89-.17h0" transform="translate(-528.06 -316.95)"/><path class="cls-21" d="M550.41,352l.89.17h0l-.89-.16,0,0" transform="translate(-528.06 -316.95)"/><path class="cls-22" d="M550.44,352l.89.16,0,0-.89-.16,0,0" transform="translate(-528.06 -316.95)"/><path class="cls-23" d="M550.46,352l.89.16,0,0-.89-.16,0,0" transform="translate(-528.06 -316.95)"/><path class="cls-24" d="M550.48,352l.89.16,0,0-.88-.16,0,0" transform="translate(-528.06 -316.95)"/><path class="cls-25" d="M550.51,352l.88.16,0,0-.88-.17,0,0" transform="translate(-528.06 -316.95)"/><path class="cls-26" d="M550.53,352.05l.88.17,0,0-.89-.16v0" transform="translate(-528.06 -316.95)"/><path class="cls-27" d="M550.54,352.08l.89.16,0,0-.89-.16,0,0" transform="translate(-528.06 -316.95)"/><path class="cls-28" d="M550.56,352.11l.89.16,0,0-.89-.16,0,0" transform="translate(-528.06 -316.95)"/><path class="cls-29" d="M550.58,352.14l.89.16,0,0-.89-.16,0,0" transform="translate(-528.06 -316.95)"/><path class="cls-30" d="M550.6,352.17l.89.16,0,0-.89-.16,0,0" transform="translate(-528.06 -316.95)"/><path class="cls-31" d="M550.62,352.21l.89.16v0l-.89-.16v0" transform="translate(-528.06 -316.95)"/><path class="cls-32" d="M550.63,352.25l.89.16,0,0-.89-.17,0,0" transform="translate(-528.06 -316.95)"/><path class="cls-33" d="M550.65,352.29l.89.17v.05l-.89-.17v0" transform="translate(-528.06 -316.95)"/><path class="cls-34" d="M550.66,352.34l.89.17s0,0,0,.05l-.89-.16a.14.14,0,0,0,0-.06" transform="translate(-528.06 -316.95)"/><path class="cls-35" d="M550.68,352.4l.89.16s0,0,0,.06l-.89-.16a.13.13,0,0,0,0-.06" transform="translate(-528.06 -316.95)"/><path class="cls-36" d="M550.69,352.46l.89.16a.64.64,0,0,1,0,.07l-.89-.17,0-.06" transform="translate(-528.06 -316.95)"/><path class="cls-37" d="M550.71,352.52l.89.17a.13.13,0,0,0,0,.06l-.89-.16a.17.17,0,0,1,0-.07" transform="translate(-528.06 -316.95)"/><path class="cls-38" d="M550.72,352.59l.89.16v.06l-.89-.16v-.06" transform="translate(-528.06 -316.95)"/><path class="cls-39" d="M550.72,352.65l.89.16v.05l-.89-.16v-.05" transform="translate(-528.06 -316.95)"/><path class="cls-40" d="M550.73,352.7l.89.16v.05l-.89-.16v-.05" transform="translate(-528.06 -316.95)"/><path class="cls-41" d="M550.73,352.75l.89.16v0l-.89-.16v-.05" transform="translate(-528.06 -316.95)"/><path class="cls-42" d="M550.74,352.8l.89.16v0l-.89-.16v0" transform="translate(-528.06 -316.95)"/><path class="cls-43" d="M550.74,352.84l.89.16v.05l-.89-.17v0" transform="translate(-528.06 -316.95)"/><path class="cls-44" d="M550.74,352.88l.89.17v0l-.89-.16v-.05" transform="translate(-528.06 -316.95)"/><path class="cls-45" d="M550.74,352.93l.89.16v.05l-.89-.16v-.05" transform="translate(-528.06 -316.95)"/><path class="cls-46" d="M550.74,353l.89.16v.06l-.89-.16V353" transform="translate(-528.06 -316.95)"/><path class="cls-47" d="M550.74,353l.89.16c0,.07,0,.15,0,.22h0l-.89-.16h0c0-.08,0-.15,0-.22" transform="translate(-528.06 -316.95)"/><path class="cls-46" d="M550.72,353.26l.89.16v.05l-.89-.17v0" transform="translate(-528.06 -316.95)"/><path class="cls-45" d="M550.71,353.3l.89.17v0l-.89-.16v-.05" transform="translate(-528.06 -316.95)"/><path class="cls-44" d="M550.71,353.35l.89.16v0l-.89-.16v0" transform="translate(-528.06 -316.95)"/><path class="cls-43" d="M550.7,353.39l.89.16v0l-.89-.16v0" transform="translate(-528.06 -316.95)"/><path class="cls-42" d="M550.7,353.42l.89.16v0l-.89-.16v0" transform="translate(-528.06 -316.95)"/><path class="cls-41" d="M550.69,353.45l.89.16v0l-.89-.17v0" transform="translate(-528.06 -316.95)"/><path class="cls-40" d="M550.69,353.48l.89.17v0l-.89-.16v0" transform="translate(-528.06 -316.95)"/><path class="cls-39" d="M550.68,353.52l.89.16v0l-.89-.16v0" transform="translate(-528.06 -316.95)"/><path class="cls-38" d="M550.68,353.55l.89.16v0l-.89-.16v0" transform="translate(-528.06 -316.95)"/><path class="cls-37" d="M550.67,353.58l.89.16v0l-.89-.16v0" transform="translate(-528.06 -316.95)"/><path class="cls-36" d="M550.67,353.61l.89.16v0l-.89-.16v0" transform="translate(-528.06 -316.95)"/><path class="cls-35" d="M550.66,353.64l.89.16v0l-.89-.16v0" transform="translate(-528.06 -316.95)"/><path class="cls-34" d="M550.65,353.68l.89.16v0l-.89-.16v0" transform="translate(-528.06 -316.95)"/><path class="cls-33" d="M550.64,353.71l.89.16v0l-.89-.16v0" transform="translate(-528.06 -316.95)"/><path class="cls-32" d="M550.63,353.75l.89.16v0l-.89-.16v0" transform="translate(-528.06 -316.95)"/><path class="cls-31" d="M550.62,353.79l.89.16v0l-.89-.16v0" transform="translate(-528.06 -316.95)"/><path class="cls-30" d="M550.61,353.83l.89.16V354l-.89-.16v-.05" transform="translate(-528.06 -316.95)"/><path class="cls-29" d="M550.6,353.88l.89.16,0,0-.89-.16,0-.05" transform="translate(-528.06 -316.95)"/><path class="cls-28" d="M550.58,353.93l.89.16v.05l-.89-.16v-.05" transform="translate(-528.06 -316.95)"/><path class="cls-27" d="M550.57,354l.89.16,0,.05-.89-.16,0,0" transform="translate(-528.06 -316.95)"/><path class="cls-26" d="M550.55,354l.89.16,0,.05-.89-.16,0-.05" transform="translate(-528.06 -316.95)"/><path class="cls-25" d="M550.53,354.08l.89.16,0,.05-.89-.16,0-.05" transform="translate(-528.06 -316.95)"/><path class="cls-24" d="M550.51,354.13l.89.16,0,0-.89-.16,0-.05" transform="translate(-528.06 -316.95)"/><path class="cls-23" d="M550.49,354.18l.89.16,0,.06-.89-.17,0-.05" transform="translate(-528.06 -316.95)"/><path class="cls-22" d="M550.47,354.23l.89.17,0,.05-.89-.16,0-.06" transform="translate(-528.06 -316.95)"/><path class="cls-21" d="M550.44,354.29l.89.16,0,.05-.89-.16,0,0" transform="translate(-528.06 -316.95)"/><path class="cls-20" d="M550.42,354.34l.89.16,0,.05-.89-.16,0-.05" transform="translate(-528.06 -316.95)"/><path class="cls-19" d="M550.39,354.39l.89.16,0,.05-.89-.16,0-.05" transform="translate(-528.06 -316.95)"/><path class="cls-18" d="M550.36,354.44l.89.16,0,.06-.89-.16,0-.06" transform="translate(-528.06 -316.95)"/><path class="cls-17" d="M550.33,354.5l.89.16a.21.21,0,0,1,0,.06l-.89-.17,0-.05" transform="translate(-528.06 -316.95)"/><path class="cls-16" d="M550.29,354.55l.89.17,0,.06-.89-.17,0-.06" transform="translate(-528.06 -316.95)"/><path class="cls-15" d="M550.25,354.61l.89.17-.06.06-.89-.16.06-.07" transform="translate(-528.06 -316.95)"/><path class="cls-14" d="M550.19,354.68l.89.16a.53.53,0,0,1-.29.2h-.11l-.89-.16h.11a.53.53,0,0,0,.29-.2" transform="translate(-528.06 -316.95)"/></g></g></g><path class="cls-87" d="M550.21,351.92c.37-.07.6.53.51,1.34s-.45,1.54-.82,1.62-.6-.52-.51-1.34S549.84,352,550.21,351.92Zm-.21,2c.12,0,.25-.26.28-.54s0-.47-.17-.44-.25.26-.28.54,0,.46.17.44" transform="translate(-528.06 -316.95)"/></g><g class="cls-12"><g class="cls-12"><g class="cls-88"><g class="cls-12"><path class="cls-14" d="M547.11,357.91l.89.16a.17.17,0,0,0-.1.07L547,358a.21.21,0,0,1,.1-.06" transform="translate(-528.06 -316.95)"/><path class="cls-15" d="M547,358l.89.17,0,0L547,358l0,0" transform="translate(-528.06 -316.95)"/><path class="cls-16" d="M547,358l.89.16,0,0L547,358v0" transform="translate(-528.06 -316.95)"/><path class="cls-17" d="M547,358l.88.16v0L547,358l0,0" transform="translate(-528.06 -316.95)"/><path class="cls-18" d="M547,358l.89.16v0l-.89-.17h0" transform="translate(-528.06 -316.95)"/><path class="cls-19" d="M547,358.05l.89.17h0l-.89-.16v0" transform="translate(-528.06 -316.95)"/><path class="cls-20" d="M546.94,358.07l.89.16v0l-.89-.16v0" transform="translate(-528.06 -316.95)"/><path class="cls-21" d="M546.93,358.09l.89.16v0l-.89-.17h0" transform="translate(-528.06 -316.95)"/><path class="cls-22" d="M546.93,358.1l.89.17h0l-.89-.16v0" transform="translate(-528.06 -316.95)"/><path class="cls-23" d="M546.92,358.12l.89.16v0l-.89-.16v0" transform="translate(-528.06 -316.95)"/><path class="cls-24" d="M546.91,358.14l.89.16v0l-.89-.17h0" transform="translate(-528.06 -316.95)"/><path class="cls-25" d="M546.9,358.15l.89.17h0l-.89-.16v0" transform="translate(-528.06 -316.95)"/><path class="cls-26" d="M546.9,358.17l.89.16v0l-.89-.16v0" transform="translate(-528.06 -316.95)"/><path class="cls-27" d="M546.89,358.19l.89.16v0l-.89-.16v0" transform="translate(-528.06 -316.95)"/><path class="cls-28" d="M546.89,358.21l.89.16h0l-.89-.16h0" transform="translate(-528.06 -316.95)"/><path class="cls-29" d="M546.88,358.22l.89.16v0l-.89-.16v0" transform="translate(-528.06 -316.95)"/><path class="cls-30" d="M546.88,358.24l.89.16v0l-.89-.17h0" transform="translate(-528.06 -316.95)"/><path class="cls-31" d="M546.87,358.25l.89.17h0l-.89-.16v0" transform="translate(-528.06 -316.95)"/><polyline class="cls-32" points="18.8 41.32 19.69 41.48 19.69 41.49 19.69 41.5 18.8 41.33 18.8 41.33 18.8 41.32"/><path class="cls-33" d="M546.86,358.29l.89.16h0l-.89-.16h0" transform="translate(-528.06 -316.95)"/><polyline class="cls-34" points="18.8 41.35 19.69 41.51 19.68 41.52 18.79 41.36 18.8 41.35"/><polyline class="cls-35" points="18.79 41.36 19.68 41.52 19.68 41.53 18.79 41.37 18.79 41.36"/><polyline class="cls-36" points="18.79 41.37 19.68 41.53 19.68 41.54 18.79 41.38 18.79 41.37"/><polyline class="cls-37" points="18.79 41.38 19.68 41.54 19.68 41.55 18.79 41.39 18.79 41.38"/><polyline class="cls-38" points="18.79 41.39 19.68 41.55 19.67 41.56 18.79 41.4 18.79 41.39"/><polyline class="cls-39" points="18.79 41.4 19.67 41.56 19.67 41.57 18.78 41.41 18.79 41.4"/><polyline class="cls-40" points="18.78 41.41 19.67 41.57 19.67 41.58 18.78 41.42 18.78 41.41"/><polyline class="cls-41" points="18.78 41.42 19.67 41.58 19.67 41.59 18.78 41.43 18.78 41.42"/><polyline class="cls-42" points="18.78 41.43 19.67 41.59 19.67 41.6 18.78 41.44 18.78 41.43"/><polyline class="cls-43" points="18.78 41.44 19.67 41.6 19.67 41.61 18.78 41.45 18.78 41.44"/><polyline class="cls-44" points="18.78 41.45 19.67 41.61 19.66 41.63 18.77 41.46 18.78 41.45"/><path class="cls-45" d="M546.84,358.42l.89.16h0l-.89-.16h0" transform="translate(-528.06 -316.95)"/><path class="cls-46" d="M546.84,358.43l.89.16v0l-.89-.16v0" transform="translate(-528.06 -316.95)"/><path class="cls-47" d="M546.83,358.45l.89.16v.08l-.89-.16v-.08" transform="translate(-528.06 -316.95)"/><path class="cls-46" d="M546.83,358.53l.89.16v0l-.89-.16v0" transform="translate(-528.06 -316.95)"/><path class="cls-45" d="M546.83,358.55l.89.16v0l-.89-.17h0" transform="translate(-528.06 -316.95)"/><path class="cls-44" d="M546.83,358.56l.89.17h0l-.89-.16v0" transform="translate(-528.06 -316.95)"/><path class="cls-43" d="M546.83,358.58l.89.16v0l-.89-.16v0" transform="translate(-528.06 -316.95)"/><path class="cls-42" d="M546.83,358.6l.89.16v0l-.89-.17h0" transform="translate(-528.06 -316.95)"/><path class="cls-41" d="M546.83,358.61l.89.17h0l-.89-.16v0" transform="translate(-528.06 -316.95)"/><path class="cls-40" d="M546.83,358.63l.89.16v0l-.89-.16v0" transform="translate(-528.06 -316.95)"/><polyline class="cls-39" points="18.77 41.7 19.66 41.86 19.66 41.87 18.77 41.71 18.77 41.7"/></g></g></g><g class="cls-12"><g class="cls-89"><g class="cls-12"><polyline class="cls-39" points="18.77 41.71 19.66 41.87 19.66 41.87 18.77 41.71 18.77 41.71"/><path class="cls-38" d="M546.83,358.66l.89.16v0l-.89-.16v0" transform="translate(-528.06 -316.95)"/><path class="cls-37" d="M546.83,358.68l.89.16v0l-.89-.17h0" transform="translate(-528.06 -316.95)"/><path class="cls-36" d="M546.84,358.69l.89.17v0l-.89-.17v0" transform="translate(-528.06 -316.95)"/><path class="cls-35" d="M546.84,358.71l.89.17h0l-.89-.16v0" transform="translate(-528.06 -316.95)"/><path class="cls-34" d="M546.84,358.73l.89.16v0l-.89-.16v0" transform="translate(-528.06 -316.95)"/><path class="cls-33" d="M546.85,358.75l.89.16v0l-.89-.17h0" transform="translate(-528.06 -316.95)"/><path class="cls-32" d="M546.85,358.76l.89.17h0l-.89-.16v0" transform="translate(-528.06 -316.95)"/><path class="cls-31" d="M546.86,358.78l.89.16h0l-.88-.16h0" transform="translate(-528.06 -316.95)"/><path class="cls-30" d="M546.87,358.79l.88.16v0l-.89-.17h0" transform="translate(-528.06 -316.95)"/><path class="cls-29" d="M546.87,358.8l.89.17h0l-.89-.17h0" transform="translate(-528.06 -316.95)"/><polyline class="cls-28" points="18.81 41.86 19.7 42.02 19.71 42.03 18.82 41.87 18.81 41.86"/><polyline class="cls-27" points="18.82 41.87 19.71 42.03 19.72 42.05 18.83 41.88 18.82 41.87"/><polyline class="cls-26" points="18.83 41.88 19.72 42.05 19.72 42.05 18.83 41.89 18.83 41.88"/><polyline class="cls-25" points="18.83 41.89 19.72 42.05 19.73 42.06 18.84 41.9 18.83 41.89"/><polyline class="cls-24" points="18.84 41.9 19.73 42.06 19.74 42.07 18.85 41.91 18.84 41.9"/><polyline class="cls-23" points="18.85 41.91 19.74 42.07 19.75 42.08 18.86 41.92 18.85 41.91"/><polyline class="cls-22" points="18.86 41.92 19.75 42.08 19.76 42.09 18.87 41.92 18.86 41.92"/><polyline class="cls-21" points="18.87 41.92 19.76 42.09 19.76 42.09 18.87 41.93 18.87 41.92"/></g></g></g><g class="cls-12"><g class="cls-90"><g class="cls-12"><polyline class="cls-21" points="18.87 41.93 19.76 42.09 19.76 42.09 18.88 41.93 18.87 41.93"/><polyline class="cls-20" points="18.88 41.93 19.76 42.09 19.77 42.09 18.88 41.93 18.88 41.93"/><polyline class="cls-19" points="18.88 41.93 19.77 42.09 19.78 42.1 18.89 41.94 18.88 41.93"/><polyline class="cls-18" points="18.89 41.94 19.78 42.1 19.79 42.1 18.9 41.94 18.89 41.94"/><polyline class="cls-17" points="18.9 41.94 19.79 42.1 19.79 42.1 18.9 41.94 18.9 41.94"/></g></g></g><polygon class="cls-91" points="19.11 40.97 20 41.13 19.93 41.12 19.04 40.96 19.11 40.97"/><g class="cls-12"><g class="cls-90"><g class="cls-12"><path class="cls-49" d="M547,358.89l.89.16h0l-.89-.16h0" transform="translate(-528.06 -316.95)"/></g></g></g><g class="cls-12"><g class="cls-92"><g class="cls-12"><polyline class="cls-17" points="19.26 39.97 20.15 40.13 20.16 40.13 19.27 39.97 19.26 39.97"/><path class="cls-18" d="M547.33,356.93l.89.16h0l-.89-.17h0" transform="translate(-528.06 -316.95)"/><path class="cls-19" d="M547.36,356.93l.89.17h0l-.89-.16,0,0" transform="translate(-528.06 -316.95)"/><path class="cls-20" d="M547.39,357l.89.16h0l-.89-.16h0" transform="translate(-528.06 -316.95)"/></g></g></g><g class="cls-12"><g class="cls-93"><g class="cls-12"><path class="cls-14" d="M546.9,359.87l.89.16h-.12l-.89-.17h.12" transform="translate(-528.06 -316.95)"/></g></g></g><g class="cls-12"><g class="cls-94"><g class="cls-12"><polyline class="cls-55" points="19.11 40.97 20 41.13 20.01 41.13 19.12 40.97 19.11 40.97"/><polyline class="cls-56" points="19.12 40.97 20.01 41.13 20.02 41.14 19.13 40.98 19.12 40.97"/><polyline class="cls-57" points="19.13 40.98 20.02 41.14 20.02 41.15 19.14 40.98 19.13 40.98"/><polyline class="cls-58" points="19.14 40.98 20.02 41.15 20.03 41.16 19.14 40.99 19.14 40.98"/><polyline class="cls-59" points="19.14 40.99 20.03 41.16 20.04 41.16 19.15 41 19.14 40.99"/><polyline class="cls-60" points="19.15 41 20.04 41.16 20.05 41.17 19.16 41.01 19.15 41"/><polyline class="cls-61" points="19.16 41.01 20.05 41.17 20.05 41.18 19.16 41.02 19.16 41.01"/><polyline class="cls-62" points="19.16 41.02 20.05 41.18 20.06 41.19 19.17 41.03 19.16 41.02"/><path class="cls-63" d="M547.23,358l.89.17h0l-.89-.16v0" transform="translate(-528.06 -316.95)"/><path class="cls-64" d="M547.24,358l.89.16h0l-.88-.16h0" transform="translate(-528.06 -316.95)"/><path class="cls-65" d="M547.25,358l.88.16h0l-.89-.16h0" transform="translate(-528.06 -316.95)"/><path class="cls-66" d="M547.25,358l.89.16v0l-.89-.16v0" transform="translate(-528.06 -316.95)"/><path class="cls-67" d="M547.26,358l.89.16h0l-.89-.16h0" transform="translate(-528.06 -316.95)"/><path class="cls-68" d="M547.26,358.05l.89.16v0l-.89-.16v0" transform="translate(-528.06 -316.95)"/><path class="cls-69" d="M547.27,358.07l.89.16v0l-.89-.16v0" transform="translate(-528.06 -316.95)"/><path class="cls-70" d="M547.27,358.09l.89.16v0l-.89-.17h0" transform="translate(-528.06 -316.95)"/><path class="cls-71" d="M547.27,358.1l.89.17v0l-.89-.17v0" transform="translate(-528.06 -316.95)"/><path class="cls-72" d="M547.28,358.12l.89.17h0l-.89-.16v0" transform="translate(-528.06 -316.95)"/><polyline class="cls-73" points="19.21 41.19 20.11 41.35 20.11 41.35 19.21 41.19 19.21 41.19"/></g></g></g><path class="cls-85" d="M547.11,357.91h.07a.29.29,0,0,1,.1.22,1.25,1.25,0,0,1,0,.38c-.06.21-.16.35-.25.37s0,0-.07,0a.29.29,0,0,1-.1-.22,1.25,1.25,0,0,1,0-.38C546.92,358.07,547,357.93,547.11,357.91Z" transform="translate(-528.06 -316.95)"/><g class="cls-12"><g class="cls-95"><g class="cls-12"><polyline class="cls-73" points="19.21 41.19 20.11 41.35 20.11 41.36 19.22 41.19 19.21 41.19"/><path class="cls-74" d="M547.28,358.15l.89.16v0l-.89-.16v0" transform="translate(-528.06 -316.95)"/><path class="cls-75" d="M547.28,358.17l.89.16v0l-.89-.16v0" transform="translate(-528.06 -316.95)"/><path class="cls-76" d="M547.28,358.19l.89.16h0l-.89-.16h0" transform="translate(-528.06 -316.95)"/><path class="cls-77" d="M547.28,358.2l.89.16v0l-.89-.16v0" transform="translate(-528.06 -316.95)"/><path class="cls-78" d="M547.28,358.22l.89.16v0l-.89-.16v0" transform="translate(-528.06 -316.95)"/><path class="cls-79" d="M547.28,358.24l.89.16v0l-.89-.17h0" transform="translate(-528.06 -316.95)"/><path class="cls-80" d="M547.28,358.25l.89.17v0l-.89-.17v0" transform="translate(-528.06 -316.95)"/><path class="cls-81" d="M547.28,358.27l.89.17v.07l-.89-.16v-.08" transform="translate(-528.06 -316.95)"/><path class="cls-80" d="M547.28,358.35l.89.16v0l-.89-.16v0" transform="translate(-528.06 -316.95)"/><path class="cls-79" d="M547.27,358.37l.89.16v0l-.89-.17h0" transform="translate(-528.06 -316.95)"/><polyline class="cls-78" points="19.21 41.43 20.1 41.59 20.1 41.6 19.21 41.44 19.21 41.43"/><polyline class="cls-77" points="19.21 41.44 20.1 41.6 20.1 41.62 19.21 41.45 19.21 41.44"/><polyline class="cls-76" points="19.21 41.45 20.1 41.62 20.09 41.63 19.2 41.46 19.21 41.45"/><polyline class="cls-75" points="19.2 41.46 20.09 41.63 20.09 41.63 19.2 41.47 19.2 41.46"/><polyline class="cls-74" points="19.2 41.47 20.09 41.63 20.09 41.65 19.2 41.48 19.2 41.47"/><polyline class="cls-73" points="19.2 41.48 20.09 41.65 20.09 41.66 19.2 41.49 19.2 41.48"/><polyline class="cls-72" points="19.2 41.49 20.09 41.66 20.09 41.66 19.2 41.5 19.2 41.49"/><polyline class="cls-71" points="19.2 41.5 20.09 41.66 20.09 41.67 19.2 41.51 19.2 41.5"/><polyline class="cls-70" points="19.2 41.51 20.09 41.67 20.08 41.69 19.19 41.52 19.2 41.51"/><polyline class="cls-69" points="19.19 41.52 20.08 41.69 20.08 41.7 19.19 41.53 19.19 41.52"/><polyline class="cls-68" points="19.19 41.53 20.08 41.7 20.08 41.71 19.19 41.55 19.19 41.53"/><path class="cls-67" d="M547.25,358.5l.89.16v0l-.89-.16v0" transform="translate(-528.06 -316.95)"/><path class="cls-66" d="M547.25,358.52l.89.16h0l-.89-.16h0" transform="translate(-528.06 -316.95)"/><path class="cls-65" d="M547.24,358.53l.89.16v0l-.89-.16v0" transform="translate(-528.06 -316.95)"/><path class="cls-64" d="M547.24,358.55l.89.16h0l-.89-.16h0" transform="translate(-528.06 -316.95)"/><path class="cls-63" d="M547.23,358.56l.89.16v0l-.89-.16v0" transform="translate(-528.06 -316.95)"/><path class="cls-62" d="M547.23,358.58l.89.16v0l-.89-.17h0" transform="translate(-528.06 -316.95)"/><path class="cls-61" d="M547.22,358.59l.89.17h0l-.89-.16v0" transform="translate(-528.06 -316.95)"/><path class="cls-60" d="M547.22,358.61l.89.16v0l-.89-.16v0" transform="translate(-528.06 -316.95)"/><path class="cls-59" d="M547.21,358.63l.89.16v0l-.89-.17h0" transform="translate(-528.06 -316.95)"/><path class="cls-58" d="M547.21,358.64l.89.17h0l-.89-.16v0" transform="translate(-528.06 -316.95)"/><path class="cls-57" d="M547.2,358.66l.89.16v0l-.89-.16v0" transform="translate(-528.06 -316.95)"/><path class="cls-56" d="M547.19,358.68l.89.16v0l-.89-.17h0" transform="translate(-528.06 -316.95)"/><path class="cls-55" d="M547.18,358.69l.89.17h0l-.89-.16v0" transform="translate(-528.06 -316.95)"/><path class="cls-54" d="M547.18,358.71l.89.16v0l-.89-.16v0" transform="translate(-528.06 -316.95)"/><path class="cls-53" d="M547.17,358.73l.89.16v0l-.89-.16v0" transform="translate(-528.06 -316.95)"/><path class="cls-52" d="M547.16,358.75l.89.16v0l-.89-.17h0" transform="translate(-528.06 -316.95)"/><path class="cls-51" d="M547.15,358.76l.89.17h0l-.89-.16,0,0" transform="translate(-528.06 -316.95)"/><path class="cls-83" d="M547.13,358.78l.89.16v0l-.89-.16v0" transform="translate(-528.06 -316.95)"/><path class="cls-84" d="M547.12,358.8l.89.16,0,0-.89-.16,0,0" transform="translate(-528.06 -316.95)"/><path class="cls-49" d="M547.1,358.83l.89.16a.18.18,0,0,1-.1.06l-.89-.16a.21.21,0,0,0,.1-.06" transform="translate(-528.06 -316.95)"/></g></g></g><g class="cls-12"><g class="cls-96"><g class="cls-12"><polyline class="cls-15" points="19.14 42.72 20.03 42.88 20.03 42.88 19.14 42.72 19.14 42.72"/><path class="cls-14" d="M547.2,359.67l.89.17a.56.56,0,0,1-.3.19l-.89-.16a.53.53,0,0,0,.3-.2" transform="translate(-528.06 -316.95)"/></g></g></g><g class="cls-12"><g class="cls-97"><g class="cls-12"><path class="cls-21" d="M547.42,357l.89.16h0l-.89-.16h0" transform="translate(-528.06 -316.95)"/><path class="cls-22" d="M547.44,357l.89.16,0,0-.89-.16,0,0" transform="translate(-528.06 -316.95)"/><path class="cls-23" d="M547.46,357l.89.16,0,0-.89-.16,0,0" transform="translate(-528.06 -316.95)"/><path class="cls-24" d="M547.48,357l.89.16,0,0-.89-.16,0,0" transform="translate(-528.06 -316.95)"/><path class="cls-25" d="M547.51,357l.89.16,0,0-.89-.16,0,0" transform="translate(-528.06 -316.95)"/><path class="cls-26" d="M547.53,357.06l.89.16,0,0-.89-.17,0,0" transform="translate(-528.06 -316.95)"/><path class="cls-27" d="M547.55,357.08l.89.17,0,0-.89-.16,0,0" transform="translate(-528.06 -316.95)"/><path class="cls-28" d="M547.57,357.11l.89.16v0l-.88-.17,0,0" transform="translate(-528.06 -316.95)"/><path class="cls-29" d="M547.59,357.14l.88.17,0,0-.89-.16v0" transform="translate(-528.06 -316.95)"/><path class="cls-30" d="M547.6,357.18l.89.16,0,0-.89-.17,0,0" transform="translate(-528.06 -316.95)"/><path class="cls-31" d="M547.62,357.21l.89.17,0,0-.89-.16,0,0" transform="translate(-528.06 -316.95)"/><path class="cls-32" d="M547.64,357.25l.89.16v0l-.89-.16v-.05" transform="translate(-528.06 -316.95)"/><path class="cls-33" d="M547.65,357.3l.89.16,0,.05-.89-.17,0,0" transform="translate(-528.06 -316.95)"/><path class="cls-34" d="M547.67,357.34l.89.17a.43.43,0,0,1,0,.05l-.89-.16s0,0,0-.06" transform="translate(-528.06 -316.95)"/><path class="cls-35" d="M547.68,357.4l.89.16a.13.13,0,0,1,0,.06l-.88-.16s0,0,0-.06" transform="translate(-528.06 -316.95)"/><path class="cls-36" d="M547.7,357.46l.88.16s0,0,0,.06l-.89-.16a.13.13,0,0,1,0-.06" transform="translate(-528.06 -316.95)"/><path class="cls-37" d="M547.71,357.52l.89.16a.2.2,0,0,0,0,.07l-.89-.17a.13.13,0,0,1,0-.06" transform="translate(-528.06 -316.95)"/><path class="cls-38" d="M547.72,357.58l.89.17v0l-.89-.16v-.05" transform="translate(-528.06 -316.95)"/></g></g></g><g class="cls-12"><g class="cls-98"><g class="cls-12"><polyline class="cls-33" points="19.57 41.8 20.46 41.96 20.46 41.97 19.57 41.8 19.57 41.8"/><path class="cls-32" d="M547.63,358.76l.89.16v0l-.89-.16v0" transform="translate(-528.06 -316.95)"/><path class="cls-31" d="M547.62,358.8l.89.16v0l-.89-.16v0" transform="translate(-528.06 -316.95)"/><path class="cls-30" d="M547.61,358.84l.89.16,0,.05-.89-.16,0-.05" transform="translate(-528.06 -316.95)"/><path class="cls-29" d="M547.59,358.89l.89.16v.05l-.89-.17v0" transform="translate(-528.06 -316.95)"/><path class="cls-28" d="M547.58,358.93l.89.17,0,0-.89-.17,0-.05" transform="translate(-528.06 -316.95)"/><path class="cls-27" d="M547.56,359l.89.17v.05l-.89-.17v0" transform="translate(-528.06 -316.95)"/><path class="cls-26" d="M547.55,359l.89.17,0,.05-.89-.17,0-.05" transform="translate(-528.06 -316.95)"/><path class="cls-25" d="M547.53,359.08l.89.17,0,.05-.89-.17,0-.05" transform="translate(-528.06 -316.95)"/><path class="cls-24" d="M547.51,359.13l.89.17,0,.05-.89-.16,0-.06" transform="translate(-528.06 -316.95)"/><path class="cls-23" d="M547.49,359.19l.89.16,0,0-.89-.16,0-.05" transform="translate(-528.06 -316.95)"/><path class="cls-22" d="M547.47,359.24l.89.16,0,.05-.89-.16,0-.05" transform="translate(-528.06 -316.95)"/><path class="cls-21" d="M547.44,359.29l.89.16,0,.05-.89-.16,0,0" transform="translate(-528.06 -316.95)"/><path class="cls-20" d="M547.42,359.34l.89.16,0,.05-.89-.16,0-.05" transform="translate(-528.06 -316.95)"/><path class="cls-19" d="M547.39,359.39l.89.16,0,.05-.89-.16,0-.05" transform="translate(-528.06 -316.95)"/><path class="cls-18" d="M547.36,359.44l.89.16,0,.06-.89-.16,0-.06" transform="translate(-528.06 -316.95)"/><path class="cls-17" d="M547.33,359.5l.89.16a.21.21,0,0,1,0,.06l-.89-.17,0-.05" transform="translate(-528.06 -316.95)"/><path class="cls-16" d="M547.29,359.55l.89.17,0,.06-.89-.16a.43.43,0,0,0,0-.07" transform="translate(-528.06 -316.95)"/><path class="cls-15" d="M547.25,359.62l.89.16,0,.05-.89-.16a.1.1,0,0,1,0-.05" transform="translate(-528.06 -316.95)"/></g></g></g><path class="cls-87" d="M547.72,357.63a3.13,3.13,0,0,1-.09,1.12,2.25,2.25,0,0,1-.42.92.65.65,0,0,1-.31.2.26.26,0,0,1-.21,0,.88.88,0,0,1-.3-.67,3.13,3.13,0,0,1,.09-1.12,2.14,2.14,0,0,1,.42-.91.61.61,0,0,1,.31-.21.25.25,0,0,1,.21,0A.88.88,0,0,1,547.72,357.63Zm-.47.89a1.25,1.25,0,0,0,0-.38.29.29,0,0,0-.1-.22h-.07c-.1,0-.19.16-.25.37a1.25,1.25,0,0,0,0,.38.29.29,0,0,0,.1.22s.05,0,.07,0,.19-.16.25-.37" transform="translate(-528.06 -316.95)"/><g class="cls-12"><g class="cls-99"><g class="cls-12"><path class="cls-38" d="M547.72,357.63l.89.16v0l-.89-.17h0" transform="translate(-528.06 -316.95)"/><path class="cls-39" d="M547.72,357.64l.89.17v.05l-.89-.16v-.06" transform="translate(-528.06 -316.95)"/><path class="cls-40" d="M547.73,357.7l.89.16v.05l-.89-.16v-.05" transform="translate(-528.06 -316.95)"/><path class="cls-41" d="M547.73,357.75l.89.16v0l-.89-.16v-.05" transform="translate(-528.06 -316.95)"/><path class="cls-42" d="M547.74,357.8l.89.16V358l-.89-.17v0" transform="translate(-528.06 -316.95)"/><path class="cls-43" d="M547.74,357.84l.89.17v0l-.89-.16v-.05" transform="translate(-528.06 -316.95)"/><path class="cls-44" d="M547.74,357.89l.89.16v0l-.89-.16v0" transform="translate(-528.06 -316.95)"/><path class="cls-45" d="M547.74,357.93l.89.16v.05l-.89-.16v-.05" transform="translate(-528.06 -316.95)"/><path class="cls-46" d="M547.74,358l.89.16v.06l-.89-.16V358" transform="translate(-528.06 -316.95)"/><path class="cls-47" d="M547.74,358l.89.16c0,.07,0,.14,0,.21l-.89-.16c0-.07,0-.14,0-.21" transform="translate(-528.06 -316.95)"/><path class="cls-46" d="M547.72,358.25l.89.16v.06l-.89-.17v-.05" transform="translate(-528.06 -316.95)"/><path class="cls-45" d="M547.72,358.3l.89.17v0l-.89-.16v-.05" transform="translate(-528.06 -316.95)"/><path class="cls-44" d="M547.71,358.35l.89.16v0l-.89-.16v0" transform="translate(-528.06 -316.95)"/><path class="cls-43" d="M547.71,358.38l.89.16v0l-.89-.16v0" transform="translate(-528.06 -316.95)"/><path class="cls-42" d="M547.7,358.41l.89.16v0l-.89-.16v0" transform="translate(-528.06 -316.95)"/><path class="cls-41" d="M547.7,358.44l.89.16v0l-.89-.16v0" transform="translate(-528.06 -316.95)"/><path class="cls-40" d="M547.69,358.47l.89.16v0l-.89-.16v0" transform="translate(-528.06 -316.95)"/><path class="cls-39" d="M547.69,358.5l.89.16v0l-.89-.16v0" transform="translate(-528.06 -316.95)"/><path class="cls-38" d="M547.68,358.53l.89.16v0l-.89-.16v0" transform="translate(-528.06 -316.95)"/><path class="cls-37" d="M547.68,358.56l.89.16v0l-.89-.16v0" transform="translate(-528.06 -316.95)"/><path class="cls-36" d="M547.67,358.59l.89.16v0l-.89-.16v0" transform="translate(-528.06 -316.95)"/><path class="cls-35" d="M547.66,358.62l.89.16v0l-.88-.16v0" transform="translate(-528.06 -316.95)"/><path class="cls-34" d="M547.66,358.66l.88.16v0l-.89-.16v0" transform="translate(-528.06 -316.95)"/><path class="cls-33" d="M547.65,358.69l.89.16v0l-.89-.16v0" transform="translate(-528.06 -316.95)"/><path class="cls-32" d="M547.64,358.73l.89.16v0l-.89-.16v0" transform="translate(-528.06 -316.95)"/></g></g></g></g><g class="cls-12"><g class="cls-12"><g class="cls-100"><g class="cls-12"><path class="cls-14" d="M552.15,347.91l.89.16h0a.21.21,0,0,0-.1.06L552,348a.27.27,0,0,1,.1-.06h0" transform="translate(-528.06 -316.95)"/><path class="cls-15" d="M552,348l.89.16,0,0L552,348l0,0" transform="translate(-528.06 -316.95)"/><path class="cls-16" d="M552,348l.89.17v0L552,348v0" transform="translate(-528.06 -316.95)"/><path class="cls-17" d="M552,348l.89.16v0L552,348h0" transform="translate(-528.06 -316.95)"/><path class="cls-18" d="M552,348l.89.17h0l-.89-.16v0" transform="translate(-528.06 -316.95)"/><path class="cls-19" d="M552,348.05l.89.16v0l-.89-.16v0" transform="translate(-528.06 -316.95)"/><path class="cls-20" d="M552,348.07l.89.16v0l-.89-.16v0" transform="translate(-528.06 -316.95)"/><path class="cls-21" d="M551.94,348.09l.89.16v0l-.89-.17h0" transform="translate(-528.06 -316.95)"/><path class="cls-22" d="M551.93,348.1l.89.17h0l-.89-.16v0" transform="translate(-528.06 -316.95)"/><path class="cls-23" d="M551.92,348.12l.89.16v0l-.89-.16v0" transform="translate(-528.06 -316.95)"/><path class="cls-24" d="M551.91,348.14l.89.16v0l-.89-.16v0" transform="translate(-528.06 -316.95)"/><path class="cls-25" d="M551.91,348.16l.89.16v0l-.89-.17h0" transform="translate(-528.06 -316.95)"/><path class="cls-26" d="M551.9,348.17l.89.17h0l-.89-.16v0" transform="translate(-528.06 -316.95)"/><path class="cls-27" d="M551.89,348.19l.89.16v0l-.89-.16v0" transform="translate(-528.06 -316.95)"/><path class="cls-28" d="M551.89,348.21l.89.16v0l-.89-.16v0" transform="translate(-528.06 -316.95)"/><path class="cls-29" d="M551.88,348.23l.89.16h0l-.89-.16h0" transform="translate(-528.06 -316.95)"/><path class="cls-30" d="M551.88,348.24l.89.16v0l-.89-.16v0" transform="translate(-528.06 -316.95)"/><path class="cls-31" d="M551.87,348.26l.89.16h0l-.89-.16h0" transform="translate(-528.06 -316.95)"/><path class="cls-32" d="M551.87,348.27l.89.16v0l-.89-.16v0" transform="translate(-528.06 -316.95)"/><path class="cls-33" d="M551.86,348.29l.89.16h0l-.89-.16h0" transform="translate(-528.06 -316.95)"/><path class="cls-34" d="M551.86,348.3l.89.16h0l-.89-.16h0" transform="translate(-528.06 -316.95)"/><path class="cls-35" d="M551.86,348.31l.89.16h0l-.89-.16h0" transform="translate(-528.06 -316.95)"/><polyline class="cls-36" points="23.79 31.37 24.68 31.53 24.68 31.54 23.79 31.38 23.79 31.37"/><polyline class="cls-37" points="23.79 31.38 24.68 31.54 24.68 31.55 23.79 31.39 23.79 31.38"/><polyline class="cls-38" points="23.79 31.39 24.68 31.55 24.68 31.56 23.79 31.4 23.79 31.39"/><polyline class="cls-39" points="23.79 31.4 24.68 31.56 24.67 31.57 23.78 31.41 23.79 31.4"/><polyline class="cls-40" points="23.78 31.41 24.67 31.57 24.67 31.58 23.78 31.42 23.78 31.41"/><polyline class="cls-41" points="23.78 31.42 24.67 31.58 24.67 31.59 23.78 31.43 23.78 31.42"/><polyline class="cls-42" points="23.78 31.43 24.67 31.59 24.67 31.61 23.78 31.44 23.78 31.43"/><polyline class="cls-43" points="23.78 31.44 24.67 31.61 24.67 31.62 23.78 31.45 23.78 31.44"/><path class="cls-44" d="M551.84,348.41l.89.16h0l-.89-.16h0" transform="translate(-528.06 -316.95)"/><path class="cls-45" d="M551.84,348.42l.89.16v0l-.89-.16v0" transform="translate(-528.06 -316.95)"/><path class="cls-46" d="M551.84,348.44l.89.16h0l-.88-.16h0" transform="translate(-528.06 -316.95)"/><path class="cls-47" d="M551.84,348.45l.88.16h0v.07l-.89-.16a.17.17,0,0,1,0-.07h0" transform="translate(-528.06 -316.95)"/><path class="cls-46" d="M551.83,348.52l.89.16v0l-.89-.16v0" transform="translate(-528.06 -316.95)"/><path class="cls-45" d="M551.83,348.54l.89.16v0l-.89-.16v0" transform="translate(-528.06 -316.95)"/><path class="cls-44" d="M551.83,348.56l.89.16h0l-.89-.16h0" transform="translate(-528.06 -316.95)"/><path class="cls-43" d="M551.83,348.57l.89.16v0l-.89-.17h0" transform="translate(-528.06 -316.95)"/><path class="cls-42" d="M551.83,348.58l.89.17h0l-.89-.16v0" transform="translate(-528.06 -316.95)"/><path class="cls-41" d="M551.83,348.6l.89.16v0l-.89-.17h0" transform="translate(-528.06 -316.95)"/><path class="cls-40" d="M551.83,348.61l.89.17h0l-.89-.16v0" transform="translate(-528.06 -316.95)"/><path class="cls-39" d="M551.83,348.63l.89.16v0l-.89-.16v0" transform="translate(-528.06 -316.95)"/><path class="cls-38" d="M551.83,348.65l.89.16v0l-.89-.16v0" transform="translate(-528.06 -316.95)"/><path class="cls-37" d="M551.84,348.67l.89.16v0l-.89-.16v0" transform="translate(-528.06 -316.95)"/><path class="cls-36" d="M551.84,348.69l.89.16v0l-.89-.16v0" transform="translate(-528.06 -316.95)"/><path class="cls-35" d="M551.84,348.71l.89.16v0l-.89-.16v0" transform="translate(-528.06 -316.95)"/><path class="cls-34" d="M551.85,348.73l.89.16v0l-.89-.16v0" transform="translate(-528.06 -316.95)"/><path class="cls-33" d="M551.85,348.75l.89.16v0l-.89-.16v0" transform="translate(-528.06 -316.95)"/><path class="cls-32" d="M551.86,348.77l.89.16h0l-.89-.16h0" transform="translate(-528.06 -316.95)"/><path class="cls-31" d="M551.86,348.78l.89.16v0l-.89-.17h0" transform="translate(-528.06 -316.95)"/><path class="cls-30" d="M551.87,348.79l.89.17h0l-.89-.16v0" transform="translate(-528.06 -316.95)"/><polyline class="cls-29" points="23.81 31.85 24.7 32.02 24.71 32.03 23.82 31.86 23.81 31.85"/><polyline class="cls-28" points="23.82 31.86 24.71 32.03 24.71 32.04 23.82 31.88 23.82 31.86"/><polyline class="cls-27" points="23.82 31.88 24.71 32.04 24.72 32.05 23.83 31.88 23.82 31.88"/><polyline class="cls-26" points="23.83 31.88 24.72 32.05 24.73 32.05 23.84 31.89 23.83 31.88"/><polyline class="cls-25" points="23.84 31.89 24.73 32.05 24.73 32.06 23.84 31.9 23.84 31.89"/><polyline class="cls-24" points="23.84 31.9 24.73 32.06 24.74 32.07 23.85 31.91 23.84 31.9"/><polyline class="cls-23" points="23.85 31.91 24.74 32.07 24.75 32.08 23.86 31.91 23.85 31.91"/><polyline class="cls-22" points="23.86 31.91 24.75 32.08 24.76 32.08 23.87 31.92 23.86 31.91"/><polyline class="cls-21" points="23.87 31.92 24.76 32.08 24.77 32.09 23.88 31.93 23.87 31.92"/><polyline class="cls-20" points="23.88 31.93 24.77 32.09 24.77 32.09 23.88 31.93 23.88 31.93"/><polyline class="cls-19" points="23.88 31.93 24.77 32.09 24.78 32.1 23.89 31.93 23.88 31.93"/><polyline class="cls-18" points="23.89 31.93 24.78 32.1 24.79 32.1 23.9 31.94 23.89 31.93"/><polyline class="cls-17" points="23.9 31.94 24.79 32.1 24.79 32.1 23.9 31.94 23.9 31.94"/></g></g></g><g class="cls-12"><g class="cls-101"><g class="cls-12"><polyline class="cls-51" points="24.08 30.95 24.97 31.12 24.97 31.12 24.08 30.95 24.08 30.95"/><polyline class="cls-52" points="24.08 30.95 24.97 31.12 24.98 31.12 24.09 30.96 24.08 30.95"/><polyline class="cls-53" points="24.09 30.96 24.98 31.12 24.99 31.12 24.1 30.96 24.09 30.96"/><polyline class="cls-54" points="24.1 30.96 24.99 31.12 25 31.13 24.11 30.96 24.1 30.96"/><polyline class="cls-55" points="24.11 30.96 25 31.13 25.01 31.13 24.12 30.97 24.11 30.96"/><polyline class="cls-56" points="24.12 30.97 25.01 31.13 25.02 31.14 24.13 30.98 24.12 30.97"/><polyline class="cls-57" points="24.13 30.98 25.02 31.14 25.03 31.14 24.14 30.98 24.13 30.98"/><polyline class="cls-58" points="24.14 30.98 25.03 31.14 25.03 31.15 24.14 30.99 24.14 30.98"/><polyline class="cls-59" points="24.14 30.99 25.03 31.15 25.04 31.16 24.15 31 24.14 30.99"/><polyline class="cls-60" points="24.15 31 25.04 31.16 25.05 31.17 24.16 31.01 24.15 31"/><polyline class="cls-61" points="24.16 31.01 25.05 31.17 25.05 31.18 24.16 31.02 24.16 31.01"/><polyline class="cls-62" points="24.16 31.02 25.05 31.18 25.06 31.19 24.17 31.03 24.16 31.02"/><polyline class="cls-63" points="24.17 31.03 25.06 31.19 25.07 31.2 24.18 31.04 24.17 31.03"/><path class="cls-64" d="M552.24,348l.89.16v0l-.89-.17h0" transform="translate(-528.06 -316.95)"/><path class="cls-65" d="M552.24,348l.89.17h0l-.89-.16v0" transform="translate(-528.06 -316.95)"/><path class="cls-66" d="M552.25,348l.89.16v0l-.89-.17h0" transform="translate(-528.06 -316.95)"/><path class="cls-67" d="M552.26,348l.89.17h0l-.89-.16v0" transform="translate(-528.06 -316.95)"/><path class="cls-68" d="M552.26,348.05l.89.16v0l-.89-.16v0" transform="translate(-528.06 -316.95)"/><path class="cls-69" d="M552.27,348.07l.89.16v0l-.89-.16v0" transform="translate(-528.06 -316.95)"/><path class="cls-70" d="M552.27,348.09l.89.16v0l-.89-.16v0" transform="translate(-528.06 -316.95)"/><path class="cls-71" d="M552.27,348.11l.89.16v0l-.89-.16v0" transform="translate(-528.06 -316.95)"/><path class="cls-72" d="M552.28,348.13l.89.16v0l-.89-.16v0" transform="translate(-528.06 -316.95)"/><path class="cls-73" d="M552.28,348.15l.89.16v0l-.89-.16v0" transform="translate(-528.06 -316.95)"/><path class="cls-74" d="M552.28,348.17l.89.16v0l-.89-.16v0" transform="translate(-528.06 -316.95)"/><path class="cls-75" d="M552.28,348.19l.89.16h0l-.89-.16h0" transform="translate(-528.06 -316.95)"/><path class="cls-76" d="M552.28,348.2l.89.16v0l-.89-.16v0" transform="translate(-528.06 -316.95)"/><path class="cls-77" d="M552.28,348.22l.89.16h0l-.88-.16h0" transform="translate(-528.06 -316.95)"/><path class="cls-78" d="M552.29,348.23l.88.16s0,0,0,0l-.89-.16v0" transform="translate(-528.06 -316.95)"/><path class="cls-79" d="M552.29,348.25l.89.16h0l-.88-.16h0" transform="translate(-528.06 -316.95)"/><path class="cls-80" d="M552.29,348.26l.88.16v0l-.89-.16v0" transform="translate(-528.06 -316.95)"/><path class="cls-81" d="M552.28,348.28l.89.16v.08h0l-.89-.16h0v-.08" transform="translate(-528.06 -316.95)"/><path class="cls-80" d="M552.28,348.36l.89.16h0l-.89-.16h0" transform="translate(-528.06 -316.95)"/><path class="cls-79" d="M552.28,348.37l.89.16v0l-.89-.17h0" transform="translate(-528.06 -316.95)"/><path class="cls-78" d="M552.28,348.38l.89.17h0l-.89-.16v0" transform="translate(-528.06 -316.95)"/><polyline class="cls-77" points="24.21 31.44 25.1 31.61 25.1 31.62 24.21 31.45 24.21 31.44"/><polyline class="cls-76" points="24.21 31.45 25.1 31.62 25.1 31.63 24.21 31.46 24.21 31.45"/><polyline class="cls-75" points="24.21 31.46 25.1 31.63 25.1 31.64 24.21 31.47 24.21 31.46"/><polyline class="cls-74" points="24.21 31.47 25.1 31.64 25.09 31.65 24.2 31.48 24.21 31.47"/><polyline class="cls-73" points="24.2 31.48 25.09 31.65 25.09 31.66 24.2 31.49 24.2 31.48"/><polyline class="cls-72" points="24.2 31.49 25.09 31.66 25.09 31.66 24.2 31.5 24.2 31.49"/><polyline class="cls-71" points="24.2 31.5 25.09 31.66 25.09 31.68 24.2 31.51 24.2 31.5"/><polyline class="cls-70" points="24.2 31.51 25.09 31.68 25.09 31.69 24.2 31.52 24.2 31.51"/><polyline class="cls-69" points="24.2 31.52 25.09 31.69 25.08 31.7 24.19 31.54 24.2 31.52"/><polyline class="cls-68" points="24.19 31.54 25.08 31.7 25.08 31.71 24.19 31.55 24.19 31.54"/><polyline class="cls-67" points="24.19 31.55 25.08 31.71 25.08 31.72 24.19 31.56 24.19 31.55"/><path class="cls-66" d="M552.25,348.51l.89.16v0l-.89-.16v0" transform="translate(-528.06 -316.95)"/><path class="cls-65" d="M552.25,348.53l.89.16h0l-.89-.16h0" transform="translate(-528.06 -316.95)"/><path class="cls-64" d="M552.24,348.54l.89.16v0l-.89-.17h0" transform="translate(-528.06 -316.95)"/><path class="cls-63" d="M552.24,348.55l.89.17h0l-.88-.16v0" transform="translate(-528.06 -316.95)"/><path class="cls-62" d="M552.24,348.57l.88.16v0l-.89-.16v0" transform="translate(-528.06 -316.95)"/><path class="cls-61" d="M552.23,348.59l.89.16h0l-.89-.16h0" transform="translate(-528.06 -316.95)"/><path class="cls-60" d="M552.22,348.6l.89.16v0l-.89-.16v0" transform="translate(-528.06 -316.95)"/><path class="cls-59" d="M552.22,348.62l.89.16v0l-.89-.16v0" transform="translate(-528.06 -316.95)"/><path class="cls-58" d="M552.21,348.64l.89.16v0l-.89-.17h0" transform="translate(-528.06 -316.95)"/><path class="cls-57" d="M552.2,348.65l.89.17h0l-.89-.16v0" transform="translate(-528.06 -316.95)"/><path class="cls-56" d="M552.2,348.67l.89.16v0l-.89-.16v0" transform="translate(-528.06 -316.95)"/><path class="cls-55" d="M552.19,348.69l.89.16v0l-.89-.16v0" transform="translate(-528.06 -316.95)"/><path class="cls-54" d="M552.18,348.71l.89.16v0l-.89-.17h0" transform="translate(-528.06 -316.95)"/><path class="cls-53" d="M552.17,348.72l.89.17h0l-.89-.16v0" transform="translate(-528.06 -316.95)"/><path class="cls-52" d="M552.16,348.74l.89.16v0l-.89-.16v0" transform="translate(-528.06 -316.95)"/><path class="cls-51" d="M552.15,348.76l.89.16v0l-.89-.16v0" transform="translate(-528.06 -316.95)"/><path class="cls-83" d="M552.14,348.78l.89.16,0,0-.89-.16,0,0" transform="translate(-528.06 -316.95)"/><path class="cls-84" d="M552.12,348.8l.89.16,0,0-.89-.17,0,0" transform="translate(-528.06 -316.95)"/><path class="cls-49" d="M552.1,348.82l.89.17a.21.21,0,0,1-.1.06h0l-.89-.16h0a.17.17,0,0,0,.1-.07" transform="translate(-528.06 -316.95)"/></g></g></g><path class="cls-85" d="M552.11,347.91c.12,0,.2.17.17.45s-.15.5-.28.53-.19-.17-.16-.44S552,347.93,552.11,347.91Z" transform="translate(-528.06 -316.95)"/><g class="cls-12"><g class="cls-102"><g class="cls-12"><polyline class="cls-17" points="24.26 29.97 25.15 30.13 25.15 30.13 24.26 29.97 24.26 29.97"/><path class="cls-18" d="M552.33,346.92l.89.17h0l-.89-.16h0" transform="translate(-528.06 -316.95)"/><path class="cls-19" d="M552.36,346.93l.89.16,0,0-.89-.17h0" transform="translate(-528.06 -316.95)"/><path class="cls-20" d="M552.39,346.94l.89.17h0l-.89-.16,0,0" transform="translate(-528.06 -316.95)"/><path class="cls-21" d="M552.41,347l.89.16,0,0-.89-.17h0" transform="translate(-528.06 -316.95)"/><path class="cls-22" d="M552.44,347l.89.17h0l-.89-.16,0,0" transform="translate(-528.06 -316.95)"/><path class="cls-23" d="M552.46,347l.89.16,0,0-.88-.16,0,0" transform="translate(-528.06 -316.95)"/><path class="cls-24" d="M552.49,347l.88.16,0,0-.89-.17,0,0" transform="translate(-528.06 -316.95)"/><path class="cls-25" d="M552.51,347l.89.17,0,0-.89-.16,0,0" transform="translate(-528.06 -316.95)"/><path class="cls-26" d="M552.53,347.06l.89.16,0,0-.89-.17,0,0" transform="translate(-528.06 -316.95)"/><path class="cls-27" d="M552.55,347.08l.89.17,0,0-.89-.16,0,0" transform="translate(-528.06 -316.95)"/><path class="cls-28" d="M552.57,347.11l.89.16v0l-.89-.17v0" transform="translate(-528.06 -316.95)"/><path class="cls-29" d="M552.58,347.14l.89.17,0,0-.89-.16,0,0" transform="translate(-528.06 -316.95)"/><path class="cls-30" d="M552.6,347.18l.89.16,0,0-.89-.16,0,0" transform="translate(-528.06 -316.95)"/><path class="cls-31" d="M552.62,347.22l.89.16,0,0-.89-.16,0,0" transform="translate(-528.06 -316.95)"/><path class="cls-32" d="M552.64,347.26l.89.16v0l-.89-.16v0" transform="translate(-528.06 -316.95)"/><path class="cls-33" d="M552.65,347.3l.89.16,0,.05-.89-.16,0-.05" transform="translate(-528.06 -316.95)"/><path class="cls-34" d="M552.67,347.35l.89.16s0,0,0,.06l-.89-.16s0,0,0-.06" transform="translate(-528.06 -316.95)"/><path class="cls-35" d="M552.68,347.41l.89.16s0,0,0,.06l-.89-.16s0,0,0-.06" transform="translate(-528.06 -316.95)"/><path class="cls-36" d="M552.7,347.47l.89.16s0,0,0,.06l-.89-.16s0,0,0-.06" transform="translate(-528.06 -316.95)"/><path class="cls-37" d="M552.71,347.53l.89.16s0,.05,0,.07l-.89-.16s0-.05,0-.07" transform="translate(-528.06 -316.95)"/><path class="cls-38" d="M552.72,347.6l.89.16v.06l-.89-.17v0" transform="translate(-528.06 -316.95)"/><path class="cls-39" d="M552.73,347.65l.89.17v.05l-.89-.16v-.06" transform="translate(-528.06 -316.95)"/><path class="cls-40" d="M552.73,347.71l.89.16v.05l-.89-.16v-.05" transform="translate(-528.06 -316.95)"/><path class="cls-41" d="M552.74,347.76l.89.16V348l-.89-.17v0" transform="translate(-528.06 -316.95)"/><path class="cls-42" d="M552.74,347.8l.89.17v0l-.89-.16v-.05" transform="translate(-528.06 -316.95)"/><path class="cls-43" d="M552.74,347.85l.89.16v0l-.89-.16v0" transform="translate(-528.06 -316.95)"/><path class="cls-44" d="M552.74,347.89l.89.16v.05l-.89-.16v-.05" transform="translate(-528.06 -316.95)"/><path class="cls-45" d="M552.74,347.94l.89.16v0l-.89-.17v0" transform="translate(-528.06 -316.95)"/><path class="cls-46" d="M552.74,348l.89.17v.06l-.89-.17V348" transform="translate(-528.06 -316.95)"/><path class="cls-47" d="M552.74,348l.89.17a1.49,1.49,0,0,1,0,.21h0l-.89-.16h0a1.64,1.64,0,0,0,0-.22" transform="translate(-528.06 -316.95)"/><path class="cls-46" d="M552.72,348.26l.89.16v.05l-.89-.17v0" transform="translate(-528.06 -316.95)"/><path class="cls-45" d="M552.72,348.3l.89.17v0l-.89-.16v-.05" transform="translate(-528.06 -316.95)"/><path class="cls-44" d="M552.71,348.35l.89.16v0l-.89-.16v0" transform="translate(-528.06 -316.95)"/><path class="cls-43" d="M552.71,348.39l.89.16v0l-.89-.16v0" transform="translate(-528.06 -316.95)"/><path class="cls-42" d="M552.7,348.42l.89.16v0l-.89-.16v0" transform="translate(-528.06 -316.95)"/><path class="cls-41" d="M552.7,348.45l.89.16v0l-.89-.16v0" transform="translate(-528.06 -316.95)"/><path class="cls-40" d="M552.69,348.48l.89.16v0l-.89-.16v0" transform="translate(-528.06 -316.95)"/><path class="cls-39" d="M552.69,348.51l.89.16v0l-.89-.17v0" transform="translate(-528.06 -316.95)"/><path class="cls-38" d="M552.68,348.54l.89.17v0l-.89-.17v0" transform="translate(-528.06 -316.95)"/><path class="cls-37" d="M552.68,348.57l.89.17v0l-.89-.17v0" transform="translate(-528.06 -316.95)"/><path class="cls-36" d="M552.67,348.6l.89.17v0l-.89-.16v0" transform="translate(-528.06 -316.95)"/><path class="cls-35" d="M552.66,348.64l.89.16v0l-.88-.16v0" transform="translate(-528.06 -316.95)"/><path class="cls-34" d="M552.66,348.67l.88.16v0l-.89-.16v0" transform="translate(-528.06 -316.95)"/><path class="cls-33" d="M552.65,348.71l.89.16v0l-.89-.16v0" transform="translate(-528.06 -316.95)"/><path class="cls-32" d="M552.64,348.74l.89.16V349l-.89-.17v0" transform="translate(-528.06 -316.95)"/><path class="cls-31" d="M552.63,348.78l.89.17v0l-.89-.17v0" transform="translate(-528.06 -316.95)"/><path class="cls-30" d="M552.62,348.82l.89.17,0,0-.89-.16,0-.05" transform="translate(-528.06 -316.95)"/><path class="cls-29" d="M552.6,348.87l.89.16v.05l-.89-.16v-.05" transform="translate(-528.06 -316.95)"/><path class="cls-28" d="M552.59,348.92l.89.16,0,.05-.89-.16,0-.05" transform="translate(-528.06 -316.95)"/><path class="cls-27" d="M552.57,349l.89.16,0,.05-.88-.16v0" transform="translate(-528.06 -316.95)"/><path class="cls-26" d="M552.56,349l.88.16v.05l-.89-.16,0-.05" transform="translate(-528.06 -316.95)"/><path class="cls-25" d="M552.54,349.07l.89.16,0,0-.89-.16,0-.05" transform="translate(-528.06 -316.95)"/><path class="cls-24" d="M552.52,349.12l.89.16,0,.05-.89-.16,0-.05" transform="translate(-528.06 -316.95)"/><path class="cls-23" d="M552.5,349.17l.89.16,0,.05-.89-.16,0-.05" transform="translate(-528.06 -316.95)"/><path class="cls-22" d="M552.47,349.22l.89.16,0,.06-.89-.17,0,0" transform="translate(-528.06 -316.95)"/><path class="cls-21" d="M552.45,349.27l.89.17,0,.05-.89-.16,0-.06" transform="translate(-528.06 -316.95)"/><path class="cls-20" d="M552.43,349.33l.89.16,0,.05-.89-.16,0-.05" transform="translate(-528.06 -316.95)"/><path class="cls-19" d="M552.4,349.38l.89.16,0,0-.89-.16,0-.05" transform="translate(-528.06 -316.95)"/><path class="cls-18" d="M552.37,349.43l.89.16,0,.06-.89-.16,0-.06" transform="translate(-528.06 -316.95)"/><path class="cls-17" d="M552.34,349.49l.89.16,0,.05-.89-.16a.1.1,0,0,1,0-.05" transform="translate(-528.06 -316.95)"/><path class="cls-16" d="M552.3,349.54l.89.16-.05.07-.88-.17a.21.21,0,0,1,0-.06" transform="translate(-528.06 -316.95)"/><path class="cls-15" d="M552.26,349.6l.88.17,0,.07-.89-.17.06-.07" transform="translate(-528.06 -316.95)"/><path class="cls-14" d="M552.2,349.67l.89.17a.63.63,0,0,1-.3.19h-.11l-.89-.17h.11a.59.59,0,0,0,.3-.2" transform="translate(-528.06 -316.95)"/></g></g></g><path class="cls-87" d="M552.21,346.93c.37-.08.6.52.51,1.33s-.45,1.53-.82,1.61-.6-.51-.51-1.33S551.84,347,552.21,346.93Zm-.21,2c.13,0,.25-.27.28-.53s0-.48-.17-.45-.25.27-.27.54,0,.47.16.44" transform="translate(-528.06 -316.95)"/></g></svg>