<svg id="corp_eleve" data-name="corp eleve" xmlns="http://www.w3.org/2000/svg" viewBox="0 0 44.28 81.01"><defs><style>.cls-1,.cls-7{fill:#1d1d1b;}.cls-1,.cls-2,.cls-3,.cls-4,.cls-6{stroke:#1d1d1b;}.cls-1,.cls-2,.cls-3,.cls-4,.cls-5,.cls-6,.cls-7{stroke-miterlimit:10;}.cls-1,.cls-2,.cls-3,.cls-5,.cls-6,.cls-7{stroke-width:0.25px;}.cls-2{fill:#fff;}.cls-3{fill:#6c1322;}.cls-4{fill:#eab045;stroke-width:0.15px;}.cls-5,.cls-6{fill:#f1c089;}.cls-5,.cls-7{stroke:#575756;}</style></defs><path class="cls-1" d="M228.62,328.18s-2.17,2-5.37,4.79-.33,21.29-1.19,23.57c-1.13,3,0,3.57.83,9s-.1,4.38,1,9.22a54,54,0,0,1,.74,12.63c-.31,4.15,0,3.08-.52,8.4-.63,6.31-.06-4.56-1.46-2.74s5.12,10.69,10.44,12.05,14.91-.84,24.88-2,.68-12.78,4.7-23.17c1.84-4.79,1.51-7.35,1.95-13,.16-2.12,1.6-2.7.71-7.27-1-5.35.51-.13-3.44-25.37-.88-5.63-7.49-6-7.49-6Z" transform="translate(-221.46 -324.61)"/><polygon class="cls-2" points="14.71 0.28 25.13 0.28 23.51 19.56 19.81 25.74 16.49 19.24 14.71 0.28"/><path class="cls-3" d="M236.17,324.89s-6.6.52-7.68,3.29,9,12.87,9,12.87Z" transform="translate(-221.46 -324.61)"/><path class="cls-3" d="M246.6,324.89s6.6.52,7.68,3.29-9,12.87-9,12.87Z" transform="translate(-221.46 -324.61)"/><polygon class="cls-3" points="18.07 0.13 15.76 2.15 18.07 5.81 21.71 5.81 24.14 2.15 21.71 0.13 18.07 0.13"/><polygon class="cls-3" points="18.07 5.81 17.4 17.34 19.95 21.35 22.11 17.34 21.71 5.81 18.07 5.81"/><polygon class="cls-4" points="17.98 7.39 17.89 8.98 21.82 10.77 21.82 9.08 17.98 7.39"/><polygon class="cls-4" points="17.77 10.95 17.68 12.54 21.95 14.33 21.95 12.64 17.77 10.95"/><polygon class="cls-4" points="17.67 13.98 17.57 15.58 22.06 17.37 22.06 15.68 17.67 13.98"/><line class="cls-5" x1="19.89" y1="25.74" x2="19.72" y2="61.59"/><path class="cls-6" d="M232.65,365.51,235,369.6l-2.31,3s-1.81-1.77-2-3a29.8,29.8,0,0,1,0-3.78Z" transform="translate(-221.46 -324.61)"/><path class="cls-7" d="M227.61,346.87s2.41,13,4.78,15.11-4.07,13.93-4.07,13.93l1.11.81,6.91-8.89.65.6-6.85,8.88-.71-.59" transform="translate(-221.46 -324.61)"/><path class="cls-6" d="M251.21,365.51l-2.31,4.09,2.31,3s1.82-1.77,2-3a29.8,29.8,0,0,0,0-3.78Z" transform="translate(-221.46 -324.61)"/><path class="cls-7" d="M256.25,346.87s-2.4,13-4.77,15.11,4.07,13.93,4.07,13.93l-1.11.81-6.91-8.89-.65.6,6.85,8.88.71-.59" transform="translate(-221.46 -324.61)"/><circle class="cls-7" cx="20.56" cy="29.74" r="1.26"/><circle class="cls-7" cx="20.69" cy="48.86" r="1.26"/><circle class="cls-7" cx="20.56" cy="36.22" r="1.26"/><circle class="cls-7" cx="20.69" cy="43.17" r="1.26"/><line class="cls-7" x1="6.85" y1="51.3" x2="3.16" y2="57.15"/><line class="cls-7" x1="34.02" y1="51.3" x2="40.36" y2="59.2"/></svg>