<svg xmlns="http://www.w3.org/2000/svg" xmlns:xlink="http://www.w3.org/1999/xlink" viewBox="0 0 87.79 133.74"><defs><style>.cls-1,.cls-106,.cls-114{fill:none;}.cls-11,.cls-2{fill:#9c5616;}.cls-2,.cls-3,.cls-6{stroke:#000;}.cls-104,.cls-106,.cls-107,.cls-114,.cls-2,.cls-3,.cls-4,.cls-6{stroke-miterlimit:10;}.cls-3,.cls-9{fill:#1d1d1b;}.cls-4{fill:#9d9d9c;stroke:#9d9d9c;}.cls-104,.cls-5{fill:#f1c089;}.cls-6{fill:#2d190f;}.cls-7{opacity:0.27;}.cls-8{opacity:0.22;}.cls-10{clip-path:url(#clip-path);}.cls-12{isolation:isolate;}.cls-13{clip-path:url(#clip-path-2);}.cls-14{fill:#885135;}.cls-15{fill:#8c5336;}.cls-16{fill:#8f5538;}.cls-17{fill:#925739;}.cls-18{fill:#96593b;}.cls-19{fill:#995b3c;}.cls-20{fill:#9c5d3d;}.cls-21{fill:#9f5f3f;}.cls-22{fill:#a26140;}.cls-23{fill:#a56241;}.cls-24{fill:#a86442;}.cls-25{fill:#ac6643;}.cls-26{fill:#af6845;}.cls-27{fill:#b26946;}.cls-28{fill:#b56b47;}.cls-29{fill:#b86d48;}.cls-30{fill:#bb6e4a;}.cls-31{fill:#be704b;}.cls-32{fill:#c1724c;}.cls-33{fill:#c4734d;}.cls-34{fill:#c7754e;}.cls-35{fill:#ca764f;}.cls-36{fill:#cd7850;}.cls-37{fill:#d07a52;}.cls-38{fill:#d37b53;}.cls-39{fill:#d88b65;}.cls-40{fill:#da926e;}.cls-41{fill:#dc9774;}.cls-42{fill:#dd9b79;}.cls-43{fill:#de9f7e;}.cls-44{fill:#dfa282;}.cls-45{fill:#e0a686;}.cls-46{fill:#e1a889;}.cls-47{fill:#e2ab8d;}.cls-48{clip-path:url(#clip-path-3);}.cls-49{fill:#801211;}.cls-50{clip-path:url(#clip-path-4);}.cls-51{fill:#891313;}.cls-52{fill:#8b1314;}.cls-53{fill:#8e1315;}.cls-54{fill:#901416;}.cls-55{fill:#931417;}.cls-56{fill:#951417;}.cls-57{fill:#981418;}.cls-58{fill:#9b1419;}.cls-59{fill:#9d151a;}.cls-60{fill:#a0151a;}.cls-61{fill:#a2151b;}.cls-62{fill:#a5151c;}.cls-63{fill:#a7151c;}.cls-64{fill:#aa151d;}.cls-65{fill:#ad151e;}.cls-66{fill:#af151e;}.cls-67{fill:#b2161f;}.cls-68{fill:#b4161f;}.cls-69{fill:#b61620;}.cls-70{fill:#b91621;}.cls-71{fill:#bb1621;}.cls-72{fill:#be1622;}.cls-73{fill:#c43732;}.cls-74{fill:#c7433a;}.cls-75{fill:#c94c40;}.cls-76{fill:#cb5446;}.cls-77{fill:#cd5b4c;}.cls-78{fill:#cf6151;}.cls-79{fill:#d06656;}.cls-80{fill:#d16b5a;}.cls-81{fill:#d2705e;}.cls-82{clip-path:url(#clip-path-5);}.cls-83{fill:#861313;}.cls-84{fill:#831212;}.cls-85{fill:#811211;}.cls-86{clip-path:url(#clip-path-6);}.cls-87{fill:#895235;}.cls-88{clip-path:url(#clip-path-7);}.cls-89{clip-path:url(#clip-path-8);}.cls-90{clip-path:url(#clip-path-9);}.cls-91{fill:#854f33;}.cls-92{clip-path:url(#clip-path-11);}.cls-93{clip-path:url(#clip-path-12);}.cls-94{clip-path:url(#clip-path-13);}.cls-95{clip-path:url(#clip-path-14);}.cls-96{clip-path:url(#clip-path-15);}.cls-97{clip-path:url(#clip-path-16);}.cls-98{clip-path:url(#clip-path-17);}.cls-99{clip-path:url(#clip-path-18);}.cls-100{clip-path:url(#clip-path-19);}.cls-101{clip-path:url(#clip-path-20);}.cls-102{clip-path:url(#clip-path-21);}.cls-103{fill:#4f3727;}.cls-104,.cls-106{stroke:#774d30;}.cls-104,.cls-106,.cls-107{stroke-width:0.25px;}.cls-105{fill:#774d30;}.cls-107,.cls-109{fill:#fff;}.cls-107{stroke:#1d1d1b;}.cls-108{clip-path:url(#clip-path-22);}.cls-110{opacity:0.05;}.cls-111{opacity:0.07;}.cls-112{opacity:0.04;}.cls-113{opacity:0.08;}.cls-114{stroke:#4f3727;stroke-width:3px;}</style><clipPath id="clip-path" transform="translate(-528.06 -279.61)"><rect class="cls-1" x="548" y="308.98" width="79" height="87"/></clipPath><clipPath id="clip-path-2" transform="translate(-528.06 -279.61)"><path class="cls-1" d="M550.14,352.91l.89.16h0c-.13,0-.25.27-.28.54s0,.42.13.44l-.89-.16c-.1,0-.15-.2-.13-.44s.15-.52.28-.54A0,0,0,0,1,550.14,352.91Z"/></clipPath><clipPath id="clip-path-3" transform="translate(-528.06 -279.61)"><path class="cls-1" d="M550.89,354.05h0l-.89-.16h0Z"/></clipPath><clipPath id="clip-path-4" transform="translate(-528.06 -279.61)"><path class="cls-1" d="M551,353.07c.1,0,.16.2.14.45l-.89-.17c0-.24,0-.43-.14-.44Z"/></clipPath><clipPath id="clip-path-5" transform="translate(-528.06 -279.61)"><path class="cls-1" d="M551.17,353.52c0,.27-.16.5-.28.53l-.89-.16h0c.12,0,.25-.26.28-.54h0l.89.17Z"/></clipPath><clipPath id="clip-path-6" transform="translate(-528.06 -279.61)"><path class="cls-1" d="M550.32,351.92l.89.16c.3.06.48.62.4,1.34s-.45,1.54-.82,1.62h-.11l-.89-.16h.11c.37-.08.73-.81.82-1.62S550.62,352,550.32,351.92Z"/></clipPath><clipPath id="clip-path-7" transform="translate(-528.06 -279.61)"><path class="cls-1" d="M547.11,357.91l.89.16c-.1,0-.19.16-.25.37a1.25,1.25,0,0,0,0,.38l-.89-.16a1.25,1.25,0,0,1,0-.38C546.92,358.07,547,357.93,547.11,357.91Z"/></clipPath><clipPath id="clip-path-8" transform="translate(-528.06 -279.61)"><path class="cls-1" d="M546.83,358.66l.89.16a.29.29,0,0,0,.1.22l-.89-.16A.29.29,0,0,1,546.83,358.66Z"/></clipPath><clipPath id="clip-path-9" transform="translate(-528.06 -279.61)"><path class="cls-1" d="M547.86,359.05l-.89-.16h0l.89.16Z"/></clipPath><clipPath id="clip-path-11" transform="translate(-528.06 -279.61)"><path class="cls-1" d="M547.33,356.93l.89.16.09,0-.89-.16Z"/></clipPath><clipPath id="clip-path-12" transform="translate(-528.06 -279.61)"><path class="cls-1" d="M547.67,360l-.89-.17h.12l.89.16Z"/></clipPath><clipPath id="clip-path-13" transform="translate(-528.06 -279.61)"><path class="cls-1" d="M548.07,358.08a.29.29,0,0,1,.1.22l-.79-.14-.1,0a.29.29,0,0,0-.1-.22A5.55,5.55,0,0,1,548.07,358.08Z"/></clipPath><clipPath id="clip-path-14" transform="translate(-528.06 -279.61)"><path class="cls-1" d="M547.28,358.14l.89.16a1.25,1.25,0,0,1,0,.38c-.06.21-.16.35-.25.37l-.89-.16c.09,0,.19-.16.25-.37A1.25,1.25,0,0,0,547.28,358.14Z"/></clipPath><clipPath id="clip-path-15" transform="translate(-528.06 -279.61)"><path class="cls-1" d="M547.21,359.67l.89.16a.58.58,0,0,1-.31.2l-.89-.16A.65.65,0,0,0,547.21,359.67Z"/></clipPath><clipPath id="clip-path-16" transform="translate(-528.06 -279.61)"><path class="cls-1" d="M547.42,357l.89.16a.9.9,0,0,1,.3.67l-.89-.16A.88.88,0,0,0,547.42,357Z"/></clipPath><clipPath id="clip-path-17" transform="translate(-528.06 -279.61)"><path class="cls-1" d="M547.63,358.75l.89.16a2.39,2.39,0,0,1-.42.92l-.89-.16A2.25,2.25,0,0,0,547.63,358.75Z"/></clipPath><clipPath id="clip-path-18" transform="translate(-528.06 -279.61)"><path class="cls-1" d="M547.72,357.63l.89.16a3.11,3.11,0,0,1-.09,1.12l-.89-.16A3.13,3.13,0,0,0,547.72,357.63Z"/></clipPath><clipPath id="clip-path-19" transform="translate(-528.06 -279.61)"><path class="cls-1" d="M552.15,347.91l.89.16h0c-.12,0-.25.27-.28.54s0,.42.14.44l-.89-.16c-.1,0-.16-.2-.13-.44s.15-.52.27-.54Z"/></clipPath><clipPath id="clip-path-20" transform="translate(-528.06 -279.61)"><path class="cls-1" d="M552.89,349.05h0l-.89-.16h0c.13,0,.25-.27.28-.53s0-.43-.13-.45l.89.16c.1,0,.15.2.13.45S553,349,552.89,349.05Z"/></clipPath><clipPath id="clip-path-21" transform="translate(-528.06 -279.61)"><path class="cls-1" d="M552.32,346.92l.89.17c.3.05.48.61.4,1.33s-.45,1.53-.82,1.61h-.11l-.89-.17h.11c.37-.08.74-.8.82-1.61S552.63,347,552.32,346.92Z"/></clipPath><clipPath id="clip-path-22" transform="translate(-528.06 -279.61)"><ellipse class="cls-1" cx="555" cy="302.98" rx="3" ry="2"/></clipPath></defs><g id="Calque_6" data-name="Calque 6"><path class="cls-2" d="M550.23,346.57c0,11.27-16.39,17.56-20.21,27.91-.81,17.83-6.06,28.31,29.87,36.95,26.84,3.05,47.26,1.32,49.91-6.31s14.55-53.23-7.66-77.43C570.25,301.44,557.75,335.28,550.23,346.57Z" transform="translate(-528.06 -279.61)"/><rect class="cls-3" x="1.44" y="90.87" width="85" height="4" rx="2"/><rect class="cls-4" x="529.5" y="367.48" width="1" height="9" rx="0.5" transform="translate(-426.2 -393.4) rotate(13.55)"/><path class="cls-3" d="M549.5,363.48s-2.76-2.25-3.38,3.08-.62,8.79.38,10.92.82,3.8,2,4,7.57-1.57,8.29-2.5-1.29-10.7-2.29-12.42S549.5,363.48,549.5,363.48Z" transform="translate(-528.06 -279.61)"/><ellipse class="cls-5" cx="19.94" cy="91.87" rx="2" ry="7.5"/><path class="cls-6" d="M564.5,328.48l-8.08,15.06s-1.92,3.91-1.42,6.92-.5,4.8-.5,6.41-1,1.72-.5,5.16-.5,10.45,0,12.45.42,6-1,8-1.46,2.64-1,3.82-1.58,6.18,1,9.68,23.76,6.56,28.15,7,18.39-1.53,20.39-1.53S614.07,386,614.07,386s5-34.3-6.8-51.42-32-17.15-32-17.15Z" transform="translate(-528.06 -279.61)"/><g class="cls-7"><path d="M545.69,364c-.19.54-.38,1.08-.55,1.62a7.44,7.44,0,0,0-.34,1.62v.43a3.4,3.4,0,0,1-.06.46,7.9,7.9,0,0,1-.22.87,13.68,13.68,0,0,1-.63,1.65l0-.31a11.12,11.12,0,0,1,.53,3.88,7.82,7.82,0,0,1-.27.94,5.66,5.66,0,0,0-.14.84c-.06.59-.06,1.21-.08,1.83a3.87,3.87,0,0,1-.16,1c-.11.35-.28.64-.33.84a1,1,0,0,0,.1.66c.11.24.28.51.43.82a9.56,9.56,0,0,1,.59,1.81,6,6,0,0,0,.28.88.83.83,0,0,0,.63.57.88.88,0,0,1-.8-.48,5.71,5.71,0,0,1-.44-.85,13.13,13.13,0,0,0-.8-1.64,2.8,2.8,0,0,1-.77-1.93c.08-.41.23-.67.28-.92a2.6,2.6,0,0,0,.07-.8,17.69,17.69,0,0,1,0-1.92,7,7,0,0,1,.15-1c.07-.33.24-.7.25-.86a6.28,6.28,0,0,0-.07-1.71c-.09-.59-.19-1.2-.32-1.79l0-.17.07-.13c.25-.49.5-1,.7-1.51a5,5,0,0,0,.42-1.58,6.31,6.31,0,0,1,.61-1.66A15.85,15.85,0,0,1,545.69,364Z" transform="translate(-528.06 -279.61)"/></g><g class="cls-8"><path class="cls-9" d="M569.5,333.54c-1,2,.33,7.89-.83,6.94" transform="translate(-528.06 -279.61)"/><path d="M569.5,333.54a12.39,12.39,0,0,0,0,1.83c0,.61.08,1.21.1,1.83a16.83,16.83,0,0,1,0,1.87,5.71,5.71,0,0,1-.17,1,1.77,1.77,0,0,1-.22.49c-.07.08-.19.18-.31.14a.4.4,0,0,1-.2-.18.27.27,0,0,0,.21,0s0-.06,0-.11a1.94,1.94,0,0,0,0-.41c0-.29-.08-.6-.12-.9a16.32,16.32,0,0,1-.18-1.85,10.12,10.12,0,0,1,.13-1.9A3.38,3.38,0,0,1,569.5,333.54Z" transform="translate(-528.06 -279.61)"/></g><g class="cls-8"><path class="cls-9" d="M566.06,336.65c-1,2,.33,7.89-.84,6.94" transform="translate(-528.06 -279.61)"/><path d="M566.06,336.65a10.15,10.15,0,0,0,0,1.83c0,.61.07,1.21.1,1.83a14.75,14.75,0,0,1,0,1.87,5.71,5.71,0,0,1-.17,1,1.33,1.33,0,0,1-.22.49.3.3,0,0,1-.31.14.44.44,0,0,1-.2-.18.33.33,0,0,0,.21,0c.05,0,0-.07.06-.12a2,2,0,0,0,0-.41c0-.29-.09-.59-.13-.9-.09-.61-.14-1.23-.17-1.85a9.34,9.34,0,0,1,.12-1.9A3.43,3.43,0,0,1,566.06,336.65Z" transform="translate(-528.06 -279.61)"/></g><g class="cls-8"><path class="cls-9" d="M562.06,340.65c-1,2,.33,7.89-.84,6.94" transform="translate(-528.06 -279.61)"/><path d="M562.06,340.65a10.15,10.15,0,0,0,0,1.83c0,.61.07,1.21.1,1.83a14.75,14.75,0,0,1,0,1.87,5.71,5.71,0,0,1-.17,1,1.33,1.33,0,0,1-.22.49.3.3,0,0,1-.31.14.44.44,0,0,1-.2-.18.33.33,0,0,0,.21,0c.05,0,0-.07.06-.12a2,2,0,0,0,0-.41c0-.29-.09-.59-.13-.9-.09-.61-.14-1.23-.17-1.85a9.34,9.34,0,0,1,.12-1.9A3.43,3.43,0,0,1,562.06,340.65Z" transform="translate(-528.06 -279.61)"/></g><g class="cls-8"><path class="cls-9" d="M571.06,338.65c-1,2,.33,7.89-.84,6.94" transform="translate(-528.06 -279.61)"/><path d="M571.06,338.65a10.15,10.15,0,0,0,0,1.83c0,.61.07,1.21.1,1.83a14.75,14.75,0,0,1,0,1.87,5.71,5.71,0,0,1-.17,1,1.33,1.33,0,0,1-.22.49.3.3,0,0,1-.31.14.44.44,0,0,1-.2-.18.33.33,0,0,0,.21,0c.05,0,0-.07.06-.12a2,2,0,0,0,0-.41c0-.29-.09-.59-.13-.9-.09-.61-.14-1.23-.17-1.85a9.34,9.34,0,0,1,.12-1.9A3.43,3.43,0,0,1,571.06,338.65Z" transform="translate(-528.06 -279.61)"/></g><g class="cls-8"><path class="cls-9" d="M569.06,345.65c-1,2,.33,7.89-.84,6.94" transform="translate(-528.06 -279.61)"/><path d="M569.06,345.65a10.15,10.15,0,0,0,0,1.83c0,.61.07,1.21.1,1.83a14.75,14.75,0,0,1,0,1.87,5.71,5.71,0,0,1-.17,1,1.33,1.33,0,0,1-.22.49.3.3,0,0,1-.31.14.44.44,0,0,1-.2-.18.33.33,0,0,0,.21,0c.05,0,0-.07.06-.12a2,2,0,0,0,0-.41c0-.29-.09-.59-.13-.9-.09-.61-.14-1.23-.17-1.85a9.34,9.34,0,0,1,.12-1.9A3.43,3.43,0,0,1,569.06,345.65Z" transform="translate(-528.06 -279.61)"/></g><g class="cls-8"><path class="cls-9" d="M566.06,347.65c-1,2,.33,7.89-.84,6.94" transform="translate(-528.06 -279.61)"/><path d="M566.06,347.65a10.15,10.15,0,0,0,0,1.83c0,.61.07,1.21.1,1.83a14.75,14.75,0,0,1,0,1.87,5.71,5.71,0,0,1-.17,1,1.33,1.33,0,0,1-.22.49.3.3,0,0,1-.31.14.44.44,0,0,1-.2-.18.33.33,0,0,0,.21,0c.05,0,0-.07.06-.12a2,2,0,0,0,0-.41c0-.29-.09-.59-.13-.9-.09-.61-.14-1.23-.17-1.85a9.34,9.34,0,0,1,.12-1.9A3.43,3.43,0,0,1,566.06,347.65Z" transform="translate(-528.06 -279.61)"/></g><g class="cls-8"><path class="cls-9" d="M562.06,349.65c-1,2,.33,7.89-.84,6.94" transform="translate(-528.06 -279.61)"/><path d="M562.06,349.65a10.15,10.15,0,0,0,0,1.83c0,.61.07,1.21.1,1.83a14.75,14.75,0,0,1,0,1.87,5.71,5.71,0,0,1-.17,1,1.33,1.33,0,0,1-.22.49.3.3,0,0,1-.31.14.44.44,0,0,1-.2-.18.33.33,0,0,0,.21,0c.05,0,0-.07.06-.12a2,2,0,0,0,0-.41c0-.29-.09-.59-.13-.9-.09-.61-.14-1.23-.17-1.85a9.34,9.34,0,0,1,.12-1.9A3.43,3.43,0,0,1,562.06,349.65Z" transform="translate(-528.06 -279.61)"/></g><g class="cls-8"><path class="cls-9" d="M559.06,350.65c-1,2,.33,7.89-.84,6.94" transform="translate(-528.06 -279.61)"/><path d="M559.06,350.65a10.15,10.15,0,0,0,0,1.83c0,.61.07,1.21.1,1.83a14.75,14.75,0,0,1,0,1.87,5.71,5.71,0,0,1-.17,1,1.33,1.33,0,0,1-.22.49.3.3,0,0,1-.31.14.44.44,0,0,1-.2-.18.33.33,0,0,0,.21,0c.05,0,0-.07.06-.12a2,2,0,0,0,0-.41c0-.29-.09-.59-.13-.9-.09-.61-.14-1.23-.17-1.85a9.34,9.34,0,0,1,.12-1.9A3.43,3.43,0,0,1,559.06,350.65Z" transform="translate(-528.06 -279.61)"/></g><g class="cls-8"><path class="cls-9" d="M559.06,342.65c-1,2,.33,7.89-.84,6.94" transform="translate(-528.06 -279.61)"/><path d="M559.06,342.65a10.15,10.15,0,0,0,0,1.83c0,.61.07,1.21.1,1.83a14.75,14.75,0,0,1,0,1.87,5.71,5.71,0,0,1-.17,1,1.33,1.33,0,0,1-.22.49.3.3,0,0,1-.31.14.44.44,0,0,1-.2-.18.33.33,0,0,0,.21,0c.05,0,0-.07.06-.12a2,2,0,0,0,0-.41c0-.29-.09-.59-.13-.9-.09-.61-.14-1.23-.17-1.85a9.34,9.34,0,0,1,.12-1.9A3.43,3.43,0,0,1,559.06,342.65Z" transform="translate(-528.06 -279.61)"/></g><g class="cls-8"><path class="cls-9" d="M564.06,343.65c-1,2,.33,7.89-.84,6.94" transform="translate(-528.06 -279.61)"/><path d="M564.06,343.65a10.15,10.15,0,0,0,0,1.83c0,.61.07,1.21.1,1.83a14.75,14.75,0,0,1,0,1.87,5.71,5.71,0,0,1-.17,1,1.33,1.33,0,0,1-.22.49.3.3,0,0,1-.31.14.44.44,0,0,1-.2-.18.33.33,0,0,0,.21,0c.05,0,0-.07.06-.12a2,2,0,0,0,0-.41c0-.29-.09-.59-.13-.9-.09-.61-.14-1.23-.17-1.85a9.34,9.34,0,0,1,.12-1.9A3.43,3.43,0,0,1,564.06,343.65Z" transform="translate(-528.06 -279.61)"/></g><g class="cls-8"><path class="cls-9" d="M571.06,351.65c-1,2,.33,7.89-.84,6.94" transform="translate(-528.06 -279.61)"/><path d="M571.06,351.65a10.15,10.15,0,0,0,0,1.83c0,.61.07,1.21.1,1.83a14.75,14.75,0,0,1,0,1.87,5.71,5.71,0,0,1-.17,1,1.33,1.33,0,0,1-.22.49.3.3,0,0,1-.31.14.44.44,0,0,1-.2-.18.33.33,0,0,0,.21,0c.05,0,0-.07.06-.12a2,2,0,0,0,0-.41c0-.29-.09-.59-.13-.9-.09-.61-.14-1.23-.17-1.85a9.34,9.34,0,0,1,.12-1.9A3.43,3.43,0,0,1,571.06,351.65Z" transform="translate(-528.06 -279.61)"/></g><g class="cls-8"><path class="cls-9" d="M603.06,345.65c-1,2,.33,7.89-.84,6.94" transform="translate(-528.06 -279.61)"/><path d="M603.06,345.65a10.15,10.15,0,0,0,0,1.83c0,.61.07,1.21.1,1.83a14.75,14.75,0,0,1,0,1.87,5.71,5.71,0,0,1-.17,1,1.33,1.33,0,0,1-.22.49.3.3,0,0,1-.31.14.44.44,0,0,1-.2-.18.33.33,0,0,0,.21,0c.05,0,0-.07.06-.12a2,2,0,0,0,0-.41c0-.29-.09-.59-.13-.9-.09-.61-.14-1.23-.17-1.85a9.34,9.34,0,0,1,.12-1.9A3.43,3.43,0,0,1,603.06,345.65Z" transform="translate(-528.06 -279.61)"/></g><g class="cls-8"><path class="cls-9" d="M606.06,343.59c-1,2,.33,7.89-.84,7" transform="translate(-528.06 -279.61)"/><path d="M606.06,343.59a10.26,10.26,0,0,0,0,1.84c0,.6.07,1.21.1,1.82a14.65,14.65,0,0,1,0,1.87,5.37,5.37,0,0,1-.17,1,1.37,1.37,0,0,1-.22.5.32.32,0,0,1-.31.13.42.42,0,0,1-.2-.17.4.4,0,0,0,.21,0c.05,0,0-.06.06-.11a1.94,1.94,0,0,0,0-.41c0-.3-.09-.6-.13-.9-.09-.61-.14-1.23-.17-1.86a9.38,9.38,0,0,1,.12-1.9A3.46,3.46,0,0,1,606.06,343.59Z" transform="translate(-528.06 -279.61)"/></g><g class="cls-8"><path class="cls-9" d="M610.06,344.59c-1,2,.33,7.89-.84,7" transform="translate(-528.06 -279.61)"/><path d="M610.06,344.59a10.26,10.26,0,0,0,0,1.84c0,.6.07,1.21.1,1.82a14.65,14.65,0,0,1,0,1.87,5.37,5.37,0,0,1-.17,1,1.37,1.37,0,0,1-.22.5.32.32,0,0,1-.31.13.42.42,0,0,1-.2-.17.4.4,0,0,0,.21,0c.05,0,0-.06.06-.11a1.94,1.94,0,0,0,0-.41c0-.3-.09-.6-.13-.9-.09-.61-.14-1.23-.17-1.86a9.38,9.38,0,0,1,.12-1.9A3.46,3.46,0,0,1,610.06,344.59Z" transform="translate(-528.06 -279.61)"/></g><g class="cls-8"><path class="cls-9" d="M604.06,355.59c-1,2,.33,7.89-.84,7" transform="translate(-528.06 -279.61)"/><path d="M604.06,355.59a10.26,10.26,0,0,0,0,1.84c0,.6.07,1.21.1,1.82a14.65,14.65,0,0,1,0,1.87,5.37,5.37,0,0,1-.17,1,1.37,1.37,0,0,1-.22.5.32.32,0,0,1-.31.13.42.42,0,0,1-.2-.17.4.4,0,0,0,.21,0c.05,0,0-.06.06-.11a1.94,1.94,0,0,0,0-.41c0-.3-.09-.6-.13-.9-.09-.61-.14-1.23-.17-1.86a9.38,9.38,0,0,1,.12-1.9A3.46,3.46,0,0,1,604.06,355.59Z" transform="translate(-528.06 -279.61)"/></g><g class="cls-8"><path class="cls-9" d="M611.06,353.59c-1,2,.33,7.89-.84,7" transform="translate(-528.06 -279.61)"/><path d="M611.06,353.59a10.26,10.26,0,0,0,0,1.84c0,.6.07,1.21.1,1.82a14.65,14.65,0,0,1,0,1.87,5.37,5.37,0,0,1-.17,1,1.37,1.37,0,0,1-.22.5.32.32,0,0,1-.31.13.42.42,0,0,1-.2-.17.4.4,0,0,0,.21,0c.05,0,0-.06.06-.11a1.94,1.94,0,0,0,0-.41c0-.3-.09-.6-.13-.9-.09-.61-.14-1.23-.17-1.86a9.38,9.38,0,0,1,.12-1.9A3.46,3.46,0,0,1,611.06,353.59Z" transform="translate(-528.06 -279.61)"/></g><g class="cls-8"><path class="cls-9" d="M608.06,354.59c-1,2,.33,7.89-.84,7" transform="translate(-528.06 -279.61)"/><path d="M608.06,354.59a10.26,10.26,0,0,0,0,1.84c0,.6.07,1.21.1,1.82a14.65,14.65,0,0,1,0,1.87,5.37,5.37,0,0,1-.17,1,1.37,1.37,0,0,1-.22.5.32.32,0,0,1-.31.13.42.42,0,0,1-.2-.17.4.4,0,0,0,.21,0c.05,0,0-.06.06-.11a1.94,1.94,0,0,0,0-.41c0-.3-.09-.6-.13-.9-.09-.61-.14-1.23-.17-1.86a9.38,9.38,0,0,1,.12-1.9A3.46,3.46,0,0,1,608.06,354.59Z" transform="translate(-528.06 -279.61)"/></g><g class="cls-8"><path class="cls-9" d="M600.06,361.59c-1,2,.33,7.89-.84,7" transform="translate(-528.06 -279.61)"/><path d="M600.06,361.59a10.26,10.26,0,0,0,0,1.84c0,.6.07,1.21.1,1.82a14.65,14.65,0,0,1,0,1.87,5.37,5.37,0,0,1-.17,1,1.37,1.37,0,0,1-.22.5.32.32,0,0,1-.31.13.42.42,0,0,1-.2-.17.4.4,0,0,0,.21,0c.05,0,0-.06.06-.11a1.94,1.94,0,0,0,0-.41c0-.3-.09-.6-.13-.9-.09-.61-.14-1.23-.17-1.86a9.38,9.38,0,0,1,.12-1.9A3.46,3.46,0,0,1,600.06,361.59Z" transform="translate(-528.06 -279.61)"/></g><g class="cls-8"><path class="cls-9" d="M566.06,355.59c-1,2,.33,7.89-.84,7" transform="translate(-528.06 -279.61)"/><path d="M566.06,355.59a10.26,10.26,0,0,0,0,1.84c0,.6.07,1.21.1,1.82a14.65,14.65,0,0,1,0,1.87,5.37,5.37,0,0,1-.17,1,1.37,1.37,0,0,1-.22.5.32.32,0,0,1-.31.13.42.42,0,0,1-.2-.17.4.4,0,0,0,.21,0c.05,0,0-.06.06-.11a1.94,1.94,0,0,0,0-.41c0-.3-.09-.6-.13-.9-.09-.61-.14-1.23-.17-1.86a9.38,9.38,0,0,1,.12-1.9A3.46,3.46,0,0,1,566.06,355.59Z" transform="translate(-528.06 -279.61)"/></g><g class="cls-8"><path class="cls-9" d="M603.06,362.59c-1,2,.33,7.89-.84,7" transform="translate(-528.06 -279.61)"/><path d="M603.06,362.59a10.26,10.26,0,0,0,0,1.84c0,.6.07,1.21.1,1.82a14.65,14.65,0,0,1,0,1.87,5.37,5.37,0,0,1-.17,1,1.37,1.37,0,0,1-.22.5.32.32,0,0,1-.31.13.42.42,0,0,1-.2-.17.4.4,0,0,0,.21,0c.05,0,0-.06.06-.11a1.94,1.94,0,0,0,0-.41c0-.3-.09-.6-.13-.9-.09-.61-.14-1.23-.17-1.86a9.38,9.38,0,0,1,.12-1.9A3.46,3.46,0,0,1,603.06,362.59Z" transform="translate(-528.06 -279.61)"/></g><g class="cls-8"><path class="cls-9" d="M611.06,365.59c-1,2,.33,7.89-.84,7" transform="translate(-528.06 -279.61)"/><path d="M611.06,365.59a10.26,10.26,0,0,0,0,1.84c0,.6.07,1.21.1,1.82a14.65,14.65,0,0,1,0,1.87,5.37,5.37,0,0,1-.17,1,1.37,1.37,0,0,1-.22.5.32.32,0,0,1-.31.13.42.42,0,0,1-.2-.17.4.4,0,0,0,.21,0c.05,0,0-.06.06-.11a1.94,1.94,0,0,0,0-.41c0-.3-.09-.6-.13-.9-.09-.61-.14-1.23-.17-1.86a9.38,9.38,0,0,1,.12-1.9A3.46,3.46,0,0,1,611.06,365.59Z" transform="translate(-528.06 -279.61)"/></g><g class="cls-8"><path class="cls-9" d="M608.06,365.59c-1,2,.33,7.89-.84,7" transform="translate(-528.06 -279.61)"/><path d="M608.06,365.59a10.26,10.26,0,0,0,0,1.84c0,.6.07,1.21.1,1.82a14.65,14.65,0,0,1,0,1.87,5.37,5.37,0,0,1-.17,1,1.37,1.37,0,0,1-.22.5.32.32,0,0,1-.31.13.42.42,0,0,1-.2-.17.4.4,0,0,0,.21,0c.05,0,0-.06.06-.11a1.94,1.94,0,0,0,0-.41c0-.3-.09-.6-.13-.9-.09-.61-.14-1.23-.17-1.86a9.38,9.38,0,0,1,.12-1.9A3.46,3.46,0,0,1,608.06,365.59Z" transform="translate(-528.06 -279.61)"/></g><g class="cls-8"><path class="cls-9" d="M597.06,370.59c-1,2,.33,7.89-.84,7" transform="translate(-528.06 -279.61)"/><path d="M597.06,370.59a10.26,10.26,0,0,0,0,1.84c0,.6.07,1.21.1,1.82a14.65,14.65,0,0,1,0,1.87,5.37,5.37,0,0,1-.17,1,1.37,1.37,0,0,1-.22.5.32.32,0,0,1-.31.13.42.42,0,0,1-.2-.17.4.4,0,0,0,.21,0c.05,0,0-.06.06-.11a1.94,1.94,0,0,0,0-.41c0-.3-.09-.6-.13-.9-.09-.61-.14-1.23-.17-1.86a9.38,9.38,0,0,1,.12-1.9A3.46,3.46,0,0,1,597.06,370.59Z" transform="translate(-528.06 -279.61)"/></g><g class="cls-8"><path class="cls-9" d="M603.06,368.59c-1,2,.33,7.89-.84,7" transform="translate(-528.06 -279.61)"/><path d="M603.06,368.59a10.26,10.26,0,0,0,0,1.84c0,.6.07,1.21.1,1.82a14.65,14.65,0,0,1,0,1.87,5.37,5.37,0,0,1-.17,1,1.37,1.37,0,0,1-.22.5.32.32,0,0,1-.31.13.42.42,0,0,1-.2-.17.4.4,0,0,0,.21,0c.05,0,0-.06.06-.11a1.94,1.94,0,0,0,0-.41c0-.3-.09-.6-.13-.9-.09-.61-.14-1.23-.17-1.86a9.38,9.38,0,0,1,.12-1.9A3.46,3.46,0,0,1,603.06,368.59Z" transform="translate(-528.06 -279.61)"/></g><g class="cls-8"><path class="cls-9" d="M610.06,373.93c-1,2,.33,7.88-.84,6.94" transform="translate(-528.06 -279.61)"/><path d="M610.06,373.93a10.15,10.15,0,0,0,0,1.83c0,.61.07,1.21.1,1.83a14.75,14.75,0,0,1,0,1.87,5.71,5.71,0,0,1-.17,1,1.4,1.4,0,0,1-.22.49c-.06.07-.18.18-.31.13a.42.42,0,0,1-.2-.17.27.27,0,0,0,.21,0c.05,0,0-.06.06-.11a1.94,1.94,0,0,0,0-.41c0-.29-.09-.6-.13-.9-.09-.61-.14-1.23-.17-1.85a9.48,9.48,0,0,1,.12-1.91A3.4,3.4,0,0,1,610.06,373.93Z" transform="translate(-528.06 -279.61)"/></g><g class="cls-8"><path class="cls-9" d="M557.06,379.93c-1,2,.33,7.88-.84,6.94" transform="translate(-528.06 -279.61)"/><path d="M557.06,379.93a10.15,10.15,0,0,0,0,1.83c0,.61.07,1.21.1,1.83a14.75,14.75,0,0,1,0,1.87,5.71,5.71,0,0,1-.17,1,1.4,1.4,0,0,1-.22.49c-.06.07-.18.18-.31.13a.42.42,0,0,1-.2-.17.27.27,0,0,0,.21,0c.05,0,0-.06.06-.11a1.94,1.94,0,0,0,0-.41c0-.29-.09-.6-.13-.9-.09-.61-.14-1.23-.17-1.85a9.48,9.48,0,0,1,.12-1.91A3.4,3.4,0,0,1,557.06,379.93Z" transform="translate(-528.06 -279.61)"/></g><g class="cls-8"><path class="cls-9" d="M594.06,375.93c-1,2,.33,7.88-.84,6.94" transform="translate(-528.06 -279.61)"/><path d="M594.06,375.93a10.15,10.15,0,0,0,0,1.83c0,.61.07,1.21.1,1.83a14.75,14.75,0,0,1,0,1.87,5.71,5.71,0,0,1-.17,1,1.4,1.4,0,0,1-.22.49c-.06.07-.18.18-.31.13a.42.42,0,0,1-.2-.17.27.27,0,0,0,.21,0c.05,0,0-.06.06-.11a1.94,1.94,0,0,0,0-.41c0-.29-.09-.6-.13-.9-.09-.61-.14-1.23-.17-1.85a9.48,9.48,0,0,1,.12-1.91A3.4,3.4,0,0,1,594.06,375.93Z" transform="translate(-528.06 -279.61)"/></g><g class="cls-8"><path class="cls-9" d="M606.06,375.93c-1,2,.33,7.88-.84,6.94" transform="translate(-528.06 -279.61)"/><path d="M606.06,375.93a10.15,10.15,0,0,0,0,1.83c0,.61.07,1.21.1,1.83a14.75,14.75,0,0,1,0,1.87,5.71,5.71,0,0,1-.17,1,1.4,1.4,0,0,1-.22.49c-.06.07-.18.18-.31.13a.42.42,0,0,1-.2-.17.27.27,0,0,0,.21,0c.05,0,0-.06.06-.11a1.94,1.94,0,0,0,0-.41c0-.29-.09-.6-.13-.9-.09-.61-.14-1.23-.17-1.85a9.48,9.48,0,0,1,.12-1.91A3.4,3.4,0,0,1,606.06,375.93Z" transform="translate(-528.06 -279.61)"/></g><g class="cls-8"><path class="cls-9" d="M600.06,375.93c-1,2,.33,7.88-.84,6.94" transform="translate(-528.06 -279.61)"/><path d="M600.06,375.93a10.15,10.15,0,0,0,0,1.83c0,.61.07,1.21.1,1.83a14.75,14.75,0,0,1,0,1.87,5.71,5.71,0,0,1-.17,1,1.4,1.4,0,0,1-.22.49c-.06.07-.18.18-.31.13a.42.42,0,0,1-.2-.17.27.27,0,0,0,.21,0c.05,0,0-.06.06-.11a1.94,1.94,0,0,0,0-.41c0-.29-.09-.6-.13-.9-.09-.61-.14-1.23-.17-1.85a9.48,9.48,0,0,1,.12-1.91A3.4,3.4,0,0,1,600.06,375.93Z" transform="translate(-528.06 -279.61)"/></g><g class="cls-8"><path class="cls-9" d="M588.06,379.93c-1,2,.33,7.88-.84,6.94" transform="translate(-528.06 -279.61)"/><path d="M588.06,379.93a10.15,10.15,0,0,0,0,1.83c0,.61.07,1.21.1,1.83a14.75,14.75,0,0,1,0,1.87,5.71,5.71,0,0,1-.17,1,1.4,1.4,0,0,1-.22.49c-.06.07-.18.18-.31.13a.42.42,0,0,1-.2-.17.27.27,0,0,0,.21,0c.05,0,0-.06.06-.11a1.94,1.94,0,0,0,0-.41c0-.29-.09-.6-.13-.9-.09-.61-.14-1.23-.17-1.85a9.48,9.48,0,0,1,.12-1.91A3.4,3.4,0,0,1,588.06,379.93Z" transform="translate(-528.06 -279.61)"/></g><g class="cls-8"><path class="cls-9" d="M582.06,379.93c-1,2,.33,7.88-.84,6.94" transform="translate(-528.06 -279.61)"/><path d="M582.06,379.93a10.15,10.15,0,0,0,0,1.83c0,.61.07,1.21.1,1.83a14.75,14.75,0,0,1,0,1.87,5.71,5.71,0,0,1-.17,1,1.4,1.4,0,0,1-.22.49c-.06.07-.18.18-.31.13a.42.42,0,0,1-.2-.17.27.27,0,0,0,.21,0c.05,0,0-.06.06-.11a1.94,1.94,0,0,0,0-.41c0-.29-.09-.6-.13-.9-.09-.61-.14-1.23-.17-1.85a9.48,9.48,0,0,1,.12-1.91A3.4,3.4,0,0,1,582.06,379.93Z" transform="translate(-528.06 -279.61)"/></g><g class="cls-10"><path class="cls-2" d="M600.5,352c0-14.62-6.17-26.48-13.77-26.48S573,337.34,573,352a49.43,49.43,0,0,0,.65,8.05,63,63,0,0,0-8.3-.54c-15.64,0-28.31,5.49-28.31,12.26S549.67,384,565.31,384c10.67,0,20-2.56,24.78-6.33C596.07,374.76,600.5,364.36,600.5,352Z" transform="translate(-528.06 -279.61)"/></g><line class="cls-11" x1="19.94" y1="82.42" x2="19.94" y2="101.81"/><path d="M548,362c.15,1.62.23,3.24.29,4.85s.08,3.23.08,4.85,0,3.23-.08,4.85-.13,3.23-.29,4.84c-.16-1.61-.23-3.23-.29-4.84s-.08-3.24-.08-4.85,0-3.23.08-4.85S547.85,363.65,548,362Z" transform="translate(-528.06 -279.61)"/><path class="cls-9" d="M554.49,341.43a47.41,47.41,0,0,1-2,7c-.86,2.27-1.89,4.46-2.92,6.66a29.22,29.22,0,0,1-4,6.15l-.56.71-.49.7a15.24,15.24,0,0,0-.83,1.55,34,34,0,0,0-1.31,3.31,77.09,77.09,0,0,0-3.33,14,20.47,20.47,0,0,0,.41,7.09c.41,2.38,1,4.72,1.58,7.06a66.25,66.25,0,0,1-2.06-7,20.92,20.92,0,0,1-.69-7.28,59.77,59.77,0,0,1,1.21-7.18,69.22,69.22,0,0,1,1.94-7,34.18,34.18,0,0,1,1.39-3.4,15.26,15.26,0,0,1,.9-1.63l.56-.78.57-.7c.77-.93,1.5-1.87,2.17-2.85a35.08,35.08,0,0,0,1.82-3.08A70.85,70.85,0,0,0,554.49,341.43Z" transform="translate(-528.06 -279.61)"/><g class="cls-12"><g class="cls-12"><g class="cls-13"><g class="cls-12"><path class="cls-14" d="M550.14,352.91l.89.16h0a.21.21,0,0,0-.1.06L550,353a.15.15,0,0,1,.1-.06,0,0,0,0,1,0,0" transform="translate(-528.06 -279.61)"/><path class="cls-15" d="M550,353l.89.16,0,0L550,353l0,0" transform="translate(-528.06 -279.61)"/><path class="cls-16" d="M550,353l.89.16,0,0L550,353l0,0" transform="translate(-528.06 -279.61)"/><path class="cls-17" d="M550,353l.89.16v0L550,353h0" transform="translate(-528.06 -279.61)"/><path class="cls-18" d="M550,353l.89.17v0l-.89-.17v0" transform="translate(-528.06 -279.61)"/><path class="cls-19" d="M550,353.05l.89.17h0l-.89-.16v0" transform="translate(-528.06 -279.61)"/><path class="cls-20" d="M549.94,353.07l.89.16v0l-.89-.16v0" transform="translate(-528.06 -279.61)"/><path class="cls-21" d="M549.93,353.09l.89.16v0l-.89-.16v0" transform="translate(-528.06 -279.61)"/><path class="cls-22" d="M549.92,353.11l.89.16h0l-.89-.16h0" transform="translate(-528.06 -279.61)"/><path class="cls-23" d="M549.92,353.12l.89.16v0l-.89-.16v0" transform="translate(-528.06 -279.61)"/><path class="cls-24" d="M549.91,353.14l.89.16v0l-.89-.16v0" transform="translate(-528.06 -279.61)"/><path class="cls-25" d="M549.9,353.16l.89.16v0l-.89-.17h0" transform="translate(-528.06 -279.61)"/><path class="cls-26" d="M549.89,353.17l.89.17h0l-.89-.16v0" transform="translate(-528.06 -279.61)"/><path class="cls-27" d="M549.89,353.19l.89.16v0l-.89-.16v0" transform="translate(-528.06 -279.61)"/><path class="cls-28" d="M549.88,353.21l.89.16v0l-.89-.16v0" transform="translate(-528.06 -279.61)"/><path class="cls-29" d="M549.88,353.23l.89.16h0l-.89-.16h0" transform="translate(-528.06 -279.61)"/><path class="cls-30" d="M549.87,353.24l.89.16v0l-.89-.16v0" transform="translate(-528.06 -279.61)"/><path class="cls-31" d="M549.87,353.26l.89.16h0l-.89-.16h0" transform="translate(-528.06 -279.61)"/><path class="cls-32" d="M549.86,353.27l.89.16v0l-.89-.16v0" transform="translate(-528.06 -279.61)"/><path class="cls-33" d="M549.86,353.29l.89.16h0l-.89-.16h0" transform="translate(-528.06 -279.61)"/><polyline class="cls-34" points="21.79 73.68 22.68 73.85 22.68 73.86 21.79 73.69 21.79 73.68"/><path class="cls-35" d="M549.85,353.31l.89.16h0l-.89-.16h0" transform="translate(-528.06 -279.61)"/><polyline class="cls-36" points="21.79 73.71 22.68 73.87 22.68 73.88 21.79 73.72 21.79 73.71"/><polyline class="cls-37" points="21.79 73.72 22.68 73.88 22.67 73.89 21.79 73.73 21.79 73.72"/><polyline class="cls-38" points="21.79 73.73 22.67 73.89 22.67 73.9 21.78 73.74 21.79 73.73"/><polyline class="cls-39" points="21.78 73.74 22.67 73.9 22.67 73.91 21.78 73.75 21.78 73.74"/><polyline class="cls-40" points="21.78 73.75 22.67 73.91 22.67 73.92 21.78 73.76 21.78 73.75"/><polyline class="cls-41" points="21.78 73.76 22.67 73.92 22.67 73.93 21.78 73.77 21.78 73.76"/><polyline class="cls-42" points="21.78 73.77 22.67 73.93 22.66 73.94 21.77 73.78 21.78 73.77"/><polyline class="cls-43" points="21.77 73.78 22.66 73.94 22.66 73.95 21.77 73.79 21.77 73.78"/><path class="cls-44" d="M549.84,353.41l.89.16h0l-.88-.16h0" transform="translate(-528.06 -279.61)"/><path class="cls-45" d="M549.84,353.42l.88.16v0l-.89-.17h0" transform="translate(-528.06 -279.61)"/><path class="cls-46" d="M549.83,353.43l.89.17h0l-.89-.16v0" transform="translate(-528.06 -279.61)"/><path class="cls-47" d="M549.83,353.45l.89.16h0v.07l-.89-.16v-.07h0" transform="translate(-528.06 -279.61)"/><path class="cls-46" d="M549.83,353.52l.89.16v0l-.89-.16v0" transform="translate(-528.06 -279.61)"/><path class="cls-45" d="M549.83,353.54l.89.16v0l-.89-.16v0" transform="translate(-528.06 -279.61)"/><path class="cls-44" d="M549.83,353.56l.89.16v0l-.89-.17h0" transform="translate(-528.06 -279.61)"/><path class="cls-43" d="M549.83,353.57l.89.17h0l-.89-.16v0" transform="translate(-528.06 -279.61)"/><path class="cls-42" d="M549.83,353.59l.89.16h0l-.89-.16h0" transform="translate(-528.06 -279.61)"/><path class="cls-41" d="M549.83,353.6l.89.16v0l-.89-.16v0" transform="translate(-528.06 -279.61)"/><path class="cls-40" d="M549.83,353.62l.89.16h0l-.89-.16h0" transform="translate(-528.06 -279.61)"/><path class="cls-39" d="M549.83,353.63l.89.16v0l-.89-.16v0" transform="translate(-528.06 -279.61)"/><path class="cls-38" d="M549.83,353.65l.89.16v0l-.89-.16v0" transform="translate(-528.06 -279.61)"/><path class="cls-37" d="M549.83,353.67l.89.16v0l-.89-.16v0" transform="translate(-528.06 -279.61)"/><path class="cls-36" d="M549.84,353.69l.89.16v0l-.89-.16v0" transform="translate(-528.06 -279.61)"/><path class="cls-35" d="M549.84,353.71l.89.16v0l-.89-.16v0" transform="translate(-528.06 -279.61)"/><path class="cls-34" d="M549.84,353.73l.89.16v0l-.89-.16v0" transform="translate(-528.06 -279.61)"/><path class="cls-33" d="M549.85,353.75l.89.16v0l-.89-.17h0" transform="translate(-528.06 -279.61)"/><path class="cls-32" d="M549.85,353.76l.89.17h0l-.89-.16v0" transform="translate(-528.06 -279.61)"/><path class="cls-31" d="M549.86,353.78l.89.16h0l-.89-.16h0" transform="translate(-528.06 -279.61)"/><path class="cls-30" d="M549.86,353.79l.89.16v0l-.89-.17h0" transform="translate(-528.06 -279.61)"/><polyline class="cls-29" points="21.81 74.19 22.7 74.35 22.7 74.36 21.81 74.2 21.81 74.19"/><polyline class="cls-28" points="21.81 74.2 22.7 74.36 22.71 74.37 21.82 74.21 21.81 74.2"/><polyline class="cls-27" points="21.82 74.21 22.71 74.37 22.71 74.38 21.83 74.22 21.82 74.21"/><polyline class="cls-26" points="21.83 74.22 22.71 74.38 22.72 74.39 21.83 74.23 21.83 74.22"/><polyline class="cls-25" points="21.83 74.23 22.72 74.39 22.73 74.4 21.84 74.24 21.83 74.23"/><polyline class="cls-24" points="21.84 74.24 22.73 74.4 22.74 74.41 21.85 74.24 21.84 74.24"/><polyline class="cls-23" points="21.85 74.24 22.74 74.41 22.74 74.41 21.85 74.25 21.85 74.24"/><polyline class="cls-22" points="21.85 74.25 22.74 74.41 22.75 74.42 21.86 74.26 21.85 74.25"/><polyline class="cls-21" points="21.86 74.26 22.75 74.42 22.76 74.42 21.87 74.26 21.86 74.26"/><polyline class="cls-20" points="21.87 74.26 22.76 74.42 22.77 74.43 21.88 74.27 21.87 74.26"/><polyline class="cls-19" points="21.88 74.27 22.77 74.43 22.78 74.43 21.89 74.27 21.88 74.27"/><polyline class="cls-18" points="21.89 74.27 22.78 74.43 22.79 74.44 21.9 74.27 21.89 74.27"/><polyline class="cls-17" points="21.9 74.27 22.79 74.44 22.79 74.44 21.9 74.27 21.9 74.27"/></g></g></g><g class="cls-12"><g class="cls-48"><g class="cls-12"><path class="cls-49" d="M550.1,353.82l.89.16a.17.17,0,0,1-.1.07h0l-.89-.16h0a.17.17,0,0,0,.1-.07" transform="translate(-528.06 -279.61)"/></g></g></g><g class="cls-12"><g class="cls-50"><g class="cls-12"><polyline class="cls-51" points="22.08 73.29 22.97 73.45 22.97 73.45 22.08 73.29 22.08 73.29"/><polyline class="cls-52" points="22.08 73.29 22.97 73.45 22.98 73.46 22.09 73.29 22.08 73.29"/><polyline class="cls-53" points="22.09 73.29 22.98 73.46 22.99 73.46 22.1 73.3 22.09 73.29"/><polyline class="cls-54" points="22.1 73.3 22.99 73.46 23 73.46 22.11 73.3 22.1 73.3"/><polyline class="cls-55" points="22.11 73.3 23 73.46 23.01 73.47 22.12 73.31 22.11 73.3"/><polyline class="cls-56" points="22.12 73.31 23.01 73.47 23.02 73.47 22.13 73.31 22.12 73.31"/><polyline class="cls-57" points="22.13 73.31 23.02 73.47 23.02 73.48 22.13 73.32 22.13 73.31"/><polyline class="cls-58" points="22.13 73.32 23.02 73.48 23.03 73.49 22.14 73.33 22.13 73.32"/><polyline class="cls-59" points="22.14 73.33 23.03 73.49 23.04 73.5 22.15 73.33 22.14 73.33"/><polyline class="cls-60" points="22.15 73.33 23.04 73.5 23.04 73.5 22.15 73.34 22.15 73.33"/><polyline class="cls-61" points="22.15 73.34 23.04 73.5 23.05 73.52 22.16 73.35 22.15 73.34"/><polyline class="cls-62" points="22.16 73.35 23.05 73.52 23.06 73.53 22.17 73.36 22.16 73.35"/><polyline class="cls-63" points="22.17 73.36 23.06 73.53 23.06 73.54 22.17 73.37 22.17 73.36"/><path class="cls-64" d="M550.24,353l.88.16h0l-.89-.16h0" transform="translate(-528.06 -279.61)"/><path class="cls-65" d="M550.24,353l.89.16v0l-.89-.17h0" transform="translate(-528.06 -279.61)"/><path class="cls-66" d="M550.25,353l.89.17h0l-.89-.16v0" transform="translate(-528.06 -279.61)"/><path class="cls-67" d="M550.25,353l.89.16v0l-.89-.16v0" transform="translate(-528.06 -279.61)"/><path class="cls-68" d="M550.26,353.05l.89.16v0l-.89-.17h0" transform="translate(-528.06 -279.61)"/><path class="cls-69" d="M550.26,353.06l.89.17v0l-.89-.17v0" transform="translate(-528.06 -279.61)"/><path class="cls-70" d="M550.27,353.08l.89.17v0l-.89-.16v0" transform="translate(-528.06 -279.61)"/><path class="cls-71" d="M550.27,353.11l.89.16v0l-.89-.16v0" transform="translate(-528.06 -279.61)"/><path class="cls-72" d="M550.27,353.13l.89.16v0l-.89-.16v0" transform="translate(-528.06 -279.61)"/><path class="cls-73" d="M550.28,353.15l.89.16v0l-.89-.16v0" transform="translate(-528.06 -279.61)"/><path class="cls-74" d="M550.28,353.17l.89.16h0l-.89-.16h0" transform="translate(-528.06 -279.61)"/><path class="cls-75" d="M550.28,353.18l.89.16v0l-.89-.16v0" transform="translate(-528.06 -279.61)"/><path class="cls-76" d="M550.28,353.2l.89.16v0l-.89-.17h0" transform="translate(-528.06 -279.61)"/><path class="cls-77" d="M550.28,353.21l.89.17h0l-.89-.16v0" transform="translate(-528.06 -279.61)"/><path class="cls-78" d="M550.28,353.23l.89.16h0l-.89-.16h0" transform="translate(-528.06 -279.61)"/><path class="cls-79" d="M550.28,353.24l.89.16v0l-.89-.16v0" transform="translate(-528.06 -279.61)"/><path class="cls-80" d="M550.28,353.26l.89.16v0l-.89-.16v0" transform="translate(-528.06 -279.61)"/><path class="cls-81" d="M550.28,353.28l.89.16v.08h0l-.89-.17h0v-.07" transform="translate(-528.06 -279.61)"/></g></g></g><g class="cls-12"><g class="cls-82"><g class="cls-12"><path class="cls-81" d="M550.28,353.28l.89.16v.08h0l-.89-.17h0v-.07" transform="translate(-528.06 -279.61)"/><path class="cls-80" d="M550.28,353.35l.89.17h0l-.89-.16v0" transform="translate(-528.06 -279.61)"/><path class="cls-79" d="M550.27,353.37l.89.16v0l-.89-.17h0" transform="translate(-528.06 -279.61)"/><path class="cls-78" d="M550.27,353.38l.89.17h0l-.89-.16v0" transform="translate(-528.06 -279.61)"/><polyline class="cls-77" points="22.21 73.78 23.1 73.95 23.09 73.96 22.21 73.79 22.21 73.78"/><polyline class="cls-76" points="22.21 73.79 23.09 73.96 23.09 73.97 22.2 73.8 22.21 73.79"/><polyline class="cls-75" points="22.2 73.8 23.09 73.97 23.09 73.98 22.2 73.81 22.2 73.8"/><polyline class="cls-74" points="22.2 73.81 23.09 73.98 23.09 73.99 22.2 73.83 22.2 73.81"/><polyline class="cls-73" points="22.2 73.83 23.09 73.99 23.09 74 22.2 73.83 22.2 73.83"/><polyline class="cls-72" points="22.2 73.83 23.09 74 23.09 74.01 22.2 73.85 22.2 73.83"/><polyline class="cls-71" points="22.2 73.85 23.09 74.01 23.08 74.02 22.2 73.86 22.2 73.85"/><polyline class="cls-70" points="22.2 73.86 23.08 74.02 23.08 74.03 22.19 73.87 22.2 73.86"/><polyline class="cls-69" points="22.19 73.87 23.08 74.03 23.08 74.04 22.19 73.88 22.19 73.87"/><polyline class="cls-68" points="22.19 73.88 23.08 74.04 23.08 74.05 22.19 73.89 22.19 73.88"/><path class="cls-67" d="M550.25,353.5l.89.17h0l-.89-.16v0" transform="translate(-528.06 -279.61)"/><path class="cls-66" d="M550.25,353.52l.89.16h0l-.89-.16h0" transform="translate(-528.06 -279.61)"/><path class="cls-65" d="M550.24,353.53l.89.16h0l-.89-.16h0" transform="translate(-528.06 -279.61)"/><path class="cls-64" d="M550.24,353.54l.89.16v0l-.89-.16v0" transform="translate(-528.06 -279.61)"/><path class="cls-63" d="M550.24,353.56l.89.16v0l-.89-.17h0" transform="translate(-528.06 -279.61)"/><path class="cls-62" d="M550.23,353.57l.89.17h0l-.89-.16v0" transform="translate(-528.06 -279.61)"/><path class="cls-61" d="M550.23,353.59l.89.16v0l-.89-.16v0" transform="translate(-528.06 -279.61)"/><path class="cls-60" d="M550.22,353.61l.89.16v0l-.89-.17h0" transform="translate(-528.06 -279.61)"/><path class="cls-59" d="M550.21,353.62l.89.17h0l-.89-.16v0" transform="translate(-528.06 -279.61)"/><path class="cls-58" d="M550.21,353.64l.89.16v0l-.89-.16v0" transform="translate(-528.06 -279.61)"/><path class="cls-57" d="M550.2,353.66l.89.16v0l-.89-.17h0" transform="translate(-528.06 -279.61)"/><path class="cls-56" d="M550.19,353.67l.89.17h0l-.89-.16v0" transform="translate(-528.06 -279.61)"/><path class="cls-55" d="M550.19,353.69l.89.16v0l-.89-.16v0" transform="translate(-528.06 -279.61)"/><path class="cls-54" d="M550.18,353.71l.89.16v0l-.89-.17h0" transform="translate(-528.06 -279.61)"/><path class="cls-53" d="M550.17,353.72l.89.17h0l-.89-.16v0" transform="translate(-528.06 -279.61)"/><path class="cls-52" d="M550.16,353.74l.89.16v0l-.89-.16v0" transform="translate(-528.06 -279.61)"/><path class="cls-51" d="M550.15,353.76l.89.16v0l-.89-.16v0" transform="translate(-528.06 -279.61)"/><path class="cls-83" d="M550.14,353.78l.89.16,0,0-.89-.16,0,0" transform="translate(-528.06 -279.61)"/><path class="cls-84" d="M550.12,353.8l.89.16,0,0-.89-.16,0,0" transform="translate(-528.06 -279.61)"/><path class="cls-49" d="M550.1,353.82l.89.16a.17.17,0,0,1-.1.07h0l-.89-.16h0a.17.17,0,0,0,.1-.07" transform="translate(-528.06 -279.61)"/></g></g></g><path class="cls-85" d="M550.11,352.91c.12,0,.19.17.17.44s-.16.51-.28.54-.2-.17-.17-.44S550,352.93,550.11,352.91Z" transform="translate(-528.06 -279.61)"/><g class="cls-12"><g class="cls-86"><g class="cls-12"><polyline class="cls-17" points="22.26 72.31 23.15 72.47 23.15 72.47 22.26 72.31 22.26 72.31"/><path class="cls-18" d="M550.33,351.92l.89.16h0l-.89-.16h0" transform="translate(-528.06 -279.61)"/><path class="cls-19" d="M550.36,351.93l.89.16h0l-.89-.16h0" transform="translate(-528.06 -279.61)"/><path class="cls-20" d="M550.39,351.94l.89.16,0,0-.89-.17h0" transform="translate(-528.06 -279.61)"/><path class="cls-21" d="M550.41,352l.89.17h0l-.89-.16,0,0" transform="translate(-528.06 -279.61)"/><path class="cls-22" d="M550.44,352l.89.16,0,0-.89-.16,0,0" transform="translate(-528.06 -279.61)"/><path class="cls-23" d="M550.46,352l.89.16,0,0-.89-.16,0,0" transform="translate(-528.06 -279.61)"/><path class="cls-24" d="M550.48,352l.89.16,0,0-.88-.16,0,0" transform="translate(-528.06 -279.61)"/><path class="cls-25" d="M550.51,352l.88.16,0,0-.88-.17,0,0" transform="translate(-528.06 -279.61)"/><path class="cls-26" d="M550.53,352.05l.88.17,0,0-.89-.16v0" transform="translate(-528.06 -279.61)"/><path class="cls-27" d="M550.54,352.08l.89.16,0,0-.89-.16,0,0" transform="translate(-528.06 -279.61)"/><path class="cls-28" d="M550.56,352.11l.89.16,0,0-.89-.16,0,0" transform="translate(-528.06 -279.61)"/><path class="cls-29" d="M550.58,352.14l.89.16,0,0-.89-.16,0,0" transform="translate(-528.06 -279.61)"/><path class="cls-30" d="M550.6,352.17l.89.16,0,0-.89-.16,0,0" transform="translate(-528.06 -279.61)"/><path class="cls-31" d="M550.62,352.21l.89.16v0l-.89-.16v0" transform="translate(-528.06 -279.61)"/><path class="cls-32" d="M550.63,352.25l.89.16,0,0-.89-.17,0,0" transform="translate(-528.06 -279.61)"/><path class="cls-33" d="M550.65,352.29l.89.17v.05l-.89-.17v0" transform="translate(-528.06 -279.61)"/><path class="cls-34" d="M550.66,352.34l.89.17s0,0,0,.05l-.89-.16a.14.14,0,0,0,0-.06" transform="translate(-528.06 -279.61)"/><path class="cls-35" d="M550.68,352.4l.89.16s0,0,0,.06l-.89-.16a.13.13,0,0,0,0-.06" transform="translate(-528.06 -279.61)"/><path class="cls-36" d="M550.69,352.46l.89.16a.64.64,0,0,1,0,.07l-.89-.17,0-.06" transform="translate(-528.06 -279.61)"/><path class="cls-37" d="M550.71,352.52l.89.17a.13.13,0,0,0,0,.06l-.89-.16a.17.17,0,0,1,0-.07" transform="translate(-528.06 -279.61)"/><path class="cls-38" d="M550.72,352.59l.89.16v.06l-.89-.16v-.06" transform="translate(-528.06 -279.61)"/><path class="cls-39" d="M550.72,352.65l.89.16v.05l-.89-.16v-.05" transform="translate(-528.06 -279.61)"/><path class="cls-40" d="M550.73,352.7l.89.16v.05l-.89-.16v-.05" transform="translate(-528.06 -279.61)"/><path class="cls-41" d="M550.73,352.75l.89.16v0l-.89-.16v-.05" transform="translate(-528.06 -279.61)"/><path class="cls-42" d="M550.74,352.8l.89.16v0l-.89-.16v0" transform="translate(-528.06 -279.61)"/><path class="cls-43" d="M550.74,352.84l.89.16v.05l-.89-.17v0" transform="translate(-528.06 -279.61)"/><path class="cls-44" d="M550.74,352.88l.89.17v0l-.89-.16v-.05" transform="translate(-528.06 -279.61)"/><path class="cls-45" d="M550.74,352.93l.89.16v.05l-.89-.16v-.05" transform="translate(-528.06 -279.61)"/><path class="cls-46" d="M550.74,353l.89.16v.06l-.89-.16V353" transform="translate(-528.06 -279.61)"/><path class="cls-47" d="M550.74,353l.89.16c0,.07,0,.15,0,.22h0l-.89-.16h0c0-.08,0-.15,0-.22" transform="translate(-528.06 -279.61)"/><path class="cls-46" d="M550.72,353.26l.89.16v.05l-.89-.17v0" transform="translate(-528.06 -279.61)"/><path class="cls-45" d="M550.71,353.3l.89.17v0l-.89-.16v-.05" transform="translate(-528.06 -279.61)"/><path class="cls-44" d="M550.71,353.35l.89.16v0l-.89-.16v0" transform="translate(-528.06 -279.61)"/><path class="cls-43" d="M550.7,353.39l.89.16v0l-.89-.16v0" transform="translate(-528.06 -279.61)"/><path class="cls-42" d="M550.7,353.42l.89.16v0l-.89-.16v0" transform="translate(-528.06 -279.61)"/><path class="cls-41" d="M550.69,353.45l.89.16v0l-.89-.17v0" transform="translate(-528.06 -279.61)"/><path class="cls-40" d="M550.69,353.48l.89.17v0l-.89-.16v0" transform="translate(-528.06 -279.61)"/><path class="cls-39" d="M550.68,353.52l.89.16v0l-.89-.16v0" transform="translate(-528.06 -279.61)"/><path class="cls-38" d="M550.68,353.55l.89.16v0l-.89-.16v0" transform="translate(-528.06 -279.61)"/><path class="cls-37" d="M550.67,353.58l.89.16v0l-.89-.16v0" transform="translate(-528.06 -279.61)"/><path class="cls-36" d="M550.67,353.61l.89.16v0l-.89-.16v0" transform="translate(-528.06 -279.61)"/><path class="cls-35" d="M550.66,353.64l.89.16v0l-.89-.16v0" transform="translate(-528.06 -279.61)"/><path class="cls-34" d="M550.65,353.68l.89.16v0l-.89-.16v0" transform="translate(-528.06 -279.61)"/><path class="cls-33" d="M550.64,353.71l.89.16v0l-.89-.16v0" transform="translate(-528.06 -279.61)"/><path class="cls-32" d="M550.63,353.75l.89.16v0l-.89-.16v0" transform="translate(-528.06 -279.61)"/><path class="cls-31" d="M550.62,353.79l.89.16v0l-.89-.16v0" transform="translate(-528.06 -279.61)"/><path class="cls-30" d="M550.61,353.83l.89.16V354l-.89-.16v-.05" transform="translate(-528.06 -279.61)"/><path class="cls-29" d="M550.6,353.88l.89.16,0,0-.89-.16,0-.05" transform="translate(-528.06 -279.61)"/><path class="cls-28" d="M550.58,353.93l.89.16v.05l-.89-.16v-.05" transform="translate(-528.06 -279.61)"/><path class="cls-27" d="M550.57,354l.89.16,0,.05-.89-.16,0,0" transform="translate(-528.06 -279.61)"/><path class="cls-26" d="M550.55,354l.89.16,0,.05-.89-.16,0-.05" transform="translate(-528.06 -279.61)"/><path class="cls-25" d="M550.53,354.08l.89.16,0,.05-.89-.16,0-.05" transform="translate(-528.06 -279.61)"/><path class="cls-24" d="M550.51,354.13l.89.16,0,0-.89-.16,0-.05" transform="translate(-528.06 -279.61)"/><path class="cls-23" d="M550.49,354.18l.89.16,0,.06-.89-.17,0-.05" transform="translate(-528.06 -279.61)"/><path class="cls-22" d="M550.47,354.23l.89.17,0,.05-.89-.16,0-.06" transform="translate(-528.06 -279.61)"/><path class="cls-21" d="M550.44,354.29l.89.16,0,.05-.89-.16,0,0" transform="translate(-528.06 -279.61)"/><path class="cls-20" d="M550.42,354.34l.89.16,0,.05-.89-.16,0-.05" transform="translate(-528.06 -279.61)"/><path class="cls-19" d="M550.39,354.39l.89.16,0,.05-.89-.16,0-.05" transform="translate(-528.06 -279.61)"/><path class="cls-18" d="M550.36,354.44l.89.16,0,.06-.89-.16,0-.06" transform="translate(-528.06 -279.61)"/><path class="cls-17" d="M550.33,354.5l.89.16a.21.21,0,0,1,0,.06l-.89-.17,0-.05" transform="translate(-528.06 -279.61)"/><path class="cls-16" d="M550.29,354.55l.89.17,0,.06-.89-.17,0-.06" transform="translate(-528.06 -279.61)"/><path class="cls-15" d="M550.25,354.61l.89.17-.06.06-.89-.16.06-.07" transform="translate(-528.06 -279.61)"/><path class="cls-14" d="M550.19,354.68l.89.16a.53.53,0,0,1-.29.2h-.11l-.89-.16h.11a.53.53,0,0,0,.29-.2" transform="translate(-528.06 -279.61)"/></g></g></g><path class="cls-87" d="M550.21,351.92c.37-.07.6.53.51,1.34s-.45,1.54-.82,1.62-.6-.52-.51-1.34S549.84,352,550.21,351.92Zm-.21,2c.12,0,.25-.26.28-.54s0-.47-.17-.44-.25.26-.28.54,0,.46.17.44" transform="translate(-528.06 -279.61)"/></g><g class="cls-12"><g class="cls-12"><g class="cls-88"><g class="cls-12"><path class="cls-14" d="M547.11,357.91l.89.16a.17.17,0,0,0-.1.07L547,358a.21.21,0,0,1,.1-.06" transform="translate(-528.06 -279.61)"/><path class="cls-15" d="M547,358l.89.17,0,0L547,358l0,0" transform="translate(-528.06 -279.61)"/><path class="cls-16" d="M547,358l.89.16,0,0L547,358v0" transform="translate(-528.06 -279.61)"/><path class="cls-17" d="M547,358l.88.16v0L547,358l0,0" transform="translate(-528.06 -279.61)"/><path class="cls-18" d="M547,358l.89.16v0l-.89-.17h0" transform="translate(-528.06 -279.61)"/><path class="cls-19" d="M547,358.05l.89.17h0l-.89-.16v0" transform="translate(-528.06 -279.61)"/><path class="cls-20" d="M546.94,358.07l.89.16v0l-.89-.16v0" transform="translate(-528.06 -279.61)"/><path class="cls-21" d="M546.93,358.09l.89.16v0l-.89-.17h0" transform="translate(-528.06 -279.61)"/><path class="cls-22" d="M546.93,358.1l.89.17h0l-.89-.16v0" transform="translate(-528.06 -279.61)"/><path class="cls-23" d="M546.92,358.12l.89.16v0l-.89-.16v0" transform="translate(-528.06 -279.61)"/><path class="cls-24" d="M546.91,358.14l.89.16v0l-.89-.17h0" transform="translate(-528.06 -279.61)"/><path class="cls-25" d="M546.9,358.15l.89.17h0l-.89-.16v0" transform="translate(-528.06 -279.61)"/><path class="cls-26" d="M546.9,358.17l.89.16v0l-.89-.16v0" transform="translate(-528.06 -279.61)"/><path class="cls-27" d="M546.89,358.19l.89.16v0l-.89-.16v0" transform="translate(-528.06 -279.61)"/><path class="cls-28" d="M546.89,358.21l.89.16h0l-.89-.16h0" transform="translate(-528.06 -279.61)"/><path class="cls-29" d="M546.88,358.22l.89.16v0l-.89-.16v0" transform="translate(-528.06 -279.61)"/><path class="cls-30" d="M546.88,358.24l.89.16v0l-.89-.17h0" transform="translate(-528.06 -279.61)"/><path class="cls-31" d="M546.87,358.25l.89.17h0l-.89-.16v0" transform="translate(-528.06 -279.61)"/><polyline class="cls-32" points="18.8 78.66 19.69 78.82 19.69 78.83 19.69 78.83 18.8 78.67 18.8 78.67 18.8 78.66"/><path class="cls-33" d="M546.86,358.29l.89.16h0l-.89-.16h0" transform="translate(-528.06 -279.61)"/><polyline class="cls-34" points="18.8 78.69 19.69 78.85 19.68 78.86 18.79 78.7 18.8 78.69"/><polyline class="cls-35" points="18.79 78.7 19.68 78.86 19.68 78.87 18.79 78.71 18.79 78.7"/><polyline class="cls-36" points="18.79 78.71 19.68 78.87 19.68 78.88 18.79 78.72 18.79 78.71"/><polyline class="cls-37" points="18.79 78.72 19.68 78.88 19.68 78.89 18.79 78.73 18.79 78.72"/><polyline class="cls-38" points="18.79 78.73 19.68 78.89 19.67 78.9 18.79 78.74 18.79 78.73"/><polyline class="cls-39" points="18.79 78.74 19.67 78.9 19.67 78.91 18.78 78.75 18.79 78.74"/><polyline class="cls-40" points="18.78 78.75 19.67 78.91 19.67 78.92 18.78 78.76 18.78 78.75"/><polyline class="cls-41" points="18.78 78.76 19.67 78.92 19.67 78.93 18.78 78.77 18.78 78.76"/><polyline class="cls-42" points="18.78 78.77 19.67 78.93 19.67 78.94 18.78 78.78 18.78 78.77"/><polyline class="cls-43" points="18.78 78.78 19.67 78.94 19.67 78.95 18.78 78.79 18.78 78.78"/><polyline class="cls-44" points="18.78 78.79 19.67 78.95 19.66 78.96 18.77 78.8 18.78 78.79"/><path class="cls-45" d="M546.84,358.42l.89.16h0l-.89-.16h0" transform="translate(-528.06 -279.61)"/><path class="cls-46" d="M546.84,358.43l.89.16v0l-.89-.16v0" transform="translate(-528.06 -279.61)"/><path class="cls-47" d="M546.83,358.45l.89.16v.08l-.89-.16v-.08" transform="translate(-528.06 -279.61)"/><path class="cls-46" d="M546.83,358.53l.89.16v0l-.89-.16v0" transform="translate(-528.06 -279.61)"/><path class="cls-45" d="M546.83,358.55l.89.16v0l-.89-.17h0" transform="translate(-528.06 -279.61)"/><path class="cls-44" d="M546.83,358.56l.89.17h0l-.89-.16v0" transform="translate(-528.06 -279.61)"/><path class="cls-43" d="M546.83,358.58l.89.16v0l-.89-.16v0" transform="translate(-528.06 -279.61)"/><path class="cls-42" d="M546.83,358.6l.89.16v0l-.89-.17h0" transform="translate(-528.06 -279.61)"/><path class="cls-41" d="M546.83,358.61l.89.17h0l-.89-.16v0" transform="translate(-528.06 -279.61)"/><path class="cls-40" d="M546.83,358.63l.89.16v0l-.89-.16v0" transform="translate(-528.06 -279.61)"/><polyline class="cls-39" points="18.77 79.04 19.66 79.2 19.66 79.21 18.77 79.05 18.77 79.04"/></g></g></g><g class="cls-12"><g class="cls-89"><g class="cls-12"><polyline class="cls-39" points="18.77 79.05 19.66 79.21 19.66 79.21 18.77 79.05 18.77 79.05"/><path class="cls-38" d="M546.83,358.66l.89.16v0l-.89-.16v0" transform="translate(-528.06 -279.61)"/><path class="cls-37" d="M546.83,358.68l.89.16v0l-.89-.17h0" transform="translate(-528.06 -279.61)"/><path class="cls-36" d="M546.84,358.69l.89.17v0l-.89-.17v0" transform="translate(-528.06 -279.61)"/><path class="cls-35" d="M546.84,358.71l.89.17h0l-.89-.16v0" transform="translate(-528.06 -279.61)"/><path class="cls-34" d="M546.84,358.73l.89.16v0l-.89-.16v0" transform="translate(-528.06 -279.61)"/><path class="cls-33" d="M546.85,358.75l.89.16v0l-.89-.17h0" transform="translate(-528.06 -279.61)"/><path class="cls-32" d="M546.85,358.76l.89.17h0l-.89-.16v0" transform="translate(-528.06 -279.61)"/><path class="cls-31" d="M546.86,358.78l.89.16h0l-.88-.16h0" transform="translate(-528.06 -279.61)"/><path class="cls-30" d="M546.87,358.79l.88.16v0l-.89-.17h0" transform="translate(-528.06 -279.61)"/><path class="cls-29" d="M546.87,358.8l.89.17h0l-.89-.17h0" transform="translate(-528.06 -279.61)"/><polyline class="cls-28" points="18.81 79.2 19.7 79.36 19.71 79.37 18.82 79.21 18.81 79.2"/><polyline class="cls-27" points="18.82 79.21 19.71 79.37 19.72 79.38 18.83 79.22 18.82 79.21"/><polyline class="cls-26" points="18.83 79.22 19.72 79.38 19.72 79.39 18.83 79.23 18.83 79.22"/><polyline class="cls-25" points="18.83 79.23 19.72 79.39 19.73 79.4 18.84 79.24 18.83 79.23"/><polyline class="cls-24" points="18.84 79.24 19.73 79.4 19.74 79.41 18.85 79.25 18.84 79.24"/><polyline class="cls-23" points="18.85 79.25 19.74 79.41 19.75 79.42 18.86 79.25 18.85 79.25"/><polyline class="cls-22" points="18.86 79.25 19.75 79.42 19.76 79.42 18.87 79.26 18.86 79.25"/><polyline class="cls-21" points="18.87 79.26 19.76 79.42 19.76 79.43 18.87 79.27 18.87 79.26"/></g></g></g><g class="cls-12"><g class="cls-90"><g class="cls-12"><polyline class="cls-21" points="18.87 79.27 19.76 79.43 19.76 79.43 18.88 79.27 18.87 79.27"/><polyline class="cls-20" points="18.88 79.27 19.76 79.43 19.77 79.43 18.88 79.27 18.88 79.27"/><polyline class="cls-19" points="18.88 79.27 19.77 79.43 19.78 79.44 18.89 79.28 18.88 79.27"/><polyline class="cls-18" points="18.89 79.28 19.78 79.44 19.79 79.44 18.9 79.28 18.89 79.28"/><polyline class="cls-17" points="18.9 79.28 19.79 79.44 19.79 79.44 18.9 79.28 18.9 79.28"/></g></g></g><polygon class="cls-91" points="19.11 78.31 20 78.47 19.93 78.46 19.04 78.3 19.11 78.31"/><g class="cls-12"><g class="cls-90"><g class="cls-12"><path class="cls-49" d="M547,358.89l.89.16h0l-.89-.16h0" transform="translate(-528.06 -279.61)"/></g></g></g><g class="cls-12"><g class="cls-92"><g class="cls-12"><polyline class="cls-17" points="19.26 77.31 20.15 77.47 20.16 77.47 19.27 77.31 19.26 77.31"/><path class="cls-18" d="M547.33,356.93l.89.16h0l-.89-.17h0" transform="translate(-528.06 -279.61)"/><path class="cls-19" d="M547.36,356.93l.89.17h0l-.89-.16,0,0" transform="translate(-528.06 -279.61)"/><path class="cls-20" d="M547.39,357l.89.16h0l-.89-.16h0" transform="translate(-528.06 -279.61)"/></g></g></g><g class="cls-12"><g class="cls-93"><g class="cls-12"><path class="cls-14" d="M546.9,359.87l.89.16h-.12l-.89-.17h.12" transform="translate(-528.06 -279.61)"/></g></g></g><g class="cls-12"><g class="cls-94"><g class="cls-12"><polyline class="cls-55" points="19.11 78.31 20 78.47 20.01 78.47 19.12 78.31 19.11 78.31"/><polyline class="cls-56" points="19.12 78.31 20.01 78.47 20.02 78.48 19.13 78.32 19.12 78.31"/><polyline class="cls-57" points="19.13 78.32 20.02 78.48 20.02 78.49 19.14 78.32 19.13 78.32"/><polyline class="cls-58" points="19.14 78.32 20.02 78.49 20.03 78.49 19.14 78.33 19.14 78.32"/><polyline class="cls-59" points="19.14 78.33 20.03 78.49 20.04 78.5 19.15 78.34 19.14 78.33"/><polyline class="cls-60" points="19.15 78.34 20.04 78.5 20.05 78.51 19.16 78.35 19.15 78.34"/><polyline class="cls-61" points="19.16 78.35 20.05 78.51 20.05 78.52 19.16 78.36 19.16 78.35"/><polyline class="cls-62" points="19.16 78.36 20.05 78.52 20.06 78.53 19.17 78.37 19.16 78.36"/><path class="cls-63" d="M547.23,358l.89.17h0l-.89-.16v0" transform="translate(-528.06 -279.61)"/><path class="cls-64" d="M547.24,358l.89.16h0l-.88-.16h0" transform="translate(-528.06 -279.61)"/><path class="cls-65" d="M547.25,358l.88.16h0l-.89-.16h0" transform="translate(-528.06 -279.61)"/><path class="cls-66" d="M547.25,358l.89.16v0l-.89-.16v0" transform="translate(-528.06 -279.61)"/><path class="cls-67" d="M547.26,358l.89.16h0l-.89-.16h0" transform="translate(-528.06 -279.61)"/><path class="cls-68" d="M547.26,358.05l.89.16v0l-.89-.16v0" transform="translate(-528.06 -279.61)"/><path class="cls-69" d="M547.27,358.07l.89.16v0l-.89-.16v0" transform="translate(-528.06 -279.61)"/><path class="cls-70" d="M547.27,358.09l.89.16v0l-.89-.17h0" transform="translate(-528.06 -279.61)"/><path class="cls-71" d="M547.27,358.1l.89.17v0l-.89-.17v0" transform="translate(-528.06 -279.61)"/><path class="cls-72" d="M547.28,358.12l.89.17h0l-.89-.16v0" transform="translate(-528.06 -279.61)"/><polyline class="cls-73" points="19.21 78.53 20.11 78.69 20.11 78.69 19.21 78.53 19.21 78.53"/></g></g></g><path class="cls-85" d="M547.11,357.91h.07a.29.29,0,0,1,.1.22,1.25,1.25,0,0,1,0,.38c-.06.21-.16.35-.25.37s0,0-.07,0a.29.29,0,0,1-.1-.22,1.25,1.25,0,0,1,0-.38C546.92,358.07,547,357.93,547.11,357.91Z" transform="translate(-528.06 -279.61)"/><g class="cls-12"><g class="cls-95"><g class="cls-12"><polyline class="cls-73" points="19.21 78.53 20.11 78.69 20.11 78.7 19.22 78.53 19.21 78.53"/><path class="cls-74" d="M547.28,358.15l.89.16v0l-.89-.16v0" transform="translate(-528.06 -279.61)"/><path class="cls-75" d="M547.28,358.17l.89.16v0l-.89-.16v0" transform="translate(-528.06 -279.61)"/><path class="cls-76" d="M547.28,358.19l.89.16h0l-.89-.16h0" transform="translate(-528.06 -279.61)"/><path class="cls-77" d="M547.28,358.2l.89.16v0l-.89-.16v0" transform="translate(-528.06 -279.61)"/><path class="cls-78" d="M547.28,358.22l.89.16v0l-.89-.16v0" transform="translate(-528.06 -279.61)"/><path class="cls-79" d="M547.28,358.24l.89.16v0l-.89-.17h0" transform="translate(-528.06 -279.61)"/><path class="cls-80" d="M547.28,358.25l.89.17v0l-.89-.17v0" transform="translate(-528.06 -279.61)"/><path class="cls-81" d="M547.28,358.27l.89.17v.07l-.89-.16v-.08" transform="translate(-528.06 -279.61)"/><path class="cls-80" d="M547.28,358.35l.89.16v0l-.89-.16v0" transform="translate(-528.06 -279.61)"/><path class="cls-79" d="M547.27,358.37l.89.16v0l-.89-.17h0" transform="translate(-528.06 -279.61)"/><polyline class="cls-78" points="19.21 78.77 20.1 78.93 20.1 78.94 19.21 78.78 19.21 78.77"/><polyline class="cls-77" points="19.21 78.78 20.1 78.94 20.1 78.95 19.21 78.79 19.21 78.78"/><polyline class="cls-76" points="19.21 78.79 20.1 78.95 20.09 78.96 19.2 78.8 19.21 78.79"/><polyline class="cls-75" points="19.2 78.8 20.09 78.96 20.09 78.97 19.2 78.81 19.2 78.8"/><polyline class="cls-74" points="19.2 78.81 20.09 78.97 20.09 78.98 19.2 78.82 19.2 78.81"/><polyline class="cls-73" points="19.2 78.82 20.09 78.98 20.09 78.99 19.2 78.83 19.2 78.82"/><polyline class="cls-72" points="19.2 78.83 20.09 78.99 20.09 79 19.2 78.84 19.2 78.83"/><polyline class="cls-71" points="19.2 78.84 20.09 79 20.09 79.01 19.2 78.85 19.2 78.84"/><polyline class="cls-70" points="19.2 78.85 20.09 79.01 20.08 79.03 19.19 78.86 19.2 78.85"/><polyline class="cls-69" points="19.19 78.86 20.08 79.03 20.08 79.04 19.19 78.87 19.19 78.86"/><polyline class="cls-68" points="19.19 78.87 20.08 79.04 20.08 79.05 19.19 78.89 19.19 78.87"/><path class="cls-67" d="M547.25,358.5l.89.16v0l-.89-.16v0" transform="translate(-528.06 -279.61)"/><path class="cls-66" d="M547.25,358.52l.89.16h0l-.89-.16h0" transform="translate(-528.06 -279.61)"/><path class="cls-65" d="M547.24,358.53l.89.16v0l-.89-.16v0" transform="translate(-528.06 -279.61)"/><path class="cls-64" d="M547.24,358.55l.89.16h0l-.89-.16h0" transform="translate(-528.06 -279.61)"/><path class="cls-63" d="M547.23,358.56l.89.16v0l-.89-.16v0" transform="translate(-528.06 -279.61)"/><path class="cls-62" d="M547.23,358.58l.89.16v0l-.89-.17h0" transform="translate(-528.06 -279.61)"/><path class="cls-61" d="M547.22,358.59l.89.17h0l-.89-.16v0" transform="translate(-528.06 -279.61)"/><path class="cls-60" d="M547.22,358.61l.89.16v0l-.89-.16v0" transform="translate(-528.06 -279.61)"/><path class="cls-59" d="M547.21,358.63l.89.16v0l-.89-.17h0" transform="translate(-528.06 -279.61)"/><path class="cls-58" d="M547.21,358.64l.89.17h0l-.89-.16v0" transform="translate(-528.06 -279.61)"/><path class="cls-57" d="M547.2,358.66l.89.16v0l-.89-.16v0" transform="translate(-528.06 -279.61)"/><path class="cls-56" d="M547.19,358.68l.89.16v0l-.89-.17h0" transform="translate(-528.06 -279.61)"/><path class="cls-55" d="M547.18,358.69l.89.17h0l-.89-.16v0" transform="translate(-528.06 -279.61)"/><path class="cls-54" d="M547.18,358.71l.89.16v0l-.89-.16v0" transform="translate(-528.06 -279.61)"/><path class="cls-53" d="M547.17,358.73l.89.16v0l-.89-.16v0" transform="translate(-528.06 -279.61)"/><path class="cls-52" d="M547.16,358.75l.89.16v0l-.89-.17h0" transform="translate(-528.06 -279.61)"/><path class="cls-51" d="M547.15,358.76l.89.17h0l-.89-.16,0,0" transform="translate(-528.06 -279.61)"/><path class="cls-83" d="M547.13,358.78l.89.16v0l-.89-.16v0" transform="translate(-528.06 -279.61)"/><path class="cls-84" d="M547.12,358.8l.89.16,0,0-.89-.16,0,0" transform="translate(-528.06 -279.61)"/><path class="cls-49" d="M547.1,358.83l.89.16a.18.18,0,0,1-.1.06l-.89-.16a.21.21,0,0,0,.1-.06" transform="translate(-528.06 -279.61)"/></g></g></g><g class="cls-12"><g class="cls-96"><g class="cls-12"><polyline class="cls-15" points="19.14 80.05 20.03 80.22 20.03 80.22 19.14 80.06 19.14 80.05"/><path class="cls-14" d="M547.2,359.67l.89.17a.56.56,0,0,1-.3.19l-.89-.16a.53.53,0,0,0,.3-.2" transform="translate(-528.06 -279.61)"/></g></g></g><g class="cls-12"><g class="cls-97"><g class="cls-12"><path class="cls-21" d="M547.42,357l.89.16h0l-.89-.16h0" transform="translate(-528.06 -279.61)"/><path class="cls-22" d="M547.44,357l.89.16,0,0-.89-.16,0,0" transform="translate(-528.06 -279.61)"/><path class="cls-23" d="M547.46,357l.89.16,0,0-.89-.16,0,0" transform="translate(-528.06 -279.61)"/><path class="cls-24" d="M547.48,357l.89.16,0,0-.89-.16,0,0" transform="translate(-528.06 -279.61)"/><path class="cls-25" d="M547.51,357l.89.16,0,0-.89-.16,0,0" transform="translate(-528.06 -279.61)"/><path class="cls-26" d="M547.53,357.06l.89.16,0,0-.89-.17,0,0" transform="translate(-528.06 -279.61)"/><path class="cls-27" d="M547.55,357.08l.89.17,0,0-.89-.16,0,0" transform="translate(-528.06 -279.61)"/><path class="cls-28" d="M547.57,357.11l.89.16v0l-.88-.17,0,0" transform="translate(-528.06 -279.61)"/><path class="cls-29" d="M547.59,357.14l.88.17,0,0-.89-.16v0" transform="translate(-528.06 -279.61)"/><path class="cls-30" d="M547.6,357.18l.89.16,0,0-.89-.17,0,0" transform="translate(-528.06 -279.61)"/><path class="cls-31" d="M547.62,357.21l.89.17,0,0-.89-.16,0,0" transform="translate(-528.06 -279.61)"/><path class="cls-32" d="M547.64,357.25l.89.16v0l-.89-.16v-.05" transform="translate(-528.06 -279.61)"/><path class="cls-33" d="M547.65,357.3l.89.16,0,.05-.89-.17,0,0" transform="translate(-528.06 -279.61)"/><path class="cls-34" d="M547.67,357.34l.89.17a.43.43,0,0,1,0,.05l-.89-.16s0,0,0-.06" transform="translate(-528.06 -279.61)"/><path class="cls-35" d="M547.68,357.4l.89.16a.13.13,0,0,1,0,.06l-.88-.16s0,0,0-.06" transform="translate(-528.06 -279.61)"/><path class="cls-36" d="M547.7,357.46l.88.16s0,0,0,.06l-.89-.16a.13.13,0,0,1,0-.06" transform="translate(-528.06 -279.61)"/><path class="cls-37" d="M547.71,357.52l.89.16a.2.2,0,0,0,0,.07l-.89-.17a.13.13,0,0,1,0-.06" transform="translate(-528.06 -279.61)"/><path class="cls-38" d="M547.72,357.58l.89.17v0l-.89-.16v-.05" transform="translate(-528.06 -279.61)"/></g></g></g><g class="cls-12"><g class="cls-98"><g class="cls-12"><polyline class="cls-33" points="19.57 79.13 20.46 79.3 20.46 79.31 19.57 79.14 19.57 79.13"/><path class="cls-32" d="M547.63,358.76l.89.16v0l-.89-.16v0" transform="translate(-528.06 -279.61)"/><path class="cls-31" d="M547.62,358.8l.89.16v0l-.89-.16v0" transform="translate(-528.06 -279.61)"/><path class="cls-30" d="M547.61,358.84l.89.16,0,.05-.89-.16,0-.05" transform="translate(-528.06 -279.61)"/><path class="cls-29" d="M547.59,358.89l.89.16v.05l-.89-.17v0" transform="translate(-528.06 -279.61)"/><path class="cls-28" d="M547.58,358.93l.89.17,0,0-.89-.17,0-.05" transform="translate(-528.06 -279.61)"/><path class="cls-27" d="M547.56,359l.89.17v.05l-.89-.17v0" transform="translate(-528.06 -279.61)"/><path class="cls-26" d="M547.55,359l.89.17,0,.05-.89-.17,0-.05" transform="translate(-528.06 -279.61)"/><path class="cls-25" d="M547.53,359.08l.89.17,0,.05-.89-.17,0-.05" transform="translate(-528.06 -279.61)"/><path class="cls-24" d="M547.51,359.13l.89.17,0,.05-.89-.16,0-.06" transform="translate(-528.06 -279.61)"/><path class="cls-23" d="M547.49,359.19l.89.16,0,0-.89-.16,0-.05" transform="translate(-528.06 -279.61)"/><path class="cls-22" d="M547.47,359.24l.89.16,0,.05-.89-.16,0-.05" transform="translate(-528.06 -279.61)"/><path class="cls-21" d="M547.44,359.29l.89.16,0,.05-.89-.16,0,0" transform="translate(-528.06 -279.61)"/><path class="cls-20" d="M547.42,359.34l.89.16,0,.05-.89-.16,0-.05" transform="translate(-528.06 -279.61)"/><path class="cls-19" d="M547.39,359.39l.89.16,0,.05-.89-.16,0-.05" transform="translate(-528.06 -279.61)"/><path class="cls-18" d="M547.36,359.44l.89.16,0,.06-.89-.16,0-.06" transform="translate(-528.06 -279.61)"/><path class="cls-17" d="M547.33,359.5l.89.16a.21.21,0,0,1,0,.06l-.89-.17,0-.05" transform="translate(-528.06 -279.61)"/><path class="cls-16" d="M547.29,359.55l.89.17,0,.06-.89-.16a.43.43,0,0,0,0-.07" transform="translate(-528.06 -279.61)"/><path class="cls-15" d="M547.25,359.62l.89.16,0,.05-.89-.16a.1.1,0,0,1,0-.05" transform="translate(-528.06 -279.61)"/></g></g></g><path class="cls-87" d="M547.72,357.63a3.13,3.13,0,0,1-.09,1.12,2.25,2.25,0,0,1-.42.92.65.65,0,0,1-.31.2.26.26,0,0,1-.21,0,.88.88,0,0,1-.3-.67,3.13,3.13,0,0,1,.09-1.12,2.14,2.14,0,0,1,.42-.91.61.61,0,0,1,.31-.21.25.25,0,0,1,.21,0A.88.88,0,0,1,547.72,357.63Zm-.47.89a1.25,1.25,0,0,0,0-.38.29.29,0,0,0-.1-.22h-.07c-.1,0-.19.16-.25.37a1.25,1.25,0,0,0,0,.38.29.29,0,0,0,.1.22s.05,0,.07,0,.19-.16.25-.37" transform="translate(-528.06 -279.61)"/><g class="cls-12"><g class="cls-99"><g class="cls-12"><path class="cls-38" d="M547.72,357.63l.89.16v0l-.89-.17h0" transform="translate(-528.06 -279.61)"/><path class="cls-39" d="M547.72,357.64l.89.17v.05l-.89-.16v-.06" transform="translate(-528.06 -279.61)"/><path class="cls-40" d="M547.73,357.7l.89.16v.05l-.89-.16v-.05" transform="translate(-528.06 -279.61)"/><path class="cls-41" d="M547.73,357.75l.89.16v0l-.89-.16v-.05" transform="translate(-528.06 -279.61)"/><path class="cls-42" d="M547.74,357.8l.89.16V358l-.89-.17v0" transform="translate(-528.06 -279.61)"/><path class="cls-43" d="M547.74,357.84l.89.17v0l-.89-.16v-.05" transform="translate(-528.06 -279.61)"/><path class="cls-44" d="M547.74,357.89l.89.16v0l-.89-.16v0" transform="translate(-528.06 -279.61)"/><path class="cls-45" d="M547.74,357.93l.89.16v.05l-.89-.16v-.05" transform="translate(-528.06 -279.61)"/><path class="cls-46" d="M547.74,358l.89.16v.06l-.89-.16V358" transform="translate(-528.06 -279.61)"/><path class="cls-47" d="M547.74,358l.89.16c0,.07,0,.14,0,.21l-.89-.16c0-.07,0-.14,0-.21" transform="translate(-528.06 -279.61)"/><path class="cls-46" d="M547.72,358.25l.89.16v.06l-.89-.17v-.05" transform="translate(-528.06 -279.61)"/><path class="cls-45" d="M547.72,358.3l.89.17v0l-.89-.16v-.05" transform="translate(-528.06 -279.61)"/><path class="cls-44" d="M547.71,358.35l.89.16v0l-.89-.16v0" transform="translate(-528.06 -279.61)"/><path class="cls-43" d="M547.71,358.38l.89.16v0l-.89-.16v0" transform="translate(-528.06 -279.61)"/><path class="cls-42" d="M547.7,358.41l.89.16v0l-.89-.16v0" transform="translate(-528.06 -279.61)"/><path class="cls-41" d="M547.7,358.44l.89.16v0l-.89-.16v0" transform="translate(-528.06 -279.61)"/><path class="cls-40" d="M547.69,358.47l.89.16v0l-.89-.16v0" transform="translate(-528.06 -279.61)"/><path class="cls-39" d="M547.69,358.5l.89.16v0l-.89-.16v0" transform="translate(-528.06 -279.61)"/><path class="cls-38" d="M547.68,358.53l.89.16v0l-.89-.16v0" transform="translate(-528.06 -279.61)"/><path class="cls-37" d="M547.68,358.56l.89.16v0l-.89-.16v0" transform="translate(-528.06 -279.61)"/><path class="cls-36" d="M547.67,358.59l.89.16v0l-.89-.16v0" transform="translate(-528.06 -279.61)"/><path class="cls-35" d="M547.66,358.62l.89.16v0l-.88-.16v0" transform="translate(-528.06 -279.61)"/><path class="cls-34" d="M547.66,358.66l.88.16v0l-.89-.16v0" transform="translate(-528.06 -279.61)"/><path class="cls-33" d="M547.65,358.69l.89.16v0l-.89-.16v0" transform="translate(-528.06 -279.61)"/><path class="cls-32" d="M547.64,358.73l.89.16v0l-.89-.16v0" transform="translate(-528.06 -279.61)"/></g></g></g></g><g class="cls-12"><g class="cls-12"><g class="cls-100"><g class="cls-12"><path class="cls-14" d="M552.15,347.91l.89.16h0a.21.21,0,0,0-.1.06L552,348a.27.27,0,0,1,.1-.06h0" transform="translate(-528.06 -279.61)"/><path class="cls-15" d="M552,348l.89.16,0,0L552,348l0,0" transform="translate(-528.06 -279.61)"/><path class="cls-16" d="M552,348l.89.17v0L552,348v0" transform="translate(-528.06 -279.61)"/><path class="cls-17" d="M552,348l.89.16v0L552,348h0" transform="translate(-528.06 -279.61)"/><path class="cls-18" d="M552,348l.89.17h0l-.89-.16v0" transform="translate(-528.06 -279.61)"/><path class="cls-19" d="M552,348.05l.89.16v0l-.89-.16v0" transform="translate(-528.06 -279.61)"/><path class="cls-20" d="M552,348.07l.89.16v0l-.89-.16v0" transform="translate(-528.06 -279.61)"/><path class="cls-21" d="M551.94,348.09l.89.16v0l-.89-.17h0" transform="translate(-528.06 -279.61)"/><path class="cls-22" d="M551.93,348.1l.89.17h0l-.89-.16v0" transform="translate(-528.06 -279.61)"/><path class="cls-23" d="M551.92,348.12l.89.16v0l-.89-.16v0" transform="translate(-528.06 -279.61)"/><path class="cls-24" d="M551.91,348.14l.89.16v0l-.89-.16v0" transform="translate(-528.06 -279.61)"/><path class="cls-25" d="M551.91,348.16l.89.16v0l-.89-.17h0" transform="translate(-528.06 -279.61)"/><path class="cls-26" d="M551.9,348.17l.89.17h0l-.89-.16v0" transform="translate(-528.06 -279.61)"/><path class="cls-27" d="M551.89,348.19l.89.16v0l-.89-.16v0" transform="translate(-528.06 -279.61)"/><path class="cls-28" d="M551.89,348.21l.89.16v0l-.89-.16v0" transform="translate(-528.06 -279.61)"/><path class="cls-29" d="M551.88,348.23l.89.16h0l-.89-.16h0" transform="translate(-528.06 -279.61)"/><path class="cls-30" d="M551.88,348.24l.89.16v0l-.89-.16v0" transform="translate(-528.06 -279.61)"/><path class="cls-31" d="M551.87,348.26l.89.16h0l-.89-.16h0" transform="translate(-528.06 -279.61)"/><path class="cls-32" d="M551.87,348.27l.89.16v0l-.89-.16v0" transform="translate(-528.06 -279.61)"/><path class="cls-33" d="M551.86,348.29l.89.16h0l-.89-.16h0" transform="translate(-528.06 -279.61)"/><path class="cls-34" d="M551.86,348.3l.89.16h0l-.89-.16h0" transform="translate(-528.06 -279.61)"/><path class="cls-35" d="M551.86,348.31l.89.16h0l-.89-.16h0" transform="translate(-528.06 -279.61)"/><polyline class="cls-36" points="23.79 68.71 24.68 68.87 24.68 68.88 23.79 68.72 23.79 68.71"/><polyline class="cls-37" points="23.79 68.72 24.68 68.88 24.68 68.89 23.79 68.73 23.79 68.72"/><polyline class="cls-38" points="23.79 68.73 24.68 68.89 24.68 68.9 23.79 68.74 23.79 68.73"/><polyline class="cls-39" points="23.79 68.74 24.68 68.9 24.67 68.91 23.78 68.75 23.79 68.74"/><polyline class="cls-40" points="23.78 68.75 24.67 68.91 24.67 68.92 23.78 68.76 23.78 68.75"/><polyline class="cls-41" points="23.78 68.76 24.67 68.92 24.67 68.93 23.78 68.77 23.78 68.76"/><polyline class="cls-42" points="23.78 68.77 24.67 68.93 24.67 68.94 23.78 68.78 23.78 68.77"/><polyline class="cls-43" points="23.78 68.78 24.67 68.94 24.67 68.95 23.78 68.79 23.78 68.78"/><path class="cls-44" d="M551.84,348.41l.89.16h0l-.89-.16h0" transform="translate(-528.06 -279.61)"/><path class="cls-45" d="M551.84,348.42l.89.16v0l-.89-.16v0" transform="translate(-528.06 -279.61)"/><path class="cls-46" d="M551.84,348.44l.89.16h0l-.88-.16h0" transform="translate(-528.06 -279.61)"/><path class="cls-47" d="M551.84,348.45l.88.16h0v.07l-.89-.16a.17.17,0,0,1,0-.07h0" transform="translate(-528.06 -279.61)"/><path class="cls-46" d="M551.83,348.52l.89.16v0l-.89-.16v0" transform="translate(-528.06 -279.61)"/><path class="cls-45" d="M551.83,348.54l.89.16v0l-.89-.16v0" transform="translate(-528.06 -279.61)"/><path class="cls-44" d="M551.83,348.56l.89.16h0l-.89-.16h0" transform="translate(-528.06 -279.61)"/><path class="cls-43" d="M551.83,348.57l.89.16v0l-.89-.17h0" transform="translate(-528.06 -279.61)"/><path class="cls-42" d="M551.83,348.58l.89.17h0l-.89-.16v0" transform="translate(-528.06 -279.61)"/><path class="cls-41" d="M551.83,348.6l.89.16v0l-.89-.17h0" transform="translate(-528.06 -279.61)"/><path class="cls-40" d="M551.83,348.61l.89.17h0l-.89-.16v0" transform="translate(-528.06 -279.61)"/><path class="cls-39" d="M551.83,348.63l.89.16v0l-.89-.16v0" transform="translate(-528.06 -279.61)"/><path class="cls-38" d="M551.83,348.65l.89.16v0l-.89-.16v0" transform="translate(-528.06 -279.61)"/><path class="cls-37" d="M551.84,348.67l.89.16v0l-.89-.16v0" transform="translate(-528.06 -279.61)"/><path class="cls-36" d="M551.84,348.69l.89.16v0l-.89-.16v0" transform="translate(-528.06 -279.61)"/><path class="cls-35" d="M551.84,348.71l.89.16v0l-.89-.16v0" transform="translate(-528.06 -279.61)"/><path class="cls-34" d="M551.85,348.73l.89.16v0l-.89-.16v0" transform="translate(-528.06 -279.61)"/><path class="cls-33" d="M551.85,348.75l.89.16v0l-.89-.16v0" transform="translate(-528.06 -279.61)"/><path class="cls-32" d="M551.86,348.77l.89.16h0l-.89-.16h0" transform="translate(-528.06 -279.61)"/><path class="cls-31" d="M551.86,348.78l.89.16v0l-.89-.17h0" transform="translate(-528.06 -279.61)"/><path class="cls-30" d="M551.87,348.79l.89.17h0l-.89-.16v0" transform="translate(-528.06 -279.61)"/><polyline class="cls-29" points="23.81 69.19 24.7 69.36 24.71 69.37 23.82 69.2 23.81 69.19"/><polyline class="cls-28" points="23.82 69.2 24.71 69.37 24.71 69.38 23.82 69.21 23.82 69.2"/><polyline class="cls-27" points="23.82 69.21 24.71 69.38 24.72 69.39 23.83 69.22 23.82 69.21"/><polyline class="cls-26" points="23.83 69.22 24.72 69.39 24.73 69.39 23.84 69.23 23.83 69.22"/><polyline class="cls-25" points="23.84 69.23 24.73 69.39 24.73 69.4 23.84 69.24 23.84 69.23"/><polyline class="cls-24" points="23.84 69.24 24.73 69.4 24.74 69.41 23.85 69.25 23.84 69.24"/><polyline class="cls-23" points="23.85 69.25 24.74 69.41 24.75 69.42 23.86 69.25 23.85 69.25"/><polyline class="cls-22" points="23.86 69.25 24.75 69.42 24.76 69.42 23.87 69.26 23.86 69.25"/><polyline class="cls-21" points="23.87 69.26 24.76 69.42 24.77 69.43 23.88 69.27 23.87 69.26"/><polyline class="cls-20" points="23.88 69.27 24.77 69.43 24.77 69.43 23.88 69.27 23.88 69.27"/><polyline class="cls-19" points="23.88 69.27 24.77 69.43 24.78 69.44 23.89 69.27 23.88 69.27"/><polyline class="cls-18" points="23.89 69.27 24.78 69.44 24.79 69.44 23.9 69.28 23.89 69.27"/><polyline class="cls-17" points="23.9 69.28 24.79 69.44 24.79 69.44 23.9 69.28 23.9 69.28"/></g></g></g><g class="cls-12"><g class="cls-101"><g class="cls-12"><polyline class="cls-51" points="24.08 68.29 24.97 68.46 24.97 68.46 24.08 68.29 24.08 68.29"/><polyline class="cls-52" points="24.08 68.29 24.97 68.46 24.98 68.46 24.09 68.3 24.08 68.29"/><polyline class="cls-53" points="24.09 68.3 24.98 68.46 24.99 68.46 24.1 68.3 24.09 68.3"/><polyline class="cls-54" points="24.1 68.3 24.99 68.46 25 68.47 24.11 68.31 24.1 68.3"/><polyline class="cls-55" points="24.11 68.31 25 68.47 25.01 68.47 24.12 68.31 24.11 68.31"/><polyline class="cls-56" points="24.12 68.31 25.01 68.47 25.02 68.48 24.13 68.32 24.12 68.31"/><polyline class="cls-57" points="24.13 68.32 25.02 68.48 25.03 68.48 24.14 68.32 24.13 68.32"/><polyline class="cls-58" points="24.14 68.32 25.03 68.48 25.03 68.49 24.14 68.33 24.14 68.32"/><polyline class="cls-59" points="24.14 68.33 25.03 68.49 25.04 68.5 24.15 68.34 24.14 68.33"/><polyline class="cls-60" points="24.15 68.34 25.04 68.5 25.05 68.51 24.16 68.35 24.15 68.34"/><polyline class="cls-61" points="24.16 68.35 25.05 68.51 25.05 68.52 24.16 68.36 24.16 68.35"/><polyline class="cls-62" points="24.16 68.36 25.05 68.52 25.06 68.53 24.17 68.37 24.16 68.36"/><polyline class="cls-63" points="24.17 68.37 25.06 68.53 25.07 68.54 24.18 68.38 24.17 68.37"/><path class="cls-64" d="M552.24,348l.89.16v0l-.89-.17h0" transform="translate(-528.06 -279.61)"/><path class="cls-65" d="M552.24,348l.89.17h0l-.89-.16v0" transform="translate(-528.06 -279.61)"/><path class="cls-66" d="M552.25,348l.89.16v0l-.89-.17h0" transform="translate(-528.06 -279.61)"/><path class="cls-67" d="M552.26,348l.89.17h0l-.89-.16v0" transform="translate(-528.06 -279.61)"/><path class="cls-68" d="M552.26,348.05l.89.16v0l-.89-.16v0" transform="translate(-528.06 -279.61)"/><path class="cls-69" d="M552.27,348.07l.89.16v0l-.89-.16v0" transform="translate(-528.06 -279.61)"/><path class="cls-70" d="M552.27,348.09l.89.16v0l-.89-.16v0" transform="translate(-528.06 -279.61)"/><path class="cls-71" d="M552.27,348.11l.89.16v0l-.89-.16v0" transform="translate(-528.06 -279.61)"/><path class="cls-72" d="M552.28,348.13l.89.16v0l-.89-.16v0" transform="translate(-528.06 -279.61)"/><path class="cls-73" d="M552.28,348.15l.89.16v0l-.89-.16v0" transform="translate(-528.06 -279.61)"/><path class="cls-74" d="M552.28,348.17l.89.16v0l-.89-.16v0" transform="translate(-528.06 -279.61)"/><path class="cls-75" d="M552.28,348.19l.89.16h0l-.89-.16h0" transform="translate(-528.06 -279.61)"/><path class="cls-76" d="M552.28,348.2l.89.16v0l-.89-.16v0" transform="translate(-528.06 -279.61)"/><path class="cls-77" d="M552.28,348.22l.89.16h0l-.88-.16h0" transform="translate(-528.06 -279.61)"/><path class="cls-78" d="M552.29,348.23l.88.16s0,0,0,0l-.89-.16v0" transform="translate(-528.06 -279.61)"/><path class="cls-79" d="M552.29,348.25l.89.16h0l-.88-.16h0" transform="translate(-528.06 -279.61)"/><path class="cls-80" d="M552.29,348.26l.88.16v0l-.89-.16v0" transform="translate(-528.06 -279.61)"/><path class="cls-81" d="M552.28,348.28l.89.16v.08h0l-.89-.16h0v-.08" transform="translate(-528.06 -279.61)"/><path class="cls-80" d="M552.28,348.36l.89.16h0l-.89-.16h0" transform="translate(-528.06 -279.61)"/><path class="cls-79" d="M552.28,348.37l.89.16v0l-.89-.17h0" transform="translate(-528.06 -279.61)"/><path class="cls-78" d="M552.28,348.38l.89.17h0l-.89-.16v0" transform="translate(-528.06 -279.61)"/><polyline class="cls-77" points="24.21 68.78 25.1 68.94 25.1 68.95 24.21 68.79 24.21 68.78"/><polyline class="cls-76" points="24.21 68.79 25.1 68.95 25.1 68.97 24.21 68.8 24.21 68.79"/><polyline class="cls-75" points="24.21 68.8 25.1 68.97 25.1 68.97 24.21 68.81 24.21 68.8"/><polyline class="cls-74" points="24.21 68.81 25.1 68.97 25.09 68.98 24.2 68.82 24.21 68.81"/><polyline class="cls-73" points="24.2 68.82 25.09 68.98 25.09 69 24.2 68.83 24.2 68.82"/><polyline class="cls-72" points="24.2 68.83 25.09 69 25.09 69 24.2 68.84 24.2 68.83"/><polyline class="cls-71" points="24.2 68.84 25.09 69 25.09 69.02 24.2 68.85 24.2 68.84"/><polyline class="cls-70" points="24.2 68.85 25.09 69.02 25.09 69.03 24.2 68.86 24.2 68.85"/><polyline class="cls-69" points="24.2 68.86 25.09 69.03 25.08 69.04 24.19 68.87 24.2 68.86"/><polyline class="cls-68" points="24.19 68.87 25.08 69.04 25.08 69.05 24.19 68.89 24.19 68.87"/><polyline class="cls-67" points="24.19 68.89 25.08 69.05 25.08 69.06 24.19 68.9 24.19 68.89"/><path class="cls-66" d="M552.25,348.51l.89.16v0l-.89-.16v0" transform="translate(-528.06 -279.61)"/><path class="cls-65" d="M552.25,348.53l.89.16h0l-.89-.16h0" transform="translate(-528.06 -279.61)"/><path class="cls-64" d="M552.24,348.54l.89.16v0l-.89-.17h0" transform="translate(-528.06 -279.61)"/><path class="cls-63" d="M552.24,348.55l.89.17h0l-.88-.16v0" transform="translate(-528.06 -279.61)"/><path class="cls-62" d="M552.24,348.57l.88.16v0l-.89-.16v0" transform="translate(-528.06 -279.61)"/><path class="cls-61" d="M552.23,348.59l.89.16h0l-.89-.16h0" transform="translate(-528.06 -279.61)"/><path class="cls-60" d="M552.22,348.6l.89.16v0l-.89-.16v0" transform="translate(-528.06 -279.61)"/><path class="cls-59" d="M552.22,348.62l.89.16v0l-.89-.16v0" transform="translate(-528.06 -279.61)"/><path class="cls-58" d="M552.21,348.64l.89.16v0l-.89-.17h0" transform="translate(-528.06 -279.61)"/><path class="cls-57" d="M552.2,348.65l.89.17h0l-.89-.16v0" transform="translate(-528.06 -279.61)"/><path class="cls-56" d="M552.2,348.67l.89.16v0l-.89-.16v0" transform="translate(-528.06 -279.61)"/><path class="cls-55" d="M552.19,348.69l.89.16v0l-.89-.16v0" transform="translate(-528.06 -279.61)"/><path class="cls-54" d="M552.18,348.71l.89.16v0l-.89-.17h0" transform="translate(-528.06 -279.61)"/><path class="cls-53" d="M552.17,348.72l.89.17h0l-.89-.16v0" transform="translate(-528.06 -279.61)"/><path class="cls-52" d="M552.16,348.74l.89.16v0l-.89-.16v0" transform="translate(-528.06 -279.61)"/><path class="cls-51" d="M552.15,348.76l.89.16v0l-.89-.16v0" transform="translate(-528.06 -279.61)"/><path class="cls-83" d="M552.14,348.78l.89.16,0,0-.89-.16,0,0" transform="translate(-528.06 -279.61)"/><path class="cls-84" d="M552.12,348.8l.89.16,0,0-.89-.17,0,0" transform="translate(-528.06 -279.61)"/><path class="cls-49" d="M552.1,348.82l.89.17a.21.21,0,0,1-.1.06h0l-.89-.16h0a.17.17,0,0,0,.1-.07" transform="translate(-528.06 -279.61)"/></g></g></g><path class="cls-85" d="M552.11,347.91c.12,0,.2.17.17.45s-.15.5-.28.53-.19-.17-.16-.44S552,347.93,552.11,347.91Z" transform="translate(-528.06 -279.61)"/><g class="cls-12"><g class="cls-102"><g class="cls-12"><polyline class="cls-17" points="24.26 67.31 25.15 67.47 25.15 67.47 24.26 67.31 24.26 67.31"/><path class="cls-18" d="M552.33,346.92l.89.17h0l-.89-.16h0" transform="translate(-528.06 -279.61)"/><path class="cls-19" d="M552.36,346.93l.89.16,0,0-.89-.17h0" transform="translate(-528.06 -279.61)"/><path class="cls-20" d="M552.39,346.94l.89.17h0l-.89-.16,0,0" transform="translate(-528.06 -279.61)"/><path class="cls-21" d="M552.41,347l.89.16,0,0-.89-.17h0" transform="translate(-528.06 -279.61)"/><path class="cls-22" d="M552.44,347l.89.17h0l-.89-.16,0,0" transform="translate(-528.06 -279.61)"/><path class="cls-23" d="M552.46,347l.89.16,0,0-.88-.16,0,0" transform="translate(-528.06 -279.61)"/><path class="cls-24" d="M552.49,347l.88.16,0,0-.89-.17,0,0" transform="translate(-528.06 -279.61)"/><path class="cls-25" d="M552.51,347l.89.17,0,0-.89-.16,0,0" transform="translate(-528.06 -279.61)"/><path class="cls-26" d="M552.53,347.06l.89.16,0,0-.89-.17,0,0" transform="translate(-528.06 -279.61)"/><path class="cls-27" d="M552.55,347.08l.89.17,0,0-.89-.16,0,0" transform="translate(-528.06 -279.61)"/><path class="cls-28" d="M552.57,347.11l.89.16v0l-.89-.17v0" transform="translate(-528.06 -279.61)"/><path class="cls-29" d="M552.58,347.14l.89.17,0,0-.89-.16,0,0" transform="translate(-528.06 -279.61)"/><path class="cls-30" d="M552.6,347.18l.89.16,0,0-.89-.16,0,0" transform="translate(-528.06 -279.61)"/><path class="cls-31" d="M552.62,347.22l.89.16,0,0-.89-.16,0,0" transform="translate(-528.06 -279.61)"/><path class="cls-32" d="M552.64,347.26l.89.16v0l-.89-.16v0" transform="translate(-528.06 -279.61)"/><path class="cls-33" d="M552.65,347.3l.89.16,0,.05-.89-.16,0-.05" transform="translate(-528.06 -279.61)"/><path class="cls-34" d="M552.67,347.35l.89.16s0,0,0,.06l-.89-.16s0,0,0-.06" transform="translate(-528.06 -279.61)"/><path class="cls-35" d="M552.68,347.41l.89.16s0,0,0,.06l-.89-.16s0,0,0-.06" transform="translate(-528.06 -279.61)"/><path class="cls-36" d="M552.7,347.47l.89.16s0,0,0,.06l-.89-.16s0,0,0-.06" transform="translate(-528.06 -279.61)"/><path class="cls-37" d="M552.71,347.53l.89.16s0,.05,0,.07l-.89-.16s0-.05,0-.07" transform="translate(-528.06 -279.61)"/><path class="cls-38" d="M552.72,347.6l.89.16v.06l-.89-.17v0" transform="translate(-528.06 -279.61)"/><path class="cls-39" d="M552.73,347.65l.89.17v.05l-.89-.16v-.06" transform="translate(-528.06 -279.61)"/><path class="cls-40" d="M552.73,347.71l.89.16v.05l-.89-.16v-.05" transform="translate(-528.06 -279.61)"/><path class="cls-41" d="M552.74,347.76l.89.16V348l-.89-.17v0" transform="translate(-528.06 -279.61)"/><path class="cls-42" d="M552.74,347.8l.89.17v0l-.89-.16v-.05" transform="translate(-528.06 -279.61)"/><path class="cls-43" d="M552.74,347.85l.89.16v0l-.89-.16v0" transform="translate(-528.06 -279.61)"/><path class="cls-44" d="M552.74,347.89l.89.16v.05l-.89-.16v-.05" transform="translate(-528.06 -279.61)"/><path class="cls-45" d="M552.74,347.94l.89.16v0l-.89-.17v0" transform="translate(-528.06 -279.61)"/><path class="cls-46" d="M552.74,348l.89.17v.06l-.89-.17V348" transform="translate(-528.06 -279.61)"/><path class="cls-47" d="M552.74,348l.89.17a1.49,1.49,0,0,1,0,.21h0l-.89-.16h0a1.64,1.64,0,0,0,0-.22" transform="translate(-528.06 -279.61)"/><path class="cls-46" d="M552.72,348.26l.89.16v.05l-.89-.17v0" transform="translate(-528.06 -279.61)"/><path class="cls-45" d="M552.72,348.3l.89.17v0l-.89-.16v-.05" transform="translate(-528.06 -279.61)"/><path class="cls-44" d="M552.71,348.35l.89.16v0l-.89-.16v0" transform="translate(-528.06 -279.61)"/><path class="cls-43" d="M552.71,348.39l.89.16v0l-.89-.16v0" transform="translate(-528.06 -279.61)"/><path class="cls-42" d="M552.7,348.42l.89.16v0l-.89-.16v0" transform="translate(-528.06 -279.61)"/><path class="cls-41" d="M552.7,348.45l.89.16v0l-.89-.16v0" transform="translate(-528.06 -279.61)"/><path class="cls-40" d="M552.69,348.48l.89.16v0l-.89-.16v0" transform="translate(-528.06 -279.61)"/><path class="cls-39" d="M552.69,348.51l.89.16v0l-.89-.17v0" transform="translate(-528.06 -279.61)"/><path class="cls-38" d="M552.68,348.54l.89.17v0l-.89-.17v0" transform="translate(-528.06 -279.61)"/><path class="cls-37" d="M552.68,348.57l.89.17v0l-.89-.17v0" transform="translate(-528.06 -279.61)"/><path class="cls-36" d="M552.67,348.6l.89.17v0l-.89-.16v0" transform="translate(-528.06 -279.61)"/><path class="cls-35" d="M552.66,348.64l.89.16v0l-.88-.16v0" transform="translate(-528.06 -279.61)"/><path class="cls-34" d="M552.66,348.67l.88.16v0l-.89-.16v0" transform="translate(-528.06 -279.61)"/><path class="cls-33" d="M552.65,348.71l.89.16v0l-.89-.16v0" transform="translate(-528.06 -279.61)"/><path class="cls-32" d="M552.64,348.74l.89.16V349l-.89-.17v0" transform="translate(-528.06 -279.61)"/><path class="cls-31" d="M552.63,348.78l.89.17v0l-.89-.17v0" transform="translate(-528.06 -279.61)"/><path class="cls-30" d="M552.62,348.82l.89.17,0,0-.89-.16,0-.05" transform="translate(-528.06 -279.61)"/><path class="cls-29" d="M552.6,348.87l.89.16v.05l-.89-.16v-.05" transform="translate(-528.06 -279.61)"/><path class="cls-28" d="M552.59,348.92l.89.16,0,.05-.89-.16,0-.05" transform="translate(-528.06 -279.61)"/><path class="cls-27" d="M552.57,349l.89.16,0,.05-.88-.16v0" transform="translate(-528.06 -279.61)"/><path class="cls-26" d="M552.56,349l.88.16v.05l-.89-.16,0-.05" transform="translate(-528.06 -279.61)"/><path class="cls-25" d="M552.54,349.07l.89.16,0,0-.89-.16,0-.05" transform="translate(-528.06 -279.61)"/><path class="cls-24" d="M552.52,349.12l.89.16,0,.05-.89-.16,0-.05" transform="translate(-528.06 -279.61)"/><path class="cls-23" d="M552.5,349.17l.89.16,0,.05-.89-.16,0-.05" transform="translate(-528.06 -279.61)"/><path class="cls-22" d="M552.47,349.22l.89.16,0,.06-.89-.17,0,0" transform="translate(-528.06 -279.61)"/><path class="cls-21" d="M552.45,349.27l.89.17,0,.05-.89-.16,0-.06" transform="translate(-528.06 -279.61)"/><path class="cls-20" d="M552.43,349.33l.89.16,0,.05-.89-.16,0-.05" transform="translate(-528.06 -279.61)"/><path class="cls-19" d="M552.4,349.38l.89.16,0,0-.89-.16,0-.05" transform="translate(-528.06 -279.61)"/><path class="cls-18" d="M552.37,349.43l.89.16,0,.06-.89-.16,0-.06" transform="translate(-528.06 -279.61)"/><path class="cls-17" d="M552.34,349.49l.89.16,0,.05-.89-.16a.1.1,0,0,1,0-.05" transform="translate(-528.06 -279.61)"/><path class="cls-16" d="M552.3,349.54l.89.16-.05.07-.88-.17a.21.21,0,0,1,0-.06" transform="translate(-528.06 -279.61)"/><path class="cls-15" d="M552.26,349.6l.88.17,0,.07-.89-.17.06-.07" transform="translate(-528.06 -279.61)"/><path class="cls-14" d="M552.2,349.67l.89.17a.63.63,0,0,1-.3.19h-.11l-.89-.17h.11a.59.59,0,0,0,.3-.2" transform="translate(-528.06 -279.61)"/></g></g></g><path class="cls-87" d="M552.21,346.93c.37-.08.6.52.51,1.33s-.45,1.53-.82,1.61-.6-.51-.51-1.33S551.84,347,552.21,346.93Zm-.21,2c.13,0,.25-.27.28-.53s0-.48-.17-.45-.25.27-.27.54,0,.47.16.44" transform="translate(-528.06 -279.61)"/></g></g><g id="Calque_5" data-name="Calque 5"><path class="cls-5" d="M550,292a13,13,0,0,0-3.74,5c-1.15,3,.9,11.88-1.22,14-3,3-.93,4.59-.93,6,0,1.16,19.63,1.41,19.63,1.41L572,298v-6l-13.43-2.54Z" transform="translate(-528.06 -279.61)"/><path class="cls-103" d="M574.26,321.31c-.2,15.25-38.34,35.13-38.89,19.67,7.6-18.56.89-21.09,15.63-26,12.49.74,23.33-14.33,15-22-4-1-15.22,1-16.11,0-10.24-5.86,6.31-15.35,12.11-13,12.51-1.67,17,11.94,27,18,9.44,11.58,30.49,13.72,25.46,32.72C603.13,359.86,561.5,356.76,574.26,321.31Z" transform="translate(-528.06 -279.61)"/><ellipse class="cls-104" cx="16.44" cy="28.87" rx="4" ry="3"/><ellipse class="cls-105" cx="27.94" cy="18.87" rx="4" ry="1.5"/><line class="cls-106" x1="15.59" y1="35.78" x2="22.94" y2="33.37"/><ellipse class="cls-107" cx="26.94" cy="23.37" rx="3" ry="2"/><g class="cls-108"><circle class="cls-9" cx="25.44" cy="23.87" r="1.5"/></g><circle class="cls-109" cx="26.44" cy="23.87" r="0.5"/><g class="cls-110"><path d="M557,285.76a13.07,13.07,0,0,1,7.11-1.24,14.89,14.89,0,0,1,6.79,2.66,30.48,30.48,0,0,1,9.23,11.23,48.23,48.23,0,0,1,4.68,13.82,39.61,39.61,0,0,1,.61,7.3,22,22,0,0,1-1.21,7.26l-.07.18-.16.06a7.06,7.06,0,0,0-3.94,3.41,9.53,9.53,0,0,0-.63,5.33,28.59,28.59,0,0,0,1.33,5.4c.57,1.77,1.33,3.49,1.8,5.31-.59-1.78-1.43-3.45-2.08-5.21a27.47,27.47,0,0,1-1.57-5.43,10.18,10.18,0,0,1,.53-5.69,7.88,7.88,0,0,1,4.24-3.89l-.23.24a21.64,21.64,0,0,0,1.09-7,38.75,38.75,0,0,0-.67-7.12,50.47,50.47,0,0,0-4.52-13.58,40.32,40.32,0,0,0-3.77-6.08,24.32,24.32,0,0,0-5-5.06,15,15,0,0,0-6.48-2.8A13.38,13.38,0,0,0,557,285.76Z" transform="translate(-528.06 -279.61)"/></g><g class="cls-111"><path d="M553.5,289.48a15,15,0,0,1,7.28-1.71,17.25,17.25,0,0,1,7.34,1.78,16.29,16.29,0,0,1,5.9,4.81,15.54,15.54,0,0,1,3,7.05v-.07a13.51,13.51,0,0,1,.58,3.53,11.54,11.54,0,0,1-.56,3.53,18.32,18.32,0,0,0-.8,3.27,9.48,9.48,0,0,0,.25,3.26l0-.13a16.7,16.7,0,0,0,1.07,1.57,2.49,2.49,0,0,1,.32.48,1.71,1.71,0,0,1,.14.62c0,.37,0,.68,0,1v0a6.6,6.6,0,0,1-.89,2.76c-.49.84-1.14,1.52-1.51,2.27a3,3,0,0,0,0,2.41,12.1,12.1,0,0,0,1.22,2.37l.09.15-.08.14a14.11,14.11,0,0,0-1.53,4.53,10.79,10.79,0,0,0,.1,4.83,10.42,10.42,0,0,1-.4-4.87,16.81,16.81,0,0,1,.47-2.43,9.83,9.83,0,0,1,.9-2.34v.29a12.52,12.52,0,0,1-1.37-2.46,3.7,3.7,0,0,1,0-2.92c.43-.91,1.05-1.6,1.45-2.36a6.22,6.22,0,0,0,.73-2.44v0c0-.32,0-.65,0-.93a1,1,0,0,0-.29-.65,15.35,15.35,0,0,1-1.14-1.63l0,0,0-.07a10.48,10.48,0,0,1-.31-3.58,19.3,19.3,0,0,1,.79-3.43,11.19,11.19,0,0,0,.51-3.26,12.17,12.17,0,0,0-.51-3.26v-.07a14.72,14.72,0,0,0-2.71-6.66,16.46,16.46,0,0,0-5.51-4.71,17.36,17.36,0,0,0-7-2A15.55,15.55,0,0,0,553.5,289.48Z" transform="translate(-528.06 -279.61)"/></g><g class="cls-112"><path d="M558,282.65a23.8,23.8,0,0,1,4.38-.5,11.07,11.07,0,0,1,2.22.16c.38.08.74.2,1.07.28a5.45,5.45,0,0,0,1.05.16,9.59,9.59,0,0,0,1.07,0,3.29,3.29,0,0,1,1.19.09,2.49,2.49,0,0,1,1,.7l.79.77,1.58,1.53a15.11,15.11,0,0,1,1.54,1.64,6.67,6.67,0,0,0,1.37,1.58c.55.45,1.14.84,1.76,1.26a14.14,14.14,0,0,1,3.3,3.06,38.82,38.82,0,0,0,3,3.2,19.08,19.08,0,0,1,3,3.4c.4.65.73,1.31,1.06,2s.66,1.29,1,2a8.22,8.22,0,0,1,.52,2.27,4,4,0,0,0,.39,1.9,4.32,4.32,0,0,0,1.58,1.12c.65.3,1.32.55,2,.79,1.38.47,2.76.93,4.16,1.32.69.19,1.43.37,2.14.64a20.64,20.64,0,0,1,2,.92,43.63,43.63,0,0,1,3.89,2.14,4.21,4.21,0,0,1,1.42,1.77c.33.66.62,1.34.9,2s.56,1.36.87,2a7.38,7.38,0,0,0,.53,1,1.29,1.29,0,0,0,.82.66,1.34,1.34,0,0,1-.88-.61,7.12,7.12,0,0,1-.6-.94c-.36-.64-.66-1.31-1-2s-.64-1.31-1-1.95a3.75,3.75,0,0,0-1.37-1.55c-1.21-.74-2.58-1.34-3.88-2a20.12,20.12,0,0,0-2-.83c-.67-.24-1.37-.38-2.09-.56-1.44-.34-2.86-.77-4.25-1.24-.71-.24-1.41-.5-2.1-.8a5.12,5.12,0,0,1-2-1.41,2.9,2.9,0,0,1-.46-1.22c-.05-.39-.07-.76-.11-1.11a6.8,6.8,0,0,0-.48-2c-.58-1.26-1.28-2.63-2-3.83a18.3,18.3,0,0,0-2.77-3.25,38.62,38.62,0,0,1-3-3.29,13.21,13.21,0,0,0-3.09-2.93,21.92,21.92,0,0,1-1.8-1.33,7.68,7.68,0,0,1-1.46-1.76,14,14,0,0,0-1.41-1.61l-1.53-1.58-.77-.79a1.9,1.9,0,0,0-.75-.59,16.5,16.5,0,0,0-2.12-.13,10.35,10.35,0,0,1-2.16-.55,10.9,10.9,0,0,0-2.14-.27A29.17,29.17,0,0,0,558,282.65Z" transform="translate(-528.06 -279.61)"/></g><g class="cls-113"><path d="M577.5,293c1.63,2,3.21,4.12,4.92,6a1.68,1.68,0,0,0,.67.52,5.06,5.06,0,0,0,.91.22,1.59,1.59,0,0,1,1,.57,2.11,2.11,0,0,1,.32,1.1,15.57,15.57,0,0,1-.16,2,5.88,5.88,0,0,0,0,1.83,7.88,7.88,0,0,0,.68,1.72c.28.59.57,1.16.84,1.79a12.85,12.85,0,0,1,.87,3.93,13.23,13.23,0,0,0,.26,1.86,3.58,3.58,0,0,0,.29.82,1.12,1.12,0,0,0,.49.47,9.93,9.93,0,0,0,3.62.58c.65,0,1.31.09,2,.19a7.9,7.9,0,0,1,1,.24l.52.21a2.57,2.57,0,0,0,.41.19,25,25,0,0,1,3.73,1.41,2.28,2.28,0,0,1,.81.87,2,2,0,0,1,.2,1.19,4.62,4.62,0,0,1-.8,2c-.35.57-.72,1.1-1,1.64a2.39,2.39,0,0,0-.39,1.59,1.86,1.86,0,0,0,.12.38c.07.13.13.27.21.4a5.53,5.53,0,0,0,.53.74,7.9,7.9,0,0,0,1.39,1.25,15.79,15.79,0,0,0,1.63,1,11.93,11.93,0,0,1,1.73,1,3.65,3.65,0,0,1,1.11,1.73,6.35,6.35,0,0,1,.19,2c0,.69-.23,1.3-.27,1.95a2.47,2.47,0,0,0,.09.94,1.16,1.16,0,0,0,.66.66,1.17,1.17,0,0,1-.73-.63,2.36,2.36,0,0,1-.17-1c0-.66.17-1.31.16-1.94A4,4,0,0,0,604,331.1a13.17,13.17,0,0,0-1.68-.89,16.6,16.6,0,0,1-1.73-1,7.7,7.7,0,0,1-1.55-1.31,5.58,5.58,0,0,1-.63-.82,4,4,0,0,1-.26-.45,2.58,2.58,0,0,1-.2-.55,3.11,3.11,0,0,1,.4-2.14c.31-.62.69-1.16,1-1.7.69-1.05,1-2.29,0-2.83a26.55,26.55,0,0,0-3.59-1.28c-.16-.06-.32-.14-.48-.21l-.39-.16a6.11,6.11,0,0,0-.87-.19c-.62-.09-1.26-.12-1.9-.16s-1.31-.08-2-.17a5.77,5.77,0,0,1-2.05-.58,2.05,2.05,0,0,1-.87-.88,4.7,4.7,0,0,1-.34-1,13.06,13.06,0,0,1-.26-2,12.19,12.19,0,0,0-.77-3.68,22,22,0,0,1-1.47-3.69c-.24-1.42.23-2.76.25-4a1.51,1.51,0,0,0-.17-.77,1,1,0,0,0-.65-.37,6.15,6.15,0,0,1-1-.28,2.14,2.14,0,0,1-.84-.69C580.43,297.28,579,295.15,577.5,293Z" transform="translate(-528.06 -279.61)"/></g><g class="cls-112"><path d="M568.5,293.48a6.44,6.44,0,0,1,2.76,3,4.94,4.94,0,0,1,.93,1.86,6.4,6.4,0,0,1-.1,2.1c-.11.68-.31,1.35-.45,2a2.11,2.11,0,0,0,.2,1.75c.68,1,2,1.81,2.41,3.41a3.59,3.59,0,0,1-.42,2.21,5.16,5.16,0,0,0-.6,1.77,10.19,10.19,0,0,0,.14,1.94l.26,2a9.09,9.09,0,0,0,.51,1.9,1.17,1.17,0,0,1,0,.78,2.08,2.08,0,0,1-.35.59c-.25.28-.49.52-.72.77a18.67,18.67,0,0,0-2.59,3,3.7,3.7,0,0,0-.51,1.72c0,.28,0,.69-.06,1a7.78,7.78,0,0,1-.21,1.07,8.66,8.66,0,0,1-.81,2,6.81,6.81,0,0,1-.6.91c-.2.28-.53.59-.66.76a7.87,7.87,0,0,0-.74,1.75,4.23,4.23,0,0,1-.49,1.05,1,1,0,0,1-.76.42c-.16,0-.35,0-.31,0a.22.22,0,0,0-.12,0,7.73,7.73,0,0,0-1.72.8c-.58.32-1.15.68-1.71,1.05a30.76,30.76,0,0,0-3.22,2.42,8.89,8.89,0,0,0-.69.68,2.64,2.64,0,0,1-.9.7,5.76,5.76,0,0,1-2.09.44,14,14,0,0,0-4,.31,12.67,12.67,0,0,0-1.9.69,5,5,0,0,0-1.68,1.13c1.89-2,4.92-2.63,7.56-2.62a5.4,5.4,0,0,0,1.87-.45,2.34,2.34,0,0,0,.68-.56,7.94,7.94,0,0,1,.73-.79,33,33,0,0,1,3.21-2.59c.57-.39,1.13-.78,1.73-1.14a8.07,8.07,0,0,1,2-.92,1.64,1.64,0,0,1,.58,0s0,0,.09-.08a3.27,3.27,0,0,0,.35-.81,7.64,7.64,0,0,1,.85-2c.28-.37.47-.51.66-.79a6,6,0,0,0,.51-.8,7.17,7.17,0,0,0,.7-1.78,7.05,7.05,0,0,0,.22-1.93,4.74,4.74,0,0,1,.63-2.16,19.33,19.33,0,0,1,2.77-3.15c.23-.24.47-.48.67-.71a1.58,1.58,0,0,0,.2-.27.48.48,0,0,0,0-.21,10.34,10.34,0,0,1-.52-2l-.24-2a11.27,11.27,0,0,1-.12-2.13,5.85,5.85,0,0,1,.71-2.06,2.73,2.73,0,0,0,.41-1.71,3.5,3.5,0,0,0-.86-1.6,17.75,17.75,0,0,1-1.33-1.62,2.22,2.22,0,0,1-.34-1.1,3.83,3.83,0,0,1,.13-1.09c.18-.68.39-1.31.53-2a6.2,6.2,0,0,0,.2-1.95,5,5,0,0,0-.79-1.79A6.66,6.66,0,0,0,568.5,293.48Z" transform="translate(-528.06 -279.61)"/></g><g class="cls-112"><path d="M569.51,304.91a4.28,4.28,0,0,1,1.61,2.21,2.71,2.71,0,0,1-.15,1.42l-.41,1.3a5.87,5.87,0,0,0-.43,2.49c.06.16.11.28.23.31a4,4,0,0,1,.65.36,1.75,1.75,0,0,1,.71,1.48,3.82,3.82,0,0,1-.44,1.44l-.51,1.24a25.84,25.84,0,0,1-1.14,2.53,4.93,4.93,0,0,1-.87,1.21,10.94,10.94,0,0,0-.87,1,3.87,3.87,0,0,0-.87,2.23,19.7,19.7,0,0,1-.16,2.78,3.51,3.51,0,0,1-.62,1.43,3.61,3.61,0,0,1-1.16,1c-.9.48-1.82.64-2.57,1a2.21,2.21,0,0,0-.91.69,12.24,12.24,0,0,0-.68,1.12,5.32,5.32,0,0,1-2,2.06,9,9,0,0,1-2.64.9,12.85,12.85,0,0,0-4.79,2.39,12.07,12.07,0,0,1,4.65-2.86,8.76,8.76,0,0,0,2.45-1,4.79,4.79,0,0,0,1.65-1.91,11.86,11.86,0,0,1,.68-1.23,3,3,0,0,1,1.2-1c.89-.43,1.79-.62,2.49-1a2.83,2.83,0,0,0,.84-.78,2.51,2.51,0,0,0,.44-1.05A21.94,21.94,0,0,0,566,324a4.9,4.9,0,0,1,1.1-2.76,12.06,12.06,0,0,1,1-1,4.7,4.7,0,0,0,.73-1,24.36,24.36,0,0,0,1.15-2.41c.18-.41.35-.83.56-1.26a2.76,2.76,0,0,0,.43-1.12,1,1,0,0,0-.37-.89,2.94,2.94,0,0,0-.53-.32,1.1,1.1,0,0,1-.53-.76,3.42,3.42,0,0,1,.14-1.48,12,12,0,0,1,.44-1.32l.51-1.26a2.22,2.22,0,0,0,.25-1.24A4.47,4.47,0,0,0,569.51,304.91Z" transform="translate(-528.06 -279.61)"/></g><g class="cls-113"><path d="M586.67,318.07a38.74,38.74,0,0,0,2.7,3.53c.92,1.07,2.17,2.23,2.29,4a3.57,3.57,0,0,1-.78,2.33,14.81,14.81,0,0,1-1.62,1.64,9,9,0,0,0-2.58,3.25,2,2,0,0,0,.19,1.73,7.91,7.91,0,0,0,1.37,1.56,31.34,31.34,0,0,0,3.5,2.63,9.38,9.38,0,0,1,1.79,1.49,3.22,3.22,0,0,1,.37,2.36,8.47,8.47,0,0,1-.73,2.16,4.75,4.75,0,0,1-1.36,1.77,5.12,5.12,0,0,0,1.11-1.88,7.8,7.8,0,0,0,.49-2.11,2.78,2.78,0,0,0-.38-1.91,9.66,9.66,0,0,0-1.71-1.24,26,26,0,0,1-3.72-2.57A8.36,8.36,0,0,1,586,335a3,3,0,0,1-.31-2.54,5.9,5.9,0,0,1,1.28-2,17.56,17.56,0,0,1,1.63-1.6,13.1,13.1,0,0,0,1.56-1.48,2.93,2.93,0,0,0,.71-1.77,3.66,3.66,0,0,0-.62-1.91,21.53,21.53,0,0,0-1.3-1.77A29.28,29.28,0,0,1,586.67,318.07Z" transform="translate(-528.06 -279.61)"/></g><g class="cls-111"><path d="M546.12,320.9c-.23-.08-.38.15-.49.32a4.57,4.57,0,0,0-.32.58c-.19.39-.36.81-.55,1.22a11,11,0,0,1-.64,1.22,5.06,5.06,0,0,1-.44.57,6.12,6.12,0,0,0-.39.5,4.91,4.91,0,0,0-.91,2.25,5.92,5.92,0,0,0,.31,2.46,11.07,11.07,0,0,1,.43,2.77,3.77,3.77,0,0,1-.35,1.47,4.46,4.46,0,0,1-.87,1.17L540,337.36a5.49,5.49,0,0,0-1.53,2.12,2.5,2.5,0,0,1,.42-1.29,12.42,12.42,0,0,1,.73-1.15c.53-.73,1.1-1.43,1.66-2.12a3,3,0,0,0,.86-2.15,10.48,10.48,0,0,0-.45-2.5,6.53,6.53,0,0,1-.27-2.84,5.37,5.37,0,0,1,1.23-2.6,5.91,5.91,0,0,1,.48-.52,4.52,4.52,0,0,0,.43-.45,10.79,10.79,0,0,0,.74-1.08c.25-.37.49-.75.75-1.12a5.35,5.35,0,0,1,.43-.54C545.66,321,545.9,320.76,546.12,320.9Z" transform="translate(-528.06 -279.61)"/></g><g class="cls-113"><path d="M551.5,321.2c-1.63.31-3.26,1-3.86,2.45a5.84,5.84,0,0,0-.45,2.26,20.05,20.05,0,0,0,.09,2.44,25.28,25.28,0,0,1,.08,5.08,6.16,6.16,0,0,1-.85,2.48,4.06,4.06,0,0,1-2,1.57,4.32,4.32,0,0,0,1.58-1.82,6.21,6.21,0,0,0,.5-2.31,41.61,41.61,0,0,0-.3-4.92c-.08-1.66-.23-3.49.67-5.14a3.88,3.88,0,0,1,2-1.73A6.7,6.7,0,0,1,551.5,321.2Z" transform="translate(-528.06 -279.61)"/></g><g class="cls-113"><path d="M558,317.45a3.09,3.09,0,0,1,.32,2.56,6.26,6.26,0,0,1-1.44,2.22c-.58.64-1.21,1.23-1.75,1.86a5,5,0,0,0-1.18,2v0a30.34,30.34,0,0,1-2.88,8.92,18,18,0,0,1-2.69,3.87,9.37,9.37,0,0,1-3.88,2.58,11,11,0,0,0,3.45-3,19.85,19.85,0,0,0,2.33-3.89A39,39,0,0,0,553,325.9v0h0a5.5,5.5,0,0,1,1.5-2.32c.62-.63,1.29-1.17,1.9-1.75a7.24,7.24,0,0,0,1.54-1.92A3.1,3.1,0,0,0,558,317.45Z" transform="translate(-528.06 -279.61)"/></g><g class="cls-112"><path d="M549.5,295.43a10.27,10.27,0,0,0,1.8-.14,2,2,0,0,0,.72-.39c.22-.17.38-.41.67-.64a2.42,2.42,0,0,1,1.94-.36c.63.11,1.19.37,1.79.53a18,18,0,0,1-1.84-.15,2.36,2.36,0,0,0-1.59.38c-.2.14-.4.41-.68.62a2.08,2.08,0,0,1-.93.39A5.07,5.07,0,0,1,549.5,295.43Z" transform="translate(-528.06 -279.61)"/></g><g class="cls-112"><path d="M546.79,295.74c.89.22,1.67.76,2.49,1a2.61,2.61,0,0,0,.61.11,5.36,5.36,0,0,1,.69.06,3,3,0,0,0,1.23,0,1.91,1.91,0,0,0,1-.7,1.79,1.79,0,0,1,1.32-.65,10.77,10.77,0,0,1,2.7.53,24.64,24.64,0,0,0-2.65-.15,1.48,1.48,0,0,0-1,.57,2.36,2.36,0,0,1-1.18.88,3.33,3.33,0,0,1-1.44,0l-.65-.09a2.39,2.39,0,0,1-.71-.18C548.27,296.75,547.6,296.15,546.79,295.74Z" transform="translate(-528.06 -279.61)"/></g><ellipse class="cls-104" cx="546.5" cy="309.54" rx="1.3" ry="0.94" transform="translate(-587.83 -134.15) rotate(-14.38)"/><path class="cls-114" d="M544,318.07s-4-3.5,0-5.79,7-2.71,8,0a7.73,7.73,0,0,0,3,3.85Z" transform="translate(-528.06 -279.61)"/><g class="cls-113"><path class="cls-9" d="M555.49,307.47a6.91,6.91,0,0,1,2.69.5,3,3,0,0,0,2.92,0" transform="translate(-528.06 -279.61)"/><path d="M555.49,307.47a7.12,7.12,0,0,1,1.46,0,3.57,3.57,0,0,1,1.42.44,2.91,2.91,0,0,0,1.34.32,3.36,3.36,0,0,0,1.39-.28,2.87,2.87,0,0,1-2.85.18,3.58,3.58,0,0,0-1.33-.47C556.45,307.59,556,307.52,555.49,307.47Z" transform="translate(-528.06 -279.61)"/></g><g class="cls-113"><path class="cls-9" d="M554.49,308.47a6.91,6.91,0,0,1,2.69.5,3,3,0,0,0,2.92,0" transform="translate(-528.06 -279.61)"/><path d="M554.49,308.47a7.12,7.12,0,0,1,1.46,0,3.57,3.57,0,0,1,1.42.44,2.91,2.91,0,0,0,1.34.32,3.36,3.36,0,0,0,1.39-.28,2.87,2.87,0,0,1-2.85.18,3.58,3.58,0,0,0-1.33-.47C555.45,308.59,555,308.52,554.49,308.47Z" transform="translate(-528.06 -279.61)"/></g></g></svg>