<svg id="teteeleve1" xmlns="http://www.w3.org/2000/svg" viewBox="0 0 58.33 49.25"><defs><style>.cls-1{fill:#f1c089;stroke:#1d1d1b;}.cls-1,.cls-2,.cls-3,.cls-6{stroke-miterlimit:10;}.cls-1,.cls-3,.cls-6{stroke-width:0.25px;}.cls-2{fill:#e94e1b;stroke:#000;stroke-width:0.5px;}.cls-3,.cls-5{fill:#fff;}.cls-3{stroke:#936037;}.cls-4{fill:#1d1d1b;}.cls-6{fill:none;stroke:#b17f4a;}</style></defs><path class="cls-1" d="M227.27,316.41c-2.14,13.67,25.75,11.74,29,6.26,2.88-4.87,3-16.22,3.84-21.3-10.66-15.4-10.81-16.51-28.48-8.77A116.77,116.77,0,0,0,227.27,316.41Z" transform="translate(-211.93 -277.69)"/><path class="cls-2" d="M267.6,291a9.83,9.83,0,0,0-12-7.08,9.66,9.66,0,0,0-2.91,1.28l-.18-.07c0-.13,0-.26-.08-.4a9,9,0,0,0-17.67,1,9.82,9.82,0,0,0-14.86,10.69,1.42,1.42,0,0,0,0,.16,7.66,7.66,0,0,0-1.64.25,8.19,8.19,0,0,0-.16,15.83,4.92,4.92,0,1,0,9.12-.38,4.49,4.49,0,0,0,1.26-7.87c0-.22,0-.44-.06-.65a9.82,9.82,0,0,0,10.75-9,9,9,0,0,0,4.59,1.19,7.4,7.4,0,0,0,6.47,3.49,9.75,9.75,0,0,0,4.38,3.2,7.74,7.74,0,0,0,1.66,7.08,3.68,3.68,0,1,0,6.4,2.66,7.42,7.42,0,0,0,1.4-.22,7.78,7.78,0,0,0,2.5-13.94A9.79,9.79,0,0,0,267.6,291Z" transform="translate(-211.93 -277.69)"/><ellipse class="cls-3" cx="23.47" cy="30.5" rx="3.69" ry="3.28"/><circle class="cls-4" cx="24.91" cy="31.12" r="1.43"/><circle class="cls-5" cx="25.64" cy="31.78" r="0.28"/><ellipse class="cls-3" cx="37.41" cy="30.5" rx="3.69" ry="3.28"/><circle class="cls-4" cx="35.97" cy="31.12" r="1.43"/><circle class="cls-5" cx="35.24" cy="31.78" r="0.28"/><circle class="cls-6" cx="30.44" cy="35.42" r="1.64"/><path class="cls-6" d="M233.35,318.85l2.09,1.09a15,15,0,0,0,13.83,0l2-1.06" transform="translate(-211.93 -277.69)"/></svg>