<svg id="headhagrid" xmlns="http://www.w3.org/2000/svg" xmlns:xlink="http://www.w3.org/1999/xlink" viewBox="0 0 79.86 70.85"><defs><style>.cls-1,.cls-15,.cls-6{fill:none;}.cls-2,.cls-4{fill:#f1c089;}.cls-3{fill:#4f3727;}.cls-4,.cls-6{stroke:#774d30;}.cls-15,.cls-4,.cls-6,.cls-7{stroke-miterlimit:10;}.cls-4,.cls-6,.cls-7{stroke-width:0.25px;}.cls-5{fill:#774d30;}.cls-10,.cls-7{fill:#fff;}.cls-7{stroke:#1d1d1b;}.cls-8{clip-path:url(#clip-path);}.cls-9{fill:#1d1d1b;}.cls-11{opacity:0.05;}.cls-12{opacity:0.07;}.cls-13{opacity:0.04;}.cls-14{opacity:0.08;}.cls-15{stroke:#4f3727;stroke-width:3px;}</style><clipPath id="clip-path" transform="translate(-535.37 -279.61)"><ellipse class="cls-1" cx="555" cy="302.98" rx="3" ry="2"/></clipPath></defs><path class="cls-2" d="M550,292a13,13,0,0,0-3.74,5c-1.15,3,.9,11.88-1.22,14-3,3-.93,4.59-.93,6,0,1.16,19.63,1.41,19.63,1.41L572,298v-6l-13.43-2.54Z" transform="translate(-535.37 -279.61)"/><path class="cls-3" d="M574.26,321.31c-.2,15.25-38.34,35.13-38.89,19.67,7.6-18.56.89-21.09,15.63-26,12.49.74,23.33-14.33,15-22-4-1-15.22,1-16.11,0-10.24-5.86,6.31-15.35,12.11-13,12.51-1.67,17,11.94,27,18,9.44,11.58,30.49,13.72,25.46,32.72C603.13,359.86,561.5,356.76,574.26,321.31Z" transform="translate(-535.37 -279.61)"/><ellipse class="cls-4" cx="9.13" cy="28.87" rx="4" ry="3"/><ellipse class="cls-5" cx="20.63" cy="18.87" rx="4" ry="1.5"/><line class="cls-6" x1="8.28" y1="35.78" x2="15.63" y2="33.37"/><ellipse class="cls-7" cx="19.63" cy="23.37" rx="3" ry="2"/><g class="cls-8"><circle class="cls-9" cx="18.13" cy="23.87" r="1.5"/></g><circle class="cls-10" cx="19.13" cy="23.87" r="0.5"/><g class="cls-11"><path d="M557,285.76a13.07,13.07,0,0,1,7.11-1.24,14.89,14.89,0,0,1,6.79,2.66,30.48,30.48,0,0,1,9.23,11.23,48.23,48.23,0,0,1,4.68,13.82,39.61,39.61,0,0,1,.61,7.3,22,22,0,0,1-1.21,7.26l-.07.18-.16.06a7.06,7.06,0,0,0-3.94,3.41,9.53,9.53,0,0,0-.63,5.33,28.59,28.59,0,0,0,1.33,5.4c.57,1.77,1.33,3.49,1.8,5.31-.59-1.78-1.43-3.45-2.08-5.21a27.47,27.47,0,0,1-1.57-5.43,10.18,10.18,0,0,1,.53-5.69,7.88,7.88,0,0,1,4.24-3.89l-.23.24a21.64,21.64,0,0,0,1.09-7,38.75,38.75,0,0,0-.67-7.12,50.47,50.47,0,0,0-4.52-13.58,40.32,40.32,0,0,0-3.77-6.08,24.32,24.32,0,0,0-5-5.06,15,15,0,0,0-6.48-2.8A13.38,13.38,0,0,0,557,285.76Z" transform="translate(-535.37 -279.61)"/></g><g class="cls-12"><path d="M553.5,289.48a15,15,0,0,1,7.28-1.71,17.25,17.25,0,0,1,7.34,1.78,16.29,16.29,0,0,1,5.9,4.81,15.54,15.54,0,0,1,3,7.05v-.07a13.51,13.51,0,0,1,.58,3.53,11.54,11.54,0,0,1-.56,3.53,18.32,18.32,0,0,0-.8,3.27,9.48,9.48,0,0,0,.25,3.26l0-.13a16.7,16.7,0,0,0,1.07,1.57,2.49,2.49,0,0,1,.32.48,1.71,1.71,0,0,1,.14.62c0,.37,0,.68,0,1v0a6.6,6.6,0,0,1-.89,2.76c-.49.84-1.14,1.52-1.51,2.27a3,3,0,0,0,0,2.41,12.1,12.1,0,0,0,1.22,2.37l.09.15-.08.14a14.11,14.11,0,0,0-1.53,4.53,10.79,10.79,0,0,0,.1,4.83,10.42,10.42,0,0,1-.4-4.87,16.81,16.81,0,0,1,.47-2.43,9.83,9.83,0,0,1,.9-2.34v.29a12.52,12.52,0,0,1-1.37-2.46,3.7,3.7,0,0,1,0-2.92c.43-.91,1.05-1.6,1.45-2.36a6.22,6.22,0,0,0,.73-2.44v0c0-.32,0-.65,0-.93a1,1,0,0,0-.29-.65,15.35,15.35,0,0,1-1.14-1.63l0,0,0-.07a10.48,10.48,0,0,1-.31-3.58,19.3,19.3,0,0,1,.79-3.43,11.19,11.19,0,0,0,.51-3.26,12.17,12.17,0,0,0-.51-3.26v-.07a14.72,14.72,0,0,0-2.71-6.66,16.46,16.46,0,0,0-5.51-4.71,17.36,17.36,0,0,0-7-2A15.55,15.55,0,0,0,553.5,289.48Z" transform="translate(-535.37 -279.61)"/></g><g class="cls-13"><path d="M558,282.65a23.8,23.8,0,0,1,4.38-.5,11.07,11.07,0,0,1,2.22.16c.38.08.74.2,1.07.28a5.45,5.45,0,0,0,1.05.16,9.59,9.59,0,0,0,1.07,0,3.29,3.29,0,0,1,1.19.09,2.49,2.49,0,0,1,1,.7l.79.77,1.58,1.53a15.11,15.11,0,0,1,1.54,1.64,6.67,6.67,0,0,0,1.37,1.58c.55.45,1.14.84,1.76,1.26a14.14,14.14,0,0,1,3.3,3.06,38.82,38.82,0,0,0,3,3.2,19.08,19.08,0,0,1,3,3.4c.4.65.73,1.31,1.06,2s.66,1.29,1,2a8.22,8.22,0,0,1,.52,2.27,4,4,0,0,0,.39,1.9,4.32,4.32,0,0,0,1.58,1.12c.65.3,1.32.55,2,.79,1.38.47,2.76.93,4.16,1.32.69.19,1.43.37,2.14.64a20.64,20.64,0,0,1,2,.92,43.63,43.63,0,0,1,3.89,2.14,4.21,4.21,0,0,1,1.42,1.77c.33.66.62,1.34.9,2s.56,1.36.87,2a7.38,7.38,0,0,0,.53,1,1.29,1.29,0,0,0,.82.66,1.34,1.34,0,0,1-.88-.61,7.12,7.12,0,0,1-.6-.94c-.36-.64-.66-1.31-1-2s-.64-1.31-1-1.95a3.75,3.75,0,0,0-1.37-1.55c-1.21-.74-2.58-1.34-3.88-2a20.12,20.12,0,0,0-2-.83c-.67-.24-1.37-.38-2.09-.56-1.44-.34-2.86-.77-4.25-1.24-.71-.24-1.41-.5-2.1-.8a5.12,5.12,0,0,1-2-1.41,2.9,2.9,0,0,1-.46-1.22c-.05-.39-.07-.76-.11-1.11a6.8,6.8,0,0,0-.48-2c-.58-1.26-1.28-2.63-2-3.83a18.3,18.3,0,0,0-2.77-3.25,38.62,38.62,0,0,1-3-3.29,13.21,13.21,0,0,0-3.09-2.93,21.92,21.92,0,0,1-1.8-1.33,7.68,7.68,0,0,1-1.46-1.76,14,14,0,0,0-1.41-1.61l-1.53-1.58-.77-.79a1.9,1.9,0,0,0-.75-.59,16.5,16.5,0,0,0-2.12-.13,10.35,10.35,0,0,1-2.16-.55,10.9,10.9,0,0,0-2.14-.27A29.17,29.17,0,0,0,558,282.65Z" transform="translate(-535.37 -279.61)"/></g><g class="cls-14"><path d="M577.5,293c1.63,2,3.21,4.12,4.92,6a1.68,1.68,0,0,0,.67.52,5.06,5.06,0,0,0,.91.22,1.59,1.59,0,0,1,1,.57,2.11,2.11,0,0,1,.32,1.1,15.57,15.57,0,0,1-.16,2,5.88,5.88,0,0,0,0,1.83,7.88,7.88,0,0,0,.68,1.72c.28.59.57,1.16.84,1.79a12.85,12.85,0,0,1,.87,3.93,13.23,13.23,0,0,0,.26,1.86,3.58,3.58,0,0,0,.29.82,1.12,1.12,0,0,0,.49.47,9.93,9.93,0,0,0,3.62.58c.65,0,1.31.09,2,.19a7.9,7.9,0,0,1,1,.24l.52.21a2.57,2.57,0,0,0,.41.19,25,25,0,0,1,3.73,1.41,2.28,2.28,0,0,1,.81.87,2,2,0,0,1,.2,1.19,4.62,4.62,0,0,1-.8,2c-.35.57-.72,1.1-1,1.64a2.39,2.39,0,0,0-.39,1.59,1.86,1.86,0,0,0,.12.38c.07.13.13.27.21.4a5.53,5.53,0,0,0,.53.74,7.9,7.9,0,0,0,1.39,1.25,15.79,15.79,0,0,0,1.63,1,11.93,11.93,0,0,1,1.73,1,3.65,3.65,0,0,1,1.11,1.73,6.35,6.35,0,0,1,.19,2c0,.69-.23,1.3-.27,1.95a2.47,2.47,0,0,0,.09.94,1.16,1.16,0,0,0,.66.66,1.17,1.17,0,0,1-.73-.63,2.36,2.36,0,0,1-.17-1c0-.66.17-1.31.16-1.94A4,4,0,0,0,604,331.1a13.17,13.17,0,0,0-1.68-.89,16.6,16.6,0,0,1-1.73-1,7.7,7.7,0,0,1-1.55-1.31,5.58,5.58,0,0,1-.63-.82,4,4,0,0,1-.26-.45,2.58,2.58,0,0,1-.2-.55,3.11,3.11,0,0,1,.4-2.14c.31-.62.69-1.16,1-1.7.69-1.05,1-2.29,0-2.83a26.55,26.55,0,0,0-3.59-1.28c-.16-.06-.32-.14-.48-.21l-.39-.16a6.11,6.11,0,0,0-.87-.19c-.62-.09-1.26-.12-1.9-.16s-1.31-.08-2-.17a5.77,5.77,0,0,1-2.05-.58,2.05,2.05,0,0,1-.87-.88,4.7,4.7,0,0,1-.34-1,13.06,13.06,0,0,1-.26-2,12.19,12.19,0,0,0-.77-3.68,22,22,0,0,1-1.47-3.69c-.24-1.42.23-2.76.25-4a1.51,1.51,0,0,0-.17-.77,1,1,0,0,0-.65-.37,6.15,6.15,0,0,1-1-.28,2.14,2.14,0,0,1-.84-.69C580.43,297.28,579,295.15,577.5,293Z" transform="translate(-535.37 -279.61)"/></g><g class="cls-13"><path d="M568.5,293.48a6.44,6.44,0,0,1,2.76,3,4.94,4.94,0,0,1,.93,1.86,6.4,6.4,0,0,1-.1,2.1c-.11.68-.31,1.35-.45,2a2.11,2.11,0,0,0,.2,1.75c.68,1,2,1.81,2.41,3.41a3.59,3.59,0,0,1-.42,2.21,5.16,5.16,0,0,0-.6,1.77,10.19,10.19,0,0,0,.14,1.94l.26,2a9.09,9.09,0,0,0,.51,1.9,1.17,1.17,0,0,1,0,.78,2.08,2.08,0,0,1-.35.59c-.25.28-.49.52-.72.77a18.67,18.67,0,0,0-2.59,3,3.7,3.7,0,0,0-.51,1.72c0,.28,0,.69-.06,1a7.78,7.78,0,0,1-.21,1.07,8.66,8.66,0,0,1-.81,2,6.81,6.81,0,0,1-.6.91c-.2.28-.53.59-.66.76a7.87,7.87,0,0,0-.74,1.75,4.23,4.23,0,0,1-.49,1.05,1,1,0,0,1-.76.42c-.16,0-.35,0-.31,0a.22.22,0,0,0-.12,0,7.73,7.73,0,0,0-1.72.8c-.58.32-1.15.68-1.71,1.05a30.76,30.76,0,0,0-3.22,2.42,8.89,8.89,0,0,0-.69.68,2.64,2.64,0,0,1-.9.7,5.76,5.76,0,0,1-2.09.44,14,14,0,0,0-4,.31,12.67,12.67,0,0,0-1.9.69,5,5,0,0,0-1.68,1.13c1.89-2,4.92-2.63,7.56-2.62a5.4,5.4,0,0,0,1.87-.45,2.34,2.34,0,0,0,.68-.56,7.94,7.94,0,0,1,.73-.79,33,33,0,0,1,3.21-2.59c.57-.39,1.13-.78,1.73-1.14a8.07,8.07,0,0,1,2-.92,1.64,1.64,0,0,1,.58,0s0,0,.09-.08a3.27,3.27,0,0,0,.35-.81,7.64,7.64,0,0,1,.85-2c.28-.37.47-.51.66-.79a6,6,0,0,0,.51-.8,7.17,7.17,0,0,0,.7-1.78,7.05,7.05,0,0,0,.22-1.93,4.74,4.74,0,0,1,.63-2.16,19.33,19.33,0,0,1,2.77-3.15c.23-.24.47-.48.67-.71a1.58,1.58,0,0,0,.2-.27.48.48,0,0,0,0-.21,10.34,10.34,0,0,1-.52-2l-.24-2a11.27,11.27,0,0,1-.12-2.13,5.85,5.85,0,0,1,.71-2.06,2.73,2.73,0,0,0,.41-1.71,3.5,3.5,0,0,0-.86-1.6,17.75,17.75,0,0,1-1.33-1.62,2.22,2.22,0,0,1-.34-1.1,3.83,3.83,0,0,1,.13-1.09c.18-.68.39-1.31.53-2a6.2,6.2,0,0,0,.2-1.95,5,5,0,0,0-.79-1.79A6.66,6.66,0,0,0,568.5,293.48Z" transform="translate(-535.37 -279.61)"/></g><g class="cls-13"><path d="M569.51,304.91a4.28,4.28,0,0,1,1.61,2.21,2.71,2.71,0,0,1-.15,1.42l-.41,1.3a5.87,5.87,0,0,0-.43,2.49c.06.16.11.28.23.31a4,4,0,0,1,.65.36,1.75,1.75,0,0,1,.71,1.48,3.82,3.82,0,0,1-.44,1.44l-.51,1.24a25.84,25.84,0,0,1-1.14,2.53,4.93,4.93,0,0,1-.87,1.21,10.94,10.94,0,0,0-.87,1,3.87,3.87,0,0,0-.87,2.23,19.7,19.7,0,0,1-.16,2.78,3.51,3.51,0,0,1-.62,1.43,3.61,3.61,0,0,1-1.16,1c-.9.48-1.82.64-2.57,1a2.21,2.21,0,0,0-.91.69,12.24,12.24,0,0,0-.68,1.12,5.32,5.32,0,0,1-2,2.06,9,9,0,0,1-2.64.9,12.85,12.85,0,0,0-4.79,2.39,12.07,12.07,0,0,1,4.65-2.86,8.76,8.76,0,0,0,2.45-1,4.79,4.79,0,0,0,1.65-1.91,11.86,11.86,0,0,1,.68-1.23,3,3,0,0,1,1.2-1c.89-.43,1.79-.62,2.49-1a2.83,2.83,0,0,0,.84-.78,2.51,2.51,0,0,0,.44-1.05A21.94,21.94,0,0,0,566,324a4.9,4.9,0,0,1,1.1-2.76,12.06,12.06,0,0,1,1-1,4.7,4.7,0,0,0,.73-1,24.36,24.36,0,0,0,1.15-2.41c.18-.41.35-.83.56-1.26a2.76,2.76,0,0,0,.43-1.12,1,1,0,0,0-.37-.89,2.94,2.94,0,0,0-.53-.32,1.1,1.1,0,0,1-.53-.76,3.42,3.42,0,0,1,.14-1.48,12,12,0,0,1,.44-1.32l.51-1.26a2.22,2.22,0,0,0,.25-1.24A4.47,4.47,0,0,0,569.51,304.91Z" transform="translate(-535.37 -279.61)"/></g><g class="cls-14"><path d="M586.67,318.07a38.74,38.74,0,0,0,2.7,3.53c.92,1.07,2.17,2.23,2.29,4a3.57,3.57,0,0,1-.78,2.33,14.81,14.81,0,0,1-1.62,1.64,9,9,0,0,0-2.58,3.25,2,2,0,0,0,.19,1.73,7.91,7.91,0,0,0,1.37,1.56,31.34,31.34,0,0,0,3.5,2.63,9.38,9.38,0,0,1,1.79,1.49,3.22,3.22,0,0,1,.37,2.36,8.47,8.47,0,0,1-.73,2.16,4.75,4.75,0,0,1-1.36,1.77,5.12,5.12,0,0,0,1.11-1.88,7.8,7.8,0,0,0,.49-2.11,2.78,2.78,0,0,0-.38-1.91,9.66,9.66,0,0,0-1.71-1.24,26,26,0,0,1-3.72-2.57A8.36,8.36,0,0,1,586,335a3,3,0,0,1-.31-2.54,5.9,5.9,0,0,1,1.28-2,17.56,17.56,0,0,1,1.63-1.6,13.1,13.1,0,0,0,1.56-1.48,2.93,2.93,0,0,0,.71-1.77,3.66,3.66,0,0,0-.62-1.91,21.53,21.53,0,0,0-1.3-1.77A29.28,29.28,0,0,1,586.67,318.07Z" transform="translate(-535.37 -279.61)"/></g><g class="cls-12"><path d="M546.12,320.9c-.23-.08-.38.15-.49.32a4.57,4.57,0,0,0-.32.58c-.19.39-.36.81-.55,1.22a11,11,0,0,1-.64,1.22,5.06,5.06,0,0,1-.44.57,6.12,6.12,0,0,0-.39.5,4.91,4.91,0,0,0-.91,2.25,5.92,5.92,0,0,0,.31,2.46,11.07,11.07,0,0,1,.43,2.77,3.77,3.77,0,0,1-.35,1.47,4.46,4.46,0,0,1-.87,1.17L540,337.36a5.49,5.49,0,0,0-1.53,2.12,2.5,2.5,0,0,1,.42-1.29,12.42,12.42,0,0,1,.73-1.15c.53-.73,1.1-1.43,1.66-2.12a3,3,0,0,0,.86-2.15,10.48,10.48,0,0,0-.45-2.5,6.53,6.53,0,0,1-.27-2.84,5.37,5.37,0,0,1,1.23-2.6,5.91,5.91,0,0,1,.48-.52,4.52,4.52,0,0,0,.43-.45,10.79,10.79,0,0,0,.74-1.08c.25-.37.49-.75.75-1.12a5.35,5.35,0,0,1,.43-.54C545.66,321,545.9,320.76,546.12,320.9Z" transform="translate(-535.37 -279.61)"/></g><g class="cls-14"><path d="M551.5,321.2c-1.63.31-3.26,1-3.86,2.45a5.84,5.84,0,0,0-.45,2.26,20.05,20.05,0,0,0,.09,2.44,25.28,25.28,0,0,1,.08,5.08,6.16,6.16,0,0,1-.85,2.48,4.06,4.06,0,0,1-2,1.57,4.32,4.32,0,0,0,1.58-1.82,6.21,6.21,0,0,0,.5-2.31,41.61,41.61,0,0,0-.3-4.92c-.08-1.66-.23-3.49.67-5.14a3.88,3.88,0,0,1,2-1.73A6.7,6.7,0,0,1,551.5,321.2Z" transform="translate(-535.37 -279.61)"/></g><g class="cls-14"><path d="M558,317.45a3.09,3.09,0,0,1,.32,2.56,6.26,6.26,0,0,1-1.44,2.22c-.58.64-1.21,1.23-1.75,1.86a5,5,0,0,0-1.18,2v0a30.34,30.34,0,0,1-2.88,8.92,18,18,0,0,1-2.69,3.87,9.37,9.37,0,0,1-3.88,2.58,11,11,0,0,0,3.45-3,19.85,19.85,0,0,0,2.33-3.89A39,39,0,0,0,553,325.9v0h0a5.5,5.5,0,0,1,1.5-2.32c.62-.63,1.29-1.17,1.9-1.75a7.24,7.24,0,0,0,1.54-1.92A3.1,3.1,0,0,0,558,317.45Z" transform="translate(-535.37 -279.61)"/></g><g class="cls-13"><path d="M549.5,295.43a10.27,10.27,0,0,0,1.8-.14,2,2,0,0,0,.72-.39c.22-.17.38-.41.67-.64a2.42,2.42,0,0,1,1.94-.36c.63.11,1.19.37,1.79.53a18,18,0,0,1-1.84-.15,2.36,2.36,0,0,0-1.59.38c-.2.14-.4.41-.68.62a2.08,2.08,0,0,1-.93.39A5.07,5.07,0,0,1,549.5,295.43Z" transform="translate(-535.37 -279.61)"/></g><g class="cls-13"><path d="M546.79,295.74c.89.22,1.67.76,2.49,1a2.61,2.61,0,0,0,.61.11,5.36,5.36,0,0,1,.69.06,3,3,0,0,0,1.23,0,1.91,1.91,0,0,0,1-.7,1.79,1.79,0,0,1,1.32-.65,10.77,10.77,0,0,1,2.7.53,24.64,24.64,0,0,0-2.65-.15,1.48,1.48,0,0,0-1,.57,2.36,2.36,0,0,1-1.18.88,3.33,3.33,0,0,1-1.44,0l-.65-.09a2.39,2.39,0,0,1-.71-.18C548.27,296.75,547.6,296.15,546.79,295.74Z" transform="translate(-535.37 -279.61)"/></g><ellipse class="cls-4" cx="546.5" cy="309.54" rx="1.3" ry="0.94" transform="translate(-595.14 -134.15) rotate(-14.38)"/><path class="cls-15" d="M544,318.07s-4-3.5,0-5.79,7-2.71,8,0a7.73,7.73,0,0,0,3,3.85Z" transform="translate(-535.37 -279.61)"/><g class="cls-14"><path class="cls-9" d="M555.49,307.47a6.91,6.91,0,0,1,2.69.5,3,3,0,0,0,2.92,0" transform="translate(-535.37 -279.61)"/><path d="M555.49,307.47a7.12,7.12,0,0,1,1.46,0,3.57,3.57,0,0,1,1.42.44,2.91,2.91,0,0,0,1.34.32,3.36,3.36,0,0,0,1.39-.28,2.87,2.87,0,0,1-2.85.18,3.58,3.58,0,0,0-1.33-.47C556.45,307.59,556,307.52,555.49,307.47Z" transform="translate(-535.37 -279.61)"/></g><g class="cls-14"><path class="cls-9" d="M554.49,308.47a6.91,6.91,0,0,1,2.69.5,3,3,0,0,0,2.92,0" transform="translate(-535.37 -279.61)"/><path d="M554.49,308.47a7.12,7.12,0,0,1,1.46,0,3.57,3.57,0,0,1,1.42.44,2.91,2.91,0,0,0,1.34.32,3.36,3.36,0,0,0,1.39-.28,2.87,2.87,0,0,1-2.85.18,3.58,3.58,0,0,0-1.33-.47C555.45,308.59,555,308.52,554.49,308.47Z" transform="translate(-535.37 -279.61)"/></g></svg>