<svg id="Calque_4" data-name="Calque 4" xmlns="http://www.w3.org/2000/svg" xmlns:xlink="http://www.w3.org/1999/xlink" viewBox="0 0 22.1 32.05"><defs><style>.cls-1,.cls-8{fill:none;}.cls-1{stroke:#b26427;stroke-width:2px;}.cls-1,.cls-2,.cls-3,.cls-8{stroke-miterlimit:10;}.cls-2,.cls-3{stroke:#1d1d1b;stroke-width:0.1px;}.cls-2{fill:url(#Dégradé_sans_nom_118);}.cls-3{fill:url(#Dégradé_sans_nom_118-2);}.cls-4{fill:url(#Dégradé_sans_nom_149);}.cls-5{fill:url(#Dégradé_sans_nom_159);}.cls-6{fill:#c17b4b;}.cls-7{fill:#8f5730;}.cls-8{stroke:#8f5730;}</style><linearGradient id="Dégradé_sans_nom_118" x1="0.18" y1="30.86" x2="21.92" y2="30.86" gradientUnits="userSpaceOnUse"><stop offset="0" stop-color="#4b4c4b"/><stop offset="0.07" stop-color="#646464"/><stop offset="0.17" stop-color="#848484"/><stop offset="0.29" stop-color="#9e9e9e"/><stop offset="0.41" stop-color="#b3b3b3"/><stop offset="0.55" stop-color="#c1c1c1"/><stop offset="0.72" stop-color="#c9c9c9"/><stop offset="1" stop-color="#ccc"/></linearGradient><linearGradient id="Dégradé_sans_nom_118-2" x1="459.57" y1="210.71" x2="481.57" y2="210.71" gradientTransform="matrix(1, 0, 0, -1, -459.52, 223.71)" xlink:href="#Dégradé_sans_nom_118"/><linearGradient id="Dégradé_sans_nom_149" x1="3.55" y1="22.34" x2="18.23" y2="22.34" gradientUnits="userSpaceOnUse"><stop offset="0" stop-color="#dc7650" stop-opacity="0.2"/><stop offset="0.53" stop-color="#f2c21d" stop-opacity="0.2"/><stop offset="1" stop-color="#ffed00" stop-opacity="0.2"/></linearGradient><radialGradient id="Dégradé_sans_nom_159" cx="470.88" cy="267.99" r="3.65" gradientUnits="userSpaceOnUse"><stop offset="0.43" stop-color="#dc7650"/><stop offset="0.53" stop-color="#de7e4b" stop-opacity="0.97"/><stop offset="0.67" stop-color="#e5953b" stop-opacity="0.87"/><stop offset="0.83" stop-color="#f0ba22" stop-opacity="0.71"/><stop offset="1" stop-color="#ffed00" stop-opacity="0.5"/></radialGradient></defs><rect class="cls-1" x="3.29" y="14.42" width="15.53" height="15.53"/><rect class="cls-2" x="0.18" y="29.72" width="21.74" height="2.28" rx="0.76"/><rect class="cls-3" x="0.05" y="12" width="22" height="2" rx="0.76"/><rect class="cls-4" x="3.55" y="15" width="14.68" height="14.68" rx="2.22"/><path class="cls-5" d="M467.75,269.32a3.71,3.71,0,0,0,.67,1.34,3.41,3.41,0,0,0,2.33,1.33,3.36,3.36,0,0,0,3.34-2.67c.21-1.18-.44-2.37-.67-2.33s-.15,1.65-.33,1.66-.44-2.34-.67-2.33-.29,2.34-.33,2.33.12-4.33,0-4.33-.28,2-.33,2a16.68,16.68,0,0,0,0-2c-.15,0-.54,2-.67,2s.09-2,0-2-.36,2.34-.67,2.33-.49-2.68-.67-2.67-.11,3.33-.33,3.34-.47-2.68-.67-2.67-.14,3-.33,3-.15-1-.34-1S467.4,268,467.75,269.32Z" transform="translate(-459.52 -245.98)"/><path class="cls-1" d="M463,261s11.37,9.37,15,13" transform="translate(-459.52 -245.98)"/><line class="cls-1" x1="3.5" y1="28.52" x2="18.48" y2="15"/><polygon class="cls-6" points="3.55 12 10.89 4.59 18.48 12 3.55 12"/><polygon class="cls-7" points="10.89 4.59 7.85 12 3.55 12 10.89 4.59"/><circle class="cls-8" cx="10.98" cy="2.5" r="2"/></svg>