<svg xmlns="http://www.w3.org/2000/svg" xmlns:xlink="http://www.w3.org/1999/xlink" viewBox="0 0 1583.67 860.11"><defs><style>.cls-1{fill:#cec791;stroke:#754c24;stroke-width:21px;}.cls-1,.cls-10,.cls-11,.cls-12,.cls-15,.cls-16,.cls-17,.cls-18,.cls-2,.cls-21,.cls-22,.cls-24,.cls-26,.cls-27,.cls-28,.cls-29,.cls-3,.cls-30,.cls-31,.cls-32,.cls-33,.cls-34,.cls-36,.cls-37,.cls-4,.cls-5,.cls-6,.cls-7{stroke-miterlimit:10;}.cls-19,.cls-2{fill:#c69c6d;}.cls-10,.cls-11,.cls-12,.cls-15,.cls-16,.cls-17,.cls-18,.cls-2,.cls-21,.cls-26,.cls-27,.cls-28,.cls-29,.cls-3,.cls-30,.cls-31,.cls-32,.cls-34,.cls-36,.cls-4,.cls-5,.cls-6,.cls-7{stroke:#000;}.cls-16,.cls-17,.cls-2,.cls-21,.cls-22,.cls-26,.cls-3,.cls-4,.cls-5,.cls-6,.cls-7{stroke-width:0.25px;}.cls-4{fill:url(#Dégradé_sans_nom_22);}.cls-5{fill:url(#Dégradé_sans_nom_25);}.cls-6{fill:#ede1d9;}.cls-7{fill:#d1c318;}.cls-8{fill:url(#Dégradé_sans_nom_29);}.cls-9{fill:url(#Dégradé_sans_nom_29-2);}.cls-10{fill:#50322f;}.cls-11,.cls-18,.cls-26,.cls-27,.cls-33{fill:none;}.cls-12{opacity:0.18;}.cls-13,.cls-15{opacity:0.27;}.cls-14{opacity:0.29;}.cls-16,.cls-34{fill:#f1c089;}.cls-17{fill:url(#Dégradé_sans_nom_30);}.cls-18,.cls-24{stroke-width:0.5px;}.cls-18{opacity:0.46;}.cls-20,.cls-21,.cls-22,.cls-30{fill:#fff;}.cls-22{stroke:#fff;}.cls-23{fill:#cda980;}.cls-24{fill:#603813;stroke:#603813;opacity:0.04;}.cls-25{fill:#e85252;}.cls-27,.cls-28,.cls-29,.cls-30,.cls-31,.cls-32,.cls-34{stroke-width:0.15px;}.cls-28{fill:url(#Dégradé_sans_nom_7);}.cls-29{fill:url(#Dégradé_sans_nom_7-2);}.cls-31{fill:url(#Dégradé_sans_nom_7-3);}.cls-32{fill:url(#Dégradé_sans_nom_7-4);}.cls-33{stroke:#ebdbcb;}.cls-35{fill:#a67c52;}.cls-37{fill:#333;stroke:#333;opacity:0.28;}</style><linearGradient id="Dégradé_sans_nom_22" x1="359.24" y1="746.18" x2="556.71" y2="548.71" gradientUnits="userSpaceOnUse"><stop offset="0" stop-opacity="0.6"/><stop offset="0.03" stop-color="#040e06" stop-opacity="0.63"/><stop offset="0.3" stop-color="#2a8537" stop-opacity="0.89"/><stop offset="0.42" stop-color="#39b54a"/></linearGradient><linearGradient id="Dégradé_sans_nom_25" x1="458.57" y1="735.54" x2="680.19" y2="513.92" gradientUnits="userSpaceOnUse"><stop offset="0" stop-opacity="0.9"/><stop offset="0.03" stop-color="#040e06" stop-opacity="0.91"/><stop offset="0.3" stop-color="#2a8537" stop-opacity="0.97"/><stop offset="0.42" stop-color="#39b54a"/></linearGradient><linearGradient id="Dégradé_sans_nom_29" x1="592.99" y1="557.42" x2="629.33" y2="521.09" gradientTransform="translate(14.06 -19.56) rotate(2.8)" gradientUnits="userSpaceOnUse"><stop offset="0" stop-opacity="0.9"/><stop offset="0.22" stop-color="#0f3013" stop-opacity="0.93"/><stop offset="0.71" stop-color="#34a644" stop-opacity="0.99"/><stop offset="0.77" stop-color="#39b54a"/></linearGradient><linearGradient id="Dégradé_sans_nom_29-2" x1="615.44" y1="491.32" x2="646.61" y2="460.15" gradientTransform="translate(102.31 -108.28) rotate(17.72)" xlink:href="#Dégradé_sans_nom_29"/><linearGradient id="Dégradé_sans_nom_30" x1="476.03" y1="583.81" x2="531.21" y2="488.23" gradientUnits="userSpaceOnUse"><stop offset="0"/><stop offset="0.22" stop-color="#0f3013"/><stop offset="0.71" stop-color="#34a644"/><stop offset="0.77" stop-color="#39b54a"/></linearGradient><linearGradient id="Dégradé_sans_nom_7" x1="509.97" y1="393.15" x2="528.67" y2="393.15" gradientUnits="userSpaceOnUse"><stop offset="0" stop-color="#fff"/><stop offset="0.17" stop-color="#feffff" stop-opacity="0.99"/><stop offset="0.27" stop-color="#fbfdfe" stop-opacity="0.96"/><stop offset="0.36" stop-color="#f6fbfe" stop-opacity="0.9"/><stop offset="0.43" stop-color="#eef8fd" stop-opacity="0.83"/><stop offset="0.5" stop-color="#e5f5fb" stop-opacity="0.73"/><stop offset="0.57" stop-color="#d9f0fa" stop-opacity="0.6"/><stop offset="0.63" stop-color="#cbeaf8" stop-opacity="0.45"/><stop offset="0.69" stop-color="#bbe4f6" stop-opacity="0.29"/><stop offset="0.74" stop-color="#a9ddf3" stop-opacity="0.1"/><stop offset="0.77" stop-color="#a1daf2" stop-opacity="0.15"/><stop offset="0.82" stop-color="#8dd2ef" stop-opacity="0.3"/><stop offset="0.89" stop-color="#6bc5eb" stop-opacity="0.53"/><stop offset="0.97" stop-color="#3db3e5" stop-opacity="0.86"/><stop offset="1" stop-color="#29abe2"/></linearGradient><linearGradient id="Dégradé_sans_nom_7-2" x1="508.61" y1="394.31" x2="527.32" y2="394.31" xlink:href="#Dégradé_sans_nom_7"/><linearGradient id="Dégradé_sans_nom_7-3" x1="476.29" y1="393.41" x2="494.98" y2="393.41" xlink:href="#Dégradé_sans_nom_7"/><linearGradient id="Dégradé_sans_nom_7-4" x1="477.63" y1="394.58" x2="496.34" y2="394.58" xlink:href="#Dégradé_sans_nom_7"/></defs><g id="Calque_18" data-name="Calque 18"><rect class="cls-1" x="10.5" y="10.5" width="1562.67" height="839.11" rx="12"/></g><g id="macgonagale"><g id="cou"><polygon class="cls-2" points="478.39 420.62 479.84 441.64 490.33 450.99 501.76 441.64 505.34 420.15 478.39 420.62"/><path class="cls-3" d="M487,450.22s-.59,6.83,0,9,9.76,6.47,10.75,7.91,4.22,2.88,7.46,2.52S518,460.75,518,460.75s1.62-10.89,0-10.53a26.33,26.33,0,0,0-3.6,1.18l-11.43,9.35-10.49-9.35S489.28,448.06,487,450.22Z" transform="translate(-12.61 -9.76)"/><path class="cls-3" d="M487.85,459.25a3.9,3.9,0,0,0-1.66.28l-13.3,5.36-8.81,3.55a3.93,3.93,0,0,0-2.37,4.52c5,21.79,33.12,146.28,31.37,179.39-1.65,31.36-49.74,119.93-62.88,143.58a3.93,3.93,0,0,0,3.45,5.84c17.6-.08,64.08-.26,71,0s33.85-2.1,43.9-3a3.91,3.91,0,0,0,3.55-4.16c-2.39-36.33-20.82-320.36-13.41-326.42,7.91-6.47-20.68-7.45-20.68-7.45Z" transform="translate(-12.61 -9.76)"/><path class="cls-4" d="M447.11,474.5l24.16-11.23L508.35,545,485.11,800.18s-1.9,13.85-13.84,8.09-17-20.14-24.16-15.82-10.07,8.63-13.67,12.23-14.38,6.47-14.38-.72,52.18-227.32,52.18-227.32Z" transform="translate(-12.61 -9.76)"/><path class="cls-5" d="M632.43,466.66c-6.47,1.76-49.28,22-49.28,22l-21.81-18-24.16-11.22L500.1,541.18l23.24,255.19s1.91,13.84,13.84,8.09,17-20.14,24.16-15.83,10.07,8.64,13.67,12.23,14.39,6.48,14.39-.72c0-12.78-1.21-12.28-52.19-227.31,0,0-4.09-13.08,8-10s12.37,8.63,17.4,10.79,10.69-3.24,16.12.36,5,3.53,8.61,1.37,9.35-2.16,18-1.44,7.92,7.19,16.55,11.23,11.51-4.76,15.11-13.39S638.91,464.9,632.43,466.66Z" transform="translate(-12.61 -9.76)"/><g id="Calque_11" data-name="Calque 11"><path class="cls-6" d="M461,468.06l10.31-4.79L508.35,545l-22.71,249.4s1.47,12.91-8,15.28-9.48-3.18-9.48-3.18l30.37-257.72Z" transform="translate(-12.61 -9.76)"/><path class="cls-6" d="M547.5,464.25l-10.32-4.79L500.1,541.18l22.72,249.39s-1.48,12.91,8,15.29,9.48-3.19,9.48-3.19L509.93,545Z" transform="translate(-12.61 -9.76)"/><path class="cls-7" d="M494.77,533.3s6.88-3.95,7.94-6.11-.27.49.87,2.16,4,3.95,4.77,3.95-3.63,10.45-5.64,12.41S494.77,533.3,494.77,533.3Z" transform="translate(-12.61 -9.76)"/></g><path class="cls-8" d="M599.29,512.77S588.57,540.34,588,552.55s-.63,22.77-.63,22.77,4.36-1.73,13.35-1.76c6.46,0,7.89,1,7.89,1s11.9-24,8.91-36.39S599.29,512.77,599.29,512.77Z" transform="translate(-12.61 -9.76)"/><path class="cls-9" d="M567.93,506.9s-10.86,26-14.58,37.63-5.85,18.91-5.85,18.91a19,19,0,0,0,2.13.72,12.72,12.72,0,0,1,2.76,1.21s10.07-21.69,12.9-33.63A116.48,116.48,0,0,0,567.93,506.9Z" transform="translate(-12.61 -9.76)"/><g id="Calque_12" data-name="Calque 12"><polygon class="cls-10" points="636.16 660.56 615.35 553.49 631.9 552.52 677.57 717.69 648.88 718.25 636.16 660.56"/><path class="cls-10" d="M676.22,556.26c-26.93,8.2-54.76,2.1-85.8-1.4-47.06-5.31-68.78-21.78-28.19-18.94,0,0,1.88.61,5.09,1.58h0c1.25.77,41.58,25.48,60.37,25.48,19.08,0,44.14-5.33,48.52-6.73s8.76-4.36,11.9-6,21.33-14.07,21.33-14.07C717.35,536.87,716.37,544,676.22,556.26Z" transform="translate(-12.61 -9.76)"/><path class="cls-10" d="M709.45,536.18s-18.2,12.42-21.33,14.07-7.52,4.61-11.9,6S646.78,563,627.7,563c-6.54,0-15.7-3-24.91-6.94a311.91,311.91,0,0,1-35.46-18.54c12.74,3.89,46.28,13.59,63.8,13.59,21.92,0,65.13-13.61,65.13-13.61S704.07,535.72,709.45,536.18Z" transform="translate(-12.61 -9.76)"/><path class="cls-11" d="M567.33,537.51h0" transform="translate(-12.61 -9.76)"/><path class="cls-10" d="M599.35,546.21s.46-17.66,3-20.79a12.65,12.65,0,0,0,3.13-8.77c0-3.13-3.76-12.92,0-16.79s6.89-4.5,6.89-12.64-2.51-12.18,0-20.18,3.13-3.18,5-11.85,1.88-15.57,5-15.57,5.13-6.44,4.76-12.92-3.92-12.55,0-11.71,22.13-25.55,22.13-25.55-6.89,24.71-5,25.55,3.76-.42,1.88,5.22-4.39,10.1-1.88,13.82,5.63,6.22,5,8.73.62,8.57,3.13,12.43,4.38,7.57,3.76,15.42-4.14,20.13.12,22.75,7.39,5.13,5.51,10.14-3.75,13.78-4.38,16.91,1.11,3.76,4.94,3.76,7,10.32,7.58,11.42,3.24,8.38,3.24,8.38-7,7.13-15.13,10.26-24.3,7.65-30.94,5.08" transform="translate(-12.61 -9.76)"/><path class="cls-12" d="M627.12,535.47s-2.44-11.61,0-13.49,5.38-4.23,5.38-4.23v6.11Z" transform="translate(-12.61 -9.76)"/><path class="cls-13" d="M634,506.27a4.71,4.71,0,0,1-5.54.38c-3.52-2.17-9.63-6.39-11.17-10.35-2.19-5.64-7.83,5.32-5,9.71s19.1,6.89,19.1,6.89,19.41-2.19,20.35-5.64,3.45-7.83,0-9.39-5.32-2.82-8.76-.63C640.36,498.9,637.16,503.55,634,506.27Z" transform="translate(-12.61 -9.76)"/><g class="cls-14"><path d="M636.27,501.08a26,26,0,0,1,2.82-3.8,16.58,16.58,0,0,1,3.63-3.13,6.86,6.86,0,0,1,4.77-1.09,6.07,6.07,0,0,1,3.81,2.85,7.06,7.06,0,0,0-3.93-2.08,6.87,6.87,0,0,0-4.14,1.18,23.3,23.3,0,0,0-3.59,2.82C638.51,498.88,637.4,500,636.27,501.08Z" transform="translate(-12.61 -9.76)"/></g><g class="cls-14"><path d="M627.12,502.29c-.92-1.19-1.82-2.38-2.74-3.52a22.92,22.92,0,0,0-3-3.14,7.81,7.81,0,0,0-3.72-1.83,7.28,7.28,0,0,0-4.18.79,6.12,6.12,0,0,1,4.26-1.57,7.51,7.51,0,0,1,4.27,1.84,15.84,15.84,0,0,1,3,3.45A23.33,23.33,0,0,1,627.12,502.29Z" transform="translate(-12.61 -9.76)"/></g><path class="cls-15" d="M611.58,548.07s8.45-7.18,12.52-7.7,2.51,2.86,6.89,4.46,4.17,2.07,10.07,3.24l5.9,1.18s-16.91,2.18-19.42,1.56-5.32,0-8.14,0S612.83,550.34,611.58,548.07Z" transform="translate(-12.61 -9.76)"/><polygon class="cls-10" points="590.04 658.42 598.89 549.7 615.09 553.23 614.51 724.6 586.74 717.4 590.04 658.42"/></g><path class="cls-16" d="M615.65,522.87l-7.3,1.84a4.54,4.54,0,0,0-1.07-.58,5.28,5.28,0,0,0,2-.71h.1l8.18-2.07c1.13-.28,1.74-1.2,1.36-2a2.39,2.39,0,0,0-2.74-1L608,520.35a2.2,2.2,0,0,0-1.06.59,10,10,0,0,0-1.37-.09H591.79l5.91-3.2a1.72,1.72,0,0,0,.61-2.81,3.34,3.34,0,0,0-3.76-.45L584.15,520a1.85,1.85,0,0,0-1.1,1.76,1.06,1.06,0,0,0-.52.79.86.86,0,0,0,.18.46H544.87c-2.47,0-4.49,1.51-4.49,3.36v5.9c0,1.85,2,3.36,4.49,3.36H585l.36,0a8,8,0,0,0,1,.07H605l.42,0a2.7,2.7,0,0,0,2.16.35l8.17-2.06c1.13-.28,1.74-1.2,1.36-2h0a2.4,2.4,0,0,0-2.73-1l-5.68,1.44s0-.05-.07-.07l.11-.1,7.5-1.89c1.13-.28,1.74-1.2,1.36-2a2.41,2.41,0,0,0-2.74-1l-7.71,1.95c-.24-.07-.48-.13-.74-.18a4.84,4.84,0,0,0,2-.92l.38-.07,8.18-2.06c1.12-.28,1.73-1.2,1.35-2A2.4,2.4,0,0,0,615.65,522.87Z" transform="translate(-12.61 -9.76)"/><path class="cls-17" d="M447.11,474.5s-12.66,51.88-14.93,71.39c-1.1,9.53,1.8,16.66,14.93,19.48s41.78,20.8,53,20.8,29.9-5.54,35.74,0,19,2.84,22.94,3.84,3.08-1.75,7.6-3.62,1.39-68.78-2.8-76.7.68-2.21-16.08-2.79-50.19,6-56.5-.15-16.37,1.45-22.85.15" transform="translate(-12.61 -9.76)"/><path class="cls-18" d="M604.84,525.93l1-.88" transform="translate(-12.61 -9.76)"/><path class="cls-18" d="M604.76,531a.93.93,0,0,0,1.19-.43" transform="translate(-12.61 -9.76)"/><path class="cls-18" d="M605.83,534.75l.24-1.19" transform="translate(-12.61 -9.76)"/></g><g id="tete"><circle class="cls-19" cx="513.31" cy="352.45" r="13.83"/><path class="cls-16" d="M507,438h-7.92c-10.68,0-30.93-33.32-30.93-44V359.94a19.48,19.48,0,0,1,19.42-19.42h28.3a19.48,19.48,0,0,1,19.42,19.42V394C535.29,404.67,517.68,438,507,438Z" transform="translate(-12.61 -9.76)"/></g><g id="yeux"><line class="cls-20" x1="500.32" y1="373.3" x2="515.55" y2="373.3"/><path d="M512.93,383.06a52.67,52.67,0,0,1,7.61-.5,50,50,0,0,1,7.62.5,58.24,58.24,0,0,1-15.23,0Z" transform="translate(-12.61 -9.76)"/><path class="cls-21" d="M516.53,383.54s-.36,7.31,2.88,7.43,3.71-7.43,3.71-7.43" transform="translate(-12.61 -9.76)"/><circle class="cls-3" cx="506.94" cy="378.84" r="1.59"/><circle class="cls-22" cx="505.88" cy="378.02" r="0.53"/><path class="cls-23" d="M527.35,380.23s0-.14,0-.12l0,.16Z" transform="translate(-12.61 -9.76)"/><path class="cls-23" d="M527.19,379.9a1.3,1.3,0,0,0-.15.35,1.83,1.83,0,0,0,.15-.25s0,.06,0,.12,0,0,.07-.06,0-.14-.12-.05A.35.35,0,0,1,527.19,379.9Z" transform="translate(-12.61 -9.76)"/><path class="cls-23" d="M525.45,379v0Z" transform="translate(-12.61 -9.76)"/><path class="cls-23" d="M524.28,378.51l0,0A.05.05,0,0,0,524.28,378.51Z" transform="translate(-12.61 -9.76)"/><path class="cls-23" d="M524.1,378.28v0S524.1,378.27,524.1,378.28Z" transform="translate(-12.61 -9.76)"/><path class="cls-23" d="M525.45,379l0-.06C525.41,378.94,525.43,378.94,525.45,379Z" transform="translate(-12.61 -9.76)"/><path class="cls-23" d="M526.76,380.15l0,0h0Z" transform="translate(-12.61 -9.76)"/><path class="cls-23" d="M526,379h0l0-.06Z" transform="translate(-12.61 -9.76)"/><path class="cls-23" d="M526.38,379.12s0,.12-.07.18a.25.25,0,0,1,0-.09Z" transform="translate(-12.61 -9.76)"/><path class="cls-23" d="M526.94,379.6h0Z" transform="translate(-12.61 -9.76)"/><path class="cls-23" d="M525.72,378.87l0,0Z" transform="translate(-12.61 -9.76)"/><path class="cls-23" d="M514.35,379.22v0Z" transform="translate(-12.61 -9.76)"/><polygon class="cls-23" points="501.13 368.93 501.13 368.92 501.1 368.85 501.13 368.93"/><path class="cls-23" d="M523.73,378Z" transform="translate(-12.61 -9.76)"/><path class="cls-23" d="M520.2,377.75c0,.13-.07.16,0,.31C520.18,378,520.25,377.84,520.2,377.75Z" transform="translate(-12.61 -9.76)"/><path class="cls-23" d="M526.75,380.13h0Z" transform="translate(-12.61 -9.76)"/><polygon class="cls-23" points="507.57 368.29 507.57 368.29 507.57 368.31 507.57 368.29"/><path class="cls-23" d="M522.82,378v.06S522.82,378,522.82,378Z" transform="translate(-12.61 -9.76)"/><path class="cls-23" d="M523.46,378.29v0Z" transform="translate(-12.61 -9.76)"/><path class="cls-23" d="M522.46,378.13s0,0,0,0v0S522.45,378.11,522.46,378.13Z" transform="translate(-12.61 -9.76)"/><polygon class="cls-23" points="509.52 368.33 509.52 368.36 509.53 368.35 509.52 368.33"/><path class="cls-23" d="M515.32,379l0-.12C515.31,379,515.26,379.05,515.32,379Z" transform="translate(-12.61 -9.76)"/><path class="cls-23" d="M526.79,380.08l0,.05h0Z" transform="translate(-12.61 -9.76)"/><path class="cls-23" d="M522.36,379.24l-.06,0Z" transform="translate(-12.61 -9.76)"/><path class="cls-23" d="M517.81,378.87h0S517.81,378.88,517.81,378.87Z" transform="translate(-12.61 -9.76)"/><path class="cls-23" d="M522.14,379.21a.39.39,0,0,0,0-.11l0,0Z" transform="translate(-12.61 -9.76)"/><path class="cls-23" d="M515.29,378.91h0Z" transform="translate(-12.61 -9.76)"/><path class="cls-23" d="M515,379.28s0-.18,0-.29,0,.13.07.22.05-.22.08-.21,0,0,0,.08c0-.15.12,0,.15-.21v0a2.5,2.5,0,0,1,0-.25s0-.12.05,0,0,0,0,.09l0-.06c0,.17,0,.06,0,.19.05-.06.09-.21.13-.16s-.08.06,0,.21l-.06-.06c.07.26,0,0,0,.27.08,0,.08-.1.16-.05s0-.14,0-.24.12.42.18.19,0-.33.07-.22V379c.08,0,0-.28.11-.16s0,.07,0,.09,0-.11.06-.11l0,.17c.08,0,.16-.16.24-.2a.38.38,0,0,0,0,.15c.1-.09.24,0,.35.09l0-.15a.16.16,0,0,1,0,.1c.05.05,0-.09,0-.15s0,.08,0,.12c.06-.13.19-.28.27-.13v0c.06.06,0-.3.11-.17v0c.13,0,.27-.08.38.14,0-.21.13.09.12-.2.08.14.06.19.17.29s0-.18.06-.21v.15l0-.16,0,.18,0,0a.24.24,0,0,1,0-.11c.05-.07.13.11.13.19l.11-.14a.35.35,0,0,1,0,.13c.06-.16,0,.16.07,0a.48.48,0,0,1,0-.12c0,.09.1.09.14.06v.1c.08,0,.18-.05.27-.05a.42.42,0,0,1,0-.25l0,.16c0-.1,0-.06,0-.18s0,.18,0,.23l0-.05a.3.3,0,0,1,0,.13c0-.1.08.17.1,0v0c.09,0,.14,0,.22-.06s0-.11,0-.22c.06.05.13.16.2.15s0-.12,0-.2c0,.13.07.12,0,.21a.37.37,0,0,0,.22-.12c0-.06,0-.08,0-.12s0,.05,0,.11v0c.13-.19.27.38.37.11v0l.1-.14s0,.1,0,.18c.12-.21.17,0,.26-.11,0,.38.24,0,.32.23V379c0-.09,0,.05,0,.07s0-.08,0-.13c.2-.09.41.14.62.22s.07-.46.16-.24l0,.16c.14-.2.2,0,.39-.1,0,0,0,.08,0,.08s.11,0,.14-.07,0,.09,0,.14.12-.13.11,0,0,0,0,0,.11,0,.11-.1c.06.08.14,0,.2,0,.06-.15.1.09.12-.12,0,.22.09.19.13.09,0,.07,0,.08,0,.17s.08,0,.08-.15c0,.28.17-.2.18.16A1.15,1.15,0,0,1,523,379c0,.22-.12,0-.14.24.11-.08.19-.26.28-.19s0,.1,0,.13.19,0,.3-.06l0,.06s0,0,0-.06l0,0c0-.15.11-.29.12-.37-.07.29.08.09,0,.45a.27.27,0,0,0,0-.14.19.19,0,0,1,0,.14c.07,0,.06-.16.12-.15a.93.93,0,0,1,0,.13c0-.09.09-.18.13-.14s0,.07,0,.07.18-.23.25-.12,0,.07,0,.26l.06-.05v-.09s.1-.11.13-.05l0,.07.08,0,0-.07c.07-.09,0-.24.1-.17s0,0,0,.12h0c0-.05.07-.11.09-.05s-.06.19-.06.23c.05-.14.1,0,.17-.17,0,0,0,.13-.05.15l.05-.12a.23.23,0,0,1,0,.14s0-.23.08-.11,0,0,0,0,.15,0,.19,0-.06,0-.09.18.25-.15.32-.08v0c.1-.25,0,.14.11,0s-.07.13,0,.11.14,0,.26-.07l0,.06c0,.07.09.07.11.11s.06,0,.08-.14c0,.41.29-.12.3.23,0,0-.05,0,0,.05l.11,0a.5.5,0,0,0,0-.16c0-.07.07-.11.1-.1s-.06.18-.06.24l0-.1c0,.21.08-.22.1-.06l0,.05s.08-.09.1-.06,0,.05-.08.16.15-.22.14-.08,0,0-.07.05,0,.13,0,.16h0l0,.09v-.05c.15-.31.11,0,.24-.22-.12.19-.05.12-.1.26a.22.22,0,0,1,0,.14c.06-.1,0,.11.11,0,0,0,0,0,0,.13s0-.09,0-.14.08.24.23,0,.15-.22.25-.26a.36.36,0,0,1-.1.15c0,.08,0,.08.09,0a.22.22,0,0,0-.05.12s.1-.14.1-.06a1.67,1.67,0,0,1-.12.16A1.86,1.86,0,0,1,527,380c0,.08-.08.1-.12.15a.29.29,0,0,0,.22-.14v0a.27.27,0,0,1-.06.12c-.09.08,0-.06,0-.11l0,0c.09-.27-.12,0-.16,0l.12-.18-.13.13c0-.05.06-.16.1-.17s-.06.05,0-.07,0,0,0,0l-.07,0s.06-.14.07-.1c0-.14-.17.1-.14-.06h0c-.13,0-.06.14-.17.29l.06-.38-.05.14s0,0,0-.08,0,.07-.06.15c0-.15-.14,0-.08-.21,0,.1,0,.1,0,.16.06-.26-.06,0-.07-.11s.07,0,.07-.17c-.09.21-.06-.08-.11-.05-.05.18-.09.05-.16.09s-.07-.14-.1-.22v0c-.06.17-.11.12-.16.15a.46.46,0,0,1,.1-.19h0c0,.05,0,.08-.08.09L526,379s-.14.13-.17,0c0,.12-.07.35-.16.41a1,1,0,0,1,.08-.2s0,.05,0,0l.07-.1c0-.06,0,.08-.07.06a1.21,1.21,0,0,0,0-.14s0,0,0,0a.26.26,0,0,1,0-.17.26.26,0,0,1-.06.14s0-.12,0-.18,0,0-.09.12,0-.07,0-.11-.12,0-.15.14h0c-.13.11-.14-.14-.24-.11l0,0c-.07,0-.12,0-.19.08a.3.3,0,0,1,0-.15s-.07.07-.1,0,0-.08.06-.05,0-.14-.12,0c.06-.11,0-.16,0-.13v.1s0,0-.07,0l.06-.16c-.06-.22-.28.28-.28-.07-.05.11,0,.1,0,.22,0,0,0-.28-.05-.28s-.12.22-.17.14,0,.22-.1.26,0-.25,0-.29,0,0,0,0,0,0,0-.1l0,.06c0-.07-.08-.08-.05-.17a.11.11,0,0,0,0,.13c0-.1-.1,0-.15-.09s0,.1,0,.1-.06.1-.13.12,0-.21,0-.15,0-.16,0-.2-.09-.1-.13-.12l0,0s0,0,0,0v.12s0,0,0-.07,0,.2-.06.3c0-.07-.09.05-.07-.11.07.07,0-.16.08-.17s0,0,0,0a.05.05,0,0,1,0,0c-.06-.15-.06.17-.14.16s0-.17,0-.16,0,.15,0,.22-.06,0-.08,0l0,0c0,.09,0,.08-.08.1s0,0,0-.08c0,.15-.06-.17-.12-.07a1.46,1.46,0,0,1,0-.21c-.07.1,0-.13-.12-.05s0,.1-.05.2l.11-.06-.08.16s.07-.07.08,0,0,.06,0,.16c0-.18-.09.09-.12,0l0-.29c-.06-.14-.14.13-.23,0l0,.06c0,.12-.06,0-.1.05a.42.42,0,0,0,0-.2c0,.07-.06,0-.09.18l0-.14c-.07-.06-.11.27-.18.23s0-.18.06-.25,0,0-.05,0-.08.12-.09,0,0,.14-.05.13v0s0,.06,0,.17c-.05-.32-.21,0-.23-.27a.27.27,0,0,1-.15.05s0-.05,0,0-.09.27-.14.16,0-.08,0-.14c.06-.32-.09,0-.1-.18h0c0-.12-.12.1-.18.06a.12.12,0,0,0,0,0,.49.49,0,0,1-.24.24c0-.13,0-.06,0-.19s0,.2-.08.23a.81.81,0,0,1,0-.27h0c0-.18-.07,0-.09,0v-.08c-.08,0-.1.22-.18.21v.06c-.06.19,0-.11-.09,0V378a1.18,1.18,0,0,1-.17.22,1.38,1.38,0,0,1,.15-.3s-.1,0-.12.11,0-.07,0,0-.1.23-.16.23c0-.38-.15-.1-.17-.4-.12.14-.21-.07-.33-.05,0,.3,0,0,0,.31,0,0,0,0,0,0l-.08-.19c0-.09,0-.07,0-.13s0-.13,0-.22c0,.11,0,.16-.07.12l0,.14c-.1.16-.07-.26-.17-.1l0-.1c0,.06-.17,0-.23.24,0,0,0-.12,0-.14s-.25.25-.33.1v-.08s0,.14-.07.07,0-.08,0-.08-.05.13-.08.08l0-.08c-.11-.1-.17.2-.26.25a.42.42,0,0,0-.12-.34v0c-.13,0-.21.18-.33.27-.07-.24-.24-.1-.36-.23a.3.3,0,0,1,0,.19s-.07.15-.07-.05h0c0-.2-.08-.15-.12-.15v.26c-.13-.38-.29.14-.37-.2,0,.07,0,.07-.08.13v-.14a.26.26,0,0,0-.21,0v-.1c-.05,0,0,.41-.09.42l0-.21c-.09,0-.19-.18-.27,0a.28.28,0,0,1,0-.1s-.17-.13-.14.16c0-.19-.09,0-.14.07v-.13c0,.18,0,.23-.08.28s0-.11,0-.08,0,.14-.09.07l0-.09s0,0-.06.14-.09,0-.11-.15c0,.08,0,.18,0,.15s0-.08,0-.09-.11.17-.17,0a.78.78,0,0,0,0-.09c.06,0,.11,0,.1,0s-.06-.15,0-.33c0,.1-.09.32-.14.26v-.06s0,0,0,0,0,0,0,0-.06-.05-.08-.06,0,.12,0,.24l0,0s0,0,0,0H516c0,.07,0,.13-.06.05l0,.23c-.05-.19-.12-.29-.14-.41-.07.09-.18.07-.2.34,0,0,0-.08-.05-.12s0,0,0-.06-.12,0-.12.22c-.06-.08,0-.17-.05-.13V378c-.17-.28-.2.49-.39.13a.11.11,0,0,1,0,.06c-.2-.15-.37.19-.59,0-.07,0-.06.07-.07.17l0-.15,0,.18c0,.14-.22-.33-.27-.07l0,.09c-.05,0-.1.09-.13,0s0,.11,0,.06l0-.08,0,.16c-.09,0-.1-.3-.21-.27a.39.39,0,0,0,0,.3s.06,0,.09.1l0,.05a2,2,0,0,0,.3.57l0-.15.06.1,0,0c.06.09,0,0,0-.07s0,.1.06.11l0-.22a.68.68,0,0,0,.08.22c0-.11-.08-.19-.07-.27,0,.1.07.18.07.09,0,.06,0,.09,0,.12s0,0,0-.17c0,.12.07,0,.12.17a.34.34,0,0,1,0-.19c0,.26.09,0,.13.28,0-.24.08-.12.12-.26,0,0,0,.06,0,0s0,.09.08.13a1,1,0,0,1,0-.37c.06.19,0,.23,0,.41,0-.15,0-.16,0-.29a.67.67,0,0,1,.06.21c0-.24,0,0,0-.19.06.11,0,.22.07.15A.2.2,0,0,1,515,379.28Zm1.2-.53Zm.1,0h0c0-.05,0-.1,0-.1A.26.26,0,0,0,516.26,378.74Zm-.29-.95s0,0,0,0l0,0v0Z" transform="translate(-12.61 -9.76)"/><path class="cls-23" d="M516,378h0v0Z" transform="translate(-12.61 -9.76)"/><path class="cls-23" d="M525.45,379h0v0Z" transform="translate(-12.61 -9.76)"/><polygon class="cls-23" points="505.09 369.17 505.09 369.14 505.08 369.17 505.09 369.17"/><path class="cls-23" d="M525.85,379.62a.08.08,0,0,0,0,0S525.85,379.64,525.85,379.62Z" transform="translate(-12.61 -9.76)"/><path class="cls-23" d="M526.07,379.74l0,.06A.08.08,0,0,0,526.07,379.74Z" transform="translate(-12.61 -9.76)"/><path class="cls-23" d="M526.23,379.88l0-.06h0Z" transform="translate(-12.61 -9.76)"/><path class="cls-23" d="M523.35,379.22h0Z" transform="translate(-12.61 -9.76)"/><path class="cls-23" d="M524.27,379.05s0,.05,0,.06S524.25,379.13,524.27,379.05Z" transform="translate(-12.61 -9.76)"/><polygon class="cls-23" points="509.75 369.48 509.75 369.48 509.75 369.47 509.75 369.48"/><path class="cls-23" d="M524.18,379.1s0,0,0,0S524.2,379.08,524.18,379.1Z" transform="translate(-12.61 -9.76)"/><polygon class="cls-23" points="514.32 370.49 514.33 370.5 514.34 370.48 514.32 370.49"/><path class="cls-23" d="M527,380.24h0Z" transform="translate(-12.61 -9.76)"/><path class="cls-23" d="M527,380.21l0,0S527,380.24,527,380.21Z" transform="translate(-12.61 -9.76)"/><path class="cls-23" d="M526.71,380.07l0,0Z" transform="translate(-12.61 -9.76)"/><path class="cls-23" d="M526.65,380.05s0,.11,0,.1l0,0C526.64,380.17,526.7,380,526.65,380.05Z" transform="translate(-12.61 -9.76)"/><path class="cls-23" d="M526.58,379.35l0,.06c0-.05,0-.13,0-.13C526.64,379.1,526.65,379.4,526.58,379.35Z" transform="translate(-12.61 -9.76)"/><path class="cls-23" d="M526.42,379.21s0-.08,0-.11S526.41,379.15,526.42,379.21Z" transform="translate(-12.61 -9.76)"/><path class="cls-23" d="M525.06,378.73l.05-.12S525.09,378.65,525.06,378.73Z" transform="translate(-12.61 -9.76)"/><polygon class="cls-23" points="511.99 369.51 511.99 369.59 512.03 369.48 511.99 369.51"/><polygon class="cls-23" points="512.07 368.58 512.09 368.57 512.03 368.6 512.07 368.58"/><path class="cls-23" d="M522.19,378v.16S522.22,377.93,522.19,378Z" transform="translate(-12.61 -9.76)"/><path class="cls-23" d="M521.13,378c0-.08,0-.13-.06-.05S521.11,378,521.13,378Z" transform="translate(-12.61 -9.76)"/><polygon class="cls-23" points="505.33 367.91 505.35 367.86 505.31 367.9 505.33 367.91"/><line class="cls-20" x1="481.99" y1="376.45" x2="466.76" y2="376.45"/><path d="M494.6,386.22a58.16,58.16,0,0,1-15.22,0,58.16,58.16,0,0,1,15.22,0Z" transform="translate(-12.61 -9.76)"/><path class="cls-21" d="M491,386.7s.36,7.31-2.87,7.43-3.72-7.43-3.72-7.43" transform="translate(-12.61 -9.76)"/><circle class="cls-3" cx="475.37" cy="382" r="1.59"/><circle class="cls-22" cx="476.43" cy="381.18" r="0.53"/><path class="cls-23" d="M480.21,382.74s0,.13,0,.1v-.1Z" transform="translate(-12.61 -9.76)"/><path class="cls-23" d="M480.33,383a1,1,0,0,0-.09-.36,1.59,1.59,0,0,1,.05.28s0-.05-.05-.11,0,0,0,.07.07.13.07,0Z" transform="translate(-12.61 -9.76)"/><path class="cls-23" d="M482.24,382.55h0Z" transform="translate(-12.61 -9.76)"/><path class="cls-23" d="M483.39,382.3v0S483.4,382.31,483.39,382.3Z" transform="translate(-12.61 -9.76)"/><path class="cls-23" d="M483.62,382.43h0S483.62,382.45,483.62,382.43Z" transform="translate(-12.61 -9.76)"/><path class="cls-23" d="M482.24,382.55l.05,0S482.26,382.56,482.24,382.55Z" transform="translate(-12.61 -9.76)"/><path class="cls-23" d="M480.38,382.55a.11.11,0,0,0,0,.05v-.05Z" transform="translate(-12.61 -9.76)"/><path class="cls-23" d="M481.77,382.85h0v0Z" transform="translate(-12.61 -9.76)"/><path class="cls-23" d="M481.38,383s0-.13,0-.19,0,.09,0,.1Z" transform="translate(-12.61 -9.76)"/><path class="cls-23" d="M480.73,383v0Z" transform="translate(-12.61 -9.76)"/><path class="cls-23" d="M482.06,382.79l0,0Z" transform="translate(-12.61 -9.76)"/><path class="cls-23" d="M493.47,381.09v0A.08.08,0,0,0,493.47,381.09Z" transform="translate(-12.61 -9.76)"/><polygon class="cls-23" points="481.15 372.15 481.14 372.16 481.11 372.23 481.15 372.15"/><path class="cls-23" d="M484,382.55h0S484,382.56,484,382.55Z" transform="translate(-12.61 -9.76)"/><path class="cls-23" d="M487.4,382.07c0-.12.05-.16,0-.3C487.39,381.83,487.34,382,487.4,382.07Z" transform="translate(-12.61 -9.76)"/><path class="cls-23" d="M480.4,382.56h0Z" transform="translate(-12.61 -9.76)"/><polygon class="cls-23" points="474.77 372.01 474.77 372.01 474.77 372 474.77 372.01"/><path class="cls-23" d="M484.83,382.34l0-.06Z" transform="translate(-12.61 -9.76)"/><path class="cls-23" d="M484.18,382.24l0,0Z" transform="translate(-12.61 -9.76)"/><path class="cls-23" d="M485.14,382.1s0,0,0,0h0S485.15,382.12,485.14,382.1Z" transform="translate(-12.61 -9.76)"/><polygon class="cls-23" points="472.9 372.28 472.89 372.25 472.88 372.26 472.9 372.28"/><path class="cls-23" d="M492.31,381v.13C492.32,381.05,492.37,381,492.31,381Z" transform="translate(-12.61 -9.76)"/><path class="cls-23" d="M480.42,382.62l0-.06h0Z" transform="translate(-12.61 -9.76)"/><path class="cls-23" d="M485.06,381h.06A.07.07,0,0,0,485.06,381Z" transform="translate(-12.61 -9.76)"/><path class="cls-23" d="M489.76,380.88v0Z" transform="translate(-12.61 -9.76)"/><path class="cls-23" d="M485.29,381a.41.41,0,0,0,0,.1v0Z" transform="translate(-12.61 -9.76)"/><path class="cls-23" d="M492.32,381.15Z" transform="translate(-12.61 -9.76)"/><path class="cls-23" d="M492.72,380.85c-.06,0-.05.17-.07.28s0-.14,0-.24c0,.05-.09.22-.12.21a.22.22,0,0,1,0-.08c-.06.14-.13,0-.19.17v0a1.81,1.81,0,0,1,0,.25s-.05.11-.05,0,0,0,0-.08l0,.05c0-.17,0-.06.05-.18-.05.05-.12.19-.16.13s.1,0,.06-.2l.05.07c0-.27,0,0,0-.27-.07-.05-.1.08-.17,0a1.81,1.81,0,0,1,0,.23c-.12.16-.05-.44-.15-.22s-.05.33-.1.21l0-.19c-.08,0-.07.27-.14.14s.07-.06.06-.09,0,.11-.08.11V381c-.08,0-.18.13-.27.15a.26.26,0,0,0,0-.15c-.11.07-.23,0-.33-.15l-.05.14s0-.07,0-.09,0,.09,0,.14,0-.08,0-.12c-.08.11-.23.24-.29.08l0,0c-.06-.07-.09.29-.14.15v0c-.12-.08-.28.06-.36-.16,0,.21-.13-.1-.15.2-.07-.15-.05-.2-.15-.3s0,.18-.09.21v-.15l-.06.16v-.18l0,0a.18.18,0,0,1,0,.12c-.05.07-.12-.11-.12-.19l-.12.13a.21.21,0,0,1,0-.12c-.07.15,0-.16-.07,0a.49.49,0,0,1,0,.12.09.09,0,0,0-.15,0v-.11c-.09,0-.19.05-.29.05a.31.31,0,0,1,0,.25v-.17c0,.1,0,.07,0,.19s0-.19,0-.24l0,.06c0-.05,0-.08,0-.14,0,.1-.08-.16-.11,0v-.05c-.1,0-.15.06-.23.07s0,.11-.06.23c-.06-.05-.13-.16-.2-.14s0,.12,0,.2c0-.13-.07-.11,0-.2a.33.33,0,0,0-.22.13c0,.05,0,.08,0,.12s0-.05,0-.11v0c-.12.2-.3-.36-.39-.09h0l-.1.14c-.05,0,0-.1,0-.18-.11.22-.18,0-.27.12-.09-.37-.25,0-.36-.2v.09c0,.09,0-.05-.05-.07s0,.08,0,.13c-.2.12-.43-.13-.64-.2s0,.46-.13.24l0-.16c-.17.2-.42,0-.54.24,0,0,0-.09,0-.09s-.12,0-.1.11,0-.08,0-.13,0,.17-.08.05v-.05c0,.06-.07,0,0,.14-.06-.06-.08.07-.11,0,0,.15-.1-.06-.09.16,0-.23-.11-.17-.14-.06,0-.07,0-.06,0-.16s-.08.06-.06.17c-.1-.26-.14.24-.21-.1a1.54,1.54,0,0,1-.33.31c0-.23.12,0,.09-.28-.09.11-.13.31-.24.28s0-.1,0-.14-.21,0-.29.14a.13.13,0,0,1,0-.06s-.05,0,0,.07v0c.05.15,0,.32,0,.4,0-.29-.1-.06-.1-.43a.27.27,0,0,0,0,.14s0-.06,0-.14,0,.17-.09.18a.56.56,0,0,0,0-.13c0,.1,0,.2-.09.17s0-.07,0-.07-.1.28-.21.2-.05-.06-.09-.24l0,.06,0,.09c-.05,0-.06.14-.11.09v-.08l-.07.05.06.06c0,.1.05.23,0,.19s0,0-.09-.09h0c0,.06,0,.13-.06.09s0-.2-.05-.24c0,.16-.1.07-.09.24a.65.65,0,0,0,0-.16l0,.13s0-.05-.06-.13.08.23,0,.15v-.05c-.09,0-.12.11-.2.08-.08-.18,0-.07,0-.21-.09.06-.14.28-.24.27h0c.07.26-.11-.1-.12,0a.44.44,0,0,0,0-.12c-.08,0-.11.1-.17.22v-.07c-.06-.05-.11,0-.16,0s0,.07,0,.15c-.24-.32-.16.28-.37,0,0,0,0-.07,0-.06l-.07.09a.47.47,0,0,0,.08.14c0,.07,0,.13,0,.13s-.05-.17-.09-.23l0,.11c-.11-.18.06.22,0,.11l0-.06s0,.13,0,.12,0-.07,0-.17,0,.27-.06.15,0,0,0-.09-.08-.1-.11-.11h0l-.08,0,0,0c.06.35-.07.1-.07.34,0-.23,0-.12-.07-.27s-.06-.07-.07-.11c0,.12-.07-.08-.06.11,0-.05,0,0-.06-.11,0,.05,0,.07.05.13s-.19-.14-.21.11,0,.29-.05.39a.27.27,0,0,1-.06-.17c-.07-.05-.1,0-.1,0l-.07-.12s.06.17,0,.12-.05-.13-.06-.18,0,.15,0,.2a.48.48,0,0,1-.06-.18.34.34,0,0,0,0,.23l0,0s-.05-.11-.05-.13.05,0,.08.07v0c.14.25.07-.09.12-.09l.07.19,0-.18s.1.15.09.19,0-.09.07,0l0,0v-.08c0,.05.07.13,0,.12s0-.18.09,0h0c.05-.09,0-.15,0-.34l.15.34,0-.15s0,0,.05.07c0-.11,0-.06,0-.16.08.12.09-.11.17.12,0-.12-.06-.07,0-.16.09.24,0-.07.11,0s0,.08,0,.18c0-.22.09,0,.11,0s0-.1.09-.18.13.06.2.1v0c0-.18,0-.16,0-.21a.41.41,0,0,1,0,.2h0c0-.06,0-.1,0-.12l0,.13c.05,0,.05-.19.14-.12,0-.12-.16-.32-.12-.43a.76.76,0,0,1,.05.21s0-.06,0,0v.12c.05,0,0-.1,0-.1s0,.06.06.14,0,0,0,0a.25.25,0,0,1,.11.13.35.35,0,0,1,0-.15c.05,0,.06.11.1.15s0,0,0-.16,0,.06.05.1.11-.06,0-.2h0c0-.17.19,0,.25-.07l0,.05c0-.07.1-.07.1-.18s.06.07.07.13,0-.1.09,0,0,.07,0,.07.09.1.1-.05c0,.13.08.14.09.1l-.06-.07a.05.05,0,0,1,.07,0l0,.16c.14.17.07-.38.23-.07,0-.12-.07-.07-.08-.2s.15.23.16.23,0-.25.08-.21-.07-.21,0-.27.11.23.09.28,0,0,0,0a.11.11,0,0,0,0,.11v-.05c0,.05.09,0,.1.13a.1.1,0,0,0,0-.12c.08.07.09,0,.16,0s0-.1,0-.1,0-.12.07-.16,0,.22.08.13a.4.4,0,0,1,0,.21c0-.13.11.05.14.07l0,.05s0,0,0,0l0-.12s0,0,0,.07a2.54,2.54,0,0,1,0-.31c0,.06.06-.07.09.09-.08-.05,0,.15,0,.18a0,0,0,0,1,0,0s0,0,0,0,0-.18.08-.18,0,.16.05.14,0-.14,0-.22,0-.05.07-.05l0,0c0-.09,0-.08.05-.11s0,0,0,.08c0-.16.1.15.13,0,0,.06,0,.17.05.21,0-.13.08.11.12,0a.26.26,0,0,1,0-.21l-.09.1,0-.19s-.05.09-.07.07a.25.25,0,0,0,0-.17c.06.17.06-.11.12,0l0,.29c.09.12.11-.17.2-.11l0,0c0-.12.05,0,.08-.08a.69.69,0,0,0,0,.19c0-.07.07,0,.06-.2l.05.13c.08,0,.06-.3.13-.27s0,.17,0,.25,0,0,0-.05.05-.14.08-.05,0-.15,0-.15a.13.13,0,0,1,0,.05c0-.05,0-.07,0-.18.1.3.2-.05.31.21a.59.59,0,0,1,.16-.1s0,0,0,0,0-.29.08-.2,0,.09,0,.14c.08.32.08-.06.16.11v0c.05.1.06-.14.12-.13v0a.44.44,0,0,1,.12-.29.67.67,0,0,0,0,.2s0-.21,0-.25a.93.93,0,0,1,.07.27h0c0,.17.06,0,.09,0V382c.08,0,.06-.22.15-.21v-.06c0-.19,0,.11.08,0l0,.19a1.14,1.14,0,0,1,.15-.23,1.08,1.08,0,0,1-.11.31.11.11,0,0,0,.11-.11s0,.07,0,0,.07-.23.13-.23c0,.38.16.09.22.39.09-.15.21.05.32,0-.06-.29,0,0,0-.31,0,0,0,0,0,0l.1.18c0,.09,0,.07,0,.14s0,.13.08.21c0-.11,0-.16,0-.12l-.06-.14c.08-.16.09.26.17.09l0,.1c0-.06.16,0,.2-.25,0,0,0,.12,0,.14s.23-.27.31-.12v.07s0-.14.05-.06a.17.17,0,0,0,0,.08s.05-.14.07-.09l0,.08c.11.09.16-.21.24-.26a.37.37,0,0,0,.12.32v0c.12,0,.2-.19.32-.27.06.24.23.1.34.23a.3.3,0,0,1,0-.19c0,.05.08-.15.07.05h0c0,.19.07.14.11.15v-.27c.1.39.29-.13.34.21,0-.07.06-.07.09-.13v.14a.18.18,0,0,0,.2,0l0,.1c.05,0,.08-.4.13-.41V382c.09,0,.17.18.27,0,0,0,0,.09,0,.1s.16.16.16-.13c0,.19.09,0,.14-.06v.14c.05-.17.05-.22.11-.26s0,.11,0,.07.05-.13.1-.05l0,.09s0,0,.08-.14.08.05.08.17c0-.07,0-.17.07-.13a.2.2,0,0,1,0,.09c.07.1.13-.16.17,0V382c-.06,0-.11,0-.1,0s0,.15,0,.33c0-.1.13-.3.17-.24v.05h0s0,0,0,0a.07.07,0,0,0,0,.05c0,.1.05.06.07.07s0-.12,0-.24l0,0v0h-.06c0-.07.05-.13.07-.05l.05-.22c0,.2.08.31.08.43.08-.07.18,0,.25-.3,0,0,0,.08,0,.12s0,0,0,.06.13,0,.15-.2c.05.09,0,.17,0,.15l0,.05c.12.31.28-.45.41-.06a.11.11,0,0,1,0-.06c.17.18.4-.13.53.16,0,.06.06-.06.11-.14v.15l.07-.16c.11-.11.05.38.18.17l0-.1s.11,0,.07.08.05-.1,0-.05l0,.08.12-.1c0,.07-.12.29-.05.33a.84.84,0,0,0,.18-.23s0-.06,0-.13l0,0a1.16,1.16,0,0,0,.2-.6l-.12.1,0-.11h.06c0-.11-.05,0-.09,0a.32.32,0,0,0,0-.13l-.13.19c0-.09.08-.17.05-.23s0,.21-.1.25c0-.11,0-.19,0-.11a.19.19,0,0,1,.05-.11c-.05.05-.09,0-.14.11,0-.13-.12,0-.07-.2a.42.42,0,0,1-.12.16c.1-.25-.11,0,0-.32-.08.23-.16.09-.25.21s0-.06,0-.05,0-.09-.06-.14a1.06,1.06,0,0,1-.14.35c0-.19.06-.23.06-.41,0,.16-.1.15-.09.28a.47.47,0,0,1,0-.22c0,.24,0,0-.08.19,0-.13,0-.23-.05-.16A.22.22,0,0,1,492.72,380.85Zm-1.29.31Zm-.1,0h0s0,.1,0,.1S491.34,381.2,491.33,381.15Zm.14,1s0,0,0,0l0,0v0Z" transform="translate(-12.61 -9.76)"/><path class="cls-23" d="M491.52,382h0v0Z" transform="translate(-12.61 -9.76)"/><path class="cls-23" d="M482.22,382.53h0v0Z" transform="translate(-12.61 -9.76)"/><polygon class="cls-23" points="477.27 371.05 477.27 371.08 477.28 371.05 477.27 371.05"/><path class="cls-23" d="M481.52,382.26l0,0Z" transform="translate(-12.61 -9.76)"/><path class="cls-23" d="M481.28,382.32l0,0S481.27,382.31,481.28,382.32Z" transform="translate(-12.61 -9.76)"/><path class="cls-23" d="M481.08,382.32v.06h0Z" transform="translate(-12.61 -9.76)"/><path class="cls-23" d="M484,381.31h0S484.05,381.28,484,381.31Z" transform="translate(-12.61 -9.76)"/><path class="cls-23" d="M483.17,381.8s0-.06,0-.07S483.15,381.72,483.17,381.8Z" transform="translate(-12.61 -9.76)"/><polygon class="cls-23" points="472.44 371.22 472.44 371.23 472.45 371.22 472.44 371.22"/><path class="cls-23" d="M483.23,381.72s0,0,0,0S483.22,381.74,483.23,381.72Z" transform="translate(-12.61 -9.76)"/><polygon class="cls-23" points="467.64 372.84 467.64 372.83 467.64 372.85 467.64 372.84"/><path class="cls-23" d="M480.26,382.62v0Z" transform="translate(-12.61 -9.76)"/><path class="cls-23" d="M480.26,382.67v0S480.25,382.63,480.26,382.67Z" transform="translate(-12.61 -9.76)"/><path class="cls-23" d="M480.48,382.56l0-.05Z" transform="translate(-12.61 -9.76)"/><path class="cls-23" d="M480.56,382.5s-.1-.07-.11,0v0C480.44,382.44,480.58,382.59,480.56,382.5Z" transform="translate(-12.61 -9.76)"/><path class="cls-23" d="M481.09,383H481c0,.05.06.11,0,.13S481,383,481.09,383Z" transform="translate(-12.61 -9.76)"/><path class="cls-23" d="M481.3,383s0,.07,0,.1S481.34,383,481.3,383Z" transform="translate(-12.61 -9.76)"/><path class="cls-23" d="M482.68,382.49l0,.12S482.71,382.57,482.68,382.49Z" transform="translate(-12.61 -9.76)"/><polygon class="cls-23" points="470.13 372.01 470.08 371.94 470.1 372.06 470.13 372.01"/><polygon class="cls-23" points="470.53 372.85 470.53 372.87 470.56 372.81 470.53 372.85"/><path class="cls-23" d="M485.45,382.18l0-.16S485.41,382.23,485.45,382.18Z" transform="translate(-12.61 -9.76)"/><path class="cls-23" d="M486.45,381.88c0,.08.05.13.07.05S486.46,381.86,486.45,381.88Z" transform="translate(-12.61 -9.76)"/><polygon class="cls-23" points="476.95 372.31 476.93 372.36 476.97 372.32 476.95 372.31"/></g><g id="joue"><path class="cls-24" d="M530.26,394.58l-9.12,23.27C522.1,415.29,533,399,530.26,394.58Z" transform="translate(-12.61 -9.76)"/><path class="cls-24" d="M473.29,393.81l9.12,23.27C481.44,414.52,470.58,398.19,473.29,393.81Z" transform="translate(-12.61 -9.76)"/><path class="cls-25" d="M498.52,423.76h7.91a2.69,2.69,0,0,0-2-1.5,3,3,0,0,0-2,.44,1.74,1.74,0,0,0-1.86-.59A4.53,4.53,0,0,0,498.52,423.76Z" transform="translate(-12.61 -9.76)"/><path class="cls-25" d="M497.74,424.41h9.08a1.23,1.23,0,0,1-1.08,1c-.9,0-5.35,0-5.35,0l-1.87,0A4.13,4.13,0,0,1,497.74,424.41Z" transform="translate(-12.61 -9.76)"/><path class="cls-26" d="M498.52,403.88s2.36,1.68,3.52,1.56a5,5,0,0,0,2.44-1.56" transform="translate(-12.61 -9.76)"/><path class="cls-27" d="M505.2,400.94s1.68-.6,1.62.48a2.45,2.45,0,0,1-.81,1.68" transform="translate(-12.61 -9.76)"/><line class="cls-27" x1="487.67" y1="390.23" x2="490.1" y2="380.43"/></g><g id="lunette"><path class="cls-28" d="M528.67,388.94v3.42c0,.42-.73,1.13-1.75,1.88l0,0c-1.87,1.41-4.65,2.94-5.41,2.94-3.45.78-9.92-1.81-11.51-4.85v-3.42Z" transform="translate(-12.61 -9.76)"/><path class="cls-29" d="M527.32,390.11v3.41a1.2,1.2,0,0,1-.4.72l0,0c-1.38,1.54-5.77,4.11-6.77,4.11-3.43.78-9.92-1.81-11.51-4.86v-3.41Z" transform="translate(-12.61 -9.76)"/><polygon class="cls-30" points="497.36 379.18 497.36 380.35 496 380.35 497.36 379.18"/><path class="cls-27" d="M527.32,390.11c1-.19,7.31-10.35,8-11.29,2.34-.11,1.66,10.22,0,10.12" transform="translate(-12.61 -9.76)"/><path class="cls-31" d="M495,389.2v3.42c-1.58,3.06-8.06,5.63-11.5,4.85-.76,0-3.55-1.52-5.41-2.93,0,0,0,0,0,0-1-.76-1.75-1.47-1.75-1.89V389.2Z" transform="translate(-12.61 -9.76)"/><path class="cls-32" d="M496.34,390.37v3.43c-1.6,3-8.07,5.63-11.52,4.85-1,0-5.37-2.57-6.75-4.11,0,0,0,0,0,0a1.3,1.3,0,0,1-.41-.71v-3.43Z" transform="translate(-12.61 -9.76)"/><polygon class="cls-30" points="483.73 380.6 482.37 380.6 482.37 379.44 483.73 380.6"/><path class="cls-27" d="M477.63,390.37c-1-.19-7.31-10.34-8-11.28-2.33-.11-1.66,10.22,0,10.12" transform="translate(-12.61 -9.76)"/><path class="cls-27" d="M496.34,390.37s5.48-7.55,12.28,0" transform="translate(-12.61 -9.76)"/></g><g id="Calque_9" data-name="Calque 9"><path class="cls-19" d="M516.52,361.85s7.14,2.53,10.8,3.72,2.95,8.64,4.74,10.31,3.23,2.94,3.23,2.94.35-20.3,0-21.4a29.17,29.17,0,0,0-3.23-8.48c-2.76-5.19-19.13-3.75-19.13-3.75Z" transform="translate(-12.61 -9.76)"/><path class="cls-23" d="M526.75,362.83c0-.08.12-.26.08-.23l-.14.29Z" transform="translate(-12.61 -9.76)"/><path class="cls-23" d="M526.91,362.22a4.9,4.9,0,0,0-.35.67c.16-.28.1-.16.28-.5,0,0,0,.11-.07.22,0-.07,0,.08.09-.11s.07-.26-.05-.08Z" transform="translate(-12.61 -9.76)"/><path class="cls-23" d="M525.92,361.05l0,0Z" transform="translate(-12.61 -9.76)"/><path class="cls-23" d="M525.11,360.41s0,0,0-.06Z" transform="translate(-12.61 -9.76)"/><path class="cls-23" d="M525.06,360v0S525.08,360,525.06,360Z" transform="translate(-12.61 -9.76)"/><path class="cls-23" d="M525.92,361.05l0-.1C525.89,361,525.92,361,525.92,361.05Z" transform="translate(-12.61 -9.76)"/><path class="cls-23" d="M526.36,362.84a.25.25,0,0,0,0-.07l0,0Z" transform="translate(-12.61 -9.76)"/><path class="cls-23" d="M526.4,361h0l.08-.11Z" transform="translate(-12.61 -9.76)"/><path class="cls-23" d="M526.67,361.15a2.91,2.91,0,0,0-.21.32l.11-.15Z" transform="translate(-12.61 -9.76)"/><path class="cls-23" d="M526.82,361.8l0,0Z" transform="translate(-12.61 -9.76)"/><path class="cls-23" d="M526.25,360.87l0-.09Z" transform="translate(-12.61 -9.76)"/><path class="cls-23" d="M517.62,361.48v0Z" transform="translate(-12.61 -9.76)"/><polygon class="cls-23" points="504.55 350.46 504.55 350.45 504.51 350.29 504.55 350.46"/><path class="cls-23" d="M524.84,359.56h0S524.85,359.54,524.84,359.56Z" transform="translate(-12.61 -9.76)"/><path class="cls-23" d="M522.11,359.2c0,.25-.1.31-.1.59A3.14,3.14,0,0,0,522.11,359.2Z" transform="translate(-12.61 -9.76)"/><path class="cls-23" d="M526.37,362.81h0Z" transform="translate(-12.61 -9.76)"/><path class="cls-23" d="M522,359.79h0v0Z" transform="translate(-12.61 -9.76)"/><path class="cls-23" d="M524.1,359.55l0,.12Z" transform="translate(-12.61 -9.76)"/><path class="cls-23" d="M524.5,360.06v0Z" transform="translate(-12.61 -9.76)"/><path class="cls-23" d="M523.76,359.88s0-.06,0,0v0S523.76,359.84,523.76,359.88Z" transform="translate(-12.61 -9.76)"/><path class="cls-23" d="M523.5,359.83v.05h0Z" transform="translate(-12.61 -9.76)"/><path class="cls-23" d="M518.29,361.36v-.25C518.28,361.31,518.25,361.38,518.29,361.36Z" transform="translate(-12.61 -9.76)"/><path class="cls-23" d="M526.43,362.7a.41.41,0,0,1-.06.11h0Z" transform="translate(-12.61 -9.76)"/><path class="cls-23" d="M523.27,362.05l0-.05Z" transform="translate(-12.61 -9.76)"/><path class="cls-23" d="M520.15,361.32v0Z" transform="translate(-12.61 -9.76)"/><path class="cls-23" d="M523.11,362a.89.89,0,0,0,0-.19l0,.07Z" transform="translate(-12.61 -9.76)"/><path class="cls-23" d="M518.28,361.11Z" transform="translate(-12.61 -9.76)"/><path class="cls-23" d="M518,361.77c.08,0,0-.36.06-.57s0,.27,0,.46c0-.1.06-.43.08-.42v.16c0-.29.09,0,.13-.38v-.42s0-.23,0,0c0,0,0,.09,0,.16l0-.1c0,.35,0,.12,0,.38,0-.12.08-.4.11-.31,0,.34-.06.12,0,.42l0-.13c0,.54,0,0,0,.54,0,.09.06-.18.12-.08V361c.08-.34,0,.86.12.4,0-.22,0-.65.06-.42l0,.38c.06,0,0-.55.1-.29s-.05.12,0,.17c0,.3,0-.22.06-.22v.34c.06-.05.12-.3.19-.36a1.61,1.61,0,0,0,0,.31c.09-.17.18,0,.25.24l0-.29a.87.87,0,0,1,0,.19c0,.11,0-.19,0-.3s0,.17,0,.25c.06-.24.17-.53.22-.22l0,.09c.05.12.07-.6.1-.33V361c.1.13.21-.14.27.3,0-.42.09.19.11-.4a3.54,3.54,0,0,0,.1.6s0-.37.07-.43v.3l0-.32v.37l0-.08a1.06,1.06,0,0,1,0-.23c0-.14.08.22.08.38l.09-.26a1.07,1.07,0,0,1,0,.24c.06-.31,0,.33,0,0a1.85,1.85,0,0,1,0-.24c0,.18.05.19.09.11l0,.21c.06.06.13-.09.2-.08a1.88,1.88,0,0,1,0-.5v.32c0-.2,0-.12,0-.37a2.15,2.15,0,0,1,0,.48l0-.11,0,.27c0-.2,0,.33.07,0v.1c.07,0,.11-.11.16-.12,0-.28,0-.21.08-.44,0,.1.06.32.11.3a2.06,2.06,0,0,0,.07-.4c0,.26,0,.24,0,.42.06,0,.08,0,.18-.24a1.77,1.77,0,0,1,0-.24s0,.11,0,.23v0c.14-.37.09.76.23.25v0l.11-.26s0,.18,0,.34c.13-.41.1.08.21-.19-.07.75.18,0,.16.46l0-.17c0-.17,0,.1,0,.14a1.42,1.42,0,0,1,0-.25c.18-.19.25.31.36.49s.21-.9.19-.47l-.08.32c.18-.36.22.06.39-.25a.72.72,0,0,1-.05.17c0,.24.08,0,.12-.16,0,0,0,.17,0,.27s.12-.29.08-.05a.3.3,0,0,1,0,.09c0-.11.06,0,.1-.23,0,.14.11-.1.1.07.09-.3,0,.16.14-.27-.1.44,0,.37.07.17,0,.13,0,.14-.06.33,0,0,.07-.08.12-.31-.07.54.2-.4.08.28a2,2,0,0,1,.36-.44c-.11.44-.1,0-.2.49.11-.17.24-.54.29-.41a1.86,1.86,0,0,1-.08.26c.11-.17.12.07.24-.15a.37.37,0,0,1-.05.11s0,.07.06-.13l0,.05a4.47,4.47,0,0,1,.25-.74c-.17.57,0,.16-.21.87a1.69,1.69,0,0,0,.09-.26,1.12,1.12,0,0,1-.07.27c.07-.1.11-.31.15-.3l-.08.24c.07-.18.14-.36.15-.27a.48.48,0,0,1-.05.13c.06,0,.25-.46.25-.27-.16.41,0,.15-.16.5l.07-.1,0-.17s.14-.23.12-.11l-.07.14.07-.05,0-.14c.1-.17.17-.44.17-.33s0,0,0,.22h0c.06-.1.12-.21.11-.12l-.2.45c.13-.27.09-.05.24-.34,0,.07-.12.24-.13.28l.12-.22c0,.07,0,.11-.11.25s.19-.43.15-.23l-.06.09c0,.11.16-.1.14,0-.18.33-.08.06-.22.34.07,0,.33-.33.34-.21v-.05c.29-.44-.09.25.07.06,0,0-.16.24-.13.19,0,.1.15-.06.3-.16l-.08.11c0,.12,0,.1,0,.17a1.27,1.27,0,0,0,.18-.26c-.33.71.38-.25.1.34,0,0-.08.08-.07.09l.12-.07a2,2,0,0,0,.15-.28c.09-.11.16-.19.17-.18a2.09,2.09,0,0,0-.25.43l.12-.19c-.19.37.25-.39.15-.13l-.07.11c0-.05.15-.17.15-.13-.13.23-.08.09-.2.28,0,0,.31-.4.2-.16-.05.06-.07.05-.12.1-.14.29-.09.22-.1.27h0l0,.14,0-.08c.4-.57.14-.06.41-.43a2.61,2.61,0,0,0-.29.47,1,1,0,0,1-.11.24c.14-.2-.06.19.15-.1,0,.08,0,0-.11.23.07-.05.08-.15.14-.26s-.1.41.19.05c.15-.13.31-.42.44-.54a1.63,1.63,0,0,1-.18.31c0,.14,0,.13.07,0a1.07,1.07,0,0,0-.12.24s.18-.31.14-.17l-.2.34a3.22,3.22,0,0,0,.24-.28,2.07,2.07,0,0,1-.19.32.8.8,0,0,0,.27-.34l0-.1a1.55,1.55,0,0,1-.13.26c-.12.17,0-.11,0-.19l0-.05c.24-.52-.11.05-.13,0l.2-.37-.19.29a1.41,1.41,0,0,1,.19-.35c.07-.2-.09.12,0-.1a.16.16,0,0,1,0-.06l-.08.1c0-.08.13-.26.12-.2.07-.24-.21.24-.08-.05l0,0c-.13.09-.15.27-.37.55l.34-.67-.16.26s0,0,.06-.14c-.12.17-.06.12-.17.28.11-.26-.14.07.1-.35-.13.19-.07.17-.18.29.26-.46-.08,0,0-.17s.09-.09.19-.31c-.25.38,0-.11-.06-.05-.19.31-.12.1-.22.18a1.14,1.14,0,0,0,.07-.34l0-.05c-.2.3-.2.22-.27.27a2.9,2.9,0,0,1,.24-.33h0a1,1,0,0,1-.14.17l.15-.23s-.24.23-.18,0a5,5,0,0,1-.48.74,3.15,3.15,0,0,1,.24-.36s-.08.09,0,0l.14-.19c0-.1-.12.16-.12.13l.15-.25s0,.07,0,0a.76.76,0,0,1,.12-.28l-.17.24s.12-.21.15-.31c-.08.11,0,0-.18.23a.87.87,0,0,1,.1-.2c-.09.1-.1,0-.25.26v0h0c-.21.22,0-.21-.15-.14l0-.08c-.09.07-.11,0-.24.18a1.15,1.15,0,0,1,.13-.27c-.06.05-.12.14-.08,0s.07-.14.1-.09.07-.24-.1,0c.14-.21.12-.3.07-.24l-.06.17s-.05,0-.06,0l.17-.29c.09-.41-.46.54-.24-.11-.12.2,0,.17-.15.41a4.51,4.51,0,0,1,.12-.52c0-.19-.25.43-.25.29a2.75,2.75,0,0,1-.23.49,1.77,1.77,0,0,1,.19-.56s0,0,0,.07a.35.35,0,0,0,.1-.2l0,.11c0-.12,0-.13,0-.31a.38.38,0,0,0-.08.24c0-.18-.08,0-.09-.16a.68.68,0,0,1-.06.2c0-.17-.11.2-.17.23,0-.18.14-.41,0-.28a1.37,1.37,0,0,1,.13-.39c-.12.2,0-.17-.06-.22l0-.09s0,0-.06,0l-.05.24a.27.27,0,0,1,0-.15c-.06.15-.1.38-.19.58,0-.12-.09.11,0-.2,0,.12.08-.3.14-.34s0,0,0,0a.12.12,0,0,1,0-.08c0-.29-.13.33-.19.31.06-.17.08-.33.06-.3a1.49,1.49,0,0,1-.13.42c0-.15-.06.09-.08.07v.06c0,.17-.07.15-.11.2,0-.14.05-.09.06-.15-.11.29,0-.33-.08-.14,0-.12.08-.32.08-.4-.1.21,0-.25-.08-.08a1.32,1.32,0,0,1-.11.4l.11-.15-.13.33s.08-.14.09-.09a1.08,1.08,0,0,0-.09.32c0-.36-.11.19-.09-.06l.14-.57c0-.27-.16.27-.2.11V360c-.06.23-.05,0-.09.11a3,3,0,0,0,.07-.39c0,.14-.05,0-.14.36l0-.26c0-.12-.18.54-.22.46a3,3,0,0,1,.14-.49s0-.05-.06.09c0-.13-.1.25-.08.06,0,.08-.07.28-.09.26l0-.09a1.16,1.16,0,0,0-.09.34c.07-.61-.16,0-.1-.52a.37.37,0,0,1-.15.12c0-.06,0-.1,0-.08,0-.19-.15.55-.16.34s.06-.16.07-.28c.13-.64-.08.07,0-.31v0c0-.22-.11.23-.15.18l0-.1a1.29,1.29,0,0,1-.24.49,3.54,3.54,0,0,0,.09-.38s-.08.41-.13.47a3.65,3.65,0,0,1,.06-.53h0c0-.35-.05,0-.06-.06l0-.15c-.07,0-.14.42-.2.38V360c-.11.37,0-.22-.08,0l.06-.39a4.28,4.28,0,0,1-.2.43c.08-.28.15-.42.21-.59,0,0-.08,0-.13.21,0,0,.05-.13.05-.07-.09.3-.15.44-.19.43.14-.75-.08-.21,0-.8-.13.26-.14-.15-.25-.12-.06.59,0,0-.12.62,0,0,0,0,0,0v-.37c0-.18,0-.13.07-.26s0-.26,0-.43c0,.22-.07.31-.08.22v.29c-.11.31,0-.52-.1-.21l.05-.19c-.05.11-.13,0-.23.46a1.11,1.11,0,0,1,0-.28c-.08-.08-.26.49-.28.19l0-.15s-.06.27-.06.12,0-.15,0-.16-.08.26-.09.17l0-.16c-.06-.21-.17.39-.25.48a1.38,1.38,0,0,0,0-.66v-.06c-.09-.06-.2.35-.3.51,0-.48-.18-.21-.26-.48a1.43,1.43,0,0,1,0,.38c0-.09-.07.31,0-.1h0c0-.4-.05-.29-.08-.3l0,.52c-.06-.77-.24.28-.26-.41,0,.13-.05.13-.07.26v-.28c-.06-.07-.08-.11-.16,0l0-.2s-.06.82-.1.83v-.42c-.07,0-.13-.36-.21,0,0-.06,0-.19,0-.2s-.11-.29-.11.29c0-.38-.07,0-.11.13V359a1.87,1.87,0,0,1-.09.56s0-.23,0-.16c0-.14,0,.27-.07.12l0-.18s0,.08-.06.28-.06-.07-.06-.32c0,.15,0,.36,0,.29s0-.16,0-.19c-.06-.19-.09.33-.13.05v-.16s.08,0,.08,0a3.59,3.59,0,0,1,0-.66c0,.2-.09.62-.13.5v-.12s0,0,0,0a.22.22,0,0,0,0-.08c0-.21,0-.11-.06-.12a3.66,3.66,0,0,0,0,.47,0,0,0,0,1,0-.05s0,0,0,0v0l0,0c0,.14,0,.26-.06.11l0,.45c0-.39-.07-.6-.07-.85a1.07,1.07,0,0,0-.18.64c0,.06,0-.15,0-.24a.68.68,0,0,0,0-.12c0,.14-.1.05-.11.42,0-.16,0-.34,0-.28v-.11c-.11-.59-.19.94-.31.19a.39.39,0,0,1,0,.13c-.08-.17-.12-.09-.18,0s-.14.07-.21-.2c0-.1-.07.13-.1.31v-.3l-.06.35c0,.25-.19-.74-.25-.24l0,.2s-.08.14-.11-.1c0,0,0,.22,0,.11l0-.15a2.83,2.83,0,0,0,0,.29c-.09-.09-.13-.62-.24-.61a1.61,1.61,0,0,0,.08.6.72.72,0,0,1,.1.23v.1c.13.44.27.87.37,1.16l-.06-.28.06.21v0c.06.2,0,0,0-.11l.06.24-.08-.43.1.44a5.24,5.24,0,0,1-.1-.53c0,.2.07.38,0,.2l0,.24c0-.14,0-.06,0-.31,0,.26,0-.07.07.37a2.52,2.52,0,0,1,0-.37c0,.53,0,0,0,.6,0-.47,0-.21.08-.47a.31.31,0,0,1,0,.09s0,.18,0,.27a4,4,0,0,1,.1-.71c0,.37-.05.45-.06.82,0-.32.08-.32.08-.58a2.57,2.57,0,0,1,0,.44c0-.49,0-.08.08-.38,0,.24,0,.46.07.31A.65.65,0,0,1,518,361.77Zm1-.84h0l0,0Zm.08,0h0a1.7,1.7,0,0,1,0-.19A2,2,0,0,0,519,360.92Zm-.14-1.95s0,0,0,.08l0,0V359Z" transform="translate(-12.61 -9.76)"/><path class="cls-23" d="M518.84,359.34v0Z" transform="translate(-12.61 -9.76)"/><path class="cls-23" d="M525.9,361.09h0v0Z" transform="translate(-12.61 -9.76)"/><polygon class="cls-23" points="507.45 351.69 507.45 351.62 507.44 351.68 507.45 351.69"/><path class="cls-23" d="M525.75,362.14l0,.06Z" transform="translate(-12.61 -9.76)"/><path class="cls-23" d="M525.88,362.29l0,.1A.33.33,0,0,0,525.88,362.29Z" transform="translate(-12.61 -9.76)"/><path class="cls-23" d="M525.94,362.49l.06-.1h0Z" transform="translate(-12.61 -9.76)"/><path class="cls-23" d="M524,361.88h0C524,361.94,524,361.92,524,361.88Z" transform="translate(-12.61 -9.76)"/><path class="cls-23" d="M524.79,361.43l-.07.12S524.73,361.58,524.79,361.43Z" transform="translate(-12.61 -9.76)"/><polygon class="cls-23" points="510.66 352.29 510.67 352.28 510.66 352.28 510.66 352.29"/><path class="cls-23" d="M524.7,361.53c0,.06,0,.05,0,0S524.72,361.5,524.7,361.53Z" transform="translate(-12.61 -9.76)"/><path class="cls-23" d="M526.48,362.93v0l0,0Z" transform="translate(-12.61 -9.76)"/><path class="cls-23" d="M526.5,362.91l0,0Z" transform="translate(-12.61 -9.76)"/><path class="cls-23" d="M526.57,362.82l-.05.06S526.53,362.89,526.57,362.82Z" transform="translate(-12.61 -9.76)"/><path class="cls-23" d="M526.35,362.72l-.05.09Z" transform="translate(-12.61 -9.76)"/><path class="cls-23" d="M526.27,362.72s-.06.21,0,.16l0-.07C526.22,362.94,526.37,362.57,526.27,362.72Z" transform="translate(-12.61 -9.76)"/><path class="cls-23" d="M526.68,361.5v.09a.83.83,0,0,1,.15-.24C526.93,361,526.71,361.56,526.68,361.5Z" transform="translate(-12.61 -9.76)"/><path class="cls-23" d="M526.64,361.29a.86.86,0,0,0,.11-.19A.52.52,0,0,0,526.64,361.29Z" transform="translate(-12.61 -9.76)"/><path class="cls-23" d="M525.73,360.72l.13-.22S525.81,360.59,525.73,360.72Z" transform="translate(-12.61 -9.76)"/><polygon class="cls-23" points="512.29 352.01 512.23 352.15 512.34 351.95 512.29 352.01"/><polygon class="cls-23" points="512.99 350.32 513.02 350.29 512.94 350.36 512.99 350.32"/><path class="cls-23" d="M523.6,359.59l-.06.31S523.64,359.51,523.6,359.59Z" transform="translate(-12.61 -9.76)"/><path class="cls-23" d="M522.75,359.75c0-.16,0-.26,0-.11S522.73,359.79,522.75,359.75Z" transform="translate(-12.61 -9.76)"/><polygon class="cls-23" points="507.73 349.17 507.75 349.07 507.72 349.15 507.73 349.17"/><path class="cls-23" d="M532.39,359.78c.07,0,.22-.19.18-.17l-.26.21Z" transform="translate(-12.61 -9.76)"/><path class="cls-23" d="M532.79,359.3a5.09,5.09,0,0,0-.56.5l.43-.36s-.06.09-.15.17c.06-.06,0,.06.12-.08s.16-.21,0-.08Z" transform="translate(-12.61 -9.76)"/><path class="cls-23" d="M531.76,358v0S531.77,358,531.76,358Z" transform="translate(-12.61 -9.76)"/><path class="cls-23" d="M530.87,357.58a.24.24,0,0,0,0-.07Z" transform="translate(-12.61 -9.76)"/><path class="cls-23" d="M530.8,357.18v0Z" transform="translate(-12.61 -9.76)"/><path class="cls-23" d="M531.76,358l0-.1C531.74,358,531.76,358,531.76,358Z" transform="translate(-12.61 -9.76)"/><path class="cls-23" d="M532.1,359.74l.07-.05,0,0Z" transform="translate(-12.61 -9.76)"/><path class="cls-23" d="M532.3,358h0l.06-.12Z" transform="translate(-12.61 -9.76)"/><path class="cls-23" d="M532.65,358.12s-.15.22-.22.32a1,1,0,0,1,.12-.15Z" transform="translate(-12.61 -9.76)"/><path class="cls-23" d="M532.82,358.86l0,0Z" transform="translate(-12.61 -9.76)"/><path class="cls-23" d="M532.08,357.81l0-.1Z" transform="translate(-12.61 -9.76)"/><path class="cls-23" d="M522.91,357.54v0A.1.1,0,0,0,522.91,357.54Z" transform="translate(-12.61 -9.76)"/><polygon class="cls-23" points="510.46 346.39 510.47 346.37 510.5 346.22 510.46 346.39"/><path class="cls-23" d="M530.59,356.77h0S530.59,356.75,530.59,356.77Z" transform="translate(-12.61 -9.76)"/><path class="cls-23" d="M528,356.38a4.68,4.68,0,0,0-.13.59A3.74,3.74,0,0,0,528,356.38Z" transform="translate(-12.61 -9.76)"/><path class="cls-23" d="M532.12,359.71h0S532.11,359.72,532.12,359.71Z" transform="translate(-12.61 -9.76)"/><path class="cls-23" d="M527.84,357h0v0Z" transform="translate(-12.61 -9.76)"/><path class="cls-23" d="M529.93,356.79l0,.12Z" transform="translate(-12.61 -9.76)"/><path class="cls-23" d="M530.3,357.29v0A.1.1,0,0,0,530.3,357.29Z" transform="translate(-12.61 -9.76)"/><path class="cls-23" d="M529.61,357.12s0-.06,0,0v0S529.61,357.07,529.61,357.12Z" transform="translate(-12.61 -9.76)"/><path class="cls-23" d="M529.34,357.05v.06h0Z" transform="translate(-12.61 -9.76)"/><path class="cls-23" d="M523.82,357.74l.06-.25C523.83,357.69,523.77,357.74,523.82,357.74Z" transform="translate(-12.61 -9.76)"/><path class="cls-23" d="M532.21,359.63l-.09.08h0Z" transform="translate(-12.61 -9.76)"/><path class="cls-23" d="M529,359.26l0-.05S529,359.26,529,359.26Z" transform="translate(-12.61 -9.76)"/><path class="cls-23" d="M525.71,358.25l0,0S525.7,358.28,525.71,358.25Z" transform="translate(-12.61 -9.76)"/><path class="cls-23" d="M528.88,359.22c0-.1,0-.15,0-.19l0,.07Z" transform="translate(-12.61 -9.76)"/><path class="cls-23" d="M523.89,357.49h0Z" transform="translate(-12.61 -9.76)"/><path class="cls-23" d="M523.39,358c.07,0,.14-.34.22-.53,0,0,0,0,0,0a2.84,2.84,0,0,1-.12.46c.06-.08.18-.4.2-.38a1.31,1.31,0,0,1-.05.15c.12-.27.1,0,.24-.33l0,.09L524,357s.1-.21,0,0c0,0,0,.09-.06.16l0-.1c-.08.34,0,.11-.13.36.07-.1.19-.37.19-.26-.09.32-.09.09-.14.39v-.14c-.12.52,0,0-.15.52,0,.11.12-.15.14,0l.14-.45c.18-.3-.18.84,0,.42.08-.21.2-.62.18-.39l-.12.37c0,.05.19-.52.17-.26s-.08.11-.08.16c0,.3.08-.21.11-.2l-.09.33c.07,0,.21-.25.29-.29a1,1,0,0,0-.09.3c.13-.14.16.09.18.31l.11-.28a.48.48,0,0,1,0,.19c0,.11.06-.18.1-.29s0,.17-.06.25c.13-.22.3-.47.27-.15l0,.08c0,.13.21-.56.18-.29l0,0c.06.15.24-.08.2.37.12-.4,0,.21.21-.36a2.71,2.71,0,0,0,0,.61s.12-.35.17-.4l-.08.3.12-.31-.08.37.05-.07a.82.82,0,0,1,0-.23c.08-.12,0,.23,0,.39l.16-.23c0,.12-.06.15-.09.23.12-.3-.07.31,0,.05a1.68,1.68,0,0,1,.07-.24c0,.18,0,.2.08.13l-.06.21c.06.06.17-.07.25,0a1.54,1.54,0,0,1,.11-.49l-.06.32a2.67,2.67,0,0,1,.09-.36,1.65,1.65,0,0,1-.11.47l.06-.1-.07.26c.06-.19,0,.33.09,0l0,.1c.08,0,.14-.08.2-.09a2.57,2.57,0,0,1,.14-.42c0,.1,0,.32.09.31a2,2,0,0,0,.11-.39c0,.25,0,.24-.06.41.08,0,.1,0,.22-.22a.79.79,0,0,1,0-.23s0,.11,0,.23v0c.17-.36.06.77.24.26v0l.13-.26c0,.05-.06.18-.06.34.16-.4.11.09.23-.17-.1.75.19,0,.16.47l0-.18c0-.17,0,.11,0,.15,0-.14,0-.16,0-.25.2-.18.26.31.37.5s.23-.89.2-.46l-.09.32c.2-.36.22.06.4-.24,0,.07,0,.17,0,.16,0,.24.07,0,.12-.15,0,0,0,.17-.05.27s.13-.29.08,0l0,.09c0-.11.06,0,.11-.23,0,.14.11-.1.1.07.09-.3,0,.16.14-.26-.11.43,0,.37.06.17-.05.13,0,.14-.08.32,0,0,.09-.07.14-.3-.07.54.23-.39.09.29a2.55,2.55,0,0,1,.39-.43c-.1.44-.1,0-.2.48.12-.16.25-.53.31-.4a1.53,1.53,0,0,1-.08.26c.12-.16.14.07.26-.15a.28.28,0,0,1,0,.12s0,.07.06-.13l0,.05a6.12,6.12,0,0,1,.22-.75c-.15.57,0,.16-.16.88a1.31,1.31,0,0,0,.08-.27.92.92,0,0,1-.06.27c.07-.1.1-.31.15-.3l-.07.25c.06-.19.13-.37.14-.28a.32.32,0,0,1,0,.13c.07,0,.22-.48.25-.28-.12.41,0,.14-.09.51l.06-.1,0-.18s.12-.25.11-.12l0,.14.07-.05v-.15c.08-.18.11-.46.13-.35s0,0,0,.23h0c0-.11.09-.23.09-.13l-.12.48c.09-.3.09-.07.19-.38l-.08.3.08-.24a1.74,1.74,0,0,1-.06.27c0,.05.11-.46.11-.25,0,0,0,.05,0,.09s.14-.13.15,0c-.09.37-.06.08-.13.39.07-.05.26-.4.29-.29v0c.18-.5,0,.26.08,0,0,0-.11.28-.09.22,0,.1.13-.09.25-.22l-.06.12c0,.12,0,.09,0,.16a2.14,2.14,0,0,0,.13-.29c-.23.75.32-.31.12.31,0,0-.07.1-.06.1l.1-.09a2.21,2.21,0,0,0,.13-.29c.07-.12.13-.2.15-.2a1.87,1.87,0,0,0-.22.45l.1-.19c-.16.38.23-.41.14-.14l-.06.1s.14-.18.14-.14c-.13.24-.08.1-.19.3,0,0,.3-.42.19-.17l-.11.1c-.13.29-.09.22-.1.27h0l0,.14,0-.08c.4-.58.12-.07.41-.43a2.14,2.14,0,0,0-.31.45,1.71,1.71,0,0,1-.13.23c.15-.19-.09.17.13-.1a.9.9,0,0,1-.13.21,1.41,1.41,0,0,0,.16-.24c.23-.24-.17.37.15,0,.15-.11.37-.36.52-.45a1.54,1.54,0,0,1-.25.26c-.07.13,0,.12.05,0-.06.06-.1.12-.17.2s.25-.25.17-.13l-.28.28a3.15,3.15,0,0,1,.29-.22,1.88,1.88,0,0,1-.27.25,1.45,1.45,0,0,0,.35-.25l.05-.08s-.16.17-.2.2.05-.09.12-.16l0,0c.39-.42-.11,0-.11,0l.29-.3-.26.23a2.67,2.67,0,0,1,.27-.29c.12-.17-.11.09,0-.1a.23.23,0,0,1,.05-.05l-.1.07c.06-.06.18-.22.16-.16.11-.22-.27.18-.08-.08l0,0c-.15.07-.2.24-.46.48l.43-.61-.19.24s0,0,.08-.14a2.39,2.39,0,0,0-.21.26c.14-.25-.15.05.12-.35-.14.18-.07.16-.2.27.29-.43-.08.05,0-.16s.1-.09.21-.31c-.27.37,0-.12-.08-.06-.2.31-.14.09-.24.17.07-.1,0-.21,0-.35l0-.06c-.18.32-.19.24-.25.29a1.73,1.73,0,0,1,.21-.35h0a.85.85,0,0,1-.14.18l.13-.24s-.22.25-.19.06a6.75,6.75,0,0,1-.38.8,3.93,3.93,0,0,1,.18-.39s-.06.1,0,0l.11-.2c0-.11-.09.17-.1.14.08-.18,0-.13.11-.27s0,.08,0,0a.75.75,0,0,1,.06-.3,1,1,0,0,1-.13.26s.08-.23.1-.33c-.07.12,0,0-.15.25a2.12,2.12,0,0,1,.06-.21c-.07.12-.11,0-.2.3v0h0c-.17.25-.08-.21-.19-.11l0-.09c-.07.09-.1,0-.2.22a1.19,1.19,0,0,1,.07-.29c-.05.06-.09.17-.08,0s0-.15.07-.11,0-.25-.1,0c.08-.24.06-.32,0-.25l0,.18s0,0-.05,0l.1-.32c0-.42-.33.63-.22-.05-.08.22,0,.17-.08.43a4.09,4.09,0,0,1,0-.53c0-.19-.17.46-.19.33a2.38,2.38,0,0,1-.15.52,1.9,1.9,0,0,1,.11-.58s0,0,0,.07a.53.53,0,0,0,.07-.21l0,.11c0-.12,0-.12,0-.31a.37.37,0,0,0-.05.25c0-.17-.08,0-.1-.14a1.13,1.13,0,0,1,0,.2c0-.16-.08.21-.14.25,0-.18.11-.42,0-.28a1.18,1.18,0,0,1,.09-.4c-.09.21,0-.17-.06-.21l0-.09c0,.05,0,.05-.05,0l0,.24a.24.24,0,0,1,0-.15c0,.15-.07.39-.15.59,0-.12-.08.12,0-.19,0,.12.07-.31.12-.35s0,0,0,0a.22.22,0,0,1,0-.08c0-.29-.1.34-.16.32a.87.87,0,0,0,.05-.3,1.51,1.51,0,0,1-.11.42c0-.14-.06.1-.07.08v.06c0,.18-.06.15-.1.2,0-.14,0-.09,0-.15-.09.3,0-.33-.07-.13,0-.12.07-.33.07-.41-.09.22,0-.25-.07-.07a1.4,1.4,0,0,1-.11.4l.11-.15-.12.33s.07-.14.08-.1a.94.94,0,0,0-.08.33c0-.36-.11.19-.09-.06l.13-.57c0-.27-.15.27-.18.11v.11c-.07.23,0,0-.09.11,0-.19,0-.27.07-.39,0,.15,0,0-.14.36l0-.26c0-.11-.19.53-.23.45a4.47,4.47,0,0,1,.16-.48s0-.05-.06.09c0-.12-.11.24-.08.06a1.39,1.39,0,0,1-.1.26l0-.1a2.67,2.67,0,0,0-.1.34c.1-.61-.16,0-.08-.52a.57.57,0,0,1-.16.11c0-.06,0-.1,0-.08,0-.19-.16.55-.17.34s.07-.17.08-.29c.14-.63-.09.07,0-.3l0,0c0-.22-.13.22-.16.17l0-.1a1.22,1.22,0,0,1-.26.49,2.36,2.36,0,0,0,.1-.38s-.08.41-.14.47c0-.14,0-.27.07-.54h0c.06-.35,0,0-.06-.07l0-.15c-.07,0-.15.42-.21.38l0,.12c-.11.37,0-.22-.07.05l.07-.38c0,.08-.16.35-.21.42a5.59,5.59,0,0,1,.22-.59s-.08,0-.13.2c0,0,.05-.12,0-.06-.09.3-.16.44-.2.42.17-.75-.07-.21,0-.8-.14.26-.13-.15-.23-.12-.09.59,0,0-.15.61,0,0,0,0,0,0v-.37c0-.18,0-.13.07-.26s0-.26,0-.43c0,.22-.08.31-.09.22l0,.28c-.13.31,0-.51-.08-.21l.06-.18c-.06.1-.12,0-.25.44a1,1,0,0,1,0-.27c-.06-.09-.28.47-.27.17l0-.15s-.08.27-.07.12a.41.41,0,0,0,0-.16c0,.05-.09.25-.09.16l0-.16c0-.21-.2.38-.28.47a1.68,1.68,0,0,0,.05-.66v-.06c-.07-.08-.22.32-.34.47,0-.48-.12-.23-.14-.51a1.62,1.62,0,0,1-.11.37c0-.09-.12.29,0-.11h0c.08-.38,0-.29,0-.31l-.13.51c.11-.76-.27.23-.14-.45-.05.12-.07.11-.12.24l.07-.28c0-.08,0-.12-.13-.07l.07-.19s-.26.77-.3.78l.11-.41c-.06,0,0-.39-.2,0l.07-.19s0-.31-.19.25c.11-.36-.05-.05-.13.1l.08-.27a2.61,2.61,0,0,1-.22.51s.05-.22,0-.14c0-.15-.1.24-.1.09l.07-.17s-.05.06-.13.26,0-.09,0-.33c0,.14-.12.33-.12.26a.72.72,0,0,1,.06-.17c0-.2-.17.28-.14,0l0-.16c.05,0,.08,0,.07.06a5.12,5.12,0,0,1,.17-.63c-.08.17-.24.56-.25.44l0-.09,0,0s0,0,0,0,0-.08,0-.09c.06-.2,0-.12,0-.13a2.66,2.66,0,0,0-.13.45s0,0,0,0,0,0,0,0v0H525c-.06.13-.11.24-.08.09l-.15.43c.08-.39.09-.61.15-.84a1.12,1.12,0,0,0-.34.56c0,.06,0-.15.05-.23a.58.58,0,0,0,0-.11c-.06.12-.1,0-.21.37,0-.17.11-.32,0-.28l0-.1c.06-.6-.44.85-.34.09a.69.69,0,0,1,0,.13c0-.08,0-.11-.06-.12s-.26.22-.19-.2c0-.12-.09.1-.19.25l.12-.28-.18.3c-.16.21.18-.73-.09-.32l-.06.2c0-.05-.14.08-.06-.14,0,0-.08.19-.06.09l.05-.15-.16.23c0-.12.18-.6.07-.65a1.4,1.4,0,0,0-.21.53.54.54,0,0,1,0,.26l0,.08c-.09.45-.17.92-.22,1.24l.08-.27-.05.22h0c0,.21,0,0,0-.1l-.06.24.13-.42-.13.44c.07-.19.11-.39.17-.52-.06.21-.12.37,0,.2l-.09.23a2,2,0,0,0,.13-.28c-.08.25.07,0-.1.37a2.41,2.41,0,0,1,.18-.32c-.23.47,0,.05-.19.56.21-.42.17-.15.32-.37,0,0-.05.1,0,.07a1.29,1.29,0,0,1-.06.28,4.32,4.32,0,0,1,.36-.63c-.1.36-.2.41-.32.75.11-.29.19-.26.27-.51a2.19,2.19,0,0,1-.11.42c.18-.45.07-.06.2-.33,0,.25-.13.44,0,.32A.68.68,0,0,1,523.39,358Zm1.18-.53Zm.08,0s0,0,0,0,0-.19.06-.18A1.06,1.06,0,0,0,524.65,357.53Zm.38-1.92s0,0,0,.07l0,0v0Z" transform="translate(-12.61 -9.76)"/><path class="cls-23" d="M524.91,356h0V356l0-.09Z" transform="translate(-12.61 -9.76)"/><path class="cls-23" d="M531.76,358.08h0v0Z" transform="translate(-12.61 -9.76)"/><polygon class="cls-23" points="512.97 348.59 512.99 348.52 512.97 348.58 512.97 348.59"/><path class="cls-23" d="M531.75,359.13l0,.07Z" transform="translate(-12.61 -9.76)"/><path class="cls-23" d="M531.86,359.26l0,.1Z" transform="translate(-12.61 -9.76)"/><path class="cls-23" d="M531.88,359.44l.07-.1h0Z" transform="translate(-12.61 -9.76)"/><path class="cls-23" d="M529.9,359.13h0C529.87,359.19,529.88,359.17,529.9,359.13Z" transform="translate(-12.61 -9.76)"/><path class="cls-23" d="M530.7,358.63l-.05.13S530.66,358.79,530.7,358.63Z" transform="translate(-12.61 -9.76)"/><polygon class="cls-23" points="516.42 349.5 516.42 349.5 516.42 349.5 516.42 349.5"/><path class="cls-23" d="M530.62,358.75c0,.05,0,0,0,0S530.64,358.71,530.62,358.75Z" transform="translate(-12.61 -9.76)"/><path class="cls-23" d="M532.15,359.83h0l0,0Z" transform="translate(-12.61 -9.76)"/><path class="cls-23" d="M532.17,359.81l0,0Z" transform="translate(-12.61 -9.76)"/><path class="cls-23" d="M532.26,359.75l-.06,0Z" transform="translate(-12.61 -9.76)"/><path class="cls-23" d="M532.14,359.64l-.07.07Z" transform="translate(-12.61 -9.76)"/><path class="cls-23" d="M532.09,359.63s-.13.18-.08.14l.06-.06C532,359.82,532.21,359.51,532.09,359.63Z" transform="translate(-12.61 -9.76)"/><path class="cls-23" d="M532.68,358.5v.1c.06-.09.13-.22.17-.22C533,358.07,532.72,358.58,532.68,358.5Z" transform="translate(-12.61 -9.76)"/><path class="cls-23" d="M532.62,358.27c.06,0,.09-.13.13-.18A.38.38,0,0,0,532.62,358.27Z" transform="translate(-12.61 -9.76)"/><path class="cls-23" d="M531.48,357.74l.08-.24S531.53,357.6,531.48,357.74Z" transform="translate(-12.61 -9.76)"/><polygon class="cls-23" points="518.29 349.19 518.27 349.35 518.34 349.12 518.29 349.19"/><polygon class="cls-23" points="518.65 347.4 518.67 347.37 518.61 347.45 518.65 347.4"/><path class="cls-23" d="M529.45,356.82l-.07.31C529.4,357.08,529.49,356.74,529.45,356.82Z" transform="translate(-12.61 -9.76)"/><path class="cls-23" d="M528.58,357c0-.16,0-.26,0-.11S528.56,357,528.58,357Z" transform="translate(-12.61 -9.76)"/><polygon class="cls-23" points="513.79 346.19 513.83 346.1 513.78 346.17 513.79 346.19"/><path class="cls-23" d="M533.24,356.55l.18-.17-.17.16Z" transform="translate(-12.61 -9.76)"/><path class="cls-23" d="M533.65,356.09l-.22.24-.16.19h0l.05-.06.21-.23s-.06.09-.15.17c.06,0,0,.06.1-.09s.17-.2,0-.05Z" transform="translate(-12.61 -9.76)"/><path class="cls-23" d="M533,355.26v0A.08.08,0,0,0,533,355.26Z" transform="translate(-12.61 -9.76)"/><path class="cls-23" d="M532.64,354.77l.05,0A.12.12,0,0,0,532.64,354.77Z" transform="translate(-12.61 -9.76)"/><path class="cls-23" d="M532.73,354.39v0S532.74,354.37,532.73,354.39Z" transform="translate(-12.61 -9.76)"/><path class="cls-23" d="M533,355.26l.05-.09C533,355.26,533.05,355.24,533,355.26Z" transform="translate(-12.61 -9.76)"/><path class="cls-23" d="M533.23,356.58h0Z" transform="translate(-12.61 -9.76)"/><path class="cls-23" d="M533.32,355.11h0l0-.12Z" transform="translate(-12.61 -9.76)"/><path class="cls-23" d="M533.44,355.1l-.11.37.06-.18Z" transform="translate(-12.61 -9.76)"/><path class="cls-23" d="M533.66,355.7l0,0Z" transform="translate(-12.61 -9.76)"/><path class="cls-23" d="M533.28,355l.05-.09Z" transform="translate(-12.61 -9.76)"/><path class="cls-23" d="M527.66,354.53v0Z" transform="translate(-12.61 -9.76)"/><polygon class="cls-23" points="514.88 343.39 514.88 343.37 514.87 343.22 514.88 343.39"/><path class="cls-23" d="M532.66,354Z" transform="translate(-12.61 -9.76)"/><path class="cls-23" d="M531.05,353.31c-.1.23-.18.27-.29.53C530.81,353.74,531,353.46,531.05,353.31Z" transform="translate(-12.61 -9.76)"/><path class="cls-23" d="M533.23,356.59h0S533.22,356.6,533.23,356.59Z" transform="translate(-12.61 -9.76)"/><path class="cls-23" d="M530.76,353.84h0v0Z" transform="translate(-12.61 -9.76)"/><path class="cls-23" d="M532.22,353.9l-.06.11Z" transform="translate(-12.61 -9.76)"/><path class="cls-23" d="M532.31,354.4v0Z" transform="translate(-12.61 -9.76)"/><path class="cls-23" d="M531.88,354.17s0-.05,0,0v0S531.9,354.13,531.88,354.17Z" transform="translate(-12.61 -9.76)"/><path class="cls-23" d="M531.73,354.09l0,.05h0Z" transform="translate(-12.61 -9.76)"/><path class="cls-23" d="M527.87,354.45l.08-.24C527.88,354.4,527.84,354.46,527.87,354.45Z" transform="translate(-12.61 -9.76)"/><path class="cls-23" d="M533.23,356.58h0Z" transform="translate(-12.61 -9.76)"/><path class="cls-23" d="M530.82,356.12v-.05A.07.07,0,0,0,530.82,356.12Z" transform="translate(-12.61 -9.76)"/><path class="cls-23" d="M529,354.87l0,0Z" transform="translate(-12.61 -9.76)"/><path class="cls-23" d="M530.72,356.06l.08-.18,0,.07Z" transform="translate(-12.61 -9.76)"/><path class="cls-23" d="M528,354.21Z" transform="translate(-12.61 -9.76)"/><path class="cls-23" d="M527.66,354.82l.16-.56a3.29,3.29,0,0,1-.12.45c0-.09.15-.41.15-.4l-.05.16c.1-.28,0,0,.18-.35l0,.09.16-.48s.1-.22,0,0a.67.67,0,0,0-.06.15l0-.09a3.09,3.09,0,0,1-.14.35c.06-.1.18-.36.16-.27a3.6,3.6,0,0,0-.16.39l0-.13c-.17.51,0,0-.18.51,0,.1.08-.16.07,0l.17-.44c.17-.3-.28.81-.09.4.1-.21.26-.61.2-.39l-.15.35c0,.05.22-.5.15-.25s-.07.11-.08.15c-.1.29.1-.19.11-.18l-.13.31s.19-.25.25-.29-.09.19-.12.29c.11-.14.08.08,0,.29l.14-.26s0,.12-.08.17.08-.17.14-.27a1,1,0,0,1-.1.24c.14-.21.32-.45.24-.14l-.05.08c0,.12.27-.54.2-.28l0,.05c0,.15.21-.07.08.36.16-.4,0,.19.2-.36-.07.29-.12.38-.15.58,0,0,.15-.33.19-.38l-.12.28.15-.29-.14.34.05-.06a1.63,1.63,0,0,1,.07-.22c.08-.12,0,.22-.09.37l.15-.22-.11.22c.15-.28-.13.3,0,0l.1-.22c-.06.17,0,.19,0,.12l-.09.2c0,.06.11-.06.15,0a2.91,2.91,0,0,1,.21-.46l-.13.3a3.2,3.2,0,0,1,.16-.33,3.06,3.06,0,0,1-.2.43l.06-.09-.11.24c.09-.18-.11.31.05,0l0,.09s.1-.08.14-.07a3.19,3.19,0,0,1,.22-.39c0,.09-.09.3,0,.29a2.3,2.3,0,0,0,.2-.35,2.93,2.93,0,0,1-.17.38c.05,0,.07,0,.21-.19a1,1,0,0,1,.1-.21.84.84,0,0,1-.09.21v0c.22-.31-.23.73.06.27l0,0,.17-.23a3.19,3.19,0,0,1-.16.31c.25-.35.05.1.22-.13-.33.68.13,0-.06.45l.08-.16c.09-.15,0,.1,0,.14.07-.12.07-.15.12-.23s0,.33.07.52.46-.8.3-.4l-.17.28c.25-.31.13.09.36-.17a.71.71,0,0,1-.1.15c-.1.22.05,0,.14-.14a2.45,2.45,0,0,1-.12.25c-.06.13.18-.25.07,0a.56.56,0,0,1,0,.08c.07-.1,0,.05.16-.2,0,.13.1-.08,0,.07.16-.26,0,.16.18-.22-.22.39-.13.34,0,.16-.07.12-.05.14-.15.3,0,0,.08-.06.19-.27-.23.5.27-.34,0,.28a2.37,2.37,0,0,1,.4-.37c-.21.4-.07,0-.29.43.13-.14.34-.47.34-.34a2,2,0,0,1-.14.23c.13-.14.08.09.23-.11a.44.44,0,0,1-.06.1s0,.07.08-.11l0,.05a6.73,6.73,0,0,1,.39-.68c-.29.52,0,.16-.39.8l.14-.23a1.21,1.21,0,0,1-.13.24c.08-.08.17-.28.19-.27l-.13.23c.1-.17.2-.34.18-.25a.7.7,0,0,1-.07.11s.3-.42.24-.24c-.23.37-.06.13-.26.45l.08-.08.09-.16s.17-.21.12-.1l-.1.13.07,0,.06-.13c.12-.16.25-.4.22-.3s0,0-.1.2h0c.08-.1.16-.2.12-.11l-.28.41c.18-.26.09-.05.29-.31l-.18.25.15-.2-.15.23c0,.06.26-.39.17-.21l-.06.08c0,.11.15-.09.11,0-.21.31-.08.06-.25.33.08,0,.34-.32.33-.21l0,0c.3-.44-.12.23,0,0l-.13.19c0,.09.13-.06.27-.18l-.08.12c-.05.11,0,.09,0,.15a1.05,1.05,0,0,0,.17-.26c-.17.38,0,.29,0,.19s.16-.16.06.13c0,0-.07.1-.06.1l.11-.08a3.07,3.07,0,0,0,.11-.31.84.84,0,0,1,.13-.21,2.14,2.14,0,0,0-.18.47l.08-.2c-.13.39.18-.43.11-.16l0,.11c0-.05.1-.2.1-.16a2.63,2.63,0,0,1-.13.32s.21-.47.14-.21a1.48,1.48,0,0,1-.08.13c-.08.31,0,.23,0,.29h0v.06c.23-.66.1-.1.25-.53a3.91,3.91,0,0,0-.15.53,2.38,2.38,0,0,1-.05.26c.08-.23,0,.19.08-.15,0,.09,0,0-.06.25,0-.07,0-.17.08-.28.12-.31-.08.39.08,0a3.51,3.51,0,0,1,.32-.61,2.82,2.82,0,0,1-.16.32c0,.13,0,.11,0,0l-.13.23s.18-.3.12-.18l-.16.27a1.55,1.55,0,0,1,.15-.23l-.14.2.19-.23,0-.08a2.76,2.76,0,0,1-.17.22l.11-.16,0-.05c.32-.47-.08.05-.06,0l.21-.36-.19.29a2.72,2.72,0,0,1,.2-.35c.07-.19-.09.12,0-.09l0-.06-.07.1c0-.08.12-.27.11-.21,0-.24-.19.26-.09,0v0a4.07,4.07,0,0,0-.27.61l.22-.73-.1.29a.54.54,0,0,1,0-.15c-.08.19,0,.13-.11.31.06-.27-.1.11,0-.36-.07.22,0,.18-.09.33.13-.51-.05.08,0-.16a1.46,1.46,0,0,0,.1-.35c-.13.43,0-.11,0,0-.1.35-.07.14-.13.25a3.23,3.23,0,0,0,.06-.33l0-.06c-.13.34-.13.27-.17.33l.17-.37h0a1,1,0,0,1-.11.2l.12-.25s-.17.28-.1.11a7.8,7.8,0,0,1-.41.78l.2-.38s-.06.1,0,0l.12-.2c0-.1-.1.17-.1.15l.14-.27s0,.08,0,0a1,1,0,0,1,.12-.28,1.75,1.75,0,0,1-.15.25s.12-.21.16-.3c-.07.12,0,0-.16.25,0,0,.07-.13.11-.2-.07.11-.06,0-.22.28v0h0c-.19.23,0-.18-.08-.1l.05-.08c-.08.08-.08,0-.21.19a1.42,1.42,0,0,1,.16-.25c-.06.05-.13.14-.06,0s.09-.13.09-.09.12-.22-.06,0c.15-.21.17-.28.11-.22l-.09.16s0,0,0,0l.19-.27c.19-.36-.47.51-.12-.07-.14.19-.07.15-.23.37a4.07,4.07,0,0,1,.24-.47c.07-.17-.3.39-.26.26a2.83,2.83,0,0,1-.32.45,3.67,3.67,0,0,1,.31-.51s0,0,0,.07a.9.9,0,0,0,.12-.19l-.06.1c0-.11,0-.12.12-.28a.59.59,0,0,0-.13.22c.06-.16,0,0,0-.15a1.24,1.24,0,0,1-.1.17c0-.15-.14.18-.2.21.08-.17.23-.37.12-.26a1.48,1.48,0,0,1,.21-.35c-.15.18,0-.17,0-.22l.07-.07s-.05,0-.06,0l-.1.21a.26.26,0,0,1,.05-.13c-.09.13-.18.35-.3.53,0-.12-.11.09,0-.19,0,.11.14-.29.21-.31s0,0,0,0a.21.21,0,0,1,0-.07c.09-.27-.17.31-.2.28a1.17,1.17,0,0,0,.12-.27,2.42,2.42,0,0,1-.2.38c0-.13-.07.08-.07.06l0,.07a.62.62,0,0,1-.13.17c.07-.13.06-.08.08-.14-.16.27.12-.3,0-.13l.18-.37c-.13.19.09-.23,0-.07a1.82,1.82,0,0,1-.2.36l.12-.13-.19.29s.1-.12.09-.07a2,2,0,0,0-.16.29c.15-.33-.13.16,0-.06l.28-.52c.09-.25-.2.24-.17.08l0,.1c-.12.21,0,0-.1.09.09-.17.12-.24.17-.35a2.55,2.55,0,0,0-.21.32l.11-.24c0-.11-.31.48-.31.4s.17-.31.26-.44,0,0-.07.08c.06-.11-.15.22-.07.05,0,.07-.15.25-.15.23l0-.08a1.39,1.39,0,0,0-.18.3c.26-.56-.11,0,.12-.49a.42.42,0,0,1-.14.09c0-.05,0-.09,0-.07.06-.17-.29.49-.23.29s.1-.14.15-.25c.31-.57-.08.06.08-.29l0,0c.09-.2-.16.2-.17.14l0-.09a2.06,2.06,0,0,1-.34.43c.13-.22.08-.12.2-.34,0,0-.2.36-.26.41a5.16,5.16,0,0,1,.24-.48h0c.17-.32,0,0,0-.07l.08-.14c-.06,0-.25.37-.28.33l0,.1c-.21.33.09-.2-.07.05l.18-.35c-.06.07-.23.31-.29.36.16-.25.26-.37.36-.51s-.06,0-.16.17c0,0,.08-.11.05-.06-.16.27-.26.39-.28.37.37-.67,0-.21.29-.74-.18.22,0-.16-.12-.15a5.09,5.09,0,0,1-.31.55s0,0,0,0l.13-.34c.08-.17.08-.12.14-.24a3.85,3.85,0,0,1,.17-.39c-.1.2-.16.27-.14.19l-.1.26c-.2.27.2-.47,0-.21l.1-.16c-.07.09-.08-.05-.32.38a1.17,1.17,0,0,1,.13-.25c0-.09-.36.41-.26.12l.07-.13s-.14.24-.08.1.07-.13.07-.14-.15.22-.12.13l.09-.14c0-.2-.26.33-.35.4a2.23,2.23,0,0,0,.23-.62l0-.06c0-.07-.26.28-.39.41.17-.44,0-.23,0-.5a2.28,2.28,0,0,1-.17.35c0-.09-.16.26,0-.11h0c.15-.37.08-.28.06-.3l-.21.48c.24-.73-.26.2,0-.45-.06.12-.08.11-.14.22l.11-.26c0-.08,0-.12-.1-.08l.09-.18s-.34.74-.36.75l.14-.4c-.06,0,0-.37-.12,0,0-.06.07-.17.08-.19s.06-.28-.16.25c.14-.35,0,0-.11.1l.12-.26a2.5,2.5,0,0,1-.27.49s.09-.2.07-.14c0-.14-.12.24-.09.09l.08-.16s0,.06-.14.25,0-.08.09-.32c-.07.14-.16.33-.15.25l.08-.16c0-.19-.18.27-.1,0l.07-.15s0,0,0,.06a6.08,6.08,0,0,1,.26-.61c-.1.17-.3.54-.27.42l0-.08v0s0,0,0,0,0-.08,0-.08c.08-.2,0-.12,0-.14-.11.26-.11.21-.19.43t0,0l0,0v0h0c-.07.13-.13.23-.08.08l-.2.41.28-.8a1.26,1.26,0,0,0-.36.54c0,.06,0-.15.07-.23a.29.29,0,0,0,.06-.1c-.07.11-.09,0-.22.36,0-.17.13-.31.07-.27l0-.1c.1-.59-.44.84-.3.09a.79.79,0,0,1,0,.13c0-.36-.29.24-.31-.3,0-.11-.06.12-.11.3l0-.3-.08.34c-.06.25,0-.75-.14-.27v.21s-.07.12-.07-.12c0,0,0,.21,0,.11v-.16l0,.27c0-.11,0-.63-.09-.65a2.12,2.12,0,0,0,0,.57.81.81,0,0,1,0,.25v.09c0,.46.09.93.13,1.26v-.06h0c0,.21,0,0,0-.1l0,.24v-.44c0,.18,0,.36,0,.46,0-.21,0-.41,0-.54,0,.21,0,.38,0,.2v.25l0-.31a1.58,1.58,0,0,1,0,.37c0-.1,0-.34,0-.36-.05.51,0,.06-.05.56a1.89,1.89,0,0,1,.08-.43.66.66,0,0,1,0,.09l0,.27c.08-.39.11-.47.17-.71l-.18.81.14-.57-.09.43a2,2,0,0,1,.1-.37c0,.24-.11.45-.06.3Zm.7-.64Zm0,0h0l.08-.18A1.06,1.06,0,0,0,528.41,354.19Zm.67-1.83s0,0,0,.08l0,0,0,0Z" transform="translate(-12.61 -9.76)"/><path class="cls-23" d="M528.92,352.7h0l0,.06,0-.08Z" transform="translate(-12.61 -9.76)"/><path class="cls-23" d="M533,355.3h0l0,0Z" transform="translate(-12.61 -9.76)"/><polygon class="cls-23" points="516.27 345.21 516.3 345.15 516.27 345.2 516.27 345.21"/><path class="cls-23" d="M532.85,356.3l0,.07Z" transform="translate(-12.61 -9.76)"/><path class="cls-23" d="M533,356.42v0Z" transform="translate(-12.61 -9.76)"/><path class="cls-23" d="M533.07,356.58l0-.11h0Z" transform="translate(-12.61 -9.76)"/><path class="cls-23" d="M531.45,356.07h0Z" transform="translate(-12.61 -9.76)"/><path class="cls-23" d="M532.1,355.7l-.08.1S532,355.83,532.1,355.7Z" transform="translate(-12.61 -9.76)"/><polygon class="cls-23" points="518.21 346.36 518.21 346.36 518.21 346.35 518.21 346.36"/><path class="cls-23" d="M532,355.78c0,.06,0,.05,0,0S532,355.75,532,355.78Z" transform="translate(-12.61 -9.76)"/><polygon class="cls-23" points="520.66 346.76 520.66 346.76 520.66 346.76 520.66 346.76"/><path class="cls-23" d="M533.27,356.52Z" transform="translate(-12.61 -9.76)"/><path class="cls-23" d="M533.27,356.52Z" transform="translate(-12.61 -9.76)"/><path class="cls-23" d="M533.2,356.62v0Z" transform="translate(-12.61 -9.76)"/><path class="cls-23" d="M533.19,356.65c0,.09,0,0,0,0h0v0C533.2,356.62,533.23,356.57,533.19,356.65Z" transform="translate(-12.61 -9.76)"/><path class="cls-23" d="M533.49,355.42v.09a1,1,0,0,1,.09-.27C533.63,354.92,533.53,355.48,533.49,355.42Z" transform="translate(-12.61 -9.76)"/><path class="cls-23" d="M533.43,355.24a.65.65,0,0,0,.05-.21A.8.8,0,0,0,533.43,355.24Z" transform="translate(-12.61 -9.76)"/><path class="cls-23" d="M533,355l.14-.21S533.07,354.88,533,355Z" transform="translate(-12.61 -9.76)"/><polygon class="cls-23" points="519.5 346.25 519.42 346.39 519.56 346.2 519.5 346.25"/><polygon class="cls-23" points="520.47 344.7 520.49 344.68 520.42 344.74 520.47 344.7"/><path class="cls-23" d="M531.88,353.89l-.15.28C531.76,354.12,531.94,353.81,531.88,353.89Z" transform="translate(-12.61 -9.76)"/><path class="cls-23" d="M531.26,353.92c.07-.14.11-.24,0-.11S531.24,354,531.26,353.92Z" transform="translate(-12.61 -9.76)"/><polygon class="cls-23" points="517.39 342.94 517.44 342.85 517.38 342.92 517.39 342.94"/><path class="cls-23" d="M532.11,370.25c.08,0,.28,0,.24,0H532Z" transform="translate(-12.61 -9.76)"/><path class="cls-23" d="M532.71,370.13a4,4,0,0,0-.75,0l.57,0s-.1,0-.22,0c.08,0-.08,0,.13,0s.27,0,0-.08Z" transform="translate(-12.61 -9.76)"/><path class="cls-23" d="M533.11,368.3h0Z" transform="translate(-12.61 -9.76)"/><path class="cls-23" d="M533.22,367.18h.07A.08.08,0,0,0,533.22,367.18Z" transform="translate(-12.61 -9.76)"/><path class="cls-23" d="M533.56,366.93l0,0S533.59,366.93,533.56,366.93Z" transform="translate(-12.61 -9.76)"/><path class="cls-23" d="M533.11,368.3l.1,0C533.1,368.27,533.13,368.28,533.11,368.3Z" transform="translate(-12.61 -9.76)"/><path class="cls-23" d="M531.9,369.89l.09,0,0,0Z" transform="translate(-12.61 -9.76)"/><path class="cls-23" d="M533.41,368.78h0Z" transform="translate(-12.61 -9.76)"/><path class="cls-23" d="M533.49,369.17h0Z" transform="translate(-12.61 -9.76)"/><path class="cls-23" d="M533,369.79h0Z" transform="translate(-12.61 -9.76)"/><path class="cls-23" d="M533.45,368.5h0Z" transform="translate(-12.61 -9.76)"/><path class="cls-23" d="M527.42,361.59v0A.12.12,0,0,0,527.42,361.59Z" transform="translate(-12.61 -9.76)"/><polygon class="cls-23" points="514.29 350.46 514.29 350.45 514.29 350.29 514.29 350.46"/><path class="cls-23" d="M533.85,366.42h0S533.87,366.43,533.85,366.42Z" transform="translate(-12.61 -9.76)"/><path class="cls-23" d="M532,363.4c-.21.15-.32.09-.54.26A3.25,3.25,0,0,0,532,363.4Z" transform="translate(-12.61 -9.76)"/><path class="cls-23" d="M531.93,369.88h0S531.92,369.88,531.93,369.88Z" transform="translate(-12.61 -9.76)"/><polygon class="cls-23" points="518.88 353.9 518.88 353.9 518.86 353.92 518.88 353.9"/><path class="cls-23" d="M533.13,365.23l-.09.09Z" transform="translate(-12.61 -9.76)"/><path class="cls-23" d="M533.22,366.26l0,0Z" transform="translate(-12.61 -9.76)"/><path class="cls-23" d="M532.61,365.23s0,0,0,0l0,0S532.64,365.2,532.61,365.23Z" transform="translate(-12.61 -9.76)"/><path class="cls-23" d="M532.5,365.07l0,0h0Z" transform="translate(-12.61 -9.76)"/><path class="cls-23" d="M527.76,361.49l.11-.23C527.78,361.44,527.74,361.5,527.76,361.49Z" transform="translate(-12.61 -9.76)"/><path class="cls-23" d="M532.06,369.89h0Z" transform="translate(-12.61 -9.76)"/><path class="cls-23" d="M530.87,366.61l0-.1A.17.17,0,0,0,530.87,366.61Z" transform="translate(-12.61 -9.76)"/><path class="cls-23" d="M529,362.87h0S529,362.89,529,362.87Z" transform="translate(-12.61 -9.76)"/><path class="cls-23" d="M530.66,366.32a1.1,1.1,0,0,0,.15-.14l-.07,0Z" transform="translate(-12.61 -9.76)"/><path class="cls-23" d="M527.87,361.25h0Z" transform="translate(-12.61 -9.76)"/><path class="cls-23" d="M527.57,361.86l.15-.56c0-.1-.06.27-.12.46a2.48,2.48,0,0,1,.16-.41l-.06.15c.12-.27,0,0,.21-.33l0,.08.21-.46s.14-.2,0,0L528,361l.07-.09c-.15.32-.08.1-.19.33.06-.09.24-.33.21-.23-.18.3-.1.08-.23.36l0-.13c-.24.49,0,0-.25.48,0,.09.1-.15.06-.05l.26-.39c.24-.25-.48.71-.19.36.14-.18.42-.51.29-.32l-.25.29s.37-.41.23-.18-.11.06-.14.1c-.19.24.16-.14.18-.12l-.23.24c.07,0,.29-.13.38-.12a1.15,1.15,0,0,0-.23.21c.17-.06.08.15,0,.34l.25-.16a.61.61,0,0,1-.14.13c-.07.09.14-.12.24-.18s-.11.13-.19.17c.23-.11.53-.19.32.05l-.07.05c-.07.11.51-.33.32-.12l0,0c0,.17.26.11,0,.46.34-.25-.06.23.4-.14-.18.25-.27.3-.34.52,0,0,.31-.21.38-.23l-.23.21.28-.19-.26.27.09,0a.74.74,0,0,1,.14-.17c.14-.06-.06.23-.17.34l.27-.09a.92.92,0,0,1-.2.14c.27-.17-.23.24,0,.08a1,1,0,0,1,.18-.17c-.08.11-.09.15-.06.17l.05,0-.16.14s.09,0,.1,0a2.86,2.86,0,0,1,.42-.27l-.27.18a3.4,3.4,0,0,1,.31-.2,2.53,2.53,0,0,1-.4.26l.1-.05-.23.14c.17-.1-.28.17,0,0l-.09.05a.19.19,0,0,1,.16,0,1.93,1.93,0,0,1,.43-.14c-.06.09-.23.25-.17.32s.22-.09.38-.15c-.23.12-.18.17-.36.22.08,0,.1.06.33.06a.88.88,0,0,1,.2-.12s-.07.08-.18.13h0c.4-.07-.55.56,0,.4h0l.29,0c0,.06-.19.07-.31.16.43-.1,0,.17.31.11-.65.39.15.18-.24.46l.16-.08c.16-.06-.08.07-.11.1a1.72,1.72,0,0,1,.22-.12c.28.07-.05.45-.1.69,0,.08.84-.37.5-.11l-.31.13c.43-.06.1.23.48.24l-.17.05c-.2.13,0,.12.22,0,0,0-.16.08-.24.14s.32-.05.12.07a.14.14,0,0,1-.1,0c.12,0,0,.13.27,0-.08.13.17.06.07.2.28-.13-.06.2.32,0-.23.15-.27.24-.21.27a.25.25,0,0,0,.2,0c-.12.07-.08.13-.24.23,0,.05.14,0,.31-.13-.35.43.44-.16-.08.31a1,1,0,0,1,.48-.22c-.39.23-.06,0-.46.25.16-.1.52-.25.44-.16l-.25.11c.18,0,0,.06.22,0l-.12,0,.14,0h0a4.52,4.52,0,0,1,.76-.15,8.2,8.2,0,0,1-.86.23,1.41,1.41,0,0,0,.27,0,1.22,1.22,0,0,1-.27.06c.12,0,.33,0,.33,0l-.25,0c.19,0,.39,0,.31,0s-.13,0-.13,0,.52,0,.35.14a4.6,4.6,0,0,0-.51.08l.11,0,.18,0s.27,0,.15.08h-.15l.07.06.14-.05c.2,0,.47,0,.37,0s0,0-.22.08h0c.12,0,.25,0,.16.05l-.5,0c.32,0,.1.09.43.1a1.5,1.5,0,0,0-.31,0h.25a.9.9,0,0,1-.28,0c0,.06.48,0,.28,0h-.1c-.1.07.17.12,0,.19-.37,0-.09-.05-.41,0,.08.09.46.16.38.26l0,0c.53,0-.25.1,0,.12a1.11,1.11,0,0,0-.23,0c-.08.06.13.1.31.18h-.14c-.12,0-.06.09-.12.13a1,1,0,0,0,.31,0c-.77.17.43.19-.21.33a.25.25,0,0,0-.12,0l.13.08a2,2,0,0,0,.32-.05c.13,0,.24,0,.24,0a1.3,1.3,0,0,0-.49.05h.22c-.41.07.46,0,.19.06h-.12c.06,0,.22,0,.19.06-.27,0-.13,0-.35,0,0,0,.51,0,.25.09-.08,0-.08,0-.15,0-.31.05-.23.05-.28.07h0l-.13.07.08,0c.7,0,.13.08.59.12a1.88,1.88,0,0,0-.55,0,1.17,1.17,0,0,1-.26,0c.25,0-.19,0,.17.08-.1,0,0,0-.25,0,.08,0,.17,0,.29,0,.34.05-.4.14.07.21.19.06.52.07.69.13a1.13,1.13,0,0,1-.36,0c-.14,0-.11.06,0,.09l-.26,0s.35,0,.21.05l-.39,0c.09,0,.27,0,.36.09a1.83,1.83,0,0,1-.37,0,1,1,0,0,0,.43.1l.1,0h-.28c-.22,0,.09,0,.18,0l.07,0c.57,0-.1-.09-.07-.14h.42l-.35,0a1.77,1.77,0,0,1,.4,0c.21,0-.15,0,.08-.06H533l-.12,0c.08,0,.29,0,.23,0,.24-.07-.32-.09,0-.12h0c-.14-.07-.3,0-.67,0l.75-.06h-.3s0,0,.15,0c-.21,0-.13,0-.33,0,.28-.05-.14-.11.35-.13-.23,0-.18,0-.34,0,.52,0-.09,0,.14-.09s.13,0,.37,0c-.46,0,.1-.08,0-.11-.37,0-.16-.06-.28-.11.12,0,.19-.11.32-.17h.06c-.37,0-.3,0-.38-.08a1.54,1.54,0,0,1,.4,0v0a.51.51,0,0,1-.22,0h.27s-.33-.07-.15-.14a4.61,4.61,0,0,1-.88,0,3.73,3.73,0,0,1,.43,0s-.12,0-.06,0H533c.1,0-.2,0-.18,0l.3,0s-.08,0,0,0a.75.75,0,0,1,.3-.09.9.9,0,0,1-.29,0s.24,0,.33-.07c-.13,0,0,0-.29,0a1.41,1.41,0,0,1,.22,0c-.13,0,0-.12-.36-.06h0c-.3-.05.16-.18,0-.24h.1c-.11,0-.07-.1-.29-.11l.3,0c-.08,0-.19,0,0-.08s.15,0,.13,0,.24-.07,0-.1c.25,0,.31-.05.24-.07l-.18,0s0,0,0-.06h.33c.4-.11-.69-.13,0-.24-.23,0-.16.06-.43.05a5.06,5.06,0,0,1,.51-.14c.18-.07-.49,0-.36-.1a1.7,1.7,0,0,1-.55,0,1.53,1.53,0,0,1,.59-.08s0,0-.07,0a.5.5,0,0,0,.22,0h-.12c.12,0,.11-.1.3-.1a.32.32,0,0,0-.25,0c.16-.08,0-.1.1-.17l-.2,0c.13-.12-.23,0-.29-.08.18-.06.43,0,.27-.09a1,1,0,0,1,.41,0c-.23,0,.13-.15.17-.2l.1,0c-.06,0-.06,0-.07,0l-.23.06a.18.18,0,0,1,.14-.06c-.16,0-.39.08-.61.08.12-.05-.14-.05.17-.13-.09.11.31-.07.37,0s0,0,0-.06h.09c.25-.15-.36,0-.37-.06.17,0,.32-.1.28-.11s-.28.09-.43.09c.12-.09-.11,0-.11-.08l-.05.06c-.17,0-.16,0-.22,0,.13-.05.1,0,.15,0-.31.06.27-.21,0-.2.1-.08.31-.13.37-.19-.24,0,.18-.19,0-.2a.76.76,0,0,1-.38.16l.21.05L533,366s.17,0,.14.05a.59.59,0,0,0-.31.12c.3-.2-.22,0,0-.15l.52-.28c.17-.22-.35,0-.3-.19l-.06.1c-.2.11-.07-.05-.17,0a1.46,1.46,0,0,0,.28-.27c-.11.09,0-.09-.36.16l.16-.21c0-.13-.47.31-.46.22a2.92,2.92,0,0,1,.4-.31s0-.05-.1,0c.09-.09-.23.14-.09,0-.07,0-.23.18-.23.16l.08-.06a1.68,1.68,0,0,0-.29.2l.06-.06c.36-.3-.17-.07.24-.37a.25.25,0,0,1-.18,0l.07,0c.14-.12-.52.23-.36.08s.17,0,.27-.11c.58-.3-.11,0,.21-.23h0c.19-.12-.26,0-.24,0l.09,0a1.06,1.06,0,0,1-.56.07,1.69,1.69,0,0,0,.37-.15s-.38.18-.46.17a3.09,3.09,0,0,1,.45-.28l0,0c.31-.18,0,0,0-.1l.15-.06c-.08,0-.44.13-.45.05l-.1.06c-.37.13.18-.13-.1,0l.35-.18a2.78,2.78,0,0,1-.48.07,4.31,4.31,0,0,1,.61-.16s-.07-.07-.25,0c0,0,.13,0,.08,0-.29.11-.45.13-.47.08.69-.32.11-.21.62-.5-.3,0,0-.22-.07-.3-.52.3,0,0-.58.25,0,0,0,0,0,0l.29-.23c.15-.09.14,0,.26-.1s.22-.13.35-.24c-.19.11-.29.12-.23.06l-.23.16c-.33.08.42-.28.1-.21l.18-.07c-.12,0-.07-.13-.53.05a.85.85,0,0,1,.26-.12c0-.12-.58,0-.34-.17l.14-.06s-.27.1-.15,0l.14-.07c-.05,0-.25.07-.19,0l.16-.05c.13-.18-.43.06-.55,0a1.34,1.34,0,0,0,.55-.36l.06,0c0-.11-.43-.07-.66-.12.36-.34,0-.41.06-.71a.92.92,0,0,1-.31.23c0-.06-.12,0-.12,0s0-.05.12-.14h0c.27-.29.15-.26.14-.28l-.38.36c.49-.59-.38,0,.09-.46a2.68,2.68,0,0,0-.24.12l.21-.18c0-.08,0-.12-.06-.13l.17-.12s-.67.48-.7.46l.32-.28c0-.05.19-.34-.16-.17a.77.77,0,0,1,.17-.11s.13-.3-.32.07c.3-.23,0-.09-.18,0l.22-.17a1.64,1.64,0,0,1-.49.27s.17-.15.12-.09c.09-.13-.23.13-.14,0l.15-.1c0-.05-.09,0-.26.13s0-.11.19-.28c-.13.09-.3.21-.26.14a.44.44,0,0,1,.15-.11c.09-.19-.32.12-.16-.1a.64.64,0,0,0,.12-.12c0,.06.06.11,0,.12a3.37,3.37,0,0,1,.5-.44c-.18.09-.55.31-.49.19l.06-.06,0,0s0,0,0,0,0-.07,0-.09c.15-.15,0-.13,0-.16-.2.2-.19.14-.34.33,0,0,0,0,0,0h0l0,0,.06,0c-.12.08-.22.14-.13,0l-.35.28c.26-.29.36-.5.52-.68-.18,0-.28-.11-.65.28-.06,0,.07-.14.11-.22s.06,0,.11-.07c-.13.07-.17-.06-.38.24,0-.18.21-.26.1-.27l.07-.08c.07-.32-.14-.16-.3,0s-.28.31-.25-.08a.32.32,0,0,1,0,.13c-.06-.19-.2-.16-.33-.11s-.23.06-.34-.2c-.07-.11-.08.13-.11.31l0-.3,0,.35c-.06.26-.17-.74-.23-.25l0,.2s-.09.13-.1-.1c0,0,0,.21,0,.1v-.15l-.05.27c-.06-.11,0-.63-.1-.65a3.15,3.15,0,0,0-.05.56.7.7,0,0,1,0,.26l0,.08a4.58,4.58,0,0,0,.07,1.27l.06-.29,0,.23h0c0,.21,0,0,.07-.1a1.85,1.85,0,0,0,0,.24l0-.44a2.61,2.61,0,0,0,0,.46,5.34,5.34,0,0,1,0-.55c0,.21,0,.38.06.2a1,1,0,0,1,0,.25c0-.14.07-.06.07-.31,0,.26.08-.08.1.36a1.49,1.49,0,0,1,0-.36c0,.53.08,0,.1.59a1.68,1.68,0,0,1,.05-.48.81.81,0,0,0,0,.09,1.41,1.41,0,0,1,0,.28,5.52,5.52,0,0,1,.11-.73c0,.38-.07.46-.11.83,0-.32.06-.32.1-.58,0,.23,0,.11-.06.44a1.64,1.64,0,0,1,.09-.38c0,.24-.1.45-.06.31Zm.76-.44h0Zm0,.06s0,0,0,0a.55.55,0,0,1,.15-.12S528.44,361.42,528.38,361.48Zm1.3-1.47c.05,0,0,0,0,.08h0l0,0Z" transform="translate(-12.61 -9.76)"/><path class="cls-23" d="M529.39,360.24h0l0,.06.07-.06Z" transform="translate(-12.61 -9.76)"/><path class="cls-23" d="M533.06,368.32h0Z" transform="translate(-12.61 -9.76)"/><polygon class="cls-23" points="516.22 353.11 516.27 353.06 516.22 353.1 516.22 353.11"/><path class="cls-23" d="M532.14,368.91h0Z" transform="translate(-12.61 -9.76)"/><path class="cls-23" d="M532.09,369.13l-.1,0Z" transform="translate(-12.61 -9.76)"/><path class="cls-23" d="M532,369.31h0Z" transform="translate(-12.61 -9.76)"/><path class="cls-23" d="M531.42,366.82h0Z" transform="translate(-12.61 -9.76)"/><path class="cls-23" d="M532.16,367.36l-.13,0S532,367.37,532.16,367.36Z" transform="translate(-12.61 -9.76)"/><polygon class="cls-23" points="518.26 356.86 518.26 356.85 518.26 356.85 518.26 356.86"/><path class="cls-23" d="M532,367.3c-.06,0,0,0,0,0S532.07,367.31,532,367.3Z" transform="translate(-12.61 -9.76)"/><path class="cls-23" d="M531.88,370h0Z" transform="translate(-12.61 -9.76)"/><path class="cls-23" d="M531.92,370.05h0Z" transform="translate(-12.61 -9.76)"/><path class="cls-23" d="M532,370.08l-.07,0S531.94,370.08,532,370.08Z" transform="translate(-12.61 -9.76)"/><path class="cls-23" d="M532,369.82h0Z" transform="translate(-12.61 -9.76)"/><path class="cls-23" d="M532,369.75s-.21.05-.15.07h.08C531.74,369.81,532.14,369.76,532,369.75Z" transform="translate(-12.61 -9.76)"/><path class="cls-23" d="M533.2,369.42l-.07.07c.1,0,.25,0,.28,0C533.72,369.39,533.16,369.5,533.2,369.42Z" transform="translate(-12.61 -9.76)"/><path class="cls-23" d="M533.35,369.23s.16,0,.22,0A.41.41,0,0,0,533.35,369.23Z" transform="translate(-12.61 -9.76)"/><path class="cls-23" d="M533.26,367.89h.25S533.41,367.88,533.26,367.89Z" transform="translate(-12.61 -9.76)"/><polygon class="cls-23" points="519.31 357.96 519.15 357.99 519.39 357.99 519.31 357.96"/><polygon class="cls-23" points="521.12 357.71 521.16 357.72 521.07 357.69 521.12 357.71"/><path class="cls-23" d="M532.73,365l-.27.16C532.52,365.12,532.82,364.94,532.73,365Z" transform="translate(-12.61 -9.76)"/><path class="cls-23" d="M532.06,364.35c.13-.08.21-.15.06-.09S532,364.36,532.06,364.35Z" transform="translate(-12.61 -9.76)"/><polygon class="cls-23" points="518.25 351.56 518.34 351.5 518.25 351.54 518.25 351.56"/><path class="cls-23" d="M532.6,372.42l.24-.05-.33.06Z" transform="translate(-12.61 -9.76)"/><path class="cls-23" d="M533.2,372.28l-.73.14.55-.1-.22.05.13,0c.25-.06.26-.06.05,0Z" transform="translate(-12.61 -9.76)"/><path class="cls-23" d="M533.65,371.92h0Z" transform="translate(-12.61 -9.76)"/><path class="cls-23" d="M533.79,371.72l.07,0Z" transform="translate(-12.61 -9.76)"/><path class="cls-23" d="M534.14,371.61h0Z" transform="translate(-12.61 -9.76)"/><path class="cls-23" d="M533.65,371.92l.1,0C533.64,371.91,533.67,371.91,533.65,371.92Z" transform="translate(-12.61 -9.76)"/><path class="cls-23" d="M532.41,372.4h0Z" transform="translate(-12.61 -9.76)"/><path class="cls-23" d="M533.92,371.93h0l.13,0Z" transform="translate(-12.61 -9.76)"/><path class="cls-23" d="M534,372l-.39.08.19,0Z" transform="translate(-12.61 -9.76)"/><path class="cls-23" d="M533.52,372.16h0Z" transform="translate(-12.61 -9.76)"/><path class="cls-23" d="M534,371.88l.09,0Z" transform="translate(-12.61 -9.76)"/><path class="cls-23" d="M531.46,370.68h0Z" transform="translate(-12.61 -9.76)"/><polygon class="cls-23" points="520.24 360.72 520.25 360.72 520.41 360.71 520.24 360.72"/><path class="cls-23" d="M534.48,371.49Z" transform="translate(-12.61 -9.76)"/><path class="cls-23" d="M534.09,370.9l-.56.22Z" transform="translate(-12.61 -9.76)"/><path class="cls-23" d="M532.44,372.4h0S532.43,372.4,532.44,372.4Z" transform="translate(-12.61 -9.76)"/><path class="cls-23" d="M533.53,371.12Z" transform="translate(-12.61 -9.76)"/><path class="cls-23" d="M534.29,371.4l-.12,0Z" transform="translate(-12.61 -9.76)"/><path class="cls-23" d="M533.92,371.57h0Z" transform="translate(-12.61 -9.76)"/><path class="cls-23" d="M533.89,371.42s.05,0,0,0h0Z" transform="translate(-12.61 -9.76)"/><path class="cls-23" d="M533.87,371.35l-.06,0h0Z" transform="translate(-12.61 -9.76)"/><path class="cls-23" d="M531.63,370.92l.25-.05C531.68,370.9,531.61,370.91,531.63,370.92Z" transform="translate(-12.61 -9.76)"/><path class="cls-23" d="M532.56,372.37l-.12,0h0Z" transform="translate(-12.61 -9.76)"/><path class="cls-23" d="M531.73,372h0Z" transform="translate(-12.61 -9.76)"/><path class="cls-23" d="M531.82,371.43h0Z" transform="translate(-12.61 -9.76)"/><path class="cls-23" d="M531.73,371.94l.19-.05-.07,0Z" transform="translate(-12.61 -9.76)"/><path class="cls-23" d="M531.88,370.87Z" transform="translate(-12.61 -9.76)"/><path class="cls-23" d="M531.21,370.89a5.29,5.29,0,0,0,.56-.08c.11,0-.26.05-.45.09l.42,0-.15,0c.29,0,0,0,.38,0l-.09,0,.5-.1s.23,0,0,0l-.16,0,.1,0-.37.07c.11,0,.4-.06.3,0-.33.07-.11,0-.41.07l.13,0-.53.11c-.09,0,.17,0,.08,0l.46-.09c.34,0-.83.2-.38.12.22,0,.64-.14.42-.07l-.38.08s.54-.12.3,0l-.17,0c-.3.08.21,0,.21,0l-.33.08c.06,0,.3,0,.36,0l-.3.08c.17,0,0,.07-.21.15l.29-.08-.18.06.29-.08-.25.08c.24-.06.52-.13.23,0l-.08,0c-.11.05.57-.18.32-.08h-.05c-.12.07.14,0-.27.17.4-.14-.17.09.39-.12-.27.12-.37.15-.55.24l.41-.14-.29.11.31-.11-.35.14.08,0,.21-.08c.13,0-.19.09-.34.15l.25-.07-.23.08c.3-.1-.3.12,0,0l.23-.08c-.17.07-.17.08-.09.06l-.2.08c-.05,0,.1,0,.11,0l.46-.19-.3.13.34-.14-.44.18.11,0-.25.1c.18-.07-.3.14,0,0l-.08,0,.12,0,.42-.16a1.57,1.57,0,0,0-.25.13l.37-.15-.38.17.25-.07.22-.1-.21.1h0c.36-.13-.68.32-.18.13h0l.26-.1-.32.14c.4-.15-.06,0,.21-.06-.7.28.06,0-.39.18l.17-.06-.13.05.24-.09c.2-.06-.23.13-.38.19l.47-.16-.31.11c.37-.12,0,0,.31-.08l-.17,0,.18,0-.26.08c-.14,0,.29-.08.06,0l-.09,0,.24-.06h0l.28-.07c-.44.12-.35.1-.15.05l-.32.08.32-.08c-.53.13.42-.09-.25.07l.51-.07c-.44.09,0,0-.51.09.18,0,.56-.1.46-.06L532,372c.19,0,0,0,.21,0l-.12,0s-.06,0,.14,0h-.06l.77-.16-.87.2.26-.06-.27.06.32-.05-.24.05c.19,0,.38-.08.29-.05l-.13,0s.51-.08.33,0l-.5.11.11,0,.17,0s.27,0,.15,0l-.15,0h.07l.13,0a2.06,2.06,0,0,1,.37-.07l-.22.05h0l.15,0-.48.1.41-.07-.31.07.25,0-.27.06s.46-.1.27-.05l-.1,0c-.1,0,.16,0,0,0l-.4.08a3.2,3.2,0,0,1,.36,0h0c.52-.11-.25.06,0,0l-.24,0c-.08,0,.14,0,.3,0l-.13,0c-.12,0-.07,0-.13.05l.31-.07c-.76.18.41-.05-.22.1l-.11,0h.12l.31-.07.24,0-.49.1.22,0c-.4.09.46-.1.19,0l-.12,0,.18,0-.33.07s.49-.09.23,0l-.14,0-.28.07h0l-.14,0,.08,0c.69-.13.13,0,.58-.09l-.54.1-.26.06c.24,0-.19.05.16,0l-.24.06.28-.06c.33-.06-.39.1.06,0l.67-.12-.35.07c-.14,0-.11,0,0,0l-.26.06.21,0-.39.08.36-.06-.36.07.41-.07.1,0-.28.05.19,0H533c.56-.12-.09,0-.06,0l.41-.08-.34.06.39-.08.08,0,.07,0-.12,0,.23,0c.23-.06-.31.05,0,0h0c-.14,0-.3.06-.65.12l.74-.16-.3.06.15,0-.32.06a2.68,2.68,0,0,1,.34-.09l-.33.07c.51-.1-.09,0,.14,0l.36-.07c-.44.09.1,0,0,0a.93.93,0,0,1-.27,0l.32-.09h.06a2.19,2.19,0,0,1-.37.06l.4-.08h0l-.22,0,.27-.05s-.32.05-.15,0l-.86.17.42-.08s-.11,0,0,0l.22,0-.17,0,.3-.06s-.08,0,0,0l.3-.07-.29.06s.23-.05.33-.08l-.28.06.21-.05a1.89,1.89,0,0,0-.35.06h0c-.29.05.16-.05,0,0l.1,0-.28,0,.29-.07c-.07,0-.18,0,0,0l.12,0c.08,0,.24-.05,0,0l.24-.05-.18,0s0,0,0,0l.32-.07c.4-.1-.68.12,0,0l-.42.09.51-.12c.18,0-.48.09-.36.05l-.53.11.57-.12h-.06l.22,0-.12,0,.3-.07-.26.05c.17,0,0,0,.12,0l-.2,0c.14,0-.22,0-.27,0,.17,0,.42-.09.27-.07l.4-.08c-.22,0,.14-.05.18-.06l.1,0h-.06l-.23.05.14,0-.59.13c.11,0-.13,0,.17-.05-.1,0,.31-.07.36-.07s0,0,0,0h.08c.27-.07-.35.07-.34.05l.29-.06-.43.09c.14,0-.1,0-.08,0l-.06,0-.21,0,.15,0c-.31.06.31-.08.11,0l.4-.1c-.22.05.24-.06.05,0l-.4.08.16,0-.34.06h.11l-.32.07c.34-.08-.21,0,0,0l.58-.13c.26-.06-.3,0-.16,0l-.1,0c-.22.05,0,0-.12,0l.38-.09-.37.07.25-.06c.1,0-.56.1-.49.08s.34-.09.49-.11,0,0-.09,0c.11,0-.27.05-.09,0l-.27.06.1,0-.34.08c.59-.16-.05,0,.45-.17h-.14l.07,0c.17-.06-.54.15-.35.08l.28-.08c.62-.19-.09,0,.27-.11h0c.21-.07-.24.06-.2,0l.09,0a5.06,5.06,0,0,1-.51.14l.37-.12-.46.15.5-.18h0c.33-.12,0,0,0,0l.15-.05c-.06,0-.43.13-.4.11l-.12,0c-.37.12.21-.08-.07,0l.37-.14-.43.13.58-.19-.21.06.07,0-.44.14c.72-.27.17-.09.73-.31-.27.08.1-.08.05-.08l-.59.23s0,0,0,0l.33-.15.26-.1.39-.16c-.21.08-.3.11-.22.07l-.26.12c-.31.1.47-.21.17-.1l.18-.07a3.16,3.16,0,0,0-.47.15l.27-.1c.06,0-.5.16-.23,0l.14-.06s-.26.1-.12,0l.14-.06-.16.06.15-.06c.18-.09-.38.13-.48.16.41-.16.53-.23.6-.26l.06,0a3.67,3.67,0,0,0-.52.16,2.44,2.44,0,0,0,.42-.21l-.36.14c.08,0-.29.11.09,0h0l.28-.12-.49.19c.71-.28-.28.08.36-.18l-.24.09.26-.1c.07,0,.1,0,0,0l.19-.06-.78.27.4-.14s.33-.14,0,0l.19-.06s.27-.1-.28.08c.36-.12,0,0-.13,0l.27-.08-.53.16.15-.05c.13,0-.26.08-.12,0l.17-.05-.27.08.31-.1c-.15,0-.35.1-.28.07l.18-.05c.18-.06-.32.08,0,0l.16,0,0,0,.63-.18a4.35,4.35,0,0,1-.48.12l.09,0h0l.07,0,.12,0-.45.11h.06c-.13,0-.25.06-.1,0l-.44.11.82-.21-.62.13.23-.05.12,0-.42.07.28-.05.11,0c.57-.11-.93.16-.19,0l-.13,0c.33-.06-.31,0,.21-.08l-.31,0,.3,0-.34,0c-.26,0,.73-.08.25,0l-.2,0s-.12,0,.11,0h-.21l.65-.05-.56,0h-.34c-.46,0-.94,0-1.26.08h.28l-.22,0h0c-.21,0,0,0,.11,0l-.25,0,.44,0c-.18,0-.36,0-.46,0l.54,0c-.21,0-.38,0-.2,0l-.25,0c.15,0,.06,0,.31,0-.26,0,.07,0-.37.06a2.88,2.88,0,0,1,.36,0c-.52,0,0,0-.59.08a4.4,4.4,0,0,1,.48,0h-.09l-.27.05.72-.08-.82.11c.32,0,.32,0,.58-.07l-.43.08.38-.05c-.24.05-.45.08-.3.07A2.72,2.72,0,0,1,531.21,370.89Zm.89.12h0Zm0,0a0,0,0,0,0,0,0l.19,0Zm1.87-.54-.07,0h-.07Z" transform="translate(-12.61 -9.76)"/><path class="cls-23" d="M533.62,370.58h-.08l.09,0Z" transform="translate(-12.61 -9.76)"/><path class="cls-23" d="M533.6,371.93h0Z" transform="translate(-12.61 -9.76)"/><polygon class="cls-23" points="519.07 361.7 519.14 361.67 519.08 361.69 519.07 361.7"/><path class="cls-23" d="M532.67,372.2l-.07,0Z" transform="translate(-12.61 -9.76)"/><path class="cls-23" d="M532.62,372.25l-.1,0Z" transform="translate(-12.61 -9.76)"/><path class="cls-23" d="M532.49,372.3l.12,0h0Z" transform="translate(-12.61 -9.76)"/><path class="cls-23" d="M532.08,372h0Z" transform="translate(-12.61 -9.76)"/><path class="cls-23" d="M532.75,372l-.13,0Z" transform="translate(-12.61 -9.76)"/><polygon class="cls-23" points="519.12 362.18 519.12 362.18 519.12 362.18 519.12 362.18"/><path class="cls-23" d="M532.62,372s0,0,0,0S532.66,372,532.62,372Z" transform="translate(-12.61 -9.76)"/><path class="cls-23" d="M532.39,372.43h0Z" transform="translate(-12.61 -9.76)"/><path class="cls-23" d="M532.42,372.43h0Z" transform="translate(-12.61 -9.76)"/><path class="cls-23" d="M532.52,372.41h0Z" transform="translate(-12.61 -9.76)"/><path class="cls-23" d="M532.51,372.37l-.1,0Z" transform="translate(-12.61 -9.76)"/><path class="cls-23" d="M532.48,372.37l-.15,0,.08,0C532.26,372.42,532.65,372.34,532.48,372.37Z" transform="translate(-12.61 -9.76)"/><path class="cls-23" d="M533.7,372.07l-.08,0,.28-.06C534.21,372,533.66,372.09,533.7,372.07Z" transform="translate(-12.61 -9.76)"/><path class="cls-23" d="M533.85,372l.21,0Z" transform="translate(-12.61 -9.76)"/><path class="cls-23" d="M533.81,371.82l.25-.05Z" transform="translate(-12.61 -9.76)"/><polygon class="cls-23" points="519.9 362.29 519.74 362.33 519.97 362.28 519.9 362.29"/><polygon class="cls-23" points="521.67 361.89 521.71 361.89 521.62 361.9 521.67 361.89"/><path class="cls-23" d="M534.11,371.3l-.3.09Z" transform="translate(-12.61 -9.76)"/><path class="cls-23" d="M533.74,371.2c.15-.06.24-.09.1-.05S533.7,371.21,533.74,371.2Z" transform="translate(-12.61 -9.76)"/><polygon class="cls-23" points="521.45 360.83 521.54 360.79 521.46 360.82 521.45 360.83"/><path class="cls-33" d="M532.89,374.57" transform="translate(-12.61 -9.76)"/><path class="cls-16" d="M533.73,385.85s1.06-9,3.07-8.17.81,8.9.66,10.07S535,392.1,535,392.1" transform="translate(-12.61 -9.76)"/><path class="cls-16" d="M535.32,382.6c2.13-7.91,1.65,3.68.52,5.66" transform="translate(-12.61 -9.76)"/><path class="cls-34" d="M535.29,384.46c.3.61.67.79.55,1s-.56.41-.52.59" transform="translate(-12.61 -9.76)"/><path class="cls-35" d="M487.71,289.8s24.09-36,44.35-47.83l20.26-11.87Z" transform="translate(-12.61 -9.76)"/><path class="cls-35" d="M483.58,291.67s32-29.13,54.53-35.79l22.51-6.67Z" transform="translate(-12.61 -9.76)"/></g><g id="chapeau"><path class="cls-36" d="M448.8,392.4C444.89,368,438.18,356.46,438.18,345s6.86-1,10.62,0-21.17-99.75-21.17-110.3,14.39-4.79,29.73,0,13.43,9.59,27.82,4.8,16.3-4.22,24-10.74,8.58-12.19,15.35-8.44c45.08,24.93,1.92,1.91-5.75,8.63s-9.6,6.71-13.43,14.38-8.63,8.64-12.47,20.15-5.05,12.47-19.79,2.87,55.06,59.56,55.06,59.56Z" transform="translate(-12.61 -9.76)"/><path class="cls-36" d="M407.49,429.36s119.89-112.22,131.4-118,13.47-2.49,24-5.64,27.53,14.63,3.83,26.74c-23,11.76-26.85,10.55-46,25.9s-29.73,33.57-46,41.24-45.38,34.49-53.72,29.74S407.49,429.36,407.49,429.36Z" transform="translate(-12.61 -9.76)"/><path class="cls-37" d="M524.19,355.61S539.74,335.07,549.6,320c8.83-13.48,21.45-13.29,21-13.44-1.42-.52,9.85,3.59,7.84,13.38-1,4.67-11.91,13.47-32.17,21.15A65.8,65.8,0,0,0,524.19,355.61Z" transform="translate(-12.61 -9.76)"/></g></g></svg>