<svg id="Calque_1" data-name="Calque 1" xmlns="http://www.w3.org/2000/svg" viewBox="0 0 821.93 609.02"><defs><style>.cls-1{fill:#42210b;}.cls-1,.cls-2,.cls-3{stroke:#000;}.cls-1,.cls-10,.cls-11,.cls-12,.cls-13,.cls-2,.cls-3,.cls-8,.cls-9{stroke-miterlimit:10;}.cls-1,.cls-13,.cls-2,.cls-3{stroke-width:0.25px;}.cls-2{fill:#9e9997;}.cls-3{fill:#25581f;}.cls-4{fill:#2f2f30;}.cls-5{fill:#cdd61a;}.cls-6{opacity:0.14;}.cls-7{opacity:0.08;}.cls-8{fill:#e0ce28;}.cls-10,.cls-11,.cls-12,.cls-13,.cls-8,.cls-9{stroke:#1d1d1b;}.cls-9{fill:#f1c089;}.cls-10{fill:#fff;}.cls-11{fill:none;}.cls-12{fill:#f2efdf;}.cls-14{fill:#fcfcfc;}</style></defs><g id="Calque_11" data-name="Calque 11"><path class="cls-1" d="M706.45,279.14c4.12.14,34.29,9.48,23.06-2.14.2-.32-26.53-4.17-21.48-4.7,28.91,8.38,37.87-1.56,2.87-6,6.5-1.06,14.22,4.78,14.9.69.27-1.68-6.87-5.17-9.46-5.82-1-.26-3.3-1.06-4.43-.74-18.59,5.43-59.53-6.6-74.54-9.48l-6,26c0-.13,71.54,16.26,71,16.29,26-1.86,27-1.86,1.44-6.21-3.73-.64,18.16,2.33,19,1.82C738.83,281.13,703.62,281.32,706.45,279.14Z" transform="translate(0.16 -67.09)"/><polygon class="cls-2" points="683.26 194.12 677.16 220.5 682.81 221.8 689.04 194.87 683.26 194.12"/><polygon class="cls-2" points="698.76 194.77 692.07 223.68 694.9 224.34 701.72 194.82 698.76 194.77"/><path class="cls-1" d="M409,453.1c-7-6.88-17.85-25.59-29.39-14.84-18.42,15.28-99,89.84-111.14,102.93-3.91,2,59.76,77.72,64.17,65.69,27.48-15.11-9.14-40.44-18.74-53.62C320.83,542.64,426.54,470.4,409,453.1Z" transform="translate(0.16 -67.09)"/><path class="cls-3" d="M610.26,239.2c-25.34-5.84-61.34-57.95-61.34-57.95s-14.66-30-36-14.26-11.84,26.22-9.65,36c6,26.92,39,70.46,49.65,75.08s89.34,42.35,89.34,42.35l7.32-79Z" transform="translate(0.16 -67.09)"/></g><g id="balais"><g id="Calque_5" data-name="Calque 5"><path class="cls-4" d="M266.78,483.08S197.55,531,174.12,538.21s-102,37.52-114,56.18-18.66,49.32-38.66,56,22.66,0,22.66,0L1.46,663.72s37.33,21.34,89.33,8S151.53,654,170.2,636.26c9.27-8.83,29.25-45.65,37.25-54.63s94.9-60,94.9-60l-35.57-38.55" transform="translate(0.16 -67.09)"/><path class="cls-4" d="M270.78,485.42c-3.63.12-6.92,2-9.93,3.89-1.56,1-3.1,2-4.71,2.88-1.85,1-3.83,1.81-5.77,2.63-4.37,1.83-8.8,3.51-13.2,5.29-3.86,1.57-8,2.16-11.87,3.85-7.52,3.33-11.78,10.57-17.59,16s-12.41,9.67-19,14c-3.28,2.15-6.55,4.3-9.73,6.6s-6.3,4.92-9.39,7.48a37.66,37.66,0,0,1-5.42,3.88,57.92,57.92,0,0,0-5.31,3.15,64.73,64.73,0,0,0-8.77,7.77,58.75,58.75,0,0,0-8.31,10.48c-2.24,3.69-3.29,7.93-5.88,11.42-1.26,1.7-2.67,3.29-3.84,5.07a38,38,0,0,0-2.94,5.66c-1.65,3.79-3,7.69-5.14,11.27-4.51,7.64-10.85,14-17.79,19.43-3.31,2.6-6.81,5-9.89,7.92-2.57,2.41-5,5.1-7.93,7a9.38,9.38,0,0,1-4.28,1.68c-1.91.15-1.93,3.15,0,3,7-.53,11.69-7.57,16.74-11.67,3.54-2.86,7.23-5.53,10.72-8.46a73.19,73.19,0,0,0,9.16-9.22,57.41,57.41,0,0,0,7.17-10.58c1.91-3.78,3.2-7.84,5.11-11.62s5-6.67,7-10.31c1.12-2,1.83-4.12,2.78-6.18a35,35,0,0,1,3.28-5.53,67.77,67.77,0,0,1,8.73-9.88,43.31,43.31,0,0,1,9.38-7.1,62.45,62.45,0,0,0,10.62-7.64,113.92,113.92,0,0,1,9.2-6.87c6.49-4.44,13.24-8.52,19.5-13.31a79.16,79.16,0,0,0,9-7.86c2.72-2.81,5-6,7.92-8.63a27.82,27.82,0,0,1,5-3.62,26.83,26.83,0,0,1,6-2.2,52.82,52.82,0,0,0,5.9-1.76c2.21-.85,4.4-1.77,6.61-2.64,4.31-1.71,8.69-3.36,12.86-5.39,3.28-1.58,6.15-3.88,9.41-5.49a11.82,11.82,0,0,1,4.6-1.39C272.71,488.36,272.71,485.36,270.78,485.42Z" transform="translate(0.16 -67.09)"/><path class="cls-4" d="M272.39,487.19c-3,2.53-5.89,5.26-9.28,7.28a58.61,58.61,0,0,1-10.67,4.62c-7.3,2.58-14.64,5-22,7.49-14.31,4.86-28.82,11.6-37.43,24.63-2.17,3.28-4,6.8-6.32,10-2.48,3.33-5.59,6.19-8.23,9.41a36.12,36.12,0,0,1-7.45,7c-3.3,2.28-6.73,4.36-10.21,6.37-3.64,2.1-7.33,4.14-10.92,6.32a28.06,28.06,0,0,0-7.87,6.43c-3.91,5-5.81,11.08-9,16.5A91.21,91.21,0,0,1,118.19,612c-3.09,3-6.14,6.11-9.2,9.18-2.16,2.17-4,4.71-6.45,6.59a6.74,6.74,0,0,1-3.76,1.63c-1.92.07-1.93,3.08,0,3,3.19-.12,5.75-2.12,7.9-4.31,2.46-2.49,4.79-5.1,7.27-7.59,3-3,6.17-6,9.09-9.13a109,109,0,0,0,7.84-9.57,70.53,70.53,0,0,0,5.9-9.11c1.48-2.85,2.72-5.82,4.19-8.67a27.58,27.58,0,0,1,5.44-7.67c2.82-2.63,6.53-4.43,9.85-6.33,6.78-3.89,14-7.55,20-12.67,2.9-2.49,5.1-5.67,7.64-8.5a71,71,0,0,0,7.6-9.43,97.09,97.09,0,0,1,6.42-9.88,46.9,46.9,0,0,1,8.16-7.77A79.67,79.67,0,0,1,227,511c7.32-2.65,14.73-5.08,22.11-7.56,3.71-1.25,7.41-2.53,11-4.09a41.82,41.82,0,0,0,9.87-6.14c1.53-1.27,3-2.58,4.55-3.87s-.65-3.35-2.12-2.12Z" transform="translate(0.16 -67.09)"/><path class="cls-4" d="M276.39,492.53a135.09,135.09,0,0,1-17.68,15.33c-3.24,2.26-6.77,4.05-10,6.34s-6.3,4.67-10.2,6c-4.06,1.33-8,3-11.93,4.57s-7.77,2.74-11.64,4.17a89.37,89.37,0,0,0-11.08,4.85,87.08,87.08,0,0,1-11.5,4.93A94.13,94.13,0,0,0,181.49,543a67.48,67.48,0,0,0-9.73,6,105.07,105.07,0,0,0-16.91,15.81c-2.65,3-5.11,6.2-7.47,9.46-1.27,1.74-2.52,3.49-3.83,5.2a23.28,23.28,0,0,0-3.23,4.75c-.74,1.71-1.12,3.53-1.72,5.28a43.12,43.12,0,0,1-2.8,5.71c-2,3.85-4.12,7.66-6.44,11.35a23.55,23.55,0,0,1-3.58,4.73c-1.26,1.21-2.66,2.26-4,3.34-3,2.3-5.4,5.08-8.15,7.6-5.57,5.08-13.32,6.66-19.53,10.79a28.33,28.33,0,0,0-4.35,3.53,1.5,1.5,0,0,0,2.12,2.12c5.5-5.47,13.09-7.13,19.56-11,3.19-1.93,5.72-4.66,8.33-7.28s5.58-4.48,8.17-7c3-2.83,5-6.68,7-10.22a127.35,127.35,0,0,0,6-11.39c.76-1.71,1.15-3.53,1.74-5.3a16.3,16.3,0,0,1,3-4.8c2.64-3.42,5-7,7.73-10.41,9.33-11.81,21.26-23.19,35.7-28.27,3.85-1.35,7.7-2.68,11.44-4.31s7.29-3.72,11.07-5.28,7.76-2.9,11.67-4.26,7.95-3.11,11.92-4.67c3.76-1.49,7.55-2.37,10.94-4.68,1.65-1.12,3.2-2.37,4.85-3.5s3.45-2.09,5.17-3.15a112.23,112.23,0,0,0,18.07-14.29c1.46-1.38,2.89-2.79,4.32-4.21a1.5,1.5,0,0,0-2.12-2.12Z" transform="translate(0.16 -67.09)"/><path class="cls-4" d="M273.72,493.86a32.22,32.22,0,0,1-8.45,6.92c-3.25,2-6.61,3.81-9.93,5.66a97.8,97.8,0,0,1-11.64,5.45c-4.06,1.59-8.26,2.8-12.28,4.48S223.35,520,219,521c-3.95.86-8.2,1.33-11.7,3.5a31.42,31.42,0,0,0-7.88,7.55,85.3,85.3,0,0,0-6.23,9.08,50,50,0,0,0-4.84,10.69c-.61,1.93-1.06,3.89-1.84,5.75a30.79,30.79,0,0,1-2.61,4.87c-4.19,6.48-10.42,11.12-16.86,15.18a117.55,117.55,0,0,0-11,7.21,110.85,110.85,0,0,0-9.37,8.76c-5.94,6-12,11.74-16.26,19.07a53.32,53.32,0,0,1-3.1,4.91,25.89,25.89,0,0,1-4.37,4.32c-3.39,2.79-7.31,4.69-10.83,7.26a54.53,54.53,0,0,1-9.87,6.12,43.66,43.66,0,0,1-10.57,3.35,17.46,17.46,0,0,1-4.84.17c-1.92-.21-1.9,2.79,0,3a26.07,26.07,0,0,0,10.47-1.43,54.33,54.33,0,0,0,10-4.19c3.73-2,6.93-4.94,10.62-7.09a45.1,45.1,0,0,0,10.38-8c2.65-2.87,4.32-6.41,6.4-9.67a63.65,63.65,0,0,1,8.39-9.93q4.48-4.61,9.08-9.09a59.83,59.83,0,0,1,10-8.16c6.94-4.36,14.14-8.44,19.82-14.46a38.24,38.24,0,0,0,6.48-9.13c1.76-3.57,2.51-7.46,4-11.15a57,57,0,0,1,5.81-10.58,58.16,58.16,0,0,1,6.6-8.55,21.69,21.69,0,0,1,4.13-3.39,18.41,18.41,0,0,1,5.51-2c4.39-1,8.66-1.78,12.84-3.54,2.09-.88,4.13-1.86,6.24-2.69s4.17-1.45,6.25-2.19a125.34,125.34,0,0,0,11.91-4.85c3.68-1.75,7.19-3.81,10.75-5.8a68,68,0,0,0,9.63-6.19,24.37,24.37,0,0,0,3.8-3.73c1.21-1.49-.9-3.62-2.12-2.12Z" transform="translate(0.16 -67.09)"/><path class="cls-4" d="M279.36,508.22c.61.41.72.7.5,1.3a7,7,0,0,1-1.79,2.31,49.45,49.45,0,0,1-4.93,3.85,169.19,169.19,0,0,1-20.25,13.38c-7.46,4-14.66,8.54-22.07,12.67a93.67,93.67,0,0,1-11.21,5.59,42.67,42.67,0,0,0-5.4,2.4,29.78,29.78,0,0,0-4.41,3.16c-1.39,1.16-2.74,2.4-4.21,3.46a54.72,54.72,0,0,1-5.06,3c-3.65,2.11-7.2,4.37-10.7,6.71-7,4.69-14,9.5-20.84,14.37s-13.29,9.9-20.21,14.48a54.34,54.34,0,0,0-8.61,6.8c-2.54,2.5-4.92,5.16-7.54,7.58a37.89,37.89,0,0,1-4.12,3.35,48.49,48.49,0,0,0-4.48,3.19c-1.42,1.22-2.71,2.57-4.06,3.85s-2.93,2.51-4.43,3.72a50.68,50.68,0,0,0-8.52,8.36,46.78,46.78,0,0,1-3.73,4.69,29.7,29.7,0,0,1-4.2,3.29,22,22,0,0,0-4,3.46c-1.24,1.46.87,3.6,2.12,2.12,2.37-2.77,5.82-4.26,8.33-6.89a54.72,54.72,0,0,0,3.79-4.8,35.77,35.77,0,0,1,4.35-4.69c2.91-2.68,6.16-5,9-7.71a51.22,51.22,0,0,1,4.26-3.94c1.43-1.12,3-2,4.51-3.1,5.84-4.46,10.12-10.66,16.12-14.91,3.42-2.42,7-4.63,10.37-7.09s7-5.17,10.52-7.72c7-5,14.08-9.86,21.18-14.68,3.61-2.45,7.27-4.84,11-7.06,1.75-1,3.59-2,5.31-3a39.73,39.73,0,0,0,4.45-3.41,38.42,38.42,0,0,1,4.46-3.48,32,32,0,0,1,5.35-2.54,92.74,92.74,0,0,0,11.31-5.47c7.64-4.21,15-8.86,22.69-13a127,127,0,0,0,11-6.65c3.28-2.2,6.37-4.62,9.55-6.95a51.7,51.7,0,0,0,5.31-4.13c1.51-1.44,3.29-3.52,2.79-5.78a4.41,4.41,0,0,0-2-2.63c-1.6-1.09-3.1,1.51-1.51,2.59Z" transform="translate(0.16 -67.09)"/><path class="cls-4" d="M283.05,496.53c-4.48,5.27-11,7.85-17.37,10.13a186.79,186.79,0,0,0-21.53,9.25c-7.81,4-15.4,8.4-22.91,12.94-3.52,2.14-7,4.33-10.41,6.64a55.62,55.62,0,0,1-10.58,5.83c-3.94,1.56-8.12,2.91-11.58,5.39a19.6,19.6,0,0,1-5,2.88,54.44,54.44,0,0,0-5.53,2c-3.81,1.76-7.28,4.16-11.09,5.94A53.35,53.35,0,0,0,156.78,564c-3.06,2.4-5.91,5.11-8.8,7.7a33.29,33.29,0,0,0-4,4.14c-1.22,1.55-2.25,3.24-3.43,4.82s-2.43,3.19-3.54,4.86-1.85,3.32-2.76,5c-1.76,3.24-4.37,5.72-6.83,8.42a62.6,62.6,0,0,1-8.67,8,49.17,49.17,0,0,0-8.59,7.58c-4.16,5.07-4.71,11.69-8,17.17a13.41,13.41,0,0,1-3.11,3.56c-1.5,1.22.64,3.33,2.12,2.12,5.2-4.21,6-11,8.69-16.7,3.22-7,10.29-10.3,15.66-15.34a114.68,114.68,0,0,0,8.08-8.57,27.31,27.31,0,0,0,2.92-4c1-1.68,1.73-3.47,2.77-5.11s2.22-3.17,3.38-4.72,2.26-3.28,3.45-4.87c2.29-3,5.43-5.3,8.2-7.86a61.7,61.7,0,0,1,9.81-7.6c3.49-2.1,7.25-3.74,10.78-5.77a49.81,49.81,0,0,1,5.62-2.91c1.78-.72,3.67-1.12,5.44-1.89a28.34,28.34,0,0,0,4.9-3.07,30.61,30.61,0,0,1,5.76-2.86c3.83-1.57,7.71-2.92,11.27-5.06s6.76-4.54,10.23-6.68c7.46-4.59,15-9.08,22.71-13.23a165.31,165.31,0,0,1,22.34-10.29c6.33-2.28,12.93-4.38,18.32-8.58a24.87,24.87,0,0,0,3.67-3.51c1.25-1.47-.87-3.6-2.12-2.12Z" transform="translate(0.16 -67.09)"/><path class="cls-4" d="M277.72,500.53c-11.9,10.57-26.13,17.81-39.64,26-3.44,2.09-6.86,4.19-10.39,6.13s-7.28,3.71-10.94,5.53a188.63,188.63,0,0,0-21.4,12.13c-6.21,4.18-13.4,6.09-20.47,8.27a134.44,134.44,0,0,0-21.33,9.09,112.3,112.3,0,0,0-20.12,12.83,39.91,39.91,0,0,0-7.79,8,45.71,45.71,0,0,0-4.46,9A64.87,64.87,0,0,0,117.66,608q-.61,2.75-1.27,5.47a22.56,22.56,0,0,0-.4,5.25c0,3.06-3.69,5.49-5.9,7.08-2.54,1.82-4.79,4-7.31,5.8a8.94,8.94,0,0,1-4,1.9c-1.89.24-1.91,3.24,0,3,3.3-.42,5.84-2.42,8.28-4.54s5-3.77,7.45-5.81,4.65-4.74,4.44-8.19a16.76,16.76,0,0,1,.75-5.31c.46-1.88.81-3.79,1.27-5.68a71,71,0,0,1,3.81-10.39,29.87,29.87,0,0,1,5.32-8.91c5.31-5.79,12.18-10.34,19-14.21,3.59-2,7.28-3.9,11-5.68A116,116,0,0,1,170.94,563c7-2.5,14.31-4,21-7.3,3.6-1.74,6.81-4.16,10.23-6.23s7.11-4.08,10.76-6c7.28-3.75,14.71-7.17,21.75-11.38s14-8.25,20.92-12.4a181.62,181.62,0,0,0,19.71-13.27c1.57-1.24,3.09-2.52,4.58-3.84s-.68-3.4-2.12-2.12Z" transform="translate(0.16 -67.09)"/><path class="cls-4" d="M274.61,502.92c-.11,2.28-3.26,3.89-5,4.93a89.79,89.79,0,0,0-8,5.69c-3,2.32-5.65,5-8.51,7.41a107.86,107.86,0,0,1-9.14,6.91c-6.12,4.24-12.45,8.24-18.07,13.17a103.67,103.67,0,0,1-9.21,7.38c-3.15,2.18-6.42,4.18-9.73,6.11-6.9,4-13.79,8-21.29,10.85a55.67,55.67,0,0,1-10.61,3,23.56,23.56,0,0,0-9.76,3.47c-6.3,4.25-13.53,6.77-20,10.63a57,57,0,0,0-8.94,6.75,32.38,32.38,0,0,0-3.43,3.4c-1,1.24-1.69,2.72-2.72,3.91s-2.48,2.18-3.55,3.44a16.42,16.42,0,0,0-2.51,4.15c-1.3,3-2.07,6.2-3.63,9.07a41.42,41.42,0,0,1-5.88,7.62,24.24,24.24,0,0,1-8.11,5.48c-1.48.69-3,1.35-4.45,2.06-1.73.85-.21,3.44,1.52,2.59a86.63,86.63,0,0,0,9.15-4.56,29.86,29.86,0,0,0,6.89-6.85,31.37,31.37,0,0,0,5.08-8.43c1.14-3,1.92-6.34,4-8.88,1-1.29,2.41-2.22,3.52-3.43s1.82-2.74,2.85-4a41.26,41.26,0,0,1,7.95-7.15c6.21-4.59,13.56-7.16,20.24-10.93,1.69-.95,3.24-2.1,4.91-3.07a17.47,17.47,0,0,1,5-1.83c3.51-.77,7-1.17,10.38-2.35a101.15,101.15,0,0,0,11.27-4.59c3.58-1.75,7-3.82,10.49-5.78a130.07,130.07,0,0,0,19.51-12.92c3-2.52,5.89-5.17,9.08-7.51s6.24-4.37,9.39-6.52,6.25-4.31,9.23-6.65,5.76-5.09,8.7-7.58a80.89,80.89,0,0,1,8.55-6.54c2.28-1.44,4.82-2.75,6.51-4.92a5.91,5.91,0,0,0,1.36-3.48c.1-1.93-2.9-1.92-3,0Z" transform="translate(0.16 -67.09)"/><path class="cls-4" d="M281.45,498.75c-3.59-.4-7.07.85-10.3,2.27-3.39,1.49-6.67,3.08-10.16,4.33-7.46,2.66-15,5.46-21.68,9.69-3.47,2.18-6.8,4.63-10.11,7s-6.6,4.9-9.7,7.6-5.92,5.51-9,8.14-6.13,5.15-9.07,7.87-5.32,5.67-8.14,8.35a79,79,0,0,1-9.51,7.6c-3.06,2.11-6.46,3.8-9.07,6.49s-4.55,5.56-7.24,8-5.5,4.69-7.28,7.9c-1.65,3-2.23,6.3-3.44,9.43-1.32,3.39-4,5.52-6.93,7.46a98.25,98.25,0,0,1-9.88,5.37c-3.38,1.68-6.73,3.4-10.15,5a44.36,44.36,0,0,0-5.15,2.71c-1.55,1-2.49,2.44-3.86,3.61a17,17,0,0,1-4.61,2.3,42.69,42.69,0,0,0-5.39,2.85,88.71,88.71,0,0,1-11.1,5.49A52,52,0,0,0,94,631a1.5,1.5,0,0,0,1.52,2.59c3.62-2.08,7.58-3.4,11.33-5.2s6.92-4.26,10.67-5.8a21,21,0,0,0,4.63-2.23c1.43-1,2.34-2.65,3.82-3.63,3.23-2.15,7-3.48,10.42-5.25,6.44-3.32,13.41-6.19,19-10.94,2.65-2.27,4-5.24,5-8.51s1.93-6.51,4.27-9.15,5.44-4.82,7.84-7.57,4.38-5.67,7.44-7.6c6.49-4.1,12.9-8.51,18.1-14.22,5.35-5.87,11.51-10.72,17.41-16,3-2.73,5.94-5.58,9.13-8.15s6.63-5,10-7.43a102,102,0,0,1,10-6.45,93.91,93.91,0,0,1,10.89-4.87c3.6-1.39,7.32-2.51,10.86-4,3.31-1.42,6.46-3.24,9.93-4.24a13.06,13.06,0,0,1,5.12-.51c1.91.22,1.9-2.78,0-3Z" transform="translate(0.16 -67.09)"/><path class="cls-4" d="M285.28,521.59c-.06,2-2.08,3.38-3.65,4.3a44.58,44.58,0,0,1-7,3.09,42.51,42.51,0,0,0-7.1,3.33c-3.39,2-6.57,4.42-10.07,6.27s-7.77,2.71-11.21,4.94c-1.54,1-2.91,2.26-4.35,3.4a14.82,14.82,0,0,1-5.12,2.62,17.58,17.58,0,0,0-5.42,2.54c-1.54,1.11-3,2.37-4.43,3.57-3,2.46-6.34,4.46-9.38,6.84-6.41,5-11.57,11.34-18,16.33-3.51,2.74-7,5.57-10.37,8.4a87.84,87.84,0,0,1-10.06,7.53c-3.16,1.92-6.29,3.82-9.27,6-2.74,2-5.39,4.1-8.07,6.17-5.48,4.21-11.19,8.51-17.68,11-7.36,2.87-15.26,2.24-23,2.79a54,54,0,0,0-12.36,2c-3.63,1.13-6.92,3-10.54,4.17a34.76,34.76,0,0,1-5.13,1.21c-1.9.29-1.1,3.18.8,2.89a38.58,38.58,0,0,0,10.42-3.3,38.53,38.53,0,0,1,11.78-3.47c4.36-.55,8.76-.72,13.15-.89a56.22,56.22,0,0,0,11.64-1.19c13.87-3.56,23.71-14.86,35.48-22.23a105.23,105.23,0,0,0,10.14-6.58c3.45-2.77,6.81-5.66,10.24-8.45s7-5.38,10.24-8.39,5.9-6,9-8.84a86.8,86.8,0,0,1,9.09-7c1.64-1.12,3.21-2.3,4.74-3.58a28.89,28.89,0,0,1,4.8-3.57c1.79-1,3.87-1.24,5.72-2.09a22.24,22.24,0,0,0,4.74-3.3,22.09,22.09,0,0,1,4.92-3.25c1.88-.85,3.86-1.46,5.77-2.25,6.59-2.72,11.87-7.83,18.54-10.35,4.41-1.67,10.3-3.27,13-7.5a6.25,6.25,0,0,0,1-3.19,1.5,1.5,0,0,0-3,0Z" transform="translate(0.16 -67.09)"/><path class="cls-4" d="M289.72,525.86c-1.51,1.55-3.42,2.12-5.45,2.68a47.63,47.63,0,0,0-6.66,2.5c-4.64,2.09-9.43,3.67-14.21,5.39s-9.54,3.34-14.41,4.79a132.25,132.25,0,0,0-13.48,5.3c-17.14,7.25-36.23,11.6-51.3,23-6.27,4.8-11.43,10.8-14.26,18.2a27.6,27.6,0,0,0-1.59,6.7,17.37,17.37,0,0,1-1.74,6.81,140.91,140.91,0,0,1-8,12.36c-2.94,4.24-6.09,8.34-9.18,12.46-1.54,2.06-3.16,4.08-4.57,6.22-1,1.58-1.84,3.28-2.72,5a15.35,15.35,0,0,1-3.26,4.48,18.58,18.58,0,0,1-5.49,3,31.21,31.21,0,0,1-6.36,1.81c-2.28.38-4.62.33-6.92.64-4.87.66-9.72,2.24-14.66,2.12a44.47,44.47,0,0,0-7.82.4c-2.52.38-5,.86-7.54,1.31s-5.09.86-7.67,1.06-4.89.21-7.33.37-4.61.6-6.93.88c-2.13.27-4.31.11-6.38.81-1.67.55-3.5,2.28-5.33,2s-2.7,2.61-.8,2.89c2.2.33,3.76-.44,5.65-1.44s4.2-1,6.45-1.22,4.59-.75,6.92-.91,4.85-.18,7.27-.35c5.16-.36,10.22-1.5,15.31-2.33a42,42,0,0,1,8-.49,35.11,35.11,0,0,0,7.65-.79c2.4-.46,4.79-1,7.2-1.31s4.66-.31,7-.64a30.24,30.24,0,0,0,12.48-4.57c3.28-2.24,4.83-5.63,6.64-9,2.29-4.26,5.59-8,8.49-11.9,3.19-4.25,6.33-8.53,9.24-13,1.34-2,2.63-4.09,3.94-6.15a19.28,19.28,0,0,0,2.9-6.21c.52-2.49.49-5.06,1.17-7.52a31.42,31.42,0,0,1,2.13-5.56,36.33,36.33,0,0,1,7-9.51c6.08-6,13.81-10.18,21.55-13.66,9-4.06,18.46-7.11,27.69-10.67,2.32-.89,4.62-1.83,6.91-2.8s4.58-2.14,6.93-3.05c4.61-1.78,9.46-2.81,14.09-4.49,5-1.79,9.93-3.51,14.87-5.29,2.33-.84,4.55-1.93,6.82-2.92a56.85,56.85,0,0,1,6.59-2.25,12,12,0,0,0,5.3-3c1.35-1.38-.77-3.51-2.12-2.12Z" transform="translate(0.16 -67.09)"/><path class="cls-4" d="M296.69,525.63c-4,2.34-8.31,3.91-12.55,5.7a98.76,98.76,0,0,0-12.57,6.87c-4.29,2.6-8.68,5.06-12.88,7.81-2,1.31-3.84,2.86-5.77,4.28a46.15,46.15,0,0,1-5.9,3.62,57.11,57.11,0,0,0-6,3.4c-2,1.38-4,2.75-6,4-4,2.43-8.2,4.56-12.39,6.66q-6.81,3.4-13.61,6.82a69.53,69.53,0,0,1-6.5,3c-2.08.8-4.19,1.53-6.23,2.46-3.84,1.75-6.71,4.12-8.22,8.13-1.26,3.36-1.55,7.17-4.16,9.85a38.82,38.82,0,0,1-4.55,3.74c-1.94,1.46-3.82,3-5.71,4.51a44.46,44.46,0,0,1-6,4.19,27,27,0,0,0-5.42,3.9c-1.6,1.51-3.06,3.17-4.77,4.57-1.87,1.52-3.86,2.9-5.8,4.34-3.74,2.79-7.12,6-10.72,9s-7.4,5.84-11.28,8.51a87.92,87.92,0,0,1-11.58,7.18c-7.53,3.6-16.13,4.36-24.18,6.16a27.59,27.59,0,0,1-6.91.36,23.08,23.08,0,0,0-6.62.83c-4.67,1.21-9.56.94-14.34.75-2.41-.09-4.81-.19-7.22-.19a1.5,1.5,0,0,0,0,3c5,0,10,.45,15,.3a31.48,31.48,0,0,0,6.77-.81,23.45,23.45,0,0,1,6.66-.88,28.32,28.32,0,0,0,7.12-.38c2-.45,4-.85,6-1.24,4.18-.8,8.38-1.58,12.46-2.78,8.54-2.5,16-7.83,23-13.08q5.67-4.2,11-8.84c1.84-1.61,3.64-3.24,5.59-4.72s3.74-2.74,5.58-4.15c3.62-2.77,6.4-6.45,10.36-8.76a49.77,49.77,0,0,0,5.93-3.91c2-1.61,4-3.26,6.07-4.83,3.07-2.35,6.47-4.52,8.12-8.17,1.46-3.23,1.67-7.12,3.76-10,2.53-3.53,7.66-4.73,11.5-6.23,4.57-1.78,8.9-4.24,13.29-6.43,8.6-4.31,17.3-8.41,25.18-14,3.82-2.7,8.25-4.37,12-7.14,1.93-1.42,3.77-3,5.77-4.3s4.25-2.61,6.38-3.9c4.41-2.65,8.74-5.46,13.21-8,4-2.26,8.34-3.77,12.54-5.59a54.15,54.15,0,0,0,6-3,1.5,1.5,0,0,0-1.51-2.59Z" transform="translate(0.16 -67.09)"/><path class="cls-4" d="M293.45,518.75c-9.92,0-19.69,1.83-29.45,3.4-4.93.8-9.88,1.52-14.87,1.89a111.76,111.76,0,0,0-14,1.73,63.21,63.21,0,0,0-13.62,4.35c-4.5,2-9.1,3.82-13.66,5.72-2.29,1-4.61,1.93-6.85,3a31,31,0,0,0-5.47,3.69,25.91,25.91,0,0,1-5.47,3.49c-2,.88-4.1,1.5-6,2.49-4,2-6.37,6-10,8.38s-7.31,4.43-11,6.63A90.17,90.17,0,0,0,152.21,571a76,76,0,0,0-9.39,9.85c-3.28,3.87-6.49,7.78-9.79,11.63-1.59,1.86-3.2,3.71-4.84,5.52a27.28,27.28,0,0,1-4.72,4.58,50.38,50.38,0,0,0-5.24,3.57c-1.63,1.43-3.08,3.07-4.83,4.36-3.61,2.66-7.59,4.73-11,7.74-1.73,1.55-3.23,3.34-4.86,5s-3.5,3.41-5.3,5.06c-3.56,3.27-7.21,6.44-10.68,9.8-5.68,5.5-10.32,12.35-16.91,16.85a21.68,21.68,0,0,1-4.92,2.55c-1.8.65-1,3.55.8,2.9,7.54-2.68,12.85-9,18-14.82,6.13-6.82,13.26-12.54,19.8-18.93,3.3-3.22,6.21-6.64,10.05-9.26,1.89-1.3,3.85-2.5,5.75-3.79a39.08,39.08,0,0,0,4.81-4.09,30.5,30.5,0,0,1,5.2-3.84,22.21,22.21,0,0,0,4.65-4c3.38-3.65,6.61-7.45,9.81-11.26,6-7.12,11.59-14.67,19.28-20,3.63-2.53,7.46-4.74,11.26-7s7.33-4.26,10.37-7.28a30.21,30.21,0,0,1,4.89-4.36,39.54,39.54,0,0,1,6-2.63,24,24,0,0,0,5.59-3.19,52.37,52.37,0,0,1,5.37-3.89c4.26-2.44,9.1-4.06,13.63-5.91s8.87-4,13.48-5.54a72.14,72.14,0,0,1,13.71-2.92c4.82-.58,9.67-.78,14.49-1.41,9.82-1.29,19.53-3.41,29.41-4.19q3.67-.3,7.35-.31a1.5,1.5,0,0,0,0-3Z" transform="translate(0.16 -67.09)"/><path class="cls-4" d="M276.39,485.86c-7.61,7.64-17.61,12.46-27.78,15.85-5.26,1.74-10.73,2.77-16,4.58a99.32,99.32,0,0,0-16.09,7.51c-5,2.81-10.31,5.61-14.72,9.3-2,1.67-3.83,3.51-5.84,5.16a26.14,26.14,0,0,1-7.33,4.26c-2.86,1.11-5.83,1.89-8.73,2.87-1.39.47-2.77,1-4.18,1.41-1.56.46-3.15.72-4.69,1.25a46.63,46.63,0,0,1-8,2.41,43,43,0,0,0-8.52,2.66c-2.79,1.06-5.7,1.7-8.48,2.77a67.35,67.35,0,0,0-7.65,3.58c-2.59,1.39-5.12,2.89-7.67,4.35s-4.91,2.58-7.3,4c-9.43,5.59-16.75,14-26.48,19.2a47.91,47.91,0,0,0-6.55,4.38c-2.33,1.78-5.12,2.34-7.63,3.76-4.49,2.55-7.64,6.89-11.07,10.62s-6.69,6.85-8.22,11.7c-.76,2.43-.89,5-1.45,7.44a26.65,26.65,0,0,1-2.64,7.17,16.74,16.74,0,0,1-5.47,5.57,40.15,40.15,0,0,0-6.47,5.6,81.82,81.82,0,0,1-6.28,6.36c-2.28,2-4.64,3.85-7,5.68a73.42,73.42,0,0,0-6.59,5.33c-1.92,1.88-3.56,4-5.34,6a45.29,45.29,0,0,1-6,5.33A39,39,0,0,1,13,664.35a18.37,18.37,0,0,1-3.75,1.57c-2.51,1-3.86,3.46-5.95,5-1.54,1.13-.05,3.74,1.51,2.59,2.08-1.54,3.64-4.31,6.2-5s4.8-2.43,6.94-4.14a49.64,49.64,0,0,0,5.9-5.13c1.8-2,3.43-4.13,5.31-6.06,4.1-4.18,9.3-7.28,13.71-11.14s7.86-8.6,12.7-12a20.31,20.31,0,0,0,5.73-5.47,25.86,25.86,0,0,0,3-6.88c.73-2.49,1-5,1.48-7.53a17.78,17.78,0,0,1,2.79-6.58,46.85,46.85,0,0,1,4.89-5.46c1.75-1.88,3.39-3.87,5.16-5.74a23.76,23.76,0,0,1,5.91-4.89,39.9,39.9,0,0,1,3.89-1.62,16.79,16.79,0,0,0,3.78-2.25c4.29-3.31,9.22-5.51,13.59-8.71s8.43-6.9,12.75-10.23c4.52-3.5,9.51-6,14.44-8.82s9.9-5.87,15.33-7.72c2.84-1,5.72-1.73,8.52-2.82,1.3-.5,2.61-1,3.94-1.43,1.63-.49,3.32-.59,5-.95,2.67-.58,5.11-1.93,7.77-2.6,3.07-.78,6-1.8,9-2.76,5.59-1.76,10.89-3.49,15.47-7.28,2-1.65,3.85-3.49,5.84-5.16a56.81,56.81,0,0,1,7.1-4.72,160.35,160.35,0,0,1,15.92-8.7,68.09,68.09,0,0,1,8.52-3.28c2.64-.81,5.34-1.39,8-2.13,10.28-2.86,20.55-6.88,29.13-13.34a55.7,55.7,0,0,0,5.88-5.07,1.5,1.5,0,0,0-2.12-2.12Z" transform="translate(0.16 -67.09)"/><path class="cls-4" d="M1.45,672.42c5.92,0,11.79,1,17.67,1.55,5.59.54,12,1,17.37-.8,1.17-.4,2.26-1,3.4-1.49a22.29,22.29,0,0,1,4.61-1.18c3-.55,5.86-1.43,8.9-1.63a61.21,61.21,0,0,0,8.55-.68c1.4-.29,2.76-.75,4.17-1a21,21,0,0,1,4.75,0c6,.33,11.94-1.76,17.65-3.29A59.87,59.87,0,0,1,97.9,662c3-.31,6.08-.46,9.08-1s5.81-1.52,8.76-2.07a43.14,43.14,0,0,0,8.1-2.5c5.32-2.1,10.82-3.65,15.91-6.29a45.37,45.37,0,0,1,8-3.38,20.57,20.57,0,0,0,7.19-3.23c2-1.62,3.52-3.79,5.52-5.45s4.18-3.19,6.23-4.84a28.15,28.15,0,0,0,5.47-5.54,14.84,14.84,0,0,0,1.66-3.48,31.08,31.08,0,0,1,1.94-4.23,13.33,13.33,0,0,1,2.18-3.32c.88-.89,1.89-1.63,2.77-2.5,2.14-2.14,3.66-4.78,5.55-7.11s4.09-3.79,6.21-5.63a27.41,27.41,0,0,0,5.13-6.18c2.91-4.61,4.88-9.87,8.69-13.86a26.28,26.28,0,0,0,4.89-6.85,34.91,34.91,0,0,1,4-7c3.39-4.25,7.74-7.68,12.1-10.87a96.44,96.44,0,0,1,14.93-8.87,45,45,0,0,1,8.21-3.33c2.86-.75,5.82-1.17,8.62-2.13a48.2,48.2,0,0,0,7.78-3.87,60.39,60.39,0,0,1,8.67-3.44c4.11-1.49,8.46-2.23,12.5-3.91a15.69,15.69,0,0,0,5.13-3.15c1.39-1.35-.73-3.47-2.12-2.12-3,3-7.93,3.84-11.88,4.93-4.9,1.35-10.11,2.93-14.51,5.5a32,32,0,0,1-8.12,3.68c-2.75.72-5.57,1.19-8.29,2a55.51,55.51,0,0,0-8,3.46c-2.69,1.32-5.36,2.68-7.93,4.22a96.2,96.2,0,0,0-13.12,9.58,38,38,0,0,0-9.89,12.2,26.22,26.22,0,0,1-4.47,7.09,34,34,0,0,0-4.91,6.41c-2.72,4.67-4.85,9.94-8.87,13.69-2,1.9-4.4,3.41-6.27,5.49s-3.41,4.77-5.34,7c-1.63,1.85-3.76,3.17-5.12,5.27a41.92,41.92,0,0,0-3.66,7.68c-1.92,4.88-7.35,7.91-11.27,11-2.07,1.63-3.68,3.6-5.57,5.41-2.05,2-4.68,2.71-7.34,3.51-5.41,1.62-10.05,5-15.45,6.56S120.5,655,114.88,656c-3,.54-5.81,1.52-8.77,2.07s-6.25.66-9.37,1c-6.07.72-11.82,2.78-17.76,4.12a31.68,31.68,0,0,1-9,.87,29.09,29.09,0,0,0-8.45,1.08c-2.85.66-5.83.49-8.73.71a82.15,82.15,0,0,0-8.67,1.61,31.75,31.75,0,0,0-4.42,1c-1.27.44-2.44,1.12-3.69,1.61a25.12,25.12,0,0,1-8.47,1.26c-5.91.13-11.77-.78-17.63-1.4a82,82,0,0,0-8.58-.55,1.5,1.5,0,0,0,0,3Z" transform="translate(0.16 -67.09)"/><path class="cls-4" d="M278.61,490.92c.13,2.82-3.7,5.1-5.74,6.38a109.54,109.54,0,0,1-9.72,5.09c-4.71,2.41-9.32,5-14,7.52s-9.23,4.89-13.74,7.55-9,5.44-13.58,8-9.5,4.91-14.2,7.47-9.25,5.21-14,7.54a139.1,139.1,0,0,1-14,5.83c-5,1.79-10,3.52-15,5.4-2.53,1-5.06,1.88-7.63,2.7s-5.12,1.39-7.66,2.16-4.78,1.7-7.19,2.48a70.11,70.11,0,0,1-7.58,1.65,108.45,108.45,0,0,0-14.42,4.39,129.43,129.43,0,0,0-12.76,5.64c-4,2-8.06,4-12,6.2a104.75,104.75,0,0,0-21.5,15.42,59,59,0,0,0-8.62,10.18,60.54,60.54,0,0,0-5.91,13.1,174.15,174.15,0,0,1-12.51,27.75c-1.29,2.28-2.64,4.54-4,6.76-1,1.65,1.57,3.16,2.59,1.52a173.69,173.69,0,0,0,14.24-28.07c1.77-4.49,3.11-9.14,5-13.57a43.73,43.73,0,0,1,7.53-11.6c5.94-6.73,13.22-12.1,20.88-16.7a197.86,197.86,0,0,1,24-12.27,148.08,148.08,0,0,1,14.51-4.89,74.88,74.88,0,0,1,7.52-1.69,51.65,51.65,0,0,0,7.49-2.26c4.92-1.74,10-2.84,14.95-4.6s10.06-3.79,15.15-5.52c4.83-1.65,9.62-3.43,14.3-5.5,4.86-2.16,9.51-4.7,14.16-7.27s9.54-5,14.3-7.53,9.16-5.19,13.67-7.9c9.06-5.44,18.4-10.38,27.72-15.35,3.68-2,7.5-3.68,11.16-5.69,3-1.64,6.12-3.58,8.17-6.35a6.32,6.32,0,0,0,1.39-4c-.09-1.92-3.09-1.93-3,0Z" transform="translate(0.16 -67.09)"/><path class="cls-4" d="M296,492.25c-.2,1.8-2,3.05-3.43,3.94-1.75,1.12-3.57,2.12-5.32,3.25a163.46,163.46,0,0,1-15.59,8.79c-10.53,5.27-21.45,9.92-31.26,16.49-4.87,3.26-9.84,6.23-14.9,9.18a80,80,0,0,0-7.25,4.68c-2.24,1.65-4.33,3.48-6.54,5.18-4.49,3.45-9.76,5.49-14.57,8.43a46.68,46.68,0,0,0-6.38,5,29.63,29.63,0,0,1-6.93,4.33c-5.12,2.46-10,5.38-15.18,7.64-5.41,2.33-11,4.32-16.42,6.48s-11.09,4.39-16.74,6.3-11.66,3.36-17.5,5a74.34,74.34,0,0,0-8.34,2.82c-1.24.53-2.44,1.17-3.71,1.64s-2.78.86-4.17,1.32a17.66,17.66,0,0,0-6.49,3.77A35.85,35.85,0,0,1,89.12,601c-9,5.13-14.08,15.32-18.19,24.42-2,4.34-3.57,8.93-6.24,12.92-2.81,4.19-7,7.16-11.18,9.85a80.85,80.85,0,0,1-14.27,7.27c-4.44,1.72-9.25,2.31-13.64,4.11a12.68,12.68,0,0,0-5.23,3.61c-1.21,1.49.9,3.62,2.12,2.12,2.87-3.52,7.89-4,12-5.14a73.11,73.11,0,0,0,14.83-6.09,65.69,65.69,0,0,0,13.39-9,32.6,32.6,0,0,0,7.76-11.26c4.2-9.4,8.07-19.27,15.4-26.76,1.91-1.95,4.18-3.12,6.48-4.53a51.8,51.8,0,0,0,5.8-4.65c2.17-1.78,4.76-2.38,7.37-3.22s5.22-2.26,7.91-3.2c5.83-2,11.88-3.32,17.78-5.08,5.72-1.7,11.3-3.8,16.85-6,10.93-4.28,22.22-8.07,32.49-13.84,2.39-1.35,4.88-2.48,7.29-3.79a35,35,0,0,0,6.38-4.79c4.36-3.84,9.68-5.94,14.65-8.82s9-7,13.75-10.09,10.13-5.79,15-9a175.76,175.76,0,0,1,15-9.22c5.26-2.75,10.63-5.29,16-7.89s10.74-5.32,15.88-8.4c2.29-1.37,4.49-2.9,6.8-4.25a31.21,31.21,0,0,0,5-3.28,7.39,7.39,0,0,0,2.64-4.84c.21-1.91-2.79-1.9-3,0Z" transform="translate(0.16 -67.09)"/><path class="cls-4" d="M289.72,505.86c-3.24,3.24-7.58,4.45-11.61,6.4A125.73,125.73,0,0,1,263.53,518c-5.08,1.72-10.16,3.43-15.33,4.89-5.33,1.51-10.88,2.63-16.1,4.48-2.31.82-4.38,2.11-6.59,3.14a77.22,77.22,0,0,1-7.68,2.77c-4.78,1.62-9.39,3.76-14,5.74a112.1,112.1,0,0,0-13.67,6.67,49.94,49.94,0,0,0-10.73,9.09,62.4,62.4,0,0,1-4.91,4.85c-1.9,1.62-3.89,3.11-5.74,4.8s-3.52,3.58-5.26,5.4-3.65,3.44-5.46,5.17-3.31,3.65-5,5.46-3.62,3.66-5.54,5.38c-3.81,3.4-7.79,6.69-11.85,9.8a138.1,138.1,0,0,1-26.36,15.43,65.34,65.34,0,0,1-6.86,2.87c-2.39.8-4.82,1.43-7.21,2.24a31.71,31.71,0,0,0-6.76,3.14c-2.2,1.4-4.24,3-6.44,4.43a26.11,26.11,0,0,0-4.91,3.44,13.71,13.71,0,0,0-3.25,6,16.94,16.94,0,0,1-2.64,5.6,33.05,33.05,0,0,1-4.32,4.76c-3.3,3-7.7,4.85-11.67,6.84a54.81,54.81,0,0,1-13.21,5,34.43,34.43,0,0,1-7.23.71,1.5,1.5,0,0,0,0,3c10,0,18.72-4.33,27.35-8.88a27.15,27.15,0,0,0,10-7.91,21.76,21.76,0,0,0,3.36-4.92c1-2.24,1.26-4.77,2.62-6.85a13,13,0,0,1,4.59-3.73c2.23-1.34,4.27-3,6.44-4.4,4.31-2.87,9.17-4,14-5.57a105.68,105.68,0,0,0,13.91-6.24A140.19,140.19,0,0,0,130.49,603a149.47,149.47,0,0,0,12.29-9.25,129.45,129.45,0,0,0,11.55-10.28c1.78-1.84,3.34-3.87,5.16-5.67s3.58-3.29,5.3-5,3.4-3.71,5.24-5.45,3.77-3.31,5.74-4.88c3.71-3,6.62-6.79,10.12-10s8.16-5.68,12.6-7.79,9.29-4,14-6c4.89-2.1,10.16-3.36,14.95-5.67a43.85,43.85,0,0,1,7-3.13c2.69-.77,5.39-1.5,8.09-2.23,5.33-1.44,10.64-2.91,15.86-4.67,5-1.69,10-3.31,15-5.28,2.39-1,4.71-2,7-3.13,2-.93,4.07-1.68,6-2.65a20,20,0,0,0,5.39-3.85,1.5,1.5,0,0,0-2.12-2.12Z" transform="translate(0.16 -67.09)"/><path class="cls-4" d="M289.45,509.42a13.36,13.36,0,0,0-6.9,1.31c-2.4,1-4.76,2.09-7.24,2.92a84,84,0,0,0-14.85,6.22c-4.73,2.65-9.23,5.49-14.36,7.32-2.48.89-5,1.64-7.47,2.64a63.23,63.23,0,0,0-6.74,3.37c-4.6,2.54-9.52,4.39-14.11,7s-9.34,5.36-13.8,8.3a82.58,82.58,0,0,0-11,9c-3.81,3.58-7.91,6.64-12,9.85-8,6.2-13.34,14.73-20.43,21.78a63.6,63.6,0,0,1-5.63,4.87,67.53,67.53,0,0,0-5.29,5c-3.76,3.69-8.67,5.63-12.94,8.63s-8.18,6.81-12.85,9.19c-2.37,1.22-5.11,1.64-7.37,3.1-1.86,1.2-3.28,3-5.22,4-4,2.26-8.7,3-13.07,4.17a71.51,71.51,0,0,1-7.4,1.71c-2.66.43-5.35.74-8,1.21-5.48,1-10.77,2.76-16.23,3.83a39.55,39.55,0,0,0-7.48,2.09c-2.35,1-4.63,2.1-6.93,3.18s-4.64,1.9-6.87,3a50.91,50.91,0,0,0-6.84,4.19c-2,1.46-3.92,3.07-6.07,4.36a37.6,37.6,0,0,0-6.23,4.24c-1.42,1.31-2.63,2.75-4.69,2.83a1.5,1.5,0,1,0,0,3,8.27,8.27,0,0,0,5.39-2.36,33.92,33.92,0,0,1,5.45-4.17c4.44-2.64,8.31-6.09,12.83-8.61,2.28-1.27,4.68-2.2,7.06-3.25s4.63-2.22,7-3.25c5-2.16,10.39-2.79,15.59-4.14,2.69-.7,5.38-1.43,8.11-2s5.34-.81,8-1.22a129.06,129.06,0,0,0,14.23-3.39,40.19,40.19,0,0,0,6.3-2.2,24.15,24.15,0,0,0,5.41-3.84c2-1.72,4.5-2.29,6.9-3.26a31.69,31.69,0,0,0,6.69-4c4.28-3.16,8.34-6.5,13-9.11a40.86,40.86,0,0,0,6.57-4.23c1.86-1.57,3.45-3.42,5.22-5.08s3.87-3.11,5.7-4.78a66.17,66.17,0,0,0,5.16-5.3c3.23-3.63,6.2-7.48,9.45-11.08a81.1,81.1,0,0,1,11.63-10.19c4.06-3.06,7.62-6.59,11.43-9.94a85.87,85.87,0,0,1,12.22-8.6,135.53,135.53,0,0,1,14.16-7.94c2.36-1.07,4.74-2,7-3.27s4.42-2.5,6.73-3.54c4.81-2.17,10-3.28,14.74-5.71s9.23-5.56,14.17-7.76,10.15-3.38,15-5.61a12.52,12.52,0,0,1,6.78-1.53c1.91.22,1.9-2.78,0-3Z" transform="translate(0.16 -67.09)"/><path class="cls-4" d="M283.36,489.63c-4.1,2.3-7,6-10.36,9.13-3.55,3.32-7.91,5.26-12.33,7.16-2.21.94-4.43,1.89-6.55,3-2.34,1.26-4.59,2.69-6.92,4-4.85,2.67-9.83,5.08-14.88,7.35s-9.88,4.36-14.68,6.86S208,532.37,203.2,535s-9.57,4.89-14.33,7.38A124,124,0,0,0,175,550.91c-2.27,1.6-4.54,3.21-6.87,4.72a67.93,67.93,0,0,1-6.72,3.63c-4.59,2.28-8.19,5.61-12.11,8.83A46.5,46.5,0,0,1,136.09,576c-5,1.81-9.38,4.6-14.07,7-9.9,5-19.57,10.46-29.7,15A26.49,26.49,0,0,0,82,605.56,52.28,52.28,0,0,0,75.94,616c-2,4.23-3.86,8.43-5.54,12.8A35.92,35.92,0,0,1,62.21,641a65.29,65.29,0,0,1-5.38,4.87c-1.88,1.52-3.41,3.55-5.44,4.88-1.85,1.21-4.08,1.71-6,2.74-2.21,1.16-4.28,2.88-6.72,3.52-1.76.46-3.7.74-4.92,2.24s.91,3.63,2.12,2.12,3.38-1.27,4.92-1.91c2.41-1,4.49-2.64,6.84-3.75,2.08-1,4.28-1.54,6.13-3s3.51-3.35,5.39-4.89A58.76,58.76,0,0,0,69,637.61c3-4,4.31-8.69,6.26-13.24,1.69-4,3.59-7.93,5.65-11.7a27,27,0,0,1,7.55-9.21,34.16,34.16,0,0,1,6-3.19c2.61-1.17,5.2-2.42,7.76-3.7,4.93-2.46,9.79-5.05,14.67-7.59s9.48-5,14.21-7.48,9.53-3.83,13.94-6.6,7.94-6.19,11.93-9.33,9-4.87,13.24-7.68c4.45-2.93,8.69-6.18,13.22-9s9.56-5.24,14.42-7.7c9.76-4.93,19.08-10.73,29-15.24,5-2.24,10-4.37,14.85-6.79,2.48-1.22,4.93-2.49,7.35-3.83,2.25-1.25,4.41-2.65,6.68-3.85,4.26-2.26,8.87-3.75,13.09-6.07s7.31-5.64,10.66-9a24.93,24.93,0,0,1,5.31-4.17,1.5,1.5,0,0,0-1.51-2.59Z" transform="translate(0.16 -67.09)"/><path class="cls-4" d="M295.36,519c-4.39,2.46-8.28,5.72-12.7,8.14-2.21,1.21-4.53,2.2-6.73,3.45s-4.47,2.67-6.73,4c-4.88,2.81-10.15,4.81-15.35,7s-10.56,4.27-15.85,6.36c-10.62,4.19-21.44,8-31.8,12.82a64.13,64.13,0,0,1-15.15,5c-5.2,1-10.45,1.84-15.68,2.71a137.1,137.1,0,0,0-15.31,3,62,62,0,0,0-14.38,6.42A200.38,200.38,0,0,0,120,596.15c-8.22,6.73-16.35,13.5-25,19.7-4.17,3-7.58,6.84-11.48,10.14a135.39,135.39,0,0,1-12.77,9.58c-4.34,2.84-8.19,6.27-12.44,9.24a112.79,112.79,0,0,1-14.07,8c-5,2.49-10.11,4.62-15.16,6.92a76.5,76.5,0,0,1-7.71,3.09,17.73,17.73,0,0,0-5.84,3.2c-1.48,1.21-2.78,2.2-4.79,2.11s-1.93,2.91,0,3c4.48.2,6.81-3.77,10.71-5.18,2.51-.91,5-1.75,7.42-2.85s5.06-2.32,7.61-3.44c9.91-4.34,19.71-9.12,28.18-15.92,4.15-3.34,8.67-6.11,12.91-9.33a137.91,137.91,0,0,0,12.11-10c1.87-1.78,3.73-3.59,5.77-5.18s4.37-3.11,6.52-4.72c4.23-3.16,8.33-6.49,12.4-9.85,8.25-6.8,16.43-13.67,25.36-19.59A107.91,107.91,0,0,1,153.63,577a60.2,60.2,0,0,1,15.2-4.46c5.2-.93,10.43-1.8,15.64-2.66a100,100,0,0,0,15.59-3.35c5.27-1.74,10.2-4.48,15.33-6.59,5.32-2.19,10.72-4.21,16.09-6.29,10.71-4.17,21.38-8.43,32-12.89,4.84-2,9.21-4.84,13.76-7.44,2.27-1.29,4.66-2.32,6.95-3.57a74.12,74.12,0,0,0,6.33-4c2.08-1.44,4.16-2.85,6.36-4.09a1.5,1.5,0,0,0-1.51-2.59Z" transform="translate(0.16 -67.09)"/><path class="cls-4" d="M233.13,556.53a5.27,5.27,0,0,1-3.28,1.47c-1.68.36-3.3.92-5,1.31s-3.53.13-5.34.3a21.79,21.79,0,0,0-2.53.51,15.46,15.46,0,0,1-3.26.13,44.9,44.9,0,0,0-5.56.16c-.93.1-1.85.33-2.79.41s-2.17,0-3.26,0c-3.74.34-7.32,1.87-11,2.4a34.42,34.42,0,0,0-10.07,3c-3.14,1.5-6,3.54-9,5.33a52.66,52.66,0,0,0-8.08,5.56c-2.65,2.36-4.72,5.3-7.21,7.82-1.23,1.24-2.61,2.28-3.9,3.45s-2.76,2.69-4.09,4.08a34.62,34.62,0,0,0-3.45,4,32.07,32.07,0,0,1-3.42,4.45c-2.5,2.49-5,5-7.7,7.33a45.7,45.7,0,0,1-9.55,6.16c-3.4,1.69-6.93,3.1-10.29,4.88s-6.44,3.6-9.75,5.23c-3.49,1.72-7,3.31-10.69,4.69s-7.54,2.56-11.3,3.86c-8.3,2.86-16.67,5.8-24.69,9.37a65.08,65.08,0,0,0-10.58,6.33c-2.9,2-6.2,4.46-9.74,5-1.9.31-1.09,3.2.8,2.89,3.15-.52,6-2.45,8.66-4.15,3-2,5.84-4.23,9-5.94a93.29,93.29,0,0,1,11-4.67q5.63-2.15,11.29-4.2c7.44-2.7,15-4.89,22.31-8.09,7-3.1,13.56-7.26,20.59-10.38a76.71,76.71,0,0,0,10-5.14A53.92,53.92,0,0,0,140,607c2.44-2.41,5-4.65,6.94-7.52a48.58,48.58,0,0,1,7.4-8.35c1.28-1.19,2.68-2.24,3.94-3.45s2.59-2.72,3.82-4.14a36.62,36.62,0,0,1,7.6-7c2.86-1.88,5.83-3.59,8.71-5.43a33.14,33.14,0,0,1,9.72-4.33c2-.52,4.08-.67,6.1-1.14s4.29-1.07,6.44-1.58,4.34-.24,6.51-.6a36.77,36.77,0,0,1,6.55-.3,20.1,20.1,0,0,0,3.2-.08c1-.15,2-.52,3-.59s2.07.09,3.1,0a15.3,15.3,0,0,0,3-.51c1.73-.43,3.43-.94,5.17-1.35a6.83,6.83,0,0,0,4-2.1c1.2-1.49-.91-3.63-2.12-2.12Z" transform="translate(0.16 -67.09)"/><path class="cls-4" d="M195.2,571.93a52.38,52.38,0,0,1-7,6.31c-2.7,1.88-5.47,3.65-8.21,5.46-5.6,3.7-10.94,7.76-16.28,11.81-2.59,2-5.17,3.92-7.77,5.85a76.17,76.17,0,0,0-7.53,6c-4.64,4.45-9.07,9.17-13.38,13.93a92.53,92.53,0,0,1-6.87,6.41c-2.24,2-4.18,4.35-6.38,6.43-4.32,4.07-9.81,7.83-15.62,9.32a144.49,144.49,0,0,0-18.51,5.94c-6,2.43-12.16,4.11-18.07,6.69a52.06,52.06,0,0,1-5.13,2.1c-1.57.49-3.18.88-4.77,1.28-3.43.85-6.82,1.87-10.32,2.38a68.84,68.84,0,0,1-10.74.54,11,11,0,0,1-4.47-.88,11.47,11.47,0,0,0-5-.54,1.5,1.5,0,0,0,0,3,9.13,9.13,0,0,1,4.18.43,11.28,11.28,0,0,0,4.2,1,74.84,74.84,0,0,0,9.47-.25,52.59,52.59,0,0,0,9.57-1.7c3-.8,6.14-1.48,9.13-2.46s6-2.56,9-3.73S81,655.06,84.1,654s6.07-2.44,9.14-3.56,6.38-2.09,9.59-3a59.22,59.22,0,0,0,8.81-2.77,46.61,46.61,0,0,0,7.74-4.63,50.38,50.38,0,0,0,6.88-6.09c2.17-2.25,4.35-4.38,6.72-6.43a87.06,87.06,0,0,0,6.79-6.93c2.27-2.45,4.61-4.84,7-7.23a73,73,0,0,1,6.86-6.53c2.66-2.1,5.46-4,8.16-6.08,6.06-4.58,12-9.28,18.37-13.51,3.06-2.06,6.18-4,9.22-6.13a57.9,57.9,0,0,0,8-7,1.5,1.5,0,0,0-2.12-2.13Z" transform="translate(0.16 -67.09)"/><path class="cls-4" d="M158.46,554.16c-1.47,1.61-4,1.87-5.92,2.57a78.05,78.05,0,0,0-8.27,3.78c-5.64,2.78-11.36,5.34-17.13,7.85a158.26,158.26,0,0,0-16.36,8c-5.37,3.11-10.27,7-15.6,10.14s-10.63,6-15.48,9.82c-4.22,3.3-6.94,7.82-9.57,12.39a72,72,0,0,0-6.64,16A69.07,69.07,0,0,0,62,633.82a47.6,47.6,0,0,1-2,8.24c-2,6.11-8.44,9.27-14.15,11.26-3,1-6.13,1.74-9.07,2.95a39.23,39.23,0,0,1-4.21,1.54,9.49,9.49,0,0,0-3.86,1.86c-1.45,1.28.68,3.4,2.12,2.12A7.93,7.93,0,0,1,34,660.52c1.35-.41,2.63-1,3.94-1.52,2.68-1.08,5.52-1.71,8.26-2.64,5.37-1.84,10.86-4.45,14.44-9a19.77,19.77,0,0,0,2.91-6.79,58.43,58.43,0,0,0,1.68-8.9,43.71,43.71,0,0,1,2-8.95,66.81,66.81,0,0,1,3.09-8.19c1.24-2.49,2.66-4.89,4.09-7.27a36.28,36.28,0,0,1,4.44-6.15,38.93,38.93,0,0,1,6.92-5.47q3.81-2.57,7.83-4.81c5.47-3,10.46-6.75,15.73-10.1a126.2,126.2,0,0,1,16.2-8.41c6.35-2.82,12.75-5.5,19-8.59a76.9,76.9,0,0,1,9.13-4.21c2.41-.81,5.16-1.28,6.95-3.24,1.3-1.43-.81-3.55-2.12-2.12Z" transform="translate(0.16 -67.09)"/><path class="cls-4" d="M180.39,590.9c-4.41,4-7.77,8.9-12.08,13S158.93,611,154,614.18a71.18,71.18,0,0,0-7.19,5.14c-2.33,2-4.46,4.19-6.59,6.35-4.44,4.5-8.58,9.27-12.84,13.93-2.16,2.37-4.31,4.76-6.36,7.22-1.86,2.23-3.57,4.59-5.6,6.67a32.1,32.1,0,0,1-6.51,5.09,16.32,16.32,0,0,1-8,2c-5.92.18-11.83-1-17.7-1.63-6.36-.63-12.73,0-19.1-.49-3.65-.27-7.26-.44-10.92-.44H42.57A82.21,82.21,0,0,0,32,658.1c-1.62.18-3.17.62-4.78.9a27.38,27.38,0,0,0-5,.86c-1.78.68-1,3.58.8,2.9A18.82,18.82,0,0,1,27.2,662c1.47-.2,2.89-.65,4.35-.87A56.85,56.85,0,0,1,41.4,661c6.51.17,13-.22,19.55.25,3.25.23,6.49.48,9.75.46s6.43-.18,9.65,0c6,.39,11.91,1.62,17.91,1.85a27.72,27.72,0,0,0,8.56-.81,21.08,21.08,0,0,0,7-3.94c4.7-3.6,8-8.39,11.86-12.81,4.22-4.8,8.53-9.56,12.88-14.25s8.65-9.32,13.83-12.89c5.44-3.76,11.24-7,16.3-11.28s8.87-10.06,13.88-14.56c1.44-1.3-.69-3.41-2.12-2.12Z" transform="translate(0.16 -67.09)"/><path class="cls-4" d="M135.94,571.93c-1.13,1.19-3,1.48-4.5,2-2.21.7-4.46,1.26-6.72,1.83A81.46,81.46,0,0,0,112,580.18c-4.14,1.81-8.18,3.83-12.28,5.73a57.73,57.73,0,0,0-11,7c-3.27,2.51-6.81,4.79-9.58,7.88a88.65,88.65,0,0,0-7,9.47c-1.26,1.84-2.52,3.66-3.63,5.59s-2.06,3.92-3.3,5.75-2.44,3.57-3.51,5.47-2.11,3.73-3.3,5.52c-2.66,4-6.21,7.41-9.49,10.88a79,79,0,0,1-11,10c-1.55,1.11,0,3.72,1.52,2.59a74.88,74.88,0,0,0,9.8-8.6c3.06-3.12,6.12-6.31,9-9.63s4.83-7.08,7-10.8c1.09-1.87,2.5-3.54,3.58-5.41s2.22-4.1,3.45-6.09c2.15-3.47,4.55-6.92,7-10.17A33.66,33.66,0,0,1,83.12,601c1.52-1.42,3.27-2.58,4.92-3.84a85.19,85.19,0,0,1,10.7-7.49c4-2.17,8.21-4,12.32-5.86a84.2,84.2,0,0,1,14.52-5.25c2.46-.62,4.89-1.27,7.31-2,1.86-.57,3.85-1.09,5.23-2.54s-.78-3.53-2.12-2.13Z" transform="translate(0.16 -67.09)"/><path class="cls-4" d="M284.11,543.87s34.67,55.64,33.34,70-8,30.37-8,30.37" transform="translate(0.16 -67.09)"/><path class="cls-4" d="M284.11,543.87s24,53.74,40,51.06,20-19.34,20-19.34" transform="translate(0.16 -67.09)"/><path class="cls-4" d="M812.48,241.43s20.9,38.91,0,35.3c-49.64-8.57-285.88,54.11-308.24,81.17s-45.88,80-70.58,95.3-181.29,83.67-181.29,83.67l-7-15.44S421.9,446,428.21,442.62c12.74-6.81,60-94.79,71.11-101C533.6,322.32,812.48,241.43,812.48,241.43Z" transform="translate(0.16 -67.09)"/><polygon class="cls-5" points="245.58 454.34 236.28 430.49 220.28 442.42 245.58 495.83 260.28 486.49 252.53 469.77 245.58 454.34"/><polygon class="cls-5" points="212.91 473.04 203.6 449.19 187.6 461.12 212.91 514.53 227.6 505.19 219.86 488.47 212.91 473.04"/><polygon class="cls-5" points="276.28 440.37 266.97 416.53 250.97 428.45 276.28 481.86 290.97 472.53 283.22 455.81 276.28 440.37"/><path class="cls-5" d="M785.84,254.64l1.25,5.11c.12.48.2.61.39.7s.08.18,0,.2l-.55.14h-.09l-.41.1c-.08,0-.16-.11-.1-.17a.45.45,0,0,0,0-.49l-2.56-3.86.93,3.78c.15.61.23.75.44.86s.08.18,0,.2H785l-.72.18h-.17a.11.11,0,0,1-.09-.17c.06-.08.13-.35,0-1l-1.23-5c-.11-.4-.2-.52-.37-.62a.1.1,0,0,1-.06-.13.09.09,0,0,1,.06-.06l.55-.14H783l.41-.1a.12.12,0,0,1,.12.1.14.14,0,0,1,0,.07c-.08.09-.1.11,0,.29l2.48,3.75-.87-3.54c-.14-.55-.22-.69-.42-.79s-.08-.18,0-.2l.54-.13h.09l.41-.09a.11.11,0,0,1,.1.17A1.52,1.52,0,0,0,785.84,254.64Z" transform="translate(0.16 -67.09)"/><path class="cls-5" d="M789.24,260c.09.05.08.18,0,.2l-.55.14h-.09l-.41.1a.11.11,0,0,1-.1-.17,1.26,1.26,0,0,0,0-.91l-1.23-5c-.12-.46-.2-.59-.39-.69a.11.11,0,0,1-.05-.15.12.12,0,0,1,.05,0l.55-.13h.09l.41-.11a.12.12,0,0,1,.1.18c0,.08-.14.4.08,1.28h0l1.09,4.47C789,259.77,789,259.92,789.24,260Z" transform="translate(0.16 -67.09)"/><path class="cls-5" d="M792.37,253.21l1.17,4.8c.16.6.23.75.44.86s.08.18,0,.2l-.54.13h-.09l-.41.1a.12.12,0,0,1-.12-.1.14.14,0,0,1,0-.07c.14-.19.14-.36,0-1l-.85-3.48-.17,2.72-.68.17-1.4-2.31.84,3.46c.16.6.23.75.44.86a.1.1,0,0,1,.06.13.09.09,0,0,1-.06.06l-.55.14h-.09l-.41.1a.11.11,0,0,1-.1-.17,1.48,1.48,0,0,0,0-1L788.7,254c-.16-.61-.23-.75-.44-.86a.11.11,0,0,1,0-.15l0,0,.55-.13h.09l.41-.1a.11.11,0,0,1,.1.17c0,.08-.09.15.29.82l1.46,2.4.2-3.24c0-.23,0-.37-.13-.43s-.08-.18,0-.2l.54-.13h.1l.41-.1a.11.11,0,0,1,.09.17A1.52,1.52,0,0,0,792.37,253.21Z" transform="translate(0.16 -67.09)"/><path class="cls-5" d="M796.6,255.16h0L797,257a1.29,1.29,0,0,1-1,1.55h0l-.25.07h0l-1.13.27a.11.11,0,0,1-.1-.17.59.59,0,0,0,.07-.53l-.79-3.26h0l-.57-2.34c-.08-.27-.15-.37-.3-.45a.1.1,0,0,1-.06-.13.09.09,0,0,1,.06-.06l1.12-.28h.12a1.3,1.3,0,0,1,1.59.94l.22.91a1.13,1.13,0,0,0,.58,1.65Zm-2.19-2.84-.41.1.54,2.22.52-.41h0a.53.53,0,0,0,.23-.59l-.22-.9A.56.56,0,0,0,794.41,252.32Zm1.47,3h0a.53.53,0,0,0-.55-.38l-.59.47.62,2.54.54-.13a.56.56,0,0,0,.43-.68l-.45-1.82Z" transform="translate(0.16 -67.09)"/><path class="cls-5" d="M799.7,250.46c-.12.17-.13.32,0,.79l1.16,4.78a1.31,1.31,0,0,1-1,1.59h0l-.48.12a1.32,1.32,0,0,1-1.59-1v0L796.62,252c-.13-.46-.21-.59-.4-.68s-.08-.18,0-.2l.54-.13h.1l.4-.1a.12.12,0,0,1,.12.1.14.14,0,0,1,0,.07c-.15.23-.13.41.09,1.28h0l1,4.28a.59.59,0,0,0,.7.44l.49-.12a.58.58,0,0,0,.42-.7h0l-1-4.28h0c-.21-.87-.28-1-.52-1.17-.08,0-.08-.18,0-.2l.41-.1H799l.55-.13C799.69,250.32,799.78,250.39,799.7,250.46Z" transform="translate(0.16 -67.09)"/><path class="cls-5" d="M803.64,251.5a.1.1,0,0,1,.05.13l-.05.05-.44.11-.52.13a.1.1,0,0,1-.12-.08.08.08,0,0,1,0-.08.6.6,0,0,0,.09-.62l-.06-.26c-.07-.29-.31-.49-.51-.44l-.33.08c-.21,0-.32.34-.25.63l.35,1.4c.07.29.3.49.5.44l.33-.08a1.22,1.22,0,0,1,1.4,1l.32,1.3a1.22,1.22,0,0,1-.79,1.52l-.33.08a1.18,1.18,0,0,1-1.36-.86h0c-.09-.37-.19-.47-.37-.55a.1.1,0,0,1-.05-.13.12.12,0,0,1,.05-.05l.53-.13.52-.12a.09.09,0,0,1,.11.06.1.1,0,0,1,0,.09c-.11.14-.19.1-.09.55.08.28.31.47.51.43l.33-.08c.2,0,.31-.34.24-.63l-.31-1.3c-.08-.29-.31-.49-.51-.44l-.33.08a1.22,1.22,0,0,1-1.4-1l-.37-1.41a1.22,1.22,0,0,1,.78-1.52l.34-.08a1.21,1.21,0,0,1,1.39,1h0l.06.22v.1l.07.28h0C803.5,251.46,803.52,251.45,803.64,251.5Z" transform="translate(0.16 -67.09)"/><path class="cls-5" d="M793.35,268.58h0l.16.72-1.89.41a.37.37,0,0,1-.44-.26v0l-.61-2.78a.61.61,0,0,1,0-.19l.13-.4a.38.38,0,0,1,.27-.25l.92-.2v-.09l-.43-2a.44.44,0,0,0-.53-.32h0a.42.42,0,0,0-.34.5h0v.1l-.72.16v-.11a1.17,1.17,0,0,1,.91-1.38h0a1.17,1.17,0,0,1,1.4.88l.45,2.05a.25.25,0,0,1,0,.17l-.1.4a.37.37,0,0,1-.28.26l-.93.21v.1l.51,2.32.64-.14c.43-.11.56-.18.65-.36a.11.11,0,0,1,.15-.05l.05.05Z" transform="translate(0.16 -67.09)"/><path class="cls-5" d="M795.44,262.83l1,4.51a1.3,1.3,0,0,1-1,1.54h0a1.29,1.29,0,0,1-1.55-1v0l-1-4.51a1.3,1.3,0,0,1,1-1.54h0a1.31,1.31,0,0,1,1.56,1Zm-.72.16a.57.57,0,0,0-.68-.42h0a.56.56,0,0,0-.44.66h0l1,4.52a.57.57,0,0,0,.68.41h0a.57.57,0,0,0,.45-.66Z" transform="translate(0.16 -67.09)"/><path class="cls-5" d="M798.63,262.13l1,4.52a1.32,1.32,0,0,1-1,1.54h0a1.31,1.31,0,0,1-1.56-1h0l-1-4.52a1.32,1.32,0,0,1,1-1.54h0a1.3,1.3,0,0,1,1.56,1Zm-.72.16a.56.56,0,0,0-.68-.41h0a.57.57,0,0,0-.45.66l1,4.51a.56.56,0,0,0,.66.42h0a.59.59,0,0,0,.45-.66Z" transform="translate(0.16 -67.09)"/><path class="cls-5" d="M801.78,261.44l1,4.51a1.31,1.31,0,0,1-1,1.54h0a1.3,1.3,0,0,1-1.56-1v0l-1-4.51a1.3,1.3,0,0,1,1-1.54h0a1.3,1.3,0,0,1,1.56,1Zm-.72.16a.57.57,0,0,0-.68-.42h0a.57.57,0,0,0-.45.66l1,4.51a.56.56,0,0,0,.67.42h0a.56.56,0,0,0,.44-.66h0Z" transform="translate(0.16 -67.09)"/></g></g><g id="Calque_10" data-name="Calque 10"><path class="cls-1" d="M404.5,489.1c-7-6.88-17.85-25.59-29.39-14.84-18.42,15.28-99,89.84-111.14,102.93-3.91,2,59.76,77.72,64.17,65.69,27.48-15.11-9.14-40.44-18.74-53.62C316.29,578.64,422,506.4,404.5,489.1Z" transform="translate(0.16 -67.09)"/><path class="cls-3" d="M496.3,151.1,465,197s15.11,78.23-15.55,112.45-66.67,60.88-117.34,72.88S238.78,417,207.44,413s-79.33-5.34-44.66,16,52.15,16,71.41,21.33,8.59,5.33,36.59,17.33,39.07-14.48,52.73,0-3.27,29,0,43.18-4.73,27.93,20.6,33,21.34,4.71,25.34,25.58,9.33,44,20,44.43,38-7.69,68.33-24.29,16.44-36.17,49.39-45.72,59.63-17.61,57-27.58-7.95-22.41,5.35-27.53,31.61-6.44,33.79-21.11-14.65-63.67-14.9-78.5-38.63-27.79-29.48-53.26c5.62-15.61,22.65-103.76,11.91-122s-25.31-23.14-30.69-36a129.53,129.53,0,0,1-7.46-26.76Z" transform="translate(0.16 -67.09)"/><path class="cls-2" d="M520.11,151.46s-.44,24.64,5.78,33.08,1.78,10.67,10.22,18.22,7.11,4,15.11,14.23,10.27,12.89,15.58,19.11,13.34,16.2,13.34,16.2L578.66,243s-5.61-13.54-11.86-18.43S558.34,213,552.56,209s-9.7-10.23-12.41-13.34-7-3.55-9.74-9.77S529,177,527.22,171.65A40.87,40.87,0,0,1,525,159.21V151.1Z" transform="translate(0.16 -67.09)"/><path class="cls-2" d="M151.89,420.14s14.89.4,24.89,4.4S177,433,192.11,436.1s18.67,2.66,31.56,4.44,12.89,5.78,19.55,8.89,8.45,3.56,16.89,5.33,11.15,4,21.36,3.12,18.2-5.78,29.31-3.56,22.22,4.4,28.44,3.76,11.12,2.91,13.34,14.46-4.45,23-3.11,30.38,12.89,13.93,18.66,18.67,11.11,4.94,12,15.28-1.33,17.32,0,22.72a145.57,145.57,0,0,1,3.11,18.66c.45,5-.88,13.49,0,16.78s6.23,18.85,6.23,18.85a8.26,8.26,0,0,1-8.32-5.92c-2.32-6.52-27.24-22.42-23.68-41.71,5-26.89-28.89-7.49-29.78-22.38s-5.25-7.43-5.78-23.62c-.48-14.52-12.44-11.84-16.44-25.33s3.55-19.27-12-21.93-32.94,0-48-8.45-16.42-6.66-36-8.44-33.34,2.66-40-4-12-16.45-14-20.45S151.89,420.14,151.89,420.14Z" transform="translate(0.16 -67.09)"/><path class="cls-1" d="M335.13,550.15s-12.28,0-17.65,9.44-8.62,16.38-13.66,18.66-19.71,4-19.71,4" transform="translate(0.16 -67.09)"/><g class="cls-6"><path d="M325.05,538.21c-3.51.61-7.1,1.27-10.26,3a13.53,13.53,0,0,0-6.65,8.35,5.39,5.39,0,0,1-1.52,2.4,10.93,10.93,0,0,0-1.79,2.58,13.24,13.24,0,0,0-1.43,6.18,7.3,7.3,0,0,1-2.09,5.59,18.51,18.51,0,0,1-5,3.4c-2.34,1.17-4.85,2.07-7.07,3.45s-4.09,3-6.3,4.32a1.5,1.5,0,1,0,1.52,2.59c1.84-1.07,3.48-2.42,5.23-3.63a41.25,41.25,0,0,1,6.19-3.21c3.65-1.69,7.77-3.79,9.63-7.59.94-1.91.84-3.87.93-5.94a9.08,9.08,0,0,1,2.33-5.62,8.81,8.81,0,0,0,1.75-2.23c.46-1,.61-2,1-3a10.13,10.13,0,0,1,3.25-4c3.16-2.36,7.3-3,11.09-3.67,1.89-.33,1.09-3.22-.8-2.89Z" transform="translate(0.16 -67.09)"/></g><g class="cls-6"><path d="M291.5,590.49c1.37,1.36,2.48,3,3.9,4.29a51.27,51.27,0,0,0,4.54,3.18,29.56,29.56,0,0,1,3.88,3.87,21.11,21.11,0,0,0,4.37,3.38c3.28,2,6.75,3.57,9.63,6.17,1.52,1.37,2.92,2.87,4.32,4.35s2.89,2.78,4.18,4.29a4.67,4.67,0,0,1,1,4.55c-.37,1.54-.84,3.53-2,4.69a1.5,1.5,0,0,0,2.13,2.12h0a10.87,10.87,0,0,0,2.31-4.44,11.57,11.57,0,0,0,.76-4.94,8.46,8.46,0,0,0-2.62-4.75c-1.48-1.53-3-3-4.46-4.57a41.33,41.33,0,0,0-10-8,54.52,54.52,0,0,1-5.31-3.15,36,36,0,0,1-4.21-4.16,30.84,30.84,0,0,0-5.26-3.89c-2-1.32-3.32-3.48-5-5.15-1.38-1.36-3.5.76-2.12,2.12Z" transform="translate(0.16 -67.09)"/></g><g class="cls-6"><path d="M289.33,597.83c1.89,5.09,2.07,11.22,6.61,14.88a1.55,1.55,0,0,0,2.12,0,1.51,1.51,0,0,0,0-2.12c-4.06-3.28-4.14-9-5.83-13.56a1.56,1.56,0,0,0-1.85-1A1.53,1.53,0,0,0,289.33,597.83Z" transform="translate(0.16 -67.09)"/></g><g class="cls-6"><path d="M273.28,573.43c0,1.38,0,2.77-.08,4.15-.09,1.2-.41,2.32-.61,3.5a7.22,7.22,0,0,0,0,3.27,5,5,0,0,0,2.28,2.82c1.65,1,3.16-1.58,1.52-2.59a2.29,2.29,0,0,1-.72-.63l-.15-.27c.07.14,0,0,0-.06s-.13-.56-.09-.34a5.77,5.77,0,0,1,.23-2.37,34.72,34.72,0,0,0,.6-7.48,1.5,1.5,0,0,0-3,0Z" transform="translate(0.16 -67.09)"/></g><g class="cls-6"><path d="M319,573.43c.12-1.33,2.71-1.84,3.67-2.35,2.13-1.12,3.71-2.92,5.58-4.39s4-2.63,5.86-4.2a40.91,40.91,0,0,1,6.37-4.65,1.5,1.5,0,0,0-1.52-2.59,43.36,43.36,0,0,0-6.83,5c-2.06,1.79-4.5,3-6.59,4.82a21.76,21.76,0,0,1-5.6,4c-2.07.86-3.73,2-3.94,4.38-.18,1.92,2.82,1.91,3,0Z" transform="translate(0.16 -67.09)"/></g><g class="cls-7"><path d="M492,267.65c0,7.81-5.15,14.21-7.84,21.23-1.5,3.93-2,8.13-3,12.18a28.66,28.66,0,0,1-2.25,6.17c-1,2-2.17,3.92-3.23,5.89a41.49,41.49,0,0,0-4.43,12.35c-.8,4.48-1.09,9-1.62,13.54s-2.25,8.82-3.24,13.3a15.93,15.93,0,0,1-1.95,5.63,35.27,35.27,0,0,1-4.29,5,43.22,43.22,0,0,1-4.58,4.29,31.21,31.21,0,0,1-5.45,3.24,56.5,56.5,0,0,0-5.61,3.08c-1.9,1.23-3.69,2.61-5.53,3.92a82,82,0,0,1-11.56,6.77c-4.07,2-8.28,3.46-12.49,5.12s-8.13,3.79-12.25,5.56c-4.46,1.92-9.16,3.37-13.74,5s-9.18,3.29-13.76,5-9,3.1-13.23,5.1c-8.21,3.84-15.54,9.23-23,14.25-3.87,2.59-8.07,4.57-12,7-2.83,1.7-5.4,3.81-8.26,5.46a9.37,9.37,0,0,1-3.77,1.5c-1.92.13-1.93,3.13,0,3,3.19-.21,6.1-2.32,8.65-4.07a110,110,0,0,1,9.79-6c8.21-4.46,15.55-10.28,23.62-15,8.38-4.88,17.68-7.79,26.77-11.05q7.11-2.57,14.24-5.09a139.22,139.22,0,0,0,12.84-5.45c4.12-1.94,8.42-3.33,12.62-5.1a104.05,104.05,0,0,0,12.27-6.14c4-2.31,7.43-5.3,11.33-7.68,3.67-2.23,7.73-3.68,11.06-6.46a46.69,46.69,0,0,0,9-9.62,16.59,16.59,0,0,0,2.13-5.74c.48-2.19,1.1-4.32,1.75-6.47a71.8,71.8,0,0,0,2.29-13.66,56.77,56.77,0,0,1,2.56-13.58c1.56-4.33,4.29-8.09,6.23-12.23s2.63-8.41,3.55-12.73a45.45,45.45,0,0,1,4.18-11.09,53.91,53.91,0,0,0,4.54-10.6,22.87,22.87,0,0,0,.75-5.7,1.5,1.5,0,0,0-3,0Z" transform="translate(0.16 -67.09)"/></g><g class="cls-7"><path d="M525.28,302.32A49.05,49.05,0,0,1,523.85,315c-.61,2.18-1.45,4.28-2.06,6.46s-1.12,4.42-1.67,6.63c-1.09,4.35-2.36,8.7-3.82,12.93a55.27,55.27,0,0,1-5.71,11.53,59.35,59.35,0,0,1-7.78,10c-3.23,3.3-6.71,6.38-10.11,9.49-6.92,6.34-14.06,12.46-20.81,19-3.29,3.17-6.52,6.44-9.67,9.75-2.78,2.93-5.14,6.22-7.84,9.21s-6,5.33-8.92,8.06a81.47,81.47,0,0,0-8.42,9c-5.33,6.67-9,14.3-13.55,21.49a193.57,193.57,0,0,1-15.86,21.6c-3,3.54-6,7-9,10.53-2.83,3.33-5.71,6.61-8.53,9.93a31.09,31.09,0,0,0-3.49,5.1,34.9,34.9,0,0,1-3.23,5.25,89.76,89.76,0,0,1-9,9.19c-1.56,1.45-3.12,2.91-4.64,4.42a1.5,1.5,0,0,0,2.12,2.12c3.1-3.08,6.41-6,9.5-9a62,62,0,0,0,4.29-4.73,36.27,36.27,0,0,0,3.36-5.31,29.34,29.34,0,0,1,3.5-5.19c1.39-1.6,2.85-3.11,4.19-4.75,2.92-3.57,5.94-7.06,9-10.56a241.67,241.67,0,0,0,16.75-21.38q3.75-5.51,7.1-11.27c2.17-3.73,4.15-7.55,6.6-11.12a77.2,77.2,0,0,1,8-9.76c2.89-3,6.09-5.58,9.23-8.31a74.26,74.26,0,0,0,8-9c2.8-3.37,6-6.41,9-9.53,6.57-6.72,13.74-12.86,20.69-19.19,6.72-6.11,13.9-12,19.32-19.37a66.3,66.3,0,0,0,6.7-11.07A85.13,85.13,0,0,0,521.33,335c1.31-4.44,2.29-9,3.58-13.43.65-2.23,1.52-4.38,2.09-6.64a43,43,0,0,0,1-6.16c.21-2.16.26-4.32.29-6.48a1.5,1.5,0,1,0-3,0Z" transform="translate(0.16 -67.09)"/></g><g class="cls-7"><path d="M428,358.32c.08,1.86-2.36,3.91-3.62,5.11-1.73,1.65-3.63,3.11-5.41,4.7a83.65,83.65,0,0,1-9.36,7.3,42,42,0,0,1-10.31,5,86.93,86.93,0,0,0-10.71,4.05c-3.65,1.77-7.19,3.81-11,5.28s-8,2.73-12,4.13-7.94,2.79-12,4-8.24,2.15-12.38,3.19-8.42,2.21-12.61,3.4c-8.21,2.34-16.35,5-24.62,7.07-4.1,1.05-8.23,2-12.4,2.66-2.12.36-4.26.65-6.4.86s-4,.21-6,.46c-4,.5-7.74,2.34-11.73,2.62-2.16.15-4.33-.18-6.49,0a54.61,54.61,0,0,0-5.83,1c-4.19.76-8.65.54-12.91.6s-8.76.06-13.14,0c-8.84-.06-17.69-.23-26.53-.3h-6.44a1.5,1.5,0,0,0,0,3c17.93,0,35.86.67,53.78.12a39.82,39.82,0,0,0,6.26-.58,32.91,32.91,0,0,1,6.25-.88,42.74,42.74,0,0,0,6.4-.09,52.2,52.2,0,0,0,6.16-1.51,28.46,28.46,0,0,1,6-1.11q3.16-.16,6.31-.54,6.34-.8,12.59-2.22c8.45-1.9,16.71-4.52,25-6.94,4.34-1.27,8.7-2.51,13.07-3.66s8.53-2,12.76-3.19c8.35-2.25,16.39-5.47,24.6-8.13a77.11,77.11,0,0,0,11.27-4.9,76.06,76.06,0,0,1,11-4.69,51.16,51.16,0,0,0,10.66-4.33,84.11,84.11,0,0,0,9.95-7.12c2.17-1.78,4.28-3.66,6.39-5.5a25.12,25.12,0,0,0,5.46-5.9,5.71,5.71,0,0,0,.89-3c-.09-1.92-3.09-1.93-3,0Z" transform="translate(0.16 -67.09)"/></g><g class="cls-7"><path d="M460,304.59c-1.46,7.29-6,13.16-10.23,19.06-1.06,1.47-2.11,3-3.09,4.48-1.09,1.69-2.38,3.24-3.48,4.92-2.29,3.49-1.72,7.18-1.9,11.12-.23,5.12-1.63,10.09-2.63,15.08-.38,1.89,2.51,2.7,2.89.8.88-4.34,2-8.64,2.5-13.05a46,46,0,0,0,.24-6.21,10.48,10.48,0,0,1,1-5.51c1-1.77,2.42-3.28,3.52-5q1.47-2.29,3-4.51c2.11-2.94,4.31-5.83,6.22-8.91a35,35,0,0,0,4.77-11.49c.38-1.89-2.51-2.7-2.89-.8Z" transform="translate(0.16 -67.09)"/></g><g class="cls-7"><path d="M539.36,311.62c1.22.91,1.07,4,1,5.48a51,51,0,0,1-.88,7.5c-1.27,7.25-2.72,14.47-3.86,21.73-.67,4.24-1,8.52-1.62,12.77s-1.28,8.22-2.22,12.22a107.54,107.54,0,0,1-8,23.82c-1.84,3.78-3.86,7.48-5.76,11.23-.9,1.79-1.71,3.63-2.66,5.39a51.8,51.8,0,0,0-2.65,5.13,24.57,24.57,0,0,0-1.2,6,32.91,32.91,0,0,1-1.76,5.91,81.82,81.82,0,0,0-3.39,11.79,73.24,73.24,0,0,0-1.06,12.19,33.77,33.77,0,0,0,1.41,11.44c.68,2,1.59,4,2.2,6.1s1.07,4.1,1.68,6.13a59.27,59.27,0,0,1,2.65,12.07c.66,8-2.32,16.21-5.78,23.33-1.8,3.72-3.84,7.36-5.9,10.93-1,1.81-2.28,3.49-3.45,5.23a28.09,28.09,0,0,1-3.35,4.68c-1.16,1.15-2.49,2.13-3.72,3.2-1.46,1.26.67,3.38,2.12,2.12,1.28-1.11,2.66-2.11,3.84-3.31a29.94,29.94,0,0,0,3.32-4.59c1.19-1.82,2.5-3.55,3.6-5.42s2.05-3.76,3.11-5.62c4.07-7.17,7.43-14.87,8.89-23,1.52-8.56-1.49-16.78-3.68-24.93-1.08-4-3-7.79-3.68-11.94a53.48,53.48,0,0,1,0-12.39,56.73,56.73,0,0,1,2.49-12.43c1.24-3.94,3-7.8,3.53-11.93a16.61,16.61,0,0,1,1.61-5.94c.92-1.8,2-3.52,2.82-5.33,1.84-3.87,3.88-7.63,5.83-11.44a111.81,111.81,0,0,0,9-24c1-4.18,1.92-8.42,2.6-12.68s1-8.56,1.63-12.84c1.08-8,2.71-15.85,4.13-23.74.45-2.48.86-5,1.07-7.48a17.49,17.49,0,0,0-.54-7.44,5.27,5.27,0,0,0-1.87-2.54c-1.55-1.15-3,1.45-1.51,2.6Z" transform="translate(0.16 -67.09)"/></g><g class="cls-7"><path d="M471,401.32c1.32,6.08,4.25,12.09,4.35,18.39a9.69,9.69,0,0,1-2.8,7.41,6.72,6.72,0,0,0-1.48,1.53,21.88,21.88,0,0,0-.92,2.18A29.51,29.51,0,0,0,469,435c-2.75,12.28.43,25-1.92,37.32a31.24,31.24,0,0,1-2.87,8.62,22.49,22.49,0,0,1-2.63,4.12c-1.06,1.25-2.28,2.38-3.35,3.63a64.58,64.58,0,0,0-10.07,16.14c-5.15,11.79-7.08,24.63-8,37.37-1,13.11-.94,26.27-2,39.37-.13,1.58-.27,3.16-.44,4.73-.2,1.92,2.8,1.91,3,0C442,573.16,442,560,442.79,546.84c.76-12.83,2.23-25.85,6.88-37.93a62.86,62.86,0,0,1,9.25-16.42c2.07-2.6,4.58-4.83,6.41-7.6a30.53,30.53,0,0,0,3.82-8.4c3.56-12.28.46-25.14,2.17-37.62a25.62,25.62,0,0,1,2.27-8.41A7.08,7.08,0,0,1,475,429a11.93,11.93,0,0,0,1.48-1.84A11.46,11.46,0,0,0,478,423.4c1.39-6.1-1.21-12.5-2.89-18.27-.45-1.52-.86-3.06-1.2-4.61-.41-1.88-3.3-1.09-2.89.8Z" transform="translate(0.16 -67.09)"/></g></g><g id="bras_droit" data-name="bras droit"><path class="cls-1" d="M665.66,299.18c4.11,0,33.8,9.7,23.15-3.75.22-.39-26.3-3.69-21.23-4.59,28.47,8.66,37.93-3.79,3.18-7.32,7.85-1.93,10.89-10.73,2-12-13.34,17.45-58.4.14-74.71-2.83l-7.27,31.7c0-.15,70.38,16.59,70.18,16.07,27.55,8.18,31.35-5.34,1.75-7.57-1.8-3.81,21.95,3.18,22.86,2.52C701.85,301.23,662.72,301.94,665.66,299.18Z" transform="translate(0.16 -67.09)"/><polygon class="cls-2" points="643.39 211.64 635.96 243.78 641.54 245.07 649.13 212.26 643.39 211.64"/><polygon class="cls-2" points="658.85 211.64 650.7 246.86 653.49 247.51 661.81 211.54 658.85 211.64"/><path class="cls-3" d="M576,254.63c-25.33-5.85-61.33-58-61.33-58s-14.67-30-36-14.26-11.85,26.22-9.66,36c6,26.91,39,70.46,49.66,75.07S608,335.79,608,335.79l7.33-79Z" transform="translate(0.16 -67.09)"/></g><path class="cls-8" d="M546.52,86.23v3.29s-3.38-8.89-12.95-11.85-13.13-5.93-21.42-5.34-11.79-.59-21.6,3-14,3-15.14,10.66,1.78,9.11,0,14.93.61,7.24-.29,16.6,3.31,22.86,3.31,22.86l.68,1.44a40.13,40.13,0,0,1-11.41-28V86.23a18.7,18.7,0,0,1,18.64-18.64h41.54A18.7,18.7,0,0,1,546.52,86.23Z" transform="translate(0.16 -67.09)"/><path class="cls-9" d="M546.52,89.52v45.89a18.7,18.7,0,0,1-18.64,18.64H508a40.15,40.15,0,0,1-28.86-12.26l-.68-1.44s-4.21-13.5-3.31-22.86-1.49-10.79.29-16.6-1.19-7.22,0-14.93,5.33-7.11,15.14-10.66,13.3-2.37,21.6-3S524,74.7,533.57,77.67,546.52,89.52,546.52,89.52Z" transform="translate(0.16 -67.09)"/><ellipse class="cls-10" cx="513.94" cy="72.8" rx="21.19" ry="3.85"/><line class="cls-11" x1="492.75" y1="72.8" x2="535.12" y2="72.8"/><line class="cls-11" x1="498.11" y1="70.24" x2="498.07" y2="75.48"/><line class="cls-11" x1="503.22" y1="69.28" x2="503.35" y2="75.88"/><line class="cls-11" x1="509.33" y1="68.95" x2="509.35" y2="76.65"/><line class="cls-11" x1="513.94" y1="68.76" x2="513.94" y2="76.65"/><line class="cls-11" x1="520.09" y1="68.76" x2="520.26" y2="76.65"/><line class="cls-11" x1="525.61" y1="69.21" x2="525.58" y2="75.7"/><line class="cls-11" x1="529.87" y1="70.26" x2="529.8" y2="75.29"/><polygon class="cls-8" points="482.38 28.13 499.43 29.24 503.29 33.02 482.38 28.13"/><polygon class="cls-8" points="543.07 28.13 526.02 29.24 522.16 33.02 543.07 28.13"/><path class="cls-12" d="M487.66,101.33c-.65,7.91,11.31,8.1,13.62,1.62Z" transform="translate(0.16 -67.09)"/><circle class="cls-13" cx="494.21" cy="37.71" r="2.21"/><circle class="cls-14" cx="495.16" cy="38.14" r="0.54"/><path class="cls-12" d="M535.61,102.11c.66,7.91-11.3,8.1-13.61,1.62Z" transform="translate(0.16 -67.09)"/><circle class="cls-13" cx="529.39" cy="38.49" r="2.21"/><circle class="cls-14" cx="528.44" cy="38.92" r="0.54"/><path class="cls-9" d="M513.63,108.34s1.55,5,.85,6.13-2.78,1.41-2.78,1.41" transform="translate(0.16 -67.09)"/><path class="cls-9" d="M476,106.71c-5-12.2-8.47,13,0,12.22" transform="translate(0.16 -67.09)"/><path class="cls-9" d="M472.44,108.34A5.83,5.83,0,0,1,473,106c.44-.45.45.53.45.53l.77.57" transform="translate(0.16 -67.09)"/><line class="cls-9" x1="473.49" y1="46.06" x2="474.38" y2="48.02"/><polyline class="cls-9" points="474.89 43.24 473.94 44.07 474.89 45.35"/><path class="cls-9" d="M545.8,108c5-12.21,8.46,13,0,12.22" transform="translate(0.16 -67.09)"/><path class="cls-9" d="M549.25,110s-.11-1.88-.55-2.33-.45.53-.45.53l-.77.57" transform="translate(0.16 -67.09)"/><line class="cls-9" x1="548.53" y1="48.79" x2="547.64" y2="50.75"/><polyline class="cls-9" points="546.2 45.35 547.16 46.18 546.2 47.47"/></svg>