<svg xmlns="http://www.w3.org/2000/svg" xmlns:xlink="http://www.w3.org/1999/xlink" viewBox="0 0 171.88 487.15"><defs><style>.cls-1,.cls-10,.cls-22,.cls-6{fill:none;}.cls-14,.cls-2{fill:#432918;}.cls-3{opacity:0.07;}.cls-11,.cls-4{fill:#1d1d1b;}.cls-23,.cls-5{fill:#f1c089;}.cls-10,.cls-11,.cls-12,.cls-14,.cls-5,.cls-6{stroke:#1d1d1b;}.cls-10,.cls-11,.cls-12,.cls-13,.cls-14,.cls-18,.cls-19,.cls-20,.cls-21,.cls-22,.cls-23,.cls-24,.cls-5,.cls-6{stroke-miterlimit:10;}.cls-7{fill:url(#Dégradé_sans_nom_14);}.cls-19,.cls-8{fill:#fff;}.cls-9{fill:url(#Dégradé_sans_nom_14-2);}.cls-10,.cls-11,.cls-12,.cls-14{stroke-width:0.5px;}.cls-12,.cls-13{fill:#be1622;}.cls-13{stroke:#ad5858;stroke-width:5px;}.cls-15{clip-path:url(#clip-path);}.cls-16{opacity:0.44;}.cls-17,.cls-18,.cls-24{fill:#1f1f1d;}.cls-18,.cls-19,.cls-20,.cls-21,.cls-23{stroke:#1f1f1d;}.cls-18,.cls-19,.cls-20,.cls-22,.cls-23,.cls-24{stroke-width:0.25px;}.cls-20{fill:#6c1324;}.cls-21{fill:#eab043;stroke-width:0.15px;}.cls-22,.cls-24{stroke:#595958;}</style><linearGradient id="Dégradé_sans_nom_14" x1="241.61" y1="323.51" x2="272.17" y2="323.51" gradientUnits="userSpaceOnUse"><stop offset="0" stop-color="#fff"/><stop offset="0.24" stop-color="#fdfeff" stop-opacity="0.99"/><stop offset="0.38" stop-color="#f4fbfe" stop-opacity="0.98"/><stop offset="0.49" stop-color="#e6f6fc" stop-opacity="0.94"/><stop offset="0.59" stop-color="#d3eefa" stop-opacity="0.9"/><stop offset="0.67" stop-color="#b9e5f7" stop-opacity="0.83"/><stop offset="0.75" stop-color="#99d9f4" stop-opacity="0.76"/><stop offset="0.83" stop-color="#74cbf0" stop-opacity="0.67"/><stop offset="0.9" stop-color="#48baeb" stop-opacity="0.57"/><stop offset="0.97" stop-color="#18a8e6" stop-opacity="0.46"/><stop offset="1" stop-color="#009fe3" stop-opacity="0.4"/></linearGradient><linearGradient id="Dégradé_sans_nom_14-2" x1="161.45" y1="322.95" x2="192.01" y2="322.95" gradientTransform="matrix(-1, 0, 0, 1, 490.5, 0)" xlink:href="#Dégradé_sans_nom_14"/><clipPath id="clip-path" transform="translate(-197.54 -240.49)"><rect class="cls-1" x="204.9" y="324.22" width="183.56" height="97.78"/></clipPath></defs><g id="cheveux"><path class="cls-2" d="M213.07,300s1.49.11-.29,20.18,9.18,31,9.18,31l111.41,5.62s24,6.82,27.56-1.48,5.63-21.73,2.66-37.23.3-36.25-4.15-48.69,6.82-9.48-14.22-18.08-19.08-9.18-46.72-9.77-29.2-2.08-48.72,0-24.85-1.78-34.63,3.85-13.63,2.07-16,15.7-2.67,24.3,3,37S213.07,300,213.07,300Z" transform="translate(-197.54 -240.49)"/><g class="cls-3"><path class="cls-4" d="M244.91,244.8c-4.94.72-10,1-14.75,2.54A54,54,0,0,0,224,250a56.52,56.52,0,0,0-6.08,3.84c-.93.6-1.91,1.12-2.8,1.76a22.77,22.77,0,0,0-2.43,2.28,23.46,23.46,0,0,0-4.26,5.06,20.91,20.91,0,0,0-2.62,6.28,25.55,25.55,0,0,0-.86,6.21,32.41,32.41,0,0,0,1.26,7.24,27.59,27.59,0,0,0,1.12,3.66,4.19,4.19,0,0,1,.36,2c0,.56.34,1.05.33,1.6a.63.63,0,0,0,1.25,0,3.49,3.49,0,0,0-.23-1.1,6.48,6.48,0,0,1-.07-1.39,13.45,13.45,0,0,0-.89-2.64,55.63,55.63,0,0,1-1.58-6.48,16.81,16.81,0,0,1,.11-6.63c.5-2.15.76-4.48,1.88-6.43a27.42,27.42,0,0,1,9.31-9.83c1.95-1.18,3.71-2.67,5.72-3.76a46.18,46.18,0,0,1,6-2.7c5.05-1.85,10.45-2.12,15.73-2.88.79-.11.46-1.32-.33-1.21Z" transform="translate(-197.54 -240.49)"/></g><g class="cls-3"><path class="cls-4" d="M249.35,247.77c-3.19.7-6.07,2.56-9.21,3.5a19.78,19.78,0,0,0-4.09,1.26,37,37,0,0,0-4.24,2.44,29.39,29.39,0,0,1-3.94,2.4,33.26,33.26,0,0,0-3.73,2.76,15,15,0,0,0-2.83,2.79,16,16,0,0,0-1.24,1.8,15.32,15.32,0,0,1-1.22,2.17c-.51.62.37,1.5.89.89.82-1,1.25-2.27,2-3.33a14.83,14.83,0,0,1,3.4-3.49,28.37,28.37,0,0,1,3.57-2.61,20.89,20.89,0,0,0,3.57-2.15,37.72,37.72,0,0,1,4-2.36,19.77,19.77,0,0,1,4.37-1.42c3.06-.94,5.89-2.76,9-3.45.79-.17.46-1.38-.33-1.2Z" transform="translate(-197.54 -240.49)"/></g><g class="cls-3"><path class="cls-4" d="M274.83,246.29c-2.85.94-5.82,1.43-8.7,2.3a31.74,31.74,0,0,0-8,3.4,61.41,61.41,0,0,1-7.58,4.28,17.4,17.4,0,0,0-3.48,2c-1,.79-1.79,1.94-2.87,2.61a.63.63,0,0,0,.63,1.08,25.51,25.51,0,0,0,2.54-2.34,15.85,15.85,0,0,1,3.62-2.18,61.06,61.06,0,0,0,7.41-4.13,29.46,29.46,0,0,1,3.55-2,37.27,37.27,0,0,1,4.55-1.5c2.87-.86,5.84-1.35,8.7-2.3.76-.25.43-1.46-.34-1.2Z" transform="translate(-197.54 -240.49)"/></g><g class="cls-3"><path class="cls-4" d="M270.59,264.37a3.56,3.56,0,0,1,.76-1.53c.34-.55.66-1.11,1-1.67a9.27,9.27,0,0,1,2.31-2.82,26.17,26.17,0,0,1,6.69-3.44c2.24-.84,4.61-1.2,6.89-1.93,1.19-.38,2.32-.86,3.53-1.16s2.13-.86,3.27-1.07c.79-.14.45-1.35-.33-1.2-1.28.23-2.44.86-3.7,1.16s-2.63.94-4,1.33a59.36,59.36,0,0,0-7.82,2.41c-2.2,1-4.67,2.07-6.36,3.85a15.9,15.9,0,0,0-2.07,3.07c-.56.94-1.39,1.87-1.43,3,0,.8,1.22.8,1.25,0Z" transform="translate(-197.54 -240.49)"/></g><g class="cls-3"><path class="cls-4" d="M289.55,265c.12-1.14,1.16-2.1,1.89-2.91A17.29,17.29,0,0,1,294,259.7a57.82,57.82,0,0,1,6.74-4.3,34.66,34.66,0,0,1,7.56-2.91c2.77-.74,5.36-.56,8.18-.53a.63.63,0,0,0,0-1.25c-1.56,0-3.11-.16-4.67-.09a18.7,18.7,0,0,0-4.26.78,35.54,35.54,0,0,0-8.23,3.37,47.1,47.1,0,0,0-7.16,4.8c-1.54,1.3-3.63,3.28-3.86,5.39-.08.8,1.17.8,1.25,0Z" transform="translate(-197.54 -240.49)"/></g><g class="cls-3"><path class="cls-4" d="M312.2,261.71a3.45,3.45,0,0,0,1.56-1.32,15.43,15.43,0,0,1,2.89-2.45,28.39,28.39,0,0,1,6.45-4.09,44.78,44.78,0,0,1,7.14-2.51,26.11,26.11,0,0,1,3.74-.65,4.87,4.87,0,0,0,2.37-.59c.67-.45,0-1.53-.63-1.08a6.42,6.42,0,0,1-2.7.53,30,30,0,0,0-3.52.69,49,49,0,0,0-6.64,2.36,24.94,24.94,0,0,0-5.79,3.4c-1,.79-2,1.56-3,2.34a6.34,6.34,0,0,0-1.07,1c-.34.41-.59,1-1.12,1.17-.74.28-.42,1.49.33,1.2Z" transform="translate(-197.54 -240.49)"/></g><g class="cls-3"><path class="cls-4" d="M326.27,262.43c-.15-.56,1.59-1.74,2-2a30.41,30.41,0,0,1,3.71-2.05,22.31,22.31,0,0,1,8.24-2.27c.79-.06.8-1.31,0-1.25a24.21,24.21,0,0,0-9.54,2.77,21.06,21.06,0,0,0-4.09,2.55c-.74.63-1.8,1.47-1.5,2.58a.63.63,0,0,0,1.21-.33Z" transform="translate(-197.54 -240.49)"/></g><g class="cls-3"><path class="cls-4" d="M343.48,266.44c-.21-2.38,2-4.4,3.86-5.56a16.64,16.64,0,0,1,3.53-1.7,7.29,7.29,0,0,0,2.79-1.18c.59-.56-.3-1.44-.88-.89a3.29,3.29,0,0,1-1.39.61,17,17,0,0,0-1.7.57,17.35,17.35,0,0,0-3.72,2c-1.9,1.39-4,3.61-3.74,6.14.07.8,1.32.81,1.25,0Z" transform="translate(-197.54 -240.49)"/></g><g class="cls-3"><path class="cls-4" d="M355.62,274.44s0-.07,0-.11l0,.17a.48.48,0,0,1,.05-.18l-.06.15a.53.53,0,0,1,.08-.15l-.09.12a.93.93,0,0,1,.14-.14l-.13.1h0a.55.55,0,0,0,.18-.16.53.53,0,0,0,.11-.21.43.43,0,0,0,0-.25.48.48,0,0,0-.07-.23l-.1-.13a.61.61,0,0,0-.28-.16l-.16,0a.69.69,0,0,0-.32.08,2.75,2.75,0,0,0-.26.22l-.14.19-.05.08a1.54,1.54,0,0,0-.11.3,1.87,1.87,0,0,0,0,.25.27.27,0,0,0,0,.09.43.43,0,0,0,.05.25.49.49,0,0,0,.13.2.46.46,0,0,0,.2.13.6.6,0,0,0,.24.05l.17,0a.74.74,0,0,0,.27-.16l.1-.13a.59.59,0,0,0,.08-.32Z" transform="translate(-197.54 -240.49)"/></g><g class="cls-3"><path class="cls-4" d="M355.9,288.5c0-.17,0,.12,0-.07v-.15c0-.06,0,0,0-.07A1.6,1.6,0,0,1,356,288a3.81,3.81,0,0,1,.24-.67,11.78,11.78,0,0,1,.88-1.5,21.19,21.19,0,0,1,2.82-2.94c.57-.57-.32-1.45-.89-.89s-1.2,1.11-1.77,1.69a10.34,10.34,0,0,0-1.32,1.63A10.57,10.57,0,0,0,355,287a3.06,3.06,0,0,0-.29,1.83c.18.79,1.38.46,1.21-.33Z" transform="translate(-197.54 -240.49)"/></g><g class="cls-3"><path class="cls-4" d="M355.33,303.19c0-.15,0,.08,0,0s0-.11,0,0,.1-.15,0-.05l.08-.09a2.08,2.08,0,0,1,.46-.37c.35-.23.72-.42,1.09-.62a40.8,40.8,0,0,1,3.67-1.87.63.63,0,0,0,.22-.86.64.64,0,0,0-.85-.22c-.73.31-1.44.65-2.15,1s-1.12.64-1.7.94c-.82.44-2.08,1.05-2.09,2.14a.63.63,0,0,0,1.25,0Z" transform="translate(-197.54 -240.49)"/></g><g class="cls-3"><path class="cls-4" d="M353.22,321.59a5.1,5.1,0,0,0,1.85-.64,16.75,16.75,0,0,1,1.81-.74,11.44,11.44,0,0,1,3.45-1,.63.63,0,0,0,0-1.25,11.54,11.54,0,0,0-3.53.94c-.64.23-1.28.47-1.91.75a5.93,5.93,0,0,1-1.67.68.64.64,0,0,0-.62.62.63.63,0,0,0,.62.63Z" transform="translate(-197.54 -240.49)"/></g><g class="cls-3"><path class="cls-4" d="M356,335.92c1.54-1.59,3.62-2.38,5.51-3.45a.63.63,0,0,0-.63-1.08c-2,1.13-4.14,2-5.76,3.65-.56.58.33,1.46.88.88Z" transform="translate(-197.54 -240.49)"/></g><g class="cls-3"><path class="cls-4" d="M354.14,341.41c0-.62,1-1.14,1.42-1.49a10.42,10.42,0,0,1,2.48-1.6c1-.46,2.11-.86,3.19-1.26a12,12,0,0,1,3.25-.95c.8-.06.81-1.31,0-1.25a13.47,13.47,0,0,0-3.67,1c-1.26.46-2.51.93-3.72,1.5a14.73,14.73,0,0,0-2.62,1.81c-.71.56-1.63,1.19-1.58,2.21.05.8,1.3.8,1.25,0Z" transform="translate(-197.54 -240.49)"/></g><g class="cls-3"><path class="cls-4" d="M357.11,350.59c-.1-1.54,1.14-2.9,2.15-3.92a23.27,23.27,0,0,1,3.76-2.95c.67-.44,0-1.52-.63-1.07a23.56,23.56,0,0,0-4.18,3.32c-1.18,1.23-2.47,2.82-2.35,4.62.05.8,1.3.81,1.25,0Z" transform="translate(-197.54 -240.49)"/></g><g class="cls-3"><path class="cls-4" d="M357.38,355.76a3.74,3.74,0,0,1,.54-2.23c.35-.7.78-1.36,1.18-2a45.18,45.18,0,0,1,3.45-5.21c.51-.61-.37-1.5-.88-.88a48.82,48.82,0,0,0-3.77,5.66c-.91,1.5-2.06,3.18-1.72,5,.14.79,1.34.46,1.2-.33Z" transform="translate(-197.54 -240.49)"/></g><g class="cls-3"><path class="cls-4" d="M360.37,331.33a16.29,16.29,0,0,1,.44-5.57c.58-1.71,1.51-3.27,2.2-4.93.31-.74-.9-1.06-1.21-.33-.71,1.72-1.68,3.33-2.26,5.1a18.07,18.07,0,0,0-.42,5.73.63.63,0,0,0,1.25,0Z" transform="translate(-197.54 -240.49)"/></g><g class="cls-3"><path class="cls-4" d="M356.8,329.21c1-.68,1.2-1.88,1.69-2.88a14.33,14.33,0,0,1,2-3.15.64.64,0,0,0,0-.88.62.62,0,0,0-.88,0,15.06,15.06,0,0,0-2.06,3.12c-.26.52-.49,1.05-.71,1.6a2.3,2.3,0,0,1-.66,1.11.63.63,0,0,0-.23.85.64.64,0,0,0,.86.23Z" transform="translate(-197.54 -240.49)"/></g><g class="cls-3"><path class="cls-4" d="M357.22,312.52c2.11-2,3.33-4.77,4.84-7.24a.63.63,0,0,0-1.08-.63c-1.46,2.37-2.62,5-4.64,7-.58.56.3,1.45.88.89Z" transform="translate(-197.54 -240.49)"/></g><g class="cls-3"><path class="cls-4" d="M356.51,277.41a8.2,8.2,0,0,1,.8-3.42,28.76,28.76,0,0,0,1-3.53c.15-.78-1-1.12-1.21-.33a28.94,28.94,0,0,1-1,3.65,8.5,8.5,0,0,0-.81,3.63.65.65,0,0,0,.63.62c.3,0,.67-.29.62-.62Z" transform="translate(-197.54 -240.49)"/></g><g class="cls-3"><path class="cls-4" d="M351.18,265a5.1,5.1,0,0,1,.31-2c.22-.69.45-1.38.67-2.07a31.83,31.83,0,0,1,1.6-4.24c.35-.73-.73-1.36-1.08-.64A35.14,35.14,0,0,0,351,260.6c-.44,1.37-1.16,2.89-1,4.36.07.8,1.32.81,1.25,0Z" transform="translate(-197.54 -240.49)"/></g><g class="cls-3"><path class="cls-4" d="M330.7,263.81a3.3,3.3,0,0,0,1.32-.33c.5-.27,1-.66,1.43-1,1.12-.72,2.24-1.44,3.33-2.22a45,45,0,0,0,6.22-5c.56-.58-.33-1.46-.89-.88a41.17,41.17,0,0,1-5.79,4.64c-1,.69-1.95,1.37-3,2-.83.51-1.65,1.37-2.65,1.46-.79.07-.8,1.32,0,1.25Z" transform="translate(-197.54 -240.49)"/></g><g class="cls-3"><path class="cls-4" d="M317.38,257.39c-.09-.62.67-1.15,1.11-1.44a23.69,23.69,0,0,1,2.22-1.33,28.33,28.33,0,0,1,6.31-2.09c.78-.19.45-1.4-.33-1.21a27,27,0,0,0-7.24,2.57c-1.42.81-3.57,1.88-3.27,3.83.12.79,1.32.46,1.2-.33Z" transform="translate(-197.54 -240.49)"/></g><g class="cls-3"><path class="cls-4" d="M320.34,262.17c.41-2.77,3.4-4.33,5.64-5.56.71-.38.08-1.46-.63-1.08-2.5,1.37-5.76,3.18-6.21,6.3a.64.64,0,0,0,.43.77.63.63,0,0,0,.77-.43Z" transform="translate(-197.54 -240.49)"/></g><g class="cls-3"><path class="cls-4" d="M303.1,257.57a4.22,4.22,0,0,1,2.08-1.41c.91-.41,1.85-.72,2.79-1,2.89-1,5.77-2,8.68-2.89.76-.24.44-1.45-.33-1.2-3.17,1-6.31,2.08-9.45,3.15a25.17,25.17,0,0,0-2.65,1,4.72,4.72,0,0,0-2.2,1.71c-.39.71.69,1.34,1.08.63Z" transform="translate(-197.54 -240.49)"/></g><g class="cls-3"><path class="cls-4" d="M301.22,262.44a10.2,10.2,0,0,1,3-1.64,34.07,34.07,0,0,1,4.08-1.75c.76-.26.43-1.47-.33-1.21a36.77,36.77,0,0,0-4.38,1.88,10.69,10.69,0,0,0-3.3,1.84c-.56.58.32,1.46.88.88Z" transform="translate(-197.54 -240.49)"/></g><g class="cls-3"><path class="cls-4" d="M278.57,261.35c3.7-2.58,7.31-5.27,11-7.92s7.39-5.17,11.7-6.53c.76-.24.44-1.45-.33-1.21a42.08,42.08,0,0,0-11.68,6.44c-3.77,2.71-7.49,5.48-11.29,8.15-.65.45,0,1.54.63,1.07Z" transform="translate(-197.54 -240.49)"/></g><g class="cls-3"><path class="cls-4" d="M261.52,257.7a44.1,44.1,0,0,1,7.26-4.57,45.63,45.63,0,0,1,7.87-3.56c.76-.24.44-1.45-.33-1.21a48,48,0,0,0-8.17,3.69,46.37,46.37,0,0,0-7.52,4.77c-.62.5.27,1.38.89.88Z" transform="translate(-197.54 -240.49)"/></g><g class="cls-3"><path class="cls-4" d="M238.59,259.33c0-.4,1.55-1,1.89-1.24,1.28-.83,2.5-1.75,3.8-2.55,2.59-1.6,5.19-3.21,7.92-4.56.73-.35.09-1.43-.63-1.08a84.13,84.13,0,0,0-8.81,5.12c-1.2.79-2.34,1.75-3.62,2.42-.76.39-1.8.91-1.8,1.89a.63.63,0,0,0,1.25,0Z" transform="translate(-197.54 -240.49)"/></g><g class="cls-3"><path class="cls-4" d="M233.54,261.06c2.45-1.5,5-2.92,7.45-4.32a44,44,0,0,1,7.51-3.62c.76-.25.43-1.46-.33-1.2a44.46,44.46,0,0,0-7.57,3.6c-2.58,1.45-5.16,2.91-7.69,4.46a.63.63,0,0,0,.63,1.08Z" transform="translate(-197.54 -240.49)"/></g><g class="cls-3"><path class="cls-4" d="M221.09,257.8c2.6-2,5.61-3.09,8.57-4.37s6-2.65,8.91-4.22c.71-.39.08-1.47-.63-1.08-2.89,1.57-5.89,2.92-8.91,4.22s-6,2.42-8.57,4.37c-.63.48,0,1.56.63,1.08Z" transform="translate(-197.54 -240.49)"/></g><g class="cls-3"><path class="cls-4" d="M208.05,255.61c-.13-.73.76-1.31,1.28-1.64a21,21,0,0,1,2.11-1.08c2.44-1.2,5.2-1.23,7.86-1.52.79-.09.8-1.34,0-1.25-1.55.17-3.11.26-4.65.51a14.35,14.35,0,0,0-4.09,1.3c-1.6.77-4.08,1.83-3.72,4,.13.8,1.34.46,1.21-.33Z" transform="translate(-197.54 -240.49)"/></g><g class="cls-3"><path class="cls-4" d="M206.59,264.07c.24-2.15,1.79-4.13,2.94-5.89,1.28-2,2.6-3.91,3.79-5.94a.63.63,0,0,0-1.08-.63c-1.27,2.16-2.68,4.22-4,6.32-1.22,1.9-2.61,3.85-2.86,6.14-.09.8,1.16.8,1.25,0Z" transform="translate(-197.54 -240.49)"/></g><g class="cls-3"><path class="cls-4" d="M208.07,297.26c-.13-1.1-.5-2.15-.7-3.24-.27-1.54-.42-3.11-.62-4.66-.38-2.86-.78-5.71-1-8.59a129.56,129.56,0,0,1,0-17.29c0-.8-1.21-.8-1.25,0a129.56,129.56,0,0,0,0,17.29c.23,2.79.61,5.57,1,8.35.18,1.35.34,2.7.52,4s.67,2.72.84,4.1c.1.79,1.35.8,1.25,0Z" transform="translate(-197.54 -240.49)"/></g><g class="cls-3"><path class="cls-4" d="M213.09,283a1.45,1.45,0,0,0,.61-1.43,27.12,27.12,0,0,1,.38-3.71c.29-2,.65-4.08.88-6.13.52-4.62.86-9.25,1.41-13.86.09-.8-1.16-.79-1.25,0-.5,4.14-.85,8.29-1.26,12.44-.21,2.11-.53,4.2-.85,6.3l-.36,2.45a20,20,0,0,1-.19,2.86c-.63.49,0,1.58.63,1.08Z" transform="translate(-197.54 -240.49)"/></g><g class="cls-3"><path class="cls-4" d="M202.26,290.89c-1.78-1.53-1.65-4.92-1.55-7,.13-2.62.46-5.26.84-7.87a66.19,66.19,0,0,1,4.13-15.59c.3-.75-.91-1.07-1.21-.33a68.24,68.24,0,0,0-4.33,17.11,58.6,58.6,0,0,0-.71,8.15c0,2.08.24,5,1.94,6.46.61.52,1.5-.36.89-.89Z" transform="translate(-197.54 -240.49)"/></g><g class="cls-3"><path class="cls-4" d="M210.74,286.59c-.35-5.26-1.27-10.4-.78-15.71a30.4,30.4,0,0,1,4.84-13.31c.43-.68-.65-1.3-1.08-.63a31.83,31.83,0,0,0-4.91,13.1c-.69,5.58.32,11,.68,16.55,0,.8,1.3.81,1.25,0Z" transform="translate(-197.54 -240.49)"/></g><g class="cls-3"><path class="cls-4" d="M258.26,263.92c2-1.85,3.37-4.36,5.18-6.42,2-2.31,3.65-4.79,6.24-6.56,5.2-3.56,11.08-5.48,17-7.3a.63.63,0,0,0-.33-1.21c-6.07,1.86-12.05,3.81-17.34,7.43a18.08,18.08,0,0,0-3.24,2.75c-1,1.11-1.82,2.37-2.81,3.5s-1.88,2.15-2.72,3.31a21.58,21.58,0,0,1-2.91,3.62c-.59.54.29,1.43.89.88Z" transform="translate(-197.54 -240.49)"/></g><g class="cls-3"><path class="cls-4" d="M270.27,256.83a5.77,5.77,0,0,1,1.68-2.45,14.88,14.88,0,0,1,2.19-2,29.38,29.38,0,0,1,5.33-3.12c3.7-1.72,7.62-2.9,11.4-4.43.74-.29.41-1.5-.33-1.2-4.1,1.65-8.36,2.92-12.35,4.86a27,27,0,0,0-5.44,3.4,19,19,0,0,0-2.24,2.25,5.36,5.36,0,0,0-1.45,2.37c-.15.79,1.05,1.12,1.21.33Z" transform="translate(-197.54 -240.49)"/></g><g class="cls-3"><path class="cls-4" d="M288.06,260.17a18.86,18.86,0,0,0,4-3.52c1.49-1.48,3-2.95,4.56-4.33a18.38,18.38,0,0,1,4.89-3.41,37.42,37.42,0,0,1,5.95-1.71c.79-.19.45-1.39-.33-1.21a39.74,39.74,0,0,0-5.87,1.68,16.86,16.86,0,0,0-4.75,3.08q-2.34,2-4.54,4.23c-1.42,1.4-2.77,3.15-4.54,4.11-.71.38-.08,1.46.63,1.08Z" transform="translate(-197.54 -240.49)"/></g></g><g id="tete"><path class="cls-5" d="M328.83,400h-87a23.57,23.57,0,0,1-23.5-23.5V276a10,10,0,0,1,10-10h114a10,10,0,0,1,10,10V376.5A23.56,23.56,0,0,1,328.83,400Z" transform="translate(-197.54 -240.49)"/></g><g id="lunette"><line class="cls-6" x1="41.46" y1="82.85" x2="20.79" y2="73.51"/><path class="cls-7" d="M272.17,333a17.93,17.93,0,0,1-8.86,7.2L241.61,314a18.05,18.05,0,0,1,8.17-7.16Z" transform="translate(-197.54 -240.49)"/><path class="cls-8" d="M241.61,314l21.7,26.19A18,18,0,0,1,241.61,314Z" transform="translate(-197.54 -240.49)"/><line class="cls-6" x1="134.12" y1="82.28" x2="154.79" y2="72.94"/><path class="cls-9" d="M298.5,332.42a17.93,17.93,0,0,0,8.86,7.2l21.7-26.19a18.05,18.05,0,0,0-8.17-7.16Z" transform="translate(-197.54 -240.49)"/><path class="cls-8" d="M329.06,313.43l-21.7,26.19a18,18,0,0,0,21.7-26.19Z" transform="translate(-197.54 -240.49)"/><path class="cls-6" d="M274.73,320.15c6.62-5.86,16.11-5.93,21.21-.16" transform="translate(-197.54 -240.49)"/><line class="cls-6" x1="74.64" y1="92.51" x2="74.63" y2="92.5"/><path class="cls-8" d="M295.94,322.84a17.76,17.76,0,0,0,2.83,9.66l22.39-26.15a18,18,0,0,0-25.22,16.49Z" transform="translate(-197.54 -240.49)"/><path class="cls-8" d="M275,323.33a17.76,17.76,0,0,1-2.83,9.66l-22.39-26.15A18,18,0,0,1,275,323.33Z" transform="translate(-197.54 -240.49)"/></g><g id="NEZ"><path class="cls-10" d="M282.59,337.77a3.52,3.52,0,0,1-3.48,3.56" transform="translate(-197.54 -240.49)"/><path class="cls-10" d="M288,337.2c0,2.28,1.43,4.13,3.19,4.13" transform="translate(-197.54 -240.49)"/><path class="cls-10" d="M294.34,339.76c0-4.67-3.4-8.44-7.59-8.44h-2.87c-4.2,0-7.6,3.77-7.6,8.44" transform="translate(-197.54 -240.49)"/><ellipse class="cls-11" cx="82.47" cy="98.8" rx="0.9" ry="0.45"/><line class="cls-10" x1="81.23" y1="88.99" x2="80.2" y2="81.96"/><line class="cls-10" x1="94.72" y1="81.96" x2="93.68" y2="88.99"/><ellipse class="cls-11" cx="93.3" cy="98.8" rx="0.9" ry="0.45"/></g><g id="CICATRICE"><polygon class="cls-12" points="71.37 34.91 74.19 34.91 71.37 39.65 75.59 44.54 72.84 51.35 73.48 45.28 69.28 39.95 71.37 34.91"/></g><g id="bouche"><ellipse class="cls-13" cx="87.77" cy="136.18" rx="25.26" ry="3.56"/></g><g id="barbe"><path class="cls-14" d="M342,386.8a12.46,12.46,0,0,1-.37,3c-2.7-14-28.3-24.91-59.5-24.91-30.75,0-56.08,10.64-59.37,24.32a12.64,12.64,0,0,1-.24-2.45c0-15.11,26.74-27.35,59.74-27.35S342,371.69,342,386.8Z" transform="translate(-197.54 -240.49)"/><g class="cls-15"><path class="cls-2" d="M218.43,312.06v15.55l10.93,38.06A19.68,19.68,0,0,0,249,385.28H321.6a19.67,19.67,0,0,0,19.61-19.61l11.08-36.31v49.08a23.57,23.57,0,0,1-23.5,23.5h-87a23.56,23.56,0,0,1-23.5-23.5V277.94a10,10,0,0,1,10-10h114a10,10,0,0,1,10,10v27.2c-.42-1.5-1.06-2.42-2-2.42l-115,4.45C230.65,307.17,218.43,307.46,218.43,312.06Z" transform="translate(-197.54 -240.49)"/></g><g id="Calque_9" data-name="Calque 9"><g class="cls-16"><path class="cls-17" d="M220.19,348.06s0-5,0-5,0,5,0,5Z" transform="translate(-197.54 -240.49)"/></g><g class="cls-16"><path class="cls-17" d="M223.15,354.87s0-5,0-5,0,5,0,5Z" transform="translate(-197.54 -240.49)"/></g><g class="cls-16"><path class="cls-17" d="M220.48,359.61s0-5,0-5,0,5,0,5Z" transform="translate(-197.54 -240.49)"/></g><g class="cls-16"><path class="cls-17" d="M220.19,368.8s0-5,0-5,0,5,0,5Z" transform="translate(-197.54 -240.49)"/></g><g class="cls-16"><path class="cls-17" d="M225.22,364.35s0-5,0-5,0,5,0,5Z" transform="translate(-197.54 -240.49)"/></g><g class="cls-16"><path class="cls-17" d="M222.56,370s0-5,0-5,0,5,0,5Z" transform="translate(-197.54 -240.49)"/></g><g class="cls-16"><path class="cls-17" d="M224.63,364.06s0-5,0-5,0,5,0,5Z" transform="translate(-197.54 -240.49)"/></g><g class="cls-16"><path class="cls-17" d="M226.41,371.46s0-5,0-5,0,5,0,5Z" transform="translate(-197.54 -240.49)"/></g><g class="cls-16"><path class="cls-17" d="M222.85,373.83s0-5,0-5,0,5,0,5Z" transform="translate(-197.54 -240.49)"/></g><g class="cls-16"><path class="cls-17" d="M219,379.17s0-5,0-5,0,5,0,5Z" transform="translate(-197.54 -240.49)"/></g><g class="cls-16"><path class="cls-17" d="M224,381.54s0-5,0-5,0,5,0,5Z" transform="translate(-197.54 -240.49)"/></g><g class="cls-16"><path class="cls-17" d="M222,380.06s0-5,0-5,0,5,0,5Z" transform="translate(-197.54 -240.49)"/></g><g class="cls-16"><path class="cls-17" d="M219.3,380.06s0-5,0-5,0,5,0,5Z" transform="translate(-197.54 -240.49)"/></g><g class="cls-16"><path class="cls-17" d="M227.59,379.46s0-5,0-5,0,5,0,5Z" transform="translate(-197.54 -240.49)"/></g><g class="cls-16"><path class="cls-17" d="M225.52,384.8s0-5,0-5,0,5,0,5Z" transform="translate(-197.54 -240.49)"/></g><g class="cls-16"><path class="cls-17" d="M231.44,386s0-5,0-5,0,5,0,5Z" transform="translate(-197.54 -240.49)"/></g><g class="cls-16"><path class="cls-17" d="M225.52,390.13s0-5,0-5,0,5,0,5Z" transform="translate(-197.54 -240.49)"/></g><g class="cls-16"><path class="cls-17" d="M222.56,387.76s0-5,0-5,0,5,0,5Z" transform="translate(-197.54 -240.49)"/></g><g class="cls-16"><path class="cls-17" d="M227.89,388.94s0-5,0-5,0,5,0,5Z" transform="translate(-197.54 -240.49)"/></g><g class="cls-16"><path class="cls-17" d="M229.37,383.61s0-5,0-5,0,5,0,5Z" transform="translate(-197.54 -240.49)"/></g><g class="cls-16"><path class="cls-17" d="M231.44,382.13s0-5,0-5,0,5,0,5Z" transform="translate(-197.54 -240.49)"/></g><g class="cls-16"><path class="cls-17" d="M234.7,389.54s0-5,0-5,0,5,0,5Z" transform="translate(-197.54 -240.49)"/></g><g class="cls-16"><path class="cls-17" d="M230.85,394.57s0-5,0-5,0,5,0,5Z" transform="translate(-197.54 -240.49)"/></g><g class="cls-16"><path class="cls-17" d="M225.81,394s0-5,0-5,0,5,0,5Z" transform="translate(-197.54 -240.49)"/></g><g class="cls-16"><path class="cls-17" d="M233.22,397.24s0-5,0-5,0,5,0,5Z" transform="translate(-197.54 -240.49)"/></g><g class="cls-16"><path class="cls-17" d="M238.26,399.91s0-5,0-5,0,5,0,5Z" transform="translate(-197.54 -240.49)"/></g><g class="cls-16"><path class="cls-17" d="M244.19,398.13s0-5,0-5,0,5,0,5Z" transform="translate(-197.54 -240.49)"/></g><g class="cls-16"><path class="cls-17" d="M240.33,391.31s0-5,0-5,0,5,0,5Z" transform="translate(-197.54 -240.49)"/></g><g class="cls-16"><path class="cls-17" d="M235,391.91s0-5,0-5,0,5,0,5Z" transform="translate(-197.54 -240.49)"/></g><g class="cls-16"><path class="cls-17" d="M244.78,393.69s0-5,0-5,0,5,0,5Z" transform="translate(-197.54 -240.49)"/></g><g class="cls-16"><path class="cls-17" d="M238,392.5s0-5,0-5,0,5,0,5Z" transform="translate(-197.54 -240.49)"/></g><g class="cls-16"><path class="cls-17" d="M239.44,397.54s0-5,0-5,0,5,0,5Z" transform="translate(-197.54 -240.49)"/></g><g class="cls-16"><path class="cls-17" d="M241.81,399.91s0-5,0-5,0,5,0,5Z" transform="translate(-197.54 -240.49)"/></g><g class="cls-16"><path class="cls-17" d="M240.93,394.28s0-5,0-5,0,5,0,5Z" transform="translate(-197.54 -240.49)"/></g><g class="cls-16"><path class="cls-17" d="M246,394s0-5,0-5,0,5,0,5Z" transform="translate(-197.54 -240.49)"/></g><g class="cls-16"><path class="cls-17" d="M253.37,395.46s0-5,0-5,0,5,0,5Z" transform="translate(-197.54 -240.49)"/></g><g class="cls-16"><path class="cls-17" d="M248.93,399.61s0-5,0-5,0,5,0,5Z" transform="translate(-197.54 -240.49)"/></g><g class="cls-16"><path class="cls-17" d="M244.48,401.09s0-5,0-5,0,5,0,5Z" transform="translate(-197.54 -240.49)"/></g><g class="cls-16"><path class="cls-17" d="M248.63,393.69s0-5,0-5,0,5,0,5Z" transform="translate(-197.54 -240.49)"/></g><g class="cls-16"><path class="cls-17" d="M252.78,397.24s0-5,0-5,0,5,0,5Z" transform="translate(-197.54 -240.49)"/></g><g class="cls-16"><path class="cls-17" d="M261.67,399s0-5,0-5,0,5,0,5Z" transform="translate(-197.54 -240.49)"/></g><g class="cls-16"><path class="cls-17" d="M254.85,392.5s0-5,0-5,0,5,0,5Z" transform="translate(-197.54 -240.49)"/></g><g class="cls-16"><path class="cls-17" d="M248.93,391.31s0-5,0-5,0,5,0,5Z" transform="translate(-197.54 -240.49)"/></g><g class="cls-16"><path class="cls-17" d="M266.41,390.43s0-5,0-5,0,5,0,5Z" transform="translate(-197.54 -240.49)"/></g><g class="cls-16"><path class="cls-17" d="M260.78,393.09s0-5,0-5,0,5,0,5Z" transform="translate(-197.54 -240.49)"/></g><g class="cls-16"><path class="cls-17" d="M254.85,400.5s0-5,0-5,0,5,0,5Z" transform="translate(-197.54 -240.49)"/></g><g class="cls-16"><path class="cls-17" d="M257.81,397.54s0-5,0-5,0,5,0,5Z" transform="translate(-197.54 -240.49)"/></g><g class="cls-16"><path class="cls-17" d="M256.93,393.39s0-5,0-5,0,5,0,5Z" transform="translate(-197.54 -240.49)"/></g><g class="cls-16"><path class="cls-17" d="M265.81,402s0-5,0-5,0,5,0,5Z" transform="translate(-197.54 -240.49)"/></g><g class="cls-16"><path class="cls-17" d="M267,395.76s0-5,0-5,0,5,0,5Z" transform="translate(-197.54 -240.49)"/></g><g class="cls-16"><path class="cls-17" d="M275.3,396.35s0-5,0-5,0,5,0,5Z" transform="translate(-197.54 -240.49)"/></g><g class="cls-16"><path class="cls-17" d="M264.93,396.94s0-5,0-5,0,5,0,5Z" transform="translate(-197.54 -240.49)"/></g><g class="cls-16"><path class="cls-17" d="M270.56,399.91s0-5,0-5,0,5,0,5Z" transform="translate(-197.54 -240.49)"/></g><g class="cls-16"><path class="cls-17" d="M270,393.39h.6s0-.85,0-.73c0-.59,0-1.18,0-1.77s0-1.18,0-1.77c0-.07,0-.73,0-.73H270s0,.85,0,.73c0,.59,0,1.18,0,1.77s0,1.18,0,1.77c0,.07,0,.73,0,.73Z" transform="translate(-197.54 -240.49)"/></g><g class="cls-16"><path class="cls-17" d="M273.52,392.2s0-5,0-5,0,5,0,5Z" transform="translate(-197.54 -240.49)"/></g><g class="cls-16"><path class="cls-17" d="M286.56,393.39s0-5,0-5,0,5,0,5Z" transform="translate(-197.54 -240.49)"/></g><g class="cls-16"><path class="cls-17" d="M280.63,398.13s0-5,0-5,0,5,0,5Z" transform="translate(-197.54 -240.49)"/></g><g class="cls-16"><path class="cls-17" d="M278.85,393.39s0-5,0-5,0,5,0,5Z" transform="translate(-197.54 -240.49)"/></g><g class="cls-16"><path class="cls-17" d="M285.07,398.13s0-5,0-5,0,5,0,5Z" transform="translate(-197.54 -240.49)"/></g><g class="cls-16"><path class="cls-17" d="M287.15,402s0-5,0-5,0,5,0,5Z" transform="translate(-197.54 -240.49)"/></g><g class="cls-16"><path class="cls-17" d="M277.67,399.91s0-5,0-5,0,5,0,5Z" transform="translate(-197.54 -240.49)"/></g><g class="cls-16"><path class="cls-17" d="M280.93,392.8s0-5,0-5,0,5,0,5Z" transform="translate(-197.54 -240.49)"/></g><g class="cls-16"><path class="cls-17" d="M289.52,393.69s0-5,0-5,0,5,0,5Z" transform="translate(-197.54 -240.49)"/></g><g class="cls-16"><path class="cls-17" d="M291.3,398.43s0-5,0-5,0,5,0,5Z" transform="translate(-197.54 -240.49)"/></g><g class="cls-16"><path class="cls-17" d="M295.74,400.2s0-5,0-5,0,5,0,5Z" transform="translate(-197.54 -240.49)"/></g><g class="cls-16"><path class="cls-17" d="M297.52,396.06s0-5,0-5,0,5,0,5Z" transform="translate(-197.54 -240.49)"/></g><g class="cls-16"><path class="cls-17" d="M286.56,392.8s0-5,0-5,0,5,0,5Z" transform="translate(-197.54 -240.49)"/></g><g class="cls-16"><path class="cls-17" d="M295.15,392.2s0-5,0-5,0,5,0,5Z" transform="translate(-197.54 -240.49)"/></g><g class="cls-16"><path class="cls-17" d="M292.48,395.76s0-5,0-5,0,5,0,5Z" transform="translate(-197.54 -240.49)"/></g><g class="cls-16"><path class="cls-17" d="M291.59,391.31s0-5,0-5,0,5,0,5Z" transform="translate(-197.54 -240.49)"/></g><g class="cls-16"><path class="cls-17" d="M308.48,393.09s0-5,0-5,0,5,0,5Z" transform="translate(-197.54 -240.49)"/></g><g class="cls-16"><path class="cls-17" d="M302.26,399.61s0-5,0-5,0,5,0,5Z" transform="translate(-197.54 -240.49)"/></g><g class="cls-16"><path class="cls-17" d="M298.11,402.57s0-5,0-5,0,5,0,5Z" transform="translate(-197.54 -240.49)"/></g><g class="cls-16"><path class="cls-17" d="M300.19,392.8s0-5,0-5,0,5,0,5Z" transform="translate(-197.54 -240.49)"/></g><g class="cls-16"><path class="cls-17" d="M304,392.2s0-5,0-5,0,5,0,5Z" transform="translate(-197.54 -240.49)"/></g><g class="cls-16"><path class="cls-17" d="M306.11,397.24s0-5,0-5,0,5,0,5Z" transform="translate(-197.54 -240.49)"/></g><g class="cls-16"><path class="cls-17" d="M307,399.61s0-5,0-5,0,5,0,5Z" transform="translate(-197.54 -240.49)"/></g><g class="cls-16"><path class="cls-17" d="M313.22,396.06s0-5,0-5,0,5,0,5Z" transform="translate(-197.54 -240.49)"/></g><g class="cls-16"><path class="cls-17" d="M311.15,393.39s0-5,0-5,0,5,0,5Z" transform="translate(-197.54 -240.49)"/></g><g class="cls-16"><path class="cls-17" d="M308.78,400.2s0-5,0-5,0,5,0,5Z" transform="translate(-197.54 -240.49)"/></g><g class="cls-16"><path class="cls-17" d="M314.41,399.31s0-5,0-5,0,5,0,5Z" transform="translate(-197.54 -240.49)"/></g><g class="cls-16"><path class="cls-17" d="M318.26,401.39s0-5,0-5,0,5,0,5Z" transform="translate(-197.54 -240.49)"/></g><g class="cls-16"><path class="cls-17" d="M321.22,393.09s0-5,0-5,0,5,0,5Z" transform="translate(-197.54 -240.49)"/></g><g class="cls-16"><path class="cls-17" d="M314.7,391.91s0-5,0-5,0,5,0,5Z" transform="translate(-197.54 -240.49)"/></g><g class="cls-16"><path class="cls-17" d="M318.26,393.39s0-5,0-5,0,5,0,5Z" transform="translate(-197.54 -240.49)"/></g><g class="cls-16"><path class="cls-17" d="M334.26,394.87s0-5,0-5,0,5,0,5Z" transform="translate(-197.54 -240.49)"/></g><g class="cls-16"><path class="cls-17" d="M324.19,399.31s0-5,0-5,0,5,0,5Z" transform="translate(-197.54 -240.49)"/></g><g class="cls-16"><path class="cls-17" d="M320.33,399.91s0-5,0-5,0,5,0,5Z" transform="translate(-197.54 -240.49)"/></g><g class="cls-16"><path class="cls-17" d="M328.63,397.54s0-5,0-5,0,5,0,5Z" transform="translate(-197.54 -240.49)"/></g><g class="cls-16"><path class="cls-17" d="M321.81,399.61s0-5,0-5,0,5,0,5Z" transform="translate(-197.54 -240.49)"/></g><g class="cls-16"><path class="cls-17" d="M323.89,394s0-5,0-5,0,5,0,5Z" transform="translate(-197.54 -240.49)"/></g><g class="cls-16"><path class="cls-17" d="M323.89,391.31s0-5,0-5,0,5,0,5Z" transform="translate(-197.54 -240.49)"/></g><g class="cls-16"><path class="cls-17" d="M328.93,391.31s0-5,0-5,0,5,0,5Z" transform="translate(-197.54 -240.49)"/></g><g class="cls-16"><path class="cls-17" d="M327.15,396.94s0-5,0-5,0,5,0,5Z" transform="translate(-197.54 -240.49)"/></g><g class="cls-16"><path class="cls-17" d="M326.26,392.5s0-5,0-5,0,5,0,5Z" transform="translate(-197.54 -240.49)"/></g><g class="cls-16"><path class="cls-17" d="M332.19,390.72s0-5,0-5,0,5,0,5Z" transform="translate(-197.54 -240.49)"/></g><g class="cls-16"><path class="cls-17" d="M331.89,396.65s0-5,0-5,0,5,0,5Z" transform="translate(-197.54 -240.49)"/></g><g class="cls-16"><path class="cls-17" d="M327.44,401.69l.3-.3a1.55,1.55,0,0,0,0-.22c0-.17,0-.34,0-.51,0-.59,0-1.18,0-1.77s0-1.18,0-1.77v-.39c0-.11,0-.23,0-.34l-.3.3c0,.07,0,.14,0,.21v.52c0,.59,0,1.18,0,1.77s0,1.17,0,1.76v.39c0,.12,0,.23,0,.35Z" transform="translate(-197.54 -240.49)"/></g><g class="cls-16"><path class="cls-17" d="M336,399.91s0-5,0-5,0,5,0,5Z" transform="translate(-197.54 -240.49)"/></g><g class="cls-16"><path class="cls-17" d="M331,399.61s0-5,0-5,0,5,0,5Z" transform="translate(-197.54 -240.49)"/></g><g class="cls-16"><path class="cls-17" d="M336.63,393.09s0-5,0-5,0,5,0,5Z" transform="translate(-197.54 -240.49)"/></g><g class="cls-16"><path class="cls-17" d="M339.59,391.91s0-5,0-5,0,5,0,5Z" transform="translate(-197.54 -240.49)"/></g><g class="cls-16"><path class="cls-17" d="M339.59,384.5s0-5,0-5,0,5,0,5Z" transform="translate(-197.54 -240.49)"/></g><g class="cls-16"><path class="cls-17" d="M334.85,384.8s0-5,0-5,0,5,0,5Z" transform="translate(-197.54 -240.49)"/></g><g class="cls-16"><path class="cls-17" d="M337.22,388.35s0-5,0-5,0,5,0,5Z" transform="translate(-197.54 -240.49)"/></g><g class="cls-16"><path class="cls-17" d="M336.63,384.2s0-5,0-5,0,5,0,5Z" transform="translate(-197.54 -240.49)"/></g><g class="cls-16"><path class="cls-17" d="M339.59,385.39s0-5,0-5,0,5,0,5Z" transform="translate(-197.54 -240.49)"/></g><g class="cls-16"><path class="cls-17" d="M344.33,382.13s0-5,0-5,0,5,0,5Z" transform="translate(-197.54 -240.49)"/></g><g class="cls-16"><path class="cls-17" d="M342.56,376.5s0-5,0-5,0,5,0,5Z" transform="translate(-197.54 -240.49)"/></g><g class="cls-16"><path class="cls-17" d="M340.78,380.65s0-5,0-5,0,5,0,5Z" transform="translate(-197.54 -240.49)"/></g><g class="cls-16"><path class="cls-17" d="M343.44,388.65s0-5,0-5,0,5,0,5Z" transform="translate(-197.54 -240.49)"/></g><g class="cls-16"><path class="cls-17" d="M340.78,391.91s0-5,0-5,0,5,0,5Z" transform="translate(-197.54 -240.49)"/></g><g class="cls-16"><path class="cls-17" d="M339.59,396.65s0-5,0-5,0,5,0,5Z" transform="translate(-197.54 -240.49)"/></g><g class="cls-16"><path class="cls-17" d="M343.44,395.76s0-5,0-5,0,5,0,5Z" transform="translate(-197.54 -240.49)"/></g><g class="cls-16"><path class="cls-17" d="M344.33,392.2s0-5,0-5,0,5,0,5Z" transform="translate(-197.54 -240.49)"/></g><g class="cls-16"><path class="cls-17" d="M348.19,387.46s0-5,0-5,0,5,0,5Z" transform="translate(-197.54 -240.49)"/></g><g class="cls-16"><path class="cls-17" d="M348.78,382.72s0-5,0-5,0,5,0,5Z" transform="translate(-197.54 -240.49)"/></g><g class="cls-16"><path class="cls-17" d="M346.41,376.5s0-5,0-5,0,5,0,5Z" transform="translate(-197.54 -240.49)"/></g><g class="cls-16"><path class="cls-17" d="M344.33,381.83s0-5,0-5,0,5,0,5Z" transform="translate(-197.54 -240.49)"/></g><g class="cls-16"><path class="cls-17" d="M346.41,386s0-5,0-5,0,5,0,5Z" transform="translate(-197.54 -240.49)"/></g><g class="cls-16"><path class="cls-17" d="M347.3,389.83s0-5,0-5,0,5,0,5Z" transform="translate(-197.54 -240.49)"/></g><g class="cls-16"><path class="cls-17" d="M349.37,379.17s0-5,0-5,0,5,0,5Z" transform="translate(-197.54 -240.49)"/></g><g class="cls-16"><path class="cls-17" d="M349.67,381.83s0-5,0-5,0,5,0,5Z" transform="translate(-197.54 -240.49)"/></g><g class="cls-16"><path class="cls-17" d="M347.3,370.87s0-5,0-5,0,5,0,5Z" transform="translate(-197.54 -240.49)"/></g><g class="cls-16"><path class="cls-17" d="M344.63,366.43s0-5,0-5,0,5,0,5Z" transform="translate(-197.54 -240.49)"/></g><g class="cls-16"><path class="cls-17" d="M341.67,372.35s0-5,0-5,0,5,0,5Z" transform="translate(-197.54 -240.49)"/></g><g class="cls-16"><path class="cls-17" d="M348.78,369.09s0-5,0-5,0,5,0,5Z" transform="translate(-197.54 -240.49)"/></g><g class="cls-16"><path class="cls-17" d="M343.15,372.35s0-5,0-5,0,5,0,5Z" transform="translate(-197.54 -240.49)"/></g><g class="cls-16"><path class="cls-17" d="M344.93,371.17s0-5,0-5,0,5,0,5Z" transform="translate(-197.54 -240.49)"/></g><g class="cls-16"><path class="cls-17" d="M347.89,373.24s0-5,0-5,0,5,0,5Z" transform="translate(-197.54 -240.49)"/></g><g class="cls-16"><path class="cls-17" d="M348.48,376.2s0-5,0-5,0,5,0,5Z" transform="translate(-197.54 -240.49)"/></g><g class="cls-16"><path class="cls-17" d="M350,375s0-5,0-5,0,5,0,5Z" transform="translate(-197.54 -240.49)"/></g><g class="cls-16"><path class="cls-17" d="M350.23,374v.59c0,.59,0,1.18,0,1.77,0,.17,0,.35,0,.52a1.48,1.48,0,0,0,0,.21V377c0-.21,0-.43,0-.64v-4.13c0-.17,0-.34,0-.51a1.55,1.55,0,0,0,0-.22v.09c0,.21,0,.43,0,.64,0,.59,0,1.18,0,1.77Z" transform="translate(-197.54 -240.49)"/></g><g class="cls-16"><path class="cls-17" d="M351.44,379.46s0-5,0-5,0,5,0,5Z" transform="translate(-197.54 -240.49)"/></g><g class="cls-16"><path class="cls-17" d="M348.78,366.43s0-5,0-5,0,5,0,5Z" transform="translate(-197.54 -240.49)"/></g><g class="cls-16"><path class="cls-17" d="M345.81,360.5s0-5,0-5,0,5,0,5Z" transform="translate(-197.54 -240.49)"/></g><g class="cls-16"><path class="cls-17" d="M349.37,361.69s0-5,0-5,0,5,0,5Z" transform="translate(-197.54 -240.49)"/></g><g class="cls-16"><path class="cls-17" d="M349.37,356.06s0-5,0-5,0,5,0,5Z" transform="translate(-197.54 -240.49)"/></g><g class="cls-16"><path class="cls-17" d="M346.41,358.72l.29.59a1.48,1.48,0,0,0,0-.21c0-.17,0-.35,0-.52,0-.59,0-1.18,0-1.77s0-1.17,0-1.76v-.39c0-.12,0-.23,0-.35l-.29-.59a1.62,1.62,0,0,0,0,.22c0,.17,0,.34,0,.51,0,.59,0,1.18,0,1.77s0,1.18,0,1.77v.39c0,.11,0,.23,0,.34Z" transform="translate(-197.54 -240.49)"/></g><g class="cls-16"><path class="cls-17" d="M346.7,363.46s0-5,0-5,0,5,0,5Z" transform="translate(-197.54 -240.49)"/></g><g class="cls-16"><path class="cls-17" d="M348.19,365.54s0-5,0-5,0,5,0,5Z" transform="translate(-197.54 -240.49)"/></g><g class="cls-16"><path class="cls-17" d="M351.15,364.65s0-5,0-5,0,5,0,5Z" transform="translate(-197.54 -240.49)"/></g><g class="cls-16"><path class="cls-17" d="M349.67,369.09s0-5,0-5,0,5,0,5Z" transform="translate(-197.54 -240.49)"/></g><g class="cls-16"><path class="cls-17" d="M349.07,356.06s0-5,0-5,0,5,0,5Z" transform="translate(-197.54 -240.49)"/></g><g class="cls-16"><path class="cls-17" d="M349.07,349.54s0-5,0-5,0,5,0,5Z" transform="translate(-197.54 -240.49)"/></g><g class="cls-16"><path class="cls-17" d="M350.85,348.65s0-5,0-5,0,5,0,5Z" transform="translate(-197.54 -240.49)"/></g><g class="cls-16"><path class="cls-17" d="M238.85,372.35s0-5,0-5,0,5,0,5Z" transform="translate(-197.54 -240.49)"/></g><g class="cls-16"><path class="cls-17" d="M245.37,370.57s0-5,0-5,0,5,0,5Z" transform="translate(-197.54 -240.49)"/></g><g class="cls-16"><path class="cls-17" d="M252.78,367.61s0-5,0-5,0,5,0,5Z" transform="translate(-197.54 -240.49)"/></g><g class="cls-16"><path class="cls-17" d="M249.22,368.8s0-5,0-5,0,5,0,5Z" transform="translate(-197.54 -240.49)"/></g><g class="cls-16"><path class="cls-17" d="M260.48,366.72s0-5,0-5,0,5,0,5Z" transform="translate(-197.54 -240.49)"/></g><g class="cls-16"><path class="cls-17" d="M269.67,364.94s0-5,0-5,0,5,0,5Z" transform="translate(-197.54 -240.49)"/></g><g class="cls-16"><path class="cls-17" d="M278.85,364.94s0-5,0-5,0,5,0,5Z" transform="translate(-197.54 -240.49)"/></g><g class="cls-16"><path class="cls-17" d="M295.15,365.54s0-5,0-5,0,5,0,5Z" transform="translate(-197.54 -240.49)"/></g><g class="cls-16"><path class="cls-17" d="M305.52,367s0-5,0-5,0,5,0,5Z" transform="translate(-197.54 -240.49)"/></g><g class="cls-16"><path class="cls-17" d="M312,368.5s0-5,0-5,0,5,0,5Z" transform="translate(-197.54 -240.49)"/></g><g class="cls-16"><path class="cls-17" d="M316.78,370s0-5,0-5,0,5,0,5Z" transform="translate(-197.54 -240.49)"/></g><g class="cls-16"><path class="cls-17" d="M323.3,372.06s0-5,0-5,0,5,0,5Z" transform="translate(-197.54 -240.49)"/></g><g class="cls-16"><path class="cls-17" d="M333.07,378s0-5,0-5,0,5,0,5Z" transform="translate(-197.54 -240.49)"/></g><g class="cls-16"><path class="cls-17" d="M337.81,382.43s0-5,0-5,0,5,0,5Z" transform="translate(-197.54 -240.49)"/></g><g class="cls-16"><path class="cls-17" d="M336.63,380.06s0-5,0-5,0,5,0,5Z" transform="translate(-197.54 -240.49)"/></g><g class="cls-16"><path class="cls-17" d="M334.26,378.57s0-5,0-5,0,5,0,5Z" transform="translate(-197.54 -240.49)"/></g><g class="cls-16"><path class="cls-17" d="M327.15,374.72s0-5,0-5,0,5,0,5Z" transform="translate(-197.54 -240.49)"/></g><g class="cls-16"><path class="cls-17" d="M330.11,375.61s0-5,0-5,0,5,0,5Z" transform="translate(-197.54 -240.49)"/></g><g class="cls-16"><path class="cls-17" d="M325.07,373.83s0-5,0-5,0,5,0,5Z" transform="translate(-197.54 -240.49)"/></g><g class="cls-16"><path class="cls-17" d="M319.74,370.57s0-5,0-5,0,5,0,5Z" transform="translate(-197.54 -240.49)"/></g><g class="cls-16"><path class="cls-17" d="M315.3,368.8s0-5,0-5,0,5,0,5Z" transform="translate(-197.54 -240.49)"/></g><g class="cls-16"><path class="cls-17" d="M308.48,367.91s0-5,0-5,0,5,0,5Z" transform="translate(-197.54 -240.49)"/></g><g class="cls-16"><path class="cls-17" d="M302,365.83s0-5,0-5,0,5,0,5Z" transform="translate(-197.54 -240.49)"/></g><g class="cls-16"><path class="cls-17" d="M289.52,364.94s0-5,0-5,0,5,0,5Z" transform="translate(-197.54 -240.49)"/></g><g class="cls-16"><path class="cls-17" d="M282.11,364.06s0-5,0-5,0,5,0,5Z" transform="translate(-197.54 -240.49)"/></g><g class="cls-16"><path class="cls-17" d="M284.19,364.94s0-5,0-5,0,5,0,5Z" transform="translate(-197.54 -240.49)"/></g><g class="cls-16"><path class="cls-17" d="M278,364.65s0-5,0-5,0,5,0,5Z" transform="translate(-197.54 -240.49)"/></g><g class="cls-16"><path class="cls-17" d="M270.56,364.94s0-5,0-5,0,5,0,5Z" transform="translate(-197.54 -240.49)"/></g><g class="cls-16"><path class="cls-17" d="M273.81,365.24s0-5,0-5,0,5,0,5Z" transform="translate(-197.54 -240.49)"/></g><g class="cls-16"><path class="cls-17" d="M264.93,365.83s0-5,0-5,0,5,0,5Z" transform="translate(-197.54 -240.49)"/></g><g class="cls-16"><path class="cls-17" d="M257.52,366.43s0-5,0-5,0,5,0,5Z" transform="translate(-197.54 -240.49)"/></g><g class="cls-16"><path class="cls-17" d="M252.78,368.2s0-5,0-5,0,5,0,5Z" transform="translate(-197.54 -240.49)"/></g></g></g><g id="vetement"><path class="cls-18" d="M236.9,409.56s-7.76,8.21-19.21,19.68-1.19,87.51-4.26,96.89c-4.05,12.33,0,14.68,3,37s-.36,18,3.58,37.9a253.83,253.83,0,0,1,2.64,51.91c-1.1,17.06,0,12.67-1.86,34.54-2.25,25.94-.21-18.75-5.22-11.26s18.32,43.94,37.36,49.53,53.35-3.43,89-8.23,2.44-52.56,16.82-95.24c6.59-19.69,5.4-30.22,7-53.43.58-8.72,5.73-11.11,2.55-29.9-3.58-22,1.82-.53-12.31-104.28C352.8,411.52,329.19,410,329.19,410Z" transform="translate(-197.54 -240.49)"/><polygon class="cls-19" points="64.08 161.55 107.83 161.55 101.02 242.48 85.49 268.43 71.55 241.14 64.08 161.55"/><path class="cls-20" d="M261.63,402s-27.7,2.18-32.24,13.8,37.78,54,37.78,54Z" transform="translate(-197.54 -240.49)"/><path class="cls-20" d="M305.4,402s27.72,2.18,32.24,13.8-37.78,54-37.78,54Z" transform="translate(-197.54 -240.49)"/><polygon class="cls-20" points="78.46 160.55 69.11 168.73 78.46 183.55 93.21 183.55 103.04 168.73 93.21 160.55 78.46 160.55"/><polygon class="cls-20" points="78.19 184.55 75.38 232.95 86.08 249.79 95.14 232.95 93.46 184.55 78.19 184.55"/><polygon class="cls-21" points="77.73 192.92 77.35 199.6 93.85 207.11 93.85 200.01 77.73 192.92"/><polygon class="cls-21" points="77.01 206.3 76.64 212.98 94.56 220.49 94.56 213.4 77.01 206.3"/><polygon class="cls-21" points="76.15 219.02 75.72 225.74 95.14 233.26 95.14 226.16 76.15 219.02"/><line class="cls-22" x1="85.56" y1="268.55" x2="84.85" y2="418.55"/><path class="cls-23" d="M246.85,572.52l9.86,17.17L247,602.28s-7.6-7.43-8.4-12.59a127.32,127.32,0,0,1,0-15.87Z" transform="translate(-197.54 -240.49)"/><path class="cls-24" d="M225.69,494.27s10.11,54.57,20.07,63.43-17.09,58.48-17.09,58.48l4.67,3.39,29-37.32,2.73,2.52-28.75,37.28-3-2.46" transform="translate(-197.54 -240.49)"/><path class="cls-23" d="M324.76,572.52l-9.69,17.17,9.69,12.59s7.65-7.43,8.39-12.59a123.59,123.59,0,0,0,0-15.87Z" transform="translate(-197.54 -240.49)"/><path class="cls-24" d="M345.92,494.27s-10.05,54.57-20,63.47S343,616.22,343,616.22l-4.67,3.4-29-37.34-2.73,2.52,28.76,37.28,3-2.49" transform="translate(-197.54 -240.49)"/><circle class="cls-24" cx="88.64" cy="285.18" r="5.29"/><circle class="cls-24" cx="89.18" cy="365.45" r="5.29"/><circle class="cls-24" cx="88.64" cy="312.39" r="5.29"/><circle class="cls-24" cx="89.18" cy="341.56" r="5.29"/><line class="cls-22" x1="31.08" y1="375.69" x2="25.04" y2="385.28"/><line class="cls-22" x1="145.14" y1="375.69" x2="157.16" y2="392.27"/></g></svg>