<svg id="Calque_7" data-name="Calque 7" xmlns="http://www.w3.org/2000/svg" viewBox="0 0 343.26 165.33"><defs><style>.cls-1{fill:#fff;}.cls-2{opacity:0.06;}.cls-3{fill:#b3b3b3;}.cls-4{opacity:0.18;}</style></defs><path class="cls-1" d="M854.29,238.63A72.92,72.92,0,0,0,776,208.54a82.61,82.61,0,0,0-96.32-9.68,72.76,72.76,0,0,0-79.15,39.34,53.41,53.41,0,1,0,36.13,98.88,72.88,72.88,0,0,0,43,4.79,82.64,82.64,0,0,0,80,1.63,72.87,72.87,0,0,0,58.45,4.33,57.85,57.85,0,1,0,36.2-109.2Z" transform="translate(-556.66 -187.7)"/><g class="cls-2"><path class="cls-3" d="M781,225a19,19,0,0,1,6.53,2.08c1,.53,2,1.12,3,1.72s1.84,1.35,2.78,2A46.18,46.18,0,0,1,802.51,241a61.32,61.32,0,0,1,6.22,12.07c.75,2.11,1.45,4.24,2.13,6.38s1,4.31,1.46,6.48c.2,1.09.43,2.18.61,3.26l.34,3.28c.21,2.18.39,4.36.51,6.54s0,4.36-.13,6.52-.17,4.34-.5,6.48-.66,4.28-1.1,6.41a60.17,60.17,0,0,1-1.49,6.31c-.66,2.09-1.36,4.15-2.16,6.2a56.08,56.08,0,0,1-2.72,6.05,61.5,61.5,0,0,1-2-6.33c-.57-2.09-1-4.15-1.46-6.2-.9-4.1-1.84-8.11-2.44-12.1-.13-1-.36-2-.56-3l-.55-2.94c-.36-2-.64-3.92-.94-5.87s-.75-3.84-1.07-5.76l-.45-2.89c-.17-.95-.4-1.88-.58-2.82-.39-1.88-.7-3.79-1-5.67s-.86-3.7-1.22-5.58c-.16-1-.42-1.85-.66-2.76s-.46-1.83-.68-2.76c-.36-1.9-1-3.62-1.49-5.49l-.37-1.39c-.13-.47-.31-.89-.45-1.34-.3-.9-.6-1.81-.88-2.75s-.68-1.78-1-2.71-.63-1.87-1.05-2.74-.78-1.79-1.16-2.74-.89-1.78-1.32-2.73A47.85,47.85,0,0,0,781,225Z" transform="translate(-556.66 -187.7)"/></g><g class="cls-4"><path class="cls-3" d="M570.42,306.12a26.19,26.19,0,0,1-2.58-5.16,33.63,33.63,0,0,1-1.57-5.43,40.26,40.26,0,0,1-.66-11.23,44.41,44.41,0,0,1,7.71-21.48,39.55,39.55,0,0,1,18.38-14.76,30.62,30.62,0,0,1,11.79-2,25.31,25.31,0,0,1,5.83.91,23.77,23.77,0,0,1,2.76,1,19.84,19.84,0,0,1,2.6,1.42c-.83.61-1.62,1.08-2.38,1.6s-1.49,1-2.19,1.52-1.38,1-2,1.51-1.27,1-1.86,1.5a73,73,0,0,0-6.37,6,109.16,109.16,0,0,0-10.09,12.66c-3.1,4.47-6,9.23-9.08,14.44L576,296.87l-.64,1.09c-.21.36-.39.74-.62,1.11l-1.32,2.27C572.46,302.88,571.56,304.46,570.42,306.12Z" transform="translate(-556.66 -187.7)"/></g></svg>