<svg id="Calque_7" data-name="Calque 7" xmlns="http://www.w3.org/2000/svg" viewBox="0 0 176.94 429.62"><defs><style>.cls-1,.cls-10,.cls-7{fill:#1e1e1c;}.cls-1,.cls-2,.cls-3,.cls-4,.cls-6{stroke:#1e1e1c;}.cls-1,.cls-12,.cls-2,.cls-3,.cls-4,.cls-5,.cls-6,.cls-7,.cls-8,.cls-9{stroke-miterlimit:10;}.cls-1,.cls-12,.cls-2,.cls-3,.cls-5,.cls-6,.cls-7,.cls-9{stroke-width:0.25px;}.cls-11,.cls-2,.cls-9{fill:#fff;}.cls-3{fill:#6c1323;}.cls-4{fill:#eab044;stroke-width:0.15px;}.cls-12,.cls-5{fill:none;}.cls-5,.cls-7{stroke:#585857;}.cls-6{fill:#f1c089;}.cls-8{fill:#e94f1d;stroke:#010101;stroke-width:0.5px;}.cls-9{stroke:#946137;}.cls-12{stroke:#b1804a;}</style></defs><path class="cls-1" d="M310.21,268.59s-7.81,7.19-19.32,17.23-1.19,76.59-4.28,84.8c-4.07,10.79,0,12.84,3,32.38s-.36,15.75,3.6,33.17a193.74,193.74,0,0,1,2.66,45.43c-1.11,14.93,0,11.09-1.87,30.23-2.26,22.7-.21-16.41-5.25-9.86s18.42,38.46,37.56,43.35,53.64-3,89.51-7.2,2.45-46,16.91-83.35c6.62-17.24,5.43-26.45,7-46.77.58-7.63,5.76-9.72,2.56-26.16-3.6-19.25,1.83-.47-12.38-91.27C426.74,270.31,403,269,403,269Z" transform="translate(-266.5 -117.37)"/><polygon class="cls-2" points="70.87 139.61 108.36 139.61 102.53 208.97 89.22 231.21 77.27 207.82 70.87 139.61"/><path class="cls-3" d="M337.37,256.53s-23.74,1.87-27.63,11.83,32.38,46.3,32.38,46.3Z" transform="translate(-266.5 -117.37)"/><path class="cls-3" d="M374.89,256.53s23.75,1.87,27.63,11.83-32.38,46.3-32.38,46.3Z" transform="translate(-266.5 -117.37)"/><polygon class="cls-3" points="83.1 138.61 74.97 145.72 83.1 158.61 95.92 158.61 104.47 145.72 95.92 138.61 83.1 138.61"/><polygon class="cls-3" points="82.96 158.61 80.55 200.09 89.72 214.52 97.49 200.09 96.05 158.61 82.96 158.61"/><polygon class="cls-4" points="82.68 164.74 82.36 170.46 96.5 176.9 96.5 170.81 82.68 164.74"/><polygon class="cls-4" points="81.46 177.54 81.14 183.26 96.5 189.7 96.5 183.62 81.46 177.54"/><polygon class="cls-4" points="81.71 188.44 81.35 194.2 97.5 200.64 97.5 194.56 81.71 188.44"/><line class="cls-5" x1="89.5" y1="230.61" x2="88.89" y2="359.61"/><path class="cls-6" d="M324.71,402.66l8.45,14.72-8.31,10.79s-6.51-6.37-7.2-10.79a110.2,110.2,0,0,1,0-13.6Z" transform="translate(-266.5 -117.37)"/><path class="cls-7" d="M306.57,335.6s8.67,46.77,17.2,54.36-14.64,50.12-14.64,50.12l4,2.91L338,411l2.34,2.16-24.64,31.95L313.12,443" transform="translate(-266.5 -117.37)"/><path class="cls-6" d="M391.48,402.66l-8.31,14.72,8.31,10.79s6.55-6.37,7.19-10.79a106.41,106.41,0,0,0,0-13.6Z" transform="translate(-266.5 -117.37)"/><path class="cls-7" d="M409.61,335.6S401,382.37,392.45,390s14.64,50.12,14.64,50.12l-4,2.91-24.86-32-2.34,2.16,24.65,31.95L403.1,443" transform="translate(-266.5 -117.37)"/><circle class="cls-7" cx="91.92" cy="245.14" r="4.53"/><circle class="cls-7" cx="92.38" cy="313.93" r="4.53"/><circle class="cls-7" cx="91.92" cy="268.46" r="4.53"/><circle class="cls-7" cx="92.38" cy="293.46" r="4.53"/><line class="cls-5" x1="42.59" y1="322.71" x2="29.32" y2="343.76"/><line class="cls-5" x1="140.34" y1="322.71" x2="163.15" y2="351.13"/><path class="cls-6" d="M312.31,233.31c-6.42,41,77.29,35.24,87.05,18.79,8.64-14.61,9-48.68,11.53-63.93-32-46.22-32.45-49.56-85.49-26.32A350.5,350.5,0,0,0,312.31,233.31Z" transform="translate(-266.5 -117.37)"/><path class="cls-8" d="M433.37,157a29.51,29.51,0,0,0-35.89-21.28l-.13,0a29.08,29.08,0,0,0-8.74,3.84l-.54-.21a2.21,2.21,0,0,0-.24-1.2,27,27,0,0,0-53,3,29.48,29.48,0,0,0-44.6,32.09,3.84,3.84,0,0,0,0,.48,22.79,22.79,0,0,0-4.92.75,24.59,24.59,0,0,0-.48,47.52,14.77,14.77,0,1,0,27.37-1.14,13.47,13.47,0,0,0,3.78-23.63,7.06,7.06,0,0,0-.18-1.95A29.47,29.47,0,0,0,348,168.89c0-.19,0-.37,0-.56a27,27,0,0,0,13.78,3.57,22.23,22.23,0,0,0,19.42,10.48,29.17,29.17,0,0,0,13.15,9.6,23.23,23.23,0,0,0,5,21.25,11,11,0,1,0,19.21,8,22.82,22.82,0,0,0,4.2-.66,23.36,23.36,0,0,0,7.51-41.85A29.38,29.38,0,0,0,433.37,157Z" transform="translate(-266.5 -117.37)"/><ellipse class="cls-9" cx="70.21" cy="91.27" rx="11.08" ry="9.85"/><circle class="cls-10" cx="74.54" cy="93.13" r="4.29"/><circle class="cls-11" cx="76.73" cy="95.11" r="0.84"/><ellipse class="cls-9" cx="112.06" cy="91.27" rx="11.08" ry="9.85"/><circle class="cls-10" cx="107.74" cy="93.13" r="4.29"/><circle class="cls-11" cx="105.54" cy="95.11" r="0.84"/><circle class="cls-12" cx="91.14" cy="106.04" r="4.92"/><path class="cls-12" d="M330.56,240.64l6.28,3.27a45,45,0,0,0,41.51,0l6-3.18" transform="translate(-266.5 -117.37)"/></svg>